<svg width="32" height="32" viewBox="0 0 32 32" fill="none" xmlns="http://www.w3.org/2000/svg">
<path d="M24 2.66675H8C5.78667 2.66675 4 4.44008 4 6.62675V21.1734C4 23.3601 5.78667 25.1467 8 25.1467H9.01333C10.0667 25.1467 11.0933 25.5601 11.84 26.3067L14.12 28.5601C15.16 29.5867 16.84 29.5867 17.88 28.5601L20.16 26.3067C20.9067 25.5601 21.9333 25.1467 22.9867 25.1467H24C26.2133 25.1467 28 23.3601 28 21.1734V6.62675C28 4.44008 26.2133 2.66675 24 2.66675ZM16 7.40008C17.44 7.40008 18.6 8.57341 18.6 10.0001C18.6 11.4134 17.48 12.5467 16.0933 12.6001C16.04 12.6001 15.96 12.6001 15.8933 12.6001C14.4933 12.5467 13.3867 11.4134 13.3867 10.0001C13.4 8.57341 14.56 7.40008 16 7.40008ZM19.6667 19.5867C17.6533 20.9334 14.3467 20.9334 12.3333 19.5867C10.56 18.4134 10.56 16.4667 12.3333 15.2801C14.36 13.9334 17.6667 13.9334 19.6667 15.2801C21.44 16.4667 21.44 18.4001 19.6667 19.5867Z" fill="#50429B"/>
</svg>
