<svg width="32" height="32" viewBox="0 0 32 32" fill="none" xmlns="http://www.w3.org/2000/svg">
<path d="M29.3334 28.3333H28.0001V20C28.0001 13.3733 22.6267 8 16.0001 8C9.37341 8 4.00008 13.3733 4.00008 20V28.3333H2.66675C2.12008 28.3333 1.66675 28.7867 1.66675 29.3333C1.66675 29.88 2.12008 30.3333 2.66675 30.3333H29.3334C29.8801 30.3333 30.3334 29.88 30.3334 29.3333C30.3334 28.7867 29.8801 28.3333 29.3334 28.3333Z" fill="white"/>
<path d="M16 4.99999C15.4533 4.99999 15 4.54666 15 3.99999V2.66666C15 2.11999 15.4533 1.66666 16 1.66666C16.5467 1.66666 17 2.11999 17 2.66666V3.99999C17 4.54666 16.5467 4.99999 16 4.99999Z" fill="white"/>
<path d="M6.66667 7.66667C6.41334 7.66667 6.16 7.57334 5.96 7.37334L4.62667 6.04C4.24 5.65334 4.24 5.01334 4.62667 4.62667C5.01334 4.24 5.65334 4.24 6.04 4.62667L7.37334 5.96C7.76 6.34667 7.76 6.98667 7.37334 7.37334C7.17334 7.57334 6.92 7.66667 6.66667 7.66667Z" fill="white"/>
<path d="M25.3333 7.66667C25.08 7.66667 24.8267 7.57334 24.6267 7.37334C24.24 6.98667 24.24 6.34667 24.6267 5.96L25.96 4.62667C26.3467 4.24 26.9867 4.24 27.3733 4.62667C27.76 5.01334 27.76 5.65334 27.3733 6.04L26.04 7.37334C25.84 7.57334 25.5867 7.66667 25.3333 7.66667Z" fill="white"/>
</svg>
