<svg width="12" height="6" viewBox="0 0 12 6" fill="none" xmlns="http://www.w3.org/2000/svg">
<path d="M10.4485 0.991693C10.7293 0.687122 11.2037 0.667795 11.5083 0.948526C11.8129 1.22926 11.8322 1.70374 11.5515 2.00831L10.4485 0.991693ZM0.448525 2.00831C0.167795 1.70374 0.187122 1.22926 0.491693 0.948526C0.796264 0.667795 1.27074 0.687122 1.55147 0.991693L0.448525 2.00831ZM11.5515 2.00831C10.0392 3.649 8.97554 4.4575 7.48702 5.43348L6.66454 4.17908C8.07339 3.25533 9.03657 2.52356 10.4485 0.991693L11.5515 2.00831ZM1.55147 0.991693C2.96343 2.52356 3.92661 3.25533 5.33546 4.17908L4.51298 5.43348C3.02446 4.4575 1.96079 3.649 0.448525 2.00831L1.55147 0.991693ZM7.48702 5.43348C6.58479 6.02506 5.41521 6.02506 4.51298 5.43348L5.33546 4.17908C5.73826 4.44319 6.26174 4.44319 6.66454 4.17908L7.48702 5.43348Z" fill="#50429B"/>
</svg>
