<svg width="32" height="32" viewBox="0 0 32 32" fill="none" xmlns="http://www.w3.org/2000/svg">
<path d="M25.6537 7.44073H25.1203L20.6137 2.93406C20.2537 2.57406 19.667 2.57406 19.2937 2.93406C18.9337 3.29406 18.9337 3.88073 19.2937 4.25406L22.4803 7.44073H9.52032L12.707 4.25406C13.067 3.89406 13.067 3.3074 12.707 2.93406C12.347 2.57406 11.7603 2.57406 11.387 2.93406L6.89366 7.44073H6.36033C5.16033 7.44073 2.66699 7.44073 2.66699 10.8541C2.66699 12.1474 2.93366 13.0007 3.49366 13.5607C3.81366 13.8941 4.20033 14.0674 4.61366 14.1607C5.00033 14.2541 5.41366 14.2674 5.81366 14.2674H26.187C26.6003 14.2674 26.987 14.2407 27.3603 14.1607C28.4803 13.8941 29.3337 13.0941 29.3337 10.8541C29.3337 7.44073 26.8403 7.44073 25.6537 7.44073Z" fill="white"/>
<path d="M25.4536 16H6.54693C5.72026 16 5.09359 16.7333 5.22693 17.5467L6.34693 24.4C6.72026 26.6933 7.72026 29.3333 12.1603 29.3333H19.6403C24.1336 29.3333 24.9336 27.08 25.4136 24.56L26.7603 17.5867C26.9203 16.76 26.2936 16 25.4536 16ZM19.8403 21.4L15.5069 25.4C15.3203 25.5733 15.0803 25.6667 14.8269 25.6667C14.5736 25.6667 14.3203 25.5733 14.1203 25.3733L12.1203 23.3733C11.7336 22.9867 11.7336 22.3467 12.1203 21.96C12.5203 21.5733 13.1469 21.5733 13.5469 21.96L14.8669 23.28L18.4936 19.9333C18.8936 19.56 19.5336 19.5867 19.9069 19.9867C20.2803 20.4 20.2536 21.0267 19.8403 21.4Z" fill="white"/>
</svg>
