<svg width="32" height="32" viewBox="0 0 32 32" fill="none" xmlns="http://www.w3.org/2000/svg">
<path d="M25.6534 7.44H25.1201L20.6134 2.93333C20.2534 2.57333 19.6667 2.57333 19.2934 2.93333C18.9334 3.29333 18.9334 3.88 19.2934 4.25333L22.4801 7.44H9.52008L12.7067 4.25333C13.0667 3.89333 13.0667 3.30666 12.7067 2.93333C12.3467 2.57333 11.7601 2.57333 11.3867 2.93333L6.89341 7.44H6.36008C5.16008 7.44 2.66675 7.44 2.66675 10.8533C2.66675 12.1467 2.93341 13 3.49341 13.56C3.81341 13.8933 4.20008 14.0667 4.61341 14.16C5.00008 14.2533 5.41341 14.2667 5.81341 14.2667H26.1867C26.6001 14.2667 26.9867 14.24 27.3601 14.16C28.4801 13.8933 29.3334 13.0933 29.3334 10.8533C29.3334 7.44 26.8401 7.44 25.6534 7.44Z" fill="white"/>
<path d="M25.3999 16H6.49321C5.66655 16 5.03988 16.7333 5.17321 17.5467L6.29321 24.4C6.66655 26.6933 7.66655 29.3333 12.1065 29.3333H19.5865C24.0799 29.3333 24.8799 27.08 25.3599 24.56L26.7065 17.5867C26.8665 16.76 26.2399 16 25.3999 16ZM14.1465 24.6C14.1465 25.12 13.7332 25.5333 13.2265 25.5333C12.7065 25.5333 12.2932 25.12 12.2932 24.6V20.2C12.2932 19.6933 12.7065 19.2667 13.2265 19.2667C13.7332 19.2667 14.1465 19.6933 14.1465 20.2V24.6ZM19.8532 24.6C19.8532 25.12 19.4399 25.5333 18.9199 25.5333C18.4132 25.5333 17.9865 25.12 17.9865 24.6V20.2C17.9865 19.6933 18.4132 19.2667 18.9199 19.2667C19.4399 19.2667 19.8532 19.6933 19.8532 20.2V24.6Z" fill="white"/>
</svg>
