<svg width="16" height="16" viewBox="0 0 16 16" fill="none" xmlns="http://www.w3.org/2000/svg">
<path d="M2 4H2.05C2.28125 2.85906 3.29063 2 4.5 2C4.94063 2 5.37812 2.12812 5.77812 2.35156C6.19375 1.54844 7.03438 1 8 1C8.96562 1 9.80625 1.54875 10.2219 2.35156C10.5938 2.12812 11.0312 2 11.5 2C12.7094 2 13.6906 2.85906 13.95 4H14C15.1031 4 16 4.89687 16 6C16 6.36562 15.9031 6.70625 15.7312 7H0.267594C0.0974375 6.70625 3.125e-05 6.36562 3.125e-05 6C3.125e-05 4.89687 0.895625 4 2 4ZM3.125e-05 8.85625C3.125e-05 8.38437 0.38375 8 0.857188 8H15.1438C15.6156 8 16 8.38437 16 8.85625C16 11.0594 14.6125 12.9406 12.6656 13.6719L12.6094 14.0969C12.5469 14.5969 12.1219 15 11.6187 15H4.38125C3.87812 15 3.45312 14.5969 3.39062 14.0969L3.33437 13.6719C1.38625 12.9406 0 11.0594 0 8.85625H3.125e-05Z" fill="#50429B"/>
</svg>
