<svg width="32" height="32" viewBox="0 0 32 32" fill="none" xmlns="http://www.w3.org/2000/svg">
<path d="M23.4667 7.08036L15.9334 3.02703C15.1334 2.60036 14.1867 2.60036 13.3867 3.02703L5.86672 7.08036C5.32006 7.38703 4.97339 7.9737 4.97339 8.6137C4.97339 9.26703 5.30672 9.8537 5.86672 10.147L13.4001 14.2004C13.8001 14.4137 14.2401 14.5204 14.6667 14.5204C15.0934 14.5204 15.5467 14.4137 15.9334 14.2004L23.4667 10.147C24.0134 9.8537 24.3601 9.26703 24.3601 8.6137C24.3601 7.9737 24.0134 7.38703 23.4667 7.08036Z" fill="#FF8C21"/>
<path d="M12.1601 15.6135L5.16008 12.1201C4.61341 11.8401 4.00008 11.8801 3.48008 12.1868C2.97341 12.5068 2.66675 13.0535 2.66675 13.6535V20.2668C2.66675 21.4135 3.30675 22.4401 4.33341 22.9601L11.3334 26.4535C11.5734 26.5735 11.8401 26.6401 12.1067 26.6401C12.4134 26.6401 12.7334 26.5468 13.0134 26.3868C13.5201 26.0668 13.8267 25.5201 13.8267 24.9201V18.3068C13.8134 17.1601 13.1734 16.1335 12.1601 15.6135Z" fill="#FF8C21"/>
<path d="M26.6668 13.6535V16.9335C26.0268 16.7468 25.3468 16.6668 24.6668 16.6668C22.8535 16.6668 21.0801 17.2935 19.6801 18.4135C17.7601 19.9201 16.6668 22.2001 16.6668 24.6668C16.6668 25.3201 16.7468 25.9735 16.9201 26.6001C16.7201 26.5735 16.5201 26.4935 16.3335 26.3735C15.8268 26.0668 15.5201 25.5201 15.5201 24.9201V18.3068C15.5201 17.1601 16.1601 16.1335 17.1735 15.6135L24.1735 12.1201C24.7201 11.8401 25.3335 11.8801 25.8535 12.1868C26.3601 12.5068 26.6668 13.0535 26.6668 13.6535Z" fill="#FF8C21"/>
<path d="M29.3066 20.867C28.2133 19.5203 26.5466 18.667 24.6666 18.667C23.2533 18.667 21.9466 19.1603 20.92 19.987C19.5333 21.0803 18.6666 22.7737 18.6666 24.667C18.6666 26.547 19.52 28.2137 20.8666 29.307C21.8933 30.1603 23.2266 30.667 24.6666 30.667C26.1866 30.667 27.56 30.0937 28.6266 29.1737C29.8666 28.067 30.6666 26.467 30.6666 24.667C30.6666 23.227 30.16 21.8937 29.3066 20.867ZM26.04 25.0403C26.04 25.387 25.8533 25.7203 25.56 25.8937L23.68 27.0137C23.52 27.107 23.3466 27.1603 23.16 27.1603C22.8266 27.1603 22.4933 26.987 22.3066 26.6803C22.0266 26.2003 22.1733 25.587 22.6533 25.307L24.04 24.4803V22.8003C24.04 22.2537 24.4933 21.8003 25.04 21.8003C25.5866 21.8003 26.04 22.2537 26.04 22.8003V25.0403Z" fill="#FF8C21"/>
</svg>
