<svg width="32" height="32" viewBox="0 0 32 32" fill="none" xmlns="http://www.w3.org/2000/svg">
<path d="M25.3333 20C22.3867 20 20 22.3867 20 25.3333C20 26.3333 20.28 27.28 20.7733 28.08C21.6933 29.6267 23.3867 30.6667 25.3333 30.6667C27.28 30.6667 28.9733 29.6267 29.8933 28.08C30.3867 27.28 30.6667 26.3333 30.6667 25.3333C30.6667 22.3867 28.28 20 25.3333 20ZM28.0933 24.76L25.2533 27.3867C25.0667 27.56 24.8133 27.6533 24.5733 27.6533C24.32 27.6533 24.0667 27.56 23.8667 27.36L22.5467 26.04C22.16 25.6533 22.16 25.0133 22.5467 24.6267C22.9333 24.24 23.5733 24.24 23.96 24.6267L24.6 25.2667L26.7333 23.2933C27.1333 22.92 27.7733 22.9467 28.1467 23.3467C28.52 23.7467 28.4933 24.3733 28.0933 24.76Z" fill="white"/>
<path d="M29.3334 10.0667V10.6667C29.3334 11.4 28.7334 12 28.0001 12H4.00008C3.26675 12 2.66675 11.4 2.66675 10.6667V10.0533C2.66675 6.99999 5.13341 4.53333 8.18675 4.53333H23.8001C26.8534 4.53333 29.3334 7.01333 29.3334 10.0667Z" fill="white"/>
<path d="M2.66675 15.3334V21.9467C2.66675 25 5.13341 27.4667 8.18675 27.4667H16.5334C17.3067 27.4667 17.9734 26.8134 17.9067 26.04C17.7201 24 18.3734 21.7867 20.1867 20.0267C20.9334 19.2934 21.8534 18.7334 22.8534 18.4134C24.5201 17.88 26.1334 17.9467 27.5601 18.4267C28.4267 18.72 29.3334 18.0934 29.3334 17.1734V15.32C29.3334 14.5867 28.7334 13.9867 28.0001 13.9867H4.00008C3.26675 14 2.66675 14.6 2.66675 15.3334ZM10.6667 23H8.00008C7.45341 23 7.00008 22.5467 7.00008 22C7.00008 21.4534 7.45341 21 8.00008 21H10.6667C11.2134 21 11.6667 21.4534 11.6667 22C11.6667 22.5467 11.2134 23 10.6667 23Z" fill="white"/>
</svg>
