<svg width="24" height="24" viewBox="0 0 24 24" fill="none" xmlns="http://www.w3.org/2000/svg">
<path fill-rule="evenodd" clip-rule="evenodd" d="M11.9999 20.5714C16.7338 20.5714 20.5714 16.7338 20.5714 11.9999C20.5714 7.26604 16.7338 3.42847 11.9999 3.42847C7.26604 3.42847 3.42847 7.26604 3.42847 11.9999C3.42847 16.7338 7.26604 20.5714 11.9999 20.5714ZM12.9999 8.7856C12.9999 8.23331 12.5522 7.7856 11.9999 7.7856C11.4476 7.7856 10.9999 8.23331 10.9999 8.7856V12.8213C10.9999 13.5117 11.5595 14.0713 12.2499 14.0713H16.2856C16.8379 14.0713 17.2856 13.6236 17.2856 13.0713C17.2856 12.519 16.8379 12.0713 16.2856 12.0713H12.9999V8.7856Z" fill="#50429B"/>
</svg>
