<svg width="24" height="24" viewBox="0 0 24 24" fill="none" xmlns="http://www.w3.org/2000/svg">
<path d="M5.25 7.5H5.30625C5.56641 6.21645 6.70195 5.25 8.0625 5.25C8.5582 5.25 9.05039 5.39414 9.50039 5.64551C9.96797 4.74199 10.9137 4.125 12 4.125C13.0863 4.125 14.032 4.74234 14.4996 5.64551C14.918 5.39414 15.4102 5.25 15.9375 5.25C17.298 5.25 18.402 6.21645 18.6937 7.5H18.75C19.991 7.5 21 8.50898 21 9.75C21 10.1613 20.891 10.5445 20.6977 10.875H3.30104C3.10962 10.5445 3.00004 10.1613 3.00004 9.75C3.00004 8.50898 4.00758 7.5 5.25 7.5ZM3.00004 12.9633C3.00004 12.4324 3.43172 12 3.96434 12H20.0367C20.5676 12 21 12.4324 21 12.9633C21 15.4418 19.4391 17.5582 17.2488 18.3809L17.1855 18.859C17.1152 19.4215 16.6371 19.875 16.0711 19.875H7.92891C7.36289 19.875 6.88477 19.4215 6.81445 18.859L6.75117 18.3809C4.55953 17.5582 3 15.4418 3 12.9633H3.00004Z" fill="#50429B"/>
</svg>
