<svg width="60" height="44" viewBox="0 0 60 44" fill="none" xmlns="http://www.w3.org/2000/svg">
<path d="M45.219 15.275C44.275 12.4316 42.5851 9.89364 40.3259 7.92592L41.0341 7.06785L41.337 7.3179C41.6166 7.54936 41.8617 7.57815 42.0547 7.34439L42.5568 6.73571C42.7498 6.50211 42.6902 6.24909 42.4099 6.01763L39.7161 3.79464C39.4364 3.56317 39.2214 3.59032 39.0286 3.82392L38.5263 4.4326C38.3335 4.6662 38.3628 4.86344 38.6433 5.09491L38.9914 5.3823L38.2251 6.31078L38.517 6.55162C36.1362 4.97858 33.3965 4.03261 30.5523 3.80154L30.5171 2.25714L31.0403 2.2453C31.5244 2.23428 31.796 2.05019 31.7868 1.64666L31.7629 0.596109C31.7537 0.192571 31.4734 -0.0105964 30.9897 0.000425624L26.3378 0.106039C25.8535 0.117061 25.661 0.331086 25.6702 0.734624L25.6941 1.78517C25.7033 2.18871 25.9045 2.36194 26.3888 2.35091L26.9901 2.33726L27.0254 3.89745C24.3926 4.24215 21.8795 5.20807 19.6935 6.71547L19.082 5.87862L19.399 5.64699C19.6925 5.43313 19.7808 5.20282 19.6022 4.95803L19.1366 4.32106C18.958 4.07644 18.6982 4.07167 18.4047 4.28602L15.5846 6.34681C15.2909 6.56067 15.2643 6.77568 15.4429 7.0203L15.9083 7.65711C16.0871 7.9019 16.2854 7.92214 16.579 7.70762L16.9434 7.44128L17.6343 8.38572C15.4465 10.4645 13.8573 13.0928 13.0329 15.9959C12.2084 18.899 12.179 21.9703 12.9477 24.8886C13.7164 27.807 15.255 30.4653 17.4026 32.5855C19.5502 34.7058 22.2279 36.2102 25.1559 36.9415C28.0839 37.6727 31.1545 37.604 34.0468 36.7424C36.9391 35.8809 39.5469 34.2581 41.5974 32.0439C43.648 29.8296 45.0661 27.1052 45.7034 24.1553C46.3407 21.2055 46.1739 18.1386 45.2203 15.2753L45.219 15.275ZM42.6081 27.2141L41.3184 26.5303C41.2786 26.5091 41.2348 26.4966 41.1899 26.4936C41.145 26.4905 41.0999 26.4969 41.0576 26.5125C41.0154 26.528 40.9768 26.5522 40.9446 26.5837C40.9123 26.6151 40.8871 26.6529 40.8704 26.6948C40.8427 26.7716 40.8442 26.8559 40.8745 26.9317C40.9048 27.0075 40.9619 27.0695 41.0349 27.1061L42.3107 27.7827C41.1974 29.8198 39.6209 31.5667 37.7083 32.8824C37.6395 32.9925 37.5478 33.0863 37.4393 33.1575C37.3308 33.2286 37.2082 33.2754 37.0798 33.2945C35.0676 34.535 32.7899 35.2808 30.4337 35.471L30.4309 35.4185C30.2177 35.4395 30.0035 35.4469 29.7893 35.4409L29.793 35.509C29.742 35.5109 29.691 35.5145 29.64 35.5159C27.3382 35.5743 25.0542 35.0996 22.9664 34.1289L23.5741 32.9043C23.612 32.8318 23.622 32.748 23.6022 32.6686C23.5824 32.5892 23.5342 32.5199 23.4666 32.4738C23.4287 32.4497 23.3861 32.434 23.3416 32.4274C23.2972 32.4209 23.2518 32.4238 23.2086 32.4359C23.1653 32.448 23.125 32.4691 23.0904 32.4977C23.0558 32.5264 23.0276 32.562 23.0077 32.6023L22.3899 33.8471C20.3011 32.7702 18.4958 31.2156 17.1209 29.3096L18.244 28.5485C18.3126 28.5042 18.3625 28.4363 18.3843 28.3576C18.4061 28.2789 18.3983 28.195 18.3623 28.1217C18.3412 28.082 18.312 28.0471 18.2765 28.0194C18.2411 27.9917 18.2002 27.9718 18.1565 27.9609C18.1128 27.9501 18.0674 27.9485 18.0231 27.9564C17.9788 27.9643 17.9366 27.9814 17.8994 28.0066L16.757 28.7806C15.4679 26.8172 14.6614 24.5768 14.4034 22.2422L15.7499 22.133C15.8306 22.1281 15.9067 22.094 15.9639 22.0369C16.0211 21.9799 16.0555 21.9039 16.0607 21.8232C16.0627 21.7779 16.0551 21.7326 16.0382 21.6904C16.0212 21.6483 15.9955 21.6103 15.9627 21.5789C15.9298 21.5476 15.8906 21.5236 15.8477 21.5087C15.8048 21.4938 15.7593 21.4882 15.714 21.4924L14.3443 21.6034C14.1889 19.2609 14.5891 16.9148 15.5124 14.7563L16.7481 15.3283C16.7917 15.3484 16.8393 15.3585 16.8873 15.3579C16.9353 15.3572 16.9825 15.3458 17.0256 15.3245C17.0686 15.3032 17.1063 15.2725 17.1359 15.2347C17.1655 15.1969 17.1862 15.1529 17.1966 15.106C17.2112 15.0326 17.2003 14.9564 17.1657 14.89C17.1311 14.8236 17.0749 14.771 17.0064 14.7408L15.777 14.1718C16.788 12.0515 18.2842 10.1992 20.1444 8.76491L20.9516 9.88949C20.9765 9.92414 21.008 9.9535 21.0443 9.97584C21.0806 9.99818 21.121 10.0131 21.1631 10.0196C21.2052 10.0261 21.2482 10.0242 21.2896 10.0139C21.331 10.0037 21.3699 9.98523 21.404 9.95973C21.4714 9.90531 21.515 9.82689 21.5256 9.74098C21.5363 9.65506 21.5133 9.56836 21.4613 9.49911L20.6606 8.38375C21.8389 7.55057 23.1329 6.89477 24.5016 6.43729C25.8041 5.98816 27.166 5.73415 28.5429 5.68351V7.09828C28.5563 7.18789 28.6015 7.26969 28.6701 7.32882C28.7388 7.38794 28.8264 7.42046 28.917 7.42046C29.0076 7.42046 29.0952 7.38794 29.1639 7.32882C29.2326 7.26969 29.2777 7.18789 29.2912 7.09828V5.67315C31.5984 5.70883 33.8699 6.24781 35.9472 7.25243C36.0275 7.29273 36.0874 7.33698 36.1666 7.37844L35.451 8.6287C35.43 8.66507 35.4163 8.70525 35.4108 8.74692C35.4052 8.7886 35.408 8.83095 35.4189 8.87156C35.4298 8.91217 35.4485 8.95022 35.4742 8.98356C35.4998 9.01689 35.5317 9.04484 35.5682 9.0658C35.6154 9.09307 35.6689 9.10742 35.7235 9.10742C35.7802 9.10746 35.8359 9.0924 35.8848 9.06377C35.9338 9.03515 35.9742 8.994 36.002 8.94455L36.7128 7.6864C38.7617 8.86471 40.4983 10.5168 41.7774 12.5043L40.5384 13.2496C40.4671 13.2904 40.4134 13.3563 40.3877 13.4343C40.362 13.5124 40.3661 13.5972 40.3991 13.6725C40.4185 13.7128 40.446 13.7486 40.48 13.7776C40.5139 13.8066 40.5536 13.8282 40.5964 13.841C40.6392 13.8538 40.6842 13.8575 40.7285 13.8519C40.7729 13.8464 40.8155 13.8316 40.8538 13.8086L42.111 13.0518C43.3079 15.1001 44.0019 17.4031 44.1361 19.7716L42.6667 19.8246C42.6164 19.8227 42.5665 19.8333 42.5214 19.8556C42.4763 19.8778 42.4374 19.911 42.4084 19.952C42.3794 19.9931 42.361 20.0408 42.3551 20.0907C42.3491 20.1406 42.3558 20.1913 42.3744 20.238C42.3963 20.3016 42.4377 20.3567 42.4926 20.3955C42.5475 20.4344 42.6132 20.455 42.6805 20.4545H42.684L44.1596 20.4226C44.1792 22.7765 43.6479 25.1023 42.6081 27.2141Z" fill="#F5832B"/>
<path d="M29.1421 8.59424L28.3959 20.5211L22.0459 15.3629L27.9697 22.2625C28.0612 22.3692 28.1748 22.4548 28.3026 22.5135C28.4304 22.5722 28.5693 22.6025 28.7099 22.6024H28.9852C29.1184 22.6024 29.2502 22.5751 29.3724 22.5222C29.4946 22.4693 29.6047 22.3919 29.6959 22.2948C29.7871 22.1976 29.8574 22.0829 29.9025 21.9575C29.9476 21.8322 29.9665 21.6989 29.9581 21.566L29.1421 8.59424Z" fill="#F5832B"/>
<path d="M8.34842 25.625L8.35635 25.5933C8.2749 25.7254 8.19874 25.8575 8.125 25.9917H8.12808C8.20314 25.8687 8.276 25.7465 8.34842 25.625Z" fill="white"/>
<path d="M6.64854 33.4221C6.6415 33.191 6.63666 32.9453 6.63688 32.6885L6.58031 32.686L6.19531 34.224C6.34815 34.1583 6.47523 34.0443 6.55709 33.8995C6.63895 33.7546 6.67108 33.587 6.64854 33.4221Z" fill="white"/>
<path d="M7.43603 27.6553L7.40257 27.6537C7.27688 28.0299 7.1732 28.4068 7.08691 28.7795H7.09198C7.18696 28.399 7.3018 28.0238 7.43603 27.6553Z" fill="white"/>
<path d="M5.94043 35.2393C5.96798 35.2297 5.99457 35.2176 6.01985 35.2031L5.95022 35.2003L5.94043 35.2393Z" fill="white"/>
<path d="M11.2334 40.6688L11.4755 40.8592L11.6279 40.8545L11.2334 40.6688Z" fill="white"/>
<path d="M12.5441 42.0808C12.4534 41.9857 12.3649 41.8883 12.2788 41.7887C12.3562 41.8955 12.4452 41.9935 12.5441 42.0808Z" fill="white"/>
<path d="M14.0665 43.2698C13.8653 43.154 13.6716 43.0265 13.4834 42.8916C13.6618 43.0407 13.8576 43.1677 14.0665 43.2698Z" fill="white"/>
<path d="M60.0646 36.3076C60.7531 26.6282 49.3585 22.7895 49.3585 22.7895C47.5976 17.7987 43.3712 15.5589 42.9935 15.3751C42.9275 15.3122 42.9609 15.155 43.0595 15.1482L43.6008 15.089C43.9023 15.0803 44.1928 14.9745 44.4293 14.7875C44.6659 14.6004 44.8357 14.342 44.9136 14.0507C45.3067 12.5123 45.1909 10.8881 44.5834 9.42108C44.4627 9.16427 44.2663 8.95049 44.0207 8.80835C43.775 8.66622 43.4918 8.60252 43.209 8.62578L39.1227 8.89499C38.2146 8.95361 37.3326 9.22216 36.5459 9.6795L32.821 11.8565C32.6557 11.9497 32.5199 12.0876 32.4294 12.2545C32.3389 12.4213 32.2972 12.6103 32.3092 12.7997C32.3092 12.7997 32.383 13.7903 32.3832 13.7938C32.3975 14.0086 30.4114 14.2523 30.1934 14.3489C29.2597 14.7625 29.0708 16.2184 30.3 16.3769C30.9088 16.4555 31.3392 16.0666 31.801 15.77C32.2723 15.4674 32.797 15.209 33.296 14.9461C34.4156 14.3569 35.5651 13.8202 36.6859 13.2347C36.7964 13.1731 36.8899 13.0851 36.9582 12.9786C37.0265 12.8721 37.0674 12.7504 37.0773 12.6243C37.0932 12.535 37.1369 12.453 37.2022 12.39C37.2674 12.327 37.3509 12.2863 37.4407 12.2735C37.5305 12.2608 37.622 12.2767 37.7022 12.3191C37.7825 12.3614 37.8472 12.428 37.8873 12.5094C37.958 12.6611 37.9821 12.8304 37.9565 12.9959C37.9309 13.1613 37.8568 13.3154 37.7436 13.4387L33.8254 15.4555C33.7894 15.473 33.7589 15.5002 33.7373 15.5339C33.7158 15.5677 33.704 15.6068 33.7033 15.6469C33.7026 15.687 33.713 15.7264 33.7333 15.761C33.7537 15.7955 33.7832 15.8237 33.8186 15.8425C35.4612 16.8059 36.8709 18.1199 37.9472 19.6909C39.514 21.9728 40.8002 25.0147 39.9723 27.7913C39.1751 30.472 36.3474 32.4671 33.4015 32.4671C31.5721 32.4745 29.8148 31.7548 28.5161 30.4664C27.2173 29.178 26.4836 27.4265 26.4762 25.5972C26.4762 24.0398 26.9999 22.8582 27.8817 21.7076C28.5476 20.8388 27.8888 19.8931 26.7355 19.8931H14.2386C12.4651 19.8931 10.2172 20.7149 10.2172 22.3517V23.4395C9.11658 24.2143 8.6814 25.0843 8.12757 25.9929L7.50283 27.1239L7.43485 27.6566C7.30063 28.025 7.18579 28.4002 7.0908 28.7806L6.81476 29.7482L6.81455 30.1697C6.74102 30.6456 6.697 31.1083 6.66949 31.5508L6.63638 32.243L6.63647 32.6897C6.63647 32.9466 6.64109 33.1922 6.64813 33.4233C6.68313 34.5495 7.885 34.3089 7.0908 34.3408L6.63638 34.6949L6.19073 34.9969C9.87146 35.1451 6.05315 35.6529 6.05315 35.2057C5.51605 35.1859 5.87925 39.3688 5.99613 39.7342C6.14317 40.1941 6.25456 40.2667 6.6948 39.8443V39.81C7.35517 38.5333 9.26186 38.3189 10.8725 38.0774L10.8811 38.2462C10.8827 38.3808 10.8954 38.515 10.9192 38.6475C10.9529 38.9508 11.0096 39.2511 11.0889 39.5458C11.2216 39.9997 11.4024 40.4382 11.6282 40.8538L-2 41.2698L12.2053 41.703C12.3125 41.8351 12.4276 41.9586 12.5443 42.0807L0.797304 42.4387L13.3839 42.8223C13.6023 42.9847 13.8302 43.1341 14.0662 43.2696L2.97211 43.6077L15.8576 44.0015C17.7066 44.4994 19.6773 44.2475 21.3417 43.3006C22.1486 42.829 22.854 42.2019 23.417 41.4558C24.1332 40.4854 24.5784 39.342 24.7069 38.1428C24.7322 37.8967 24.7379 37.7686 24.7379 37.7686H24.7179C24.7363 37.115 24.6778 36.4615 24.5436 35.8216C29.9709 35.8216 35.9441 35.7115 41.3369 35.7115C41.3305 35.8343 41.3256 35.9028 41.3248 36.0267C41.3239 36.1037 41.327 36.1807 41.3342 36.2574C41.3562 37.1379 41.1696 37.8282 41.4003 38.5467C41.5473 39.0065 41.6952 39.0792 42.1355 38.6567V38.6292C42.5757 37.356 44.5742 37.1447 46.2211 36.9052L46.2233 37.1456C46.2239 37.2801 46.2355 37.4143 46.2579 37.5469C46.2912 37.8501 46.3473 38.1504 46.4259 38.4452C46.7078 39.4187 47.2147 40.3122 47.9057 41.0536C47.9328 41.0742 47.9586 41.0962 47.9832 41.1197C47.9832 41.1197 48.6282 41.6579 49.1279 42.0107C49.291 42.1151 49.458 42.2157 49.628 42.3055C49.9401 42.3893 50.3707 42.9971 52.1281 43.1065L52.4143 43.1153C53.8954 43.2602 55.3849 42.9407 56.6763 42.2009C57.4833 41.7292 58.1887 41.1022 58.7518 40.3561C59.4668 39.413 59.9126 38.2935 60.0417 37.117C60.067 36.8707 60.0732 36.8163 60.0732 36.8163L60.0646 36.467C60.0646 36.4496 60.0646 36.3076 60.0646 36.3076ZM21.1704 39.1252C21.007 39.6566 20.7295 40.146 20.3573 40.559C19.9661 40.9427 19.5022 41.2444 18.9928 41.4465C18.4834 41.6485 17.9388 41.7468 17.3909 41.7356C14.8521 41.7435 13.0193 40.0543 12.5703 37.7679H15.1237C15.1024 37.9014 15.0932 38.0365 15.0962 38.1716C15.1082 38.6684 15.3143 39.1407 15.6704 39.4873C16.0265 39.8339 16.5042 40.0271 17.0011 40.0257C17.2804 40.0224 17.5556 39.9585 17.8078 39.8384C18.0599 39.7183 18.283 39.545 18.4616 39.3303C18.6403 39.1156 18.7702 38.8647 18.8424 38.5949C18.9146 38.3251 18.9274 38.0429 18.8798 37.7677H21.4656C21.3933 38.2253 21.2943 38.6787 21.1704 39.1252ZM56.5048 37.9882C56.3416 38.5254 56.0642 39.021 55.6917 39.441C55.3066 39.8414 54.8465 40.162 54.3375 40.3845C53.8285 40.6069 53.2807 40.7269 52.7253 40.7375C50.1659 40.7453 48.3229 38.9614 47.8923 36.6697L47.8892 36.5211H50.2963C50.2802 36.6545 50.2728 36.7887 50.2742 36.9231C50.2854 37.4218 50.4906 37.8965 50.8464 38.2462C51.2022 38.5958 51.6803 38.7929 52.1792 38.7954C52.6817 38.7845 53.1606 38.5798 53.5156 38.2239C53.8706 37.868 54.0742 37.3887 54.0839 36.8861C54.0856 36.7641 54.0782 36.6421 54.0619 36.5211H56.7722C56.8975 36.5205 56.5374 37.889 56.5048 37.9882Z" fill="#6050B3"/>
<path d="M14.0658 43.2697L2.97168 43.6078L15.4526 43.9883L15.2483 43.8277C14.7416 43.6467 14.4532 43.438 14.0658 43.2697Z" fill="#F5832B"/>
<path d="M11.4763 40.8589L-1.99951 41.2696L12.2058 41.7028C12.2296 41.7321 12.2551 41.7598 12.2796 41.7885C12.1158 41.5785 11.93 41.3086 11.7986 41.1125L11.4763 40.8589Z" fill="#F5832B"/>
<path d="M0.797363 42.4386L13.3839 42.8223C13.4161 42.8462 13.4499 42.868 13.4827 42.8914C13.0918 42.5832 12.7088 42.2035 12.5444 42.0804L0.797363 42.4386Z" fill="#F5832B"/>
<path d="M37.7422 42.6668L52.1278 43.1055C50.3703 42.9955 49.9398 42.3884 49.6276 42.3045L37.7422 42.6668Z" fill="#F5832B"/>
<path d="M32.7476 40.3288L47.637 40.7833V40.7708C47.637 40.8665 47.7871 40.9616 47.9043 41.0528C47.5758 40.6992 47.2874 40.3105 47.0442 39.8936L32.7476 40.3288Z" fill="#F5832B"/>
<path d="M35.5571 41.498L48.9661 41.9065C49.0189 41.9422 49.0737 41.9754 49.1274 42.0098C48.6273 41.6576 47.9828 41.1187 47.9828 41.1187L35.5571 41.498Z" fill="#F5832B"/>
<path d="M5.37037 39.2529C4.76468 32.4229 7.79266 26.8348 10.215 26.2139L11.4262 29.9393L10.215 39.8738C7.79304 39.8738 7.18744 39.8738 6.58156 41.7365C5.37065 44.2201 5.1685 40.4947 5.37037 39.2529Z" fill="#6050B3"/>
<path d="M15.1434 20C11.543 20 10.2143 21.7778 10 22.6667V24H24.7872C24.7872 21.3333 26.0731 22.6667 26.716 21.3333C27.2303 20.2667 26.9303 20 26.716 20H15.1434Z" fill="#50429B"/>
<ellipse cx="44" cy="11" rx="1" ry="3" fill="#50429B"/>
<path d="M59 36C58.75 37.4286 58.4 39.8571 56 41" stroke="#A5ABDE" stroke-linecap="round"/>
<path d="M23 37C22.8333 38.4286 22.6 40.8571 21 42" stroke="#A5ABDE" stroke-linecap="round"/>
</svg>
