<svg width="42" height="30" viewBox="0 0 42 30" fill="none" xmlns="http://www.w3.org/2000/svg">
<path d="M31.9383 10.3318C31.2998 8.40857 30.1568 6.69194 28.6287 5.36099L29.1077 4.7806L29.3126 4.94974C29.5017 5.1063 29.6675 5.12577 29.798 4.96765L30.1376 4.55595C30.2682 4.39794 30.2279 4.22681 30.0383 4.07025L28.2162 2.56664C28.0271 2.41009 27.8816 2.42844 27.7512 2.58645L27.4115 2.99815C27.2811 3.15616 27.3009 3.28957 27.4906 3.44613L27.7261 3.64052L27.2078 4.26853L27.4052 4.43144C25.7948 3.36745 23.9417 2.72761 22.018 2.57132L21.9942 1.5267L22.348 1.51869C22.6755 1.51124 22.8592 1.38673 22.853 1.11378L22.8368 0.403201C22.8306 0.130253 22.641 -0.00716727 22.3138 0.000287887L19.1673 0.0717237C18.8397 0.0791789 18.7096 0.223942 18.7158 0.49689L18.7319 1.20747C18.7381 1.48042 18.8742 1.59758 19.2018 1.59013L19.6085 1.58089L19.6324 2.63619C17.8516 2.86934 16.1518 3.52267 14.6732 4.54226L14.2596 3.97623L14.474 3.81956C14.6725 3.6749 14.7323 3.51912 14.6114 3.35355L14.2965 2.92271C14.1757 2.75725 14 2.75402 13.8015 2.89901L11.894 4.2929C11.6954 4.43756 11.6773 4.58299 11.7982 4.74845L12.113 5.17918C12.2339 5.34475 12.368 5.35843 12.5666 5.21334L12.8131 5.03319L13.2804 5.672C11.8006 7.07804 10.7257 8.8558 10.168 10.8194C9.61039 12.783 9.5905 14.8604 10.1104 16.8344C10.6304 18.8083 11.671 20.6063 13.1236 22.0405C14.5763 23.4746 16.3875 24.4921 18.3679 24.9867C20.3483 25.4814 22.4253 25.4349 24.3816 24.8521C26.3379 24.2694 28.1018 23.1718 29.4888 21.6741C30.8757 20.1764 31.8349 18.3336 32.266 16.3384C32.697 14.3431 32.5842 12.2687 31.9392 10.332L31.9383 10.3318ZM30.1724 18.4073L29.3 17.9448C29.2731 17.9305 29.2435 17.922 29.2131 17.9199C29.1827 17.9178 29.1522 17.9222 29.1236 17.9327C29.0951 17.9432 29.069 17.9596 29.0472 17.9809C29.0254 18.0021 29.0083 18.0277 28.997 18.056C28.9783 18.108 28.9793 18.165 28.9998 18.2163C29.0203 18.2675 29.0589 18.3095 29.1083 18.3342L29.9712 18.7919C29.2182 20.1698 28.1518 21.3513 26.8582 22.2413C26.8117 22.3157 26.7496 22.3792 26.6762 22.4273C26.6028 22.4754 26.5199 22.507 26.4331 22.52C25.072 23.359 23.5315 23.8635 21.9377 23.9921L21.9359 23.9566C21.7917 23.9708 21.6467 23.9759 21.5019 23.9718L21.5043 24.0178C21.4699 24.0191 21.4354 24.0216 21.4009 24.0225C19.844 24.062 18.2991 23.741 16.8869 23.0844L17.298 22.2561C17.3236 22.2071 17.3304 22.1503 17.317 22.0966C17.3036 22.043 17.271 21.9961 17.2253 21.9649C17.1996 21.9486 17.1708 21.9379 17.1407 21.9335C17.1107 21.9291 17.08 21.931 17.0507 21.9392C17.0215 21.9474 16.9943 21.9617 16.9708 21.9811C16.9474 22.0005 16.9284 22.0245 16.9149 22.0518L16.497 22.8938C15.0841 22.1654 13.8631 21.1139 12.9331 19.8247L13.6928 19.3098C13.7392 19.2799 13.7729 19.2339 13.7877 19.1807C13.8024 19.1275 13.7971 19.0707 13.7728 19.0212C13.7585 18.9943 13.7387 18.9707 13.7148 18.952C13.6908 18.9333 13.6631 18.9198 13.6336 18.9124C13.6041 18.9051 13.5733 18.904 13.5433 18.9094C13.5134 18.9147 13.4849 18.9262 13.4597 18.9433L12.687 19.4668C11.815 18.1388 11.2695 16.6234 11.095 15.0444L12.0058 14.9705C12.0604 14.9672 12.1118 14.9441 12.1506 14.9055C12.1893 14.8669 12.2125 14.8155 12.216 14.761C12.2174 14.7303 12.2122 14.6996 12.2008 14.6711C12.1893 14.6426 12.1719 14.6169 12.1497 14.5957C12.1275 14.5745 12.101 14.5583 12.072 14.5482C12.043 14.5381 12.0121 14.5344 11.9815 14.5372L11.0551 14.6123C10.95 13.0278 11.2207 11.441 11.8451 9.98097L12.681 10.3679C12.7105 10.3815 12.7426 10.3883 12.7751 10.3879C12.8076 10.3874 12.8395 10.3797 12.8686 10.3653C12.8977 10.3509 12.9232 10.3301 12.9433 10.3045C12.9633 10.279 12.9773 10.2492 12.9843 10.2175C12.9942 10.1679 12.9868 10.1163 12.9634 10.0714C12.94 10.0265 12.902 9.99091 12.8557 9.97051L12.0242 9.58562C12.708 8.15151 13.72 6.89863 14.9782 5.92848L15.5242 6.68913C15.541 6.71257 15.5623 6.73242 15.5868 6.74753C15.6114 6.76264 15.6387 6.7727 15.6672 6.77713C15.6957 6.78155 15.7248 6.78025 15.7528 6.7733C15.7808 6.76635 15.8071 6.75388 15.8302 6.73664C15.8757 6.69983 15.9052 6.64679 15.9124 6.58868C15.9197 6.53056 15.9041 6.47192 15.8689 6.42508L15.3274 5.67066C16.1243 5.10711 16.9996 4.66353 17.9253 4.3541C18.8064 4.05032 19.7275 3.87851 20.6588 3.84426V4.80119C20.6679 4.8618 20.6984 4.91713 20.7449 4.95712C20.7913 4.99711 20.8506 5.01911 20.9119 5.01911C20.9732 5.01911 21.0324 4.99711 21.0789 4.95712C21.1253 4.91713 21.1559 4.8618 21.165 4.80119V3.83725C22.7255 3.86138 24.262 4.22594 25.667 4.90545C25.7213 4.93271 25.7618 4.96264 25.8154 4.99068L25.3314 5.83634C25.3171 5.86095 25.3079 5.88812 25.3042 5.91631C25.3004 5.9445 25.3023 5.97315 25.3097 6.00061C25.317 6.02808 25.3297 6.05382 25.347 6.07637C25.3644 6.09891 25.386 6.11781 25.4106 6.13199C25.4426 6.15044 25.4788 6.16015 25.5157 6.16014C25.554 6.16017 25.5917 6.14998 25.6248 6.13062C25.6579 6.11126 25.6853 6.08343 25.7041 6.04998L26.1849 5.19898C27.5707 5.99598 28.7453 7.11344 29.6104 8.45778L28.7725 8.96184C28.7242 8.98949 28.6879 9.034 28.6705 9.08681C28.6531 9.13963 28.6559 9.197 28.6782 9.24791C28.6913 9.27515 28.7099 9.29936 28.7329 9.31898C28.7559 9.3386 28.7827 9.35321 28.8117 9.36187C28.8406 9.37054 28.8711 9.37306 28.901 9.36928C28.931 9.3655 28.9599 9.35551 28.9858 9.33994L29.8361 8.82809C30.6457 10.2135 31.1151 11.7712 31.2059 13.3733L30.212 13.4091C30.178 13.4078 30.1442 13.415 30.1137 13.4301C30.0832 13.4451 30.0569 13.4675 30.0373 13.4953C30.0176 13.5231 30.0052 13.5553 30.0012 13.5891C29.9972 13.6229 30.0017 13.6571 30.0142 13.6887C30.0291 13.7317 30.0571 13.769 30.0942 13.7953C30.1314 13.8216 30.1758 13.8355 30.2213 13.8352H30.2237L31.2218 13.8136C31.235 15.4057 30.8757 16.9789 30.1724 18.4073Z" fill="#F5832B"/>
<path d="M21.0639 5.81299L20.5592 13.8801L16.2642 10.3912L20.2709 15.0581C20.3329 15.1302 20.4097 15.1881 20.4961 15.2278C20.5825 15.2675 20.6765 15.288 20.7716 15.2879H20.9578C21.0479 15.2879 21.137 15.2695 21.2197 15.2337C21.3024 15.1979 21.3769 15.1455 21.4385 15.0799C21.5002 15.0142 21.5477 14.9365 21.5782 14.8518C21.6087 14.767 21.6215 14.6769 21.6159 14.5869L21.0639 5.81299Z" fill="#F5832B"/>
<path d="M6.99975 17.3325L7.00511 17.311C6.95002 17.4004 6.89851 17.4897 6.84863 17.5805H6.85072C6.90149 17.4973 6.95077 17.4147 6.99975 17.3325Z" fill="white"/>
<path d="M5.84977 22.6063C5.84501 22.4499 5.84173 22.2838 5.84188 22.11L5.80362 22.1084L5.54321 23.1487C5.64659 23.1042 5.73255 23.0271 5.78792 22.9291C5.84328 22.8312 5.86501 22.7178 5.84977 22.6063Z" fill="white"/>
<path d="M6.38238 18.7058L6.35974 18.7047C6.27473 18.9592 6.2046 19.2141 6.14624 19.4661H6.14966C6.21391 19.2088 6.29159 18.955 6.38238 18.7058Z" fill="white"/>
<path d="M5.37085 23.8354C5.38948 23.829 5.40747 23.8208 5.42457 23.811L5.37747 23.8091L5.37085 23.8354Z" fill="white"/>
<path d="M8.95093 27.5079L9.1147 27.6367L9.21774 27.6336L8.95093 27.5079Z" fill="white"/>
<path d="M9.83737 28.463C9.77603 28.3986 9.71622 28.3328 9.65796 28.2654C9.71033 28.3376 9.77049 28.4039 9.83737 28.463Z" fill="white"/>
<path d="M10.8671 29.2671C10.731 29.1888 10.6 29.1026 10.4727 29.0114C10.5933 29.1122 10.7257 29.1981 10.8671 29.2671Z" fill="white"/>
<path d="M41.9797 24.558C42.4454 18.011 34.7383 15.4145 34.7383 15.4145C33.5472 12.0388 30.6885 10.5239 30.433 10.3995C30.3884 10.357 30.411 10.2506 30.4777 10.246L30.8438 10.206C31.0477 10.2001 31.2442 10.1286 31.4042 10.002C31.5642 9.8755 31.6791 9.70072 31.7318 9.50368C31.9977 8.46317 31.9193 7.36453 31.5085 6.37228C31.4268 6.19858 31.294 6.05398 31.1278 5.95784C30.9617 5.8617 30.7701 5.81861 30.5788 5.83435L27.8149 6.01644C27.2007 6.05609 26.6041 6.23773 26.072 6.54707L23.5525 8.01957C23.4407 8.0826 23.3488 8.17589 23.2876 8.28874C23.2264 8.40159 23.1982 8.52942 23.2063 8.65755C23.2063 8.65755 23.2562 9.32754 23.2564 9.32993C23.266 9.47524 21.9226 9.64006 21.7752 9.70542C21.1437 9.98518 21.0159 10.9699 21.8473 11.0771C22.2591 11.1303 22.5502 10.8672 22.8626 10.6666C23.1813 10.4619 23.5363 10.2871 23.8738 10.1094C24.631 9.71078 25.4085 9.34779 26.1667 8.95175C26.2414 8.91008 26.3047 8.85058 26.3509 8.77855C26.397 8.70652 26.4247 8.62419 26.4314 8.53889C26.4422 8.47849 26.4717 8.42303 26.5159 8.38043C26.56 8.33782 26.6165 8.31024 26.6772 8.30163C26.7379 8.29301 26.7999 8.3038 26.8541 8.33245C26.9084 8.3611 26.9522 8.40615 26.9793 8.46117C27.0271 8.56381 27.0434 8.67833 27.0261 8.79023C27.0088 8.90212 26.9587 9.00637 26.8821 9.08977L24.2319 10.4539C24.2075 10.4657 24.1869 10.4841 24.1723 10.5069C24.1577 10.5298 24.1497 10.5562 24.1493 10.5833C24.1488 10.6104 24.1558 10.6371 24.1696 10.6605C24.1834 10.6838 24.2033 10.7029 24.2273 10.7156C25.3383 11.3673 26.2918 12.2561 27.0198 13.3186C28.0796 14.8621 28.9495 16.9196 28.3896 18.7977C27.8503 20.6108 25.9377 21.9603 23.9451 21.9603C22.7078 21.9653 21.5191 21.4785 20.6407 20.6071C19.7622 19.7356 19.2659 18.5509 19.261 17.3136C19.261 16.2602 19.6152 15.461 20.2116 14.6827C20.662 14.0951 20.2164 13.4554 19.4364 13.4554H10.9836C9.78399 13.4554 8.26355 14.0112 8.26355 15.1184V15.8542C7.51911 16.3783 7.22476 16.9667 6.85016 17.5813L6.42759 18.3463L6.38161 18.7066C6.29083 18.9557 6.21316 19.2095 6.1489 19.4668L5.9622 20.1213L5.96205 20.4064C5.91232 20.7283 5.88254 21.0413 5.86393 21.3405L5.84154 21.8088L5.8416 22.1109C5.8416 22.2846 5.84473 22.4508 5.84949 22.6071C5.87316 23.3688 6.68609 23.2061 6.1489 23.2277L5.84154 23.4672L5.54011 23.6714C8.02971 23.7717 5.44705 24.1152 5.44705 23.8127C5.08376 23.7993 5.32943 26.6286 5.40848 26.8757C5.50794 27.1867 5.58328 27.2359 5.88106 26.9502V26.9269C6.32772 26.0634 7.61738 25.9184 8.70679 25.755L8.7126 25.8692C8.71369 25.9603 8.7223 26.0511 8.73836 26.1407C8.76119 26.3458 8.79956 26.5489 8.85315 26.7483C8.94293 27.0553 9.06522 27.3519 9.21792 27.633L0 27.9144L9.6083 28.2074C9.68081 28.2967 9.75868 28.3802 9.83759 28.4629L1.89206 28.705L10.4054 28.9645C10.5532 29.0743 10.7073 29.1753 10.867 29.267L3.36307 29.4957L12.0786 29.7621C13.3293 30.0988 14.6623 29.9284 15.788 29.288C16.3338 28.969 16.8109 28.5448 17.1917 28.0402C17.6762 27.3838 17.9773 26.6104 18.0642 25.7993C18.0813 25.6328 18.0852 25.5462 18.0852 25.5462H18.0717C18.0841 25.1041 18.0445 24.6621 17.9537 24.2292C21.6247 24.2292 25.6649 24.1548 29.3125 24.1548C29.3082 24.2379 29.3049 24.2842 29.3043 24.368C29.3037 24.4201 29.3059 24.4722 29.3107 24.524C29.3256 25.1196 29.1994 25.5865 29.3554 26.0725C29.4549 26.3835 29.5549 26.4326 29.8527 26.1469V26.1283C30.1505 25.2671 31.5022 25.1242 32.6162 24.9622L32.6177 25.1248C32.618 25.2158 32.6259 25.3065 32.641 25.3962C32.6636 25.6013 32.7015 25.8045 32.7546 26.0038C32.9453 26.6623 33.2882 27.2667 33.7556 27.7682C33.7739 27.7821 33.7914 27.797 33.808 27.8128C33.808 27.8128 34.2443 28.1768 34.5822 28.4155C34.6926 28.4861 34.8056 28.5541 34.9205 28.6149C35.1316 28.6716 35.4229 29.0827 36.6116 29.1567L36.8051 29.1626C37.8069 29.2607 38.8144 29.0445 39.6879 28.5442C40.2337 28.2251 40.7109 27.801 41.0918 27.2963C41.5754 26.6584 41.8769 25.9012 41.9642 25.1054C41.9814 24.9388 41.9855 24.9021 41.9855 24.9021L41.9797 24.6658C41.9797 24.654 41.9797 24.558 41.9797 24.558ZM15.6722 26.4637C15.5617 26.8232 15.374 27.1542 15.1222 27.4336C14.8576 27.6931 14.5438 27.8972 14.1993 28.0338C13.8547 28.1705 13.4864 28.237 13.1158 28.2294C11.3985 28.2348 10.1589 27.0922 9.85516 25.5457H11.5823C11.5679 25.636 11.5616 25.7274 11.5636 25.8188C11.5717 26.1548 11.7112 26.4742 11.952 26.7087C12.1929 26.9431 12.516 27.0738 12.8521 27.0728C13.041 27.0706 13.2272 27.0274 13.3977 26.9462C13.5683 26.865 13.7192 26.7477 13.84 26.6025C13.9608 26.4573 14.0487 26.2876 14.0975 26.1051C14.1464 25.9226 14.155 25.7317 14.1229 25.5456H15.8719C15.8229 25.8551 15.756 26.1618 15.6722 26.4637ZM39.5719 25.6947C39.4615 26.0581 39.2739 26.3933 39.0219 26.6774C38.7615 26.9482 38.4502 27.1651 38.106 27.3155C37.7617 27.466 37.3912 27.5472 37.0155 27.5543C35.2844 27.5596 34.0378 26.353 33.7465 24.8029L33.7444 24.7024H35.3725C35.3617 24.7926 35.3567 24.8834 35.3576 24.9743C35.3652 25.3116 35.504 25.6327 35.7446 25.8692C35.9853 26.1057 36.3087 26.239 36.6461 26.2407C36.986 26.2334 37.3099 26.0948 37.5501 25.8541C37.7902 25.6134 37.9279 25.2892 37.9344 24.9493C37.9356 24.8667 37.9306 24.7842 37.9196 24.7024H39.7528C39.8375 24.702 39.5939 25.6276 39.5719 25.6947Z" fill="#FF8C21"/>
<path d="M10.867 29.2671L3.36304 29.4958L11.805 29.7532L11.6668 29.6445C11.324 29.5221 11.129 29.381 10.867 29.2671Z" fill="#F5832B"/>
<path d="M9.11538 27.6365L0.000488281 27.9143L9.60879 28.2073C9.62487 28.2271 9.64214 28.2459 9.65867 28.2652C9.5479 28.1232 9.42224 27.9407 9.33335 27.808L9.11538 27.6365Z" fill="#F5832B"/>
<path d="M1.89233 28.705L10.4057 28.9645C10.4275 28.9807 10.4504 28.9955 10.4726 29.0113C10.2081 28.8028 9.94908 28.546 9.83786 28.4628L1.89233 28.705Z" fill="#F5832B"/>
<path d="M26.8811 28.8593L36.6113 29.1561C35.4226 29.0816 35.1314 28.671 34.9203 28.6143L26.8811 28.8593Z" fill="#F5832B"/>
<path d="M23.5029 27.2779L33.574 27.5853V27.5768C33.574 27.6416 33.6755 27.7059 33.7547 27.7676C33.5326 27.5284 33.3375 27.2655 33.173 26.9835L23.5029 27.2779Z" fill="#F5832B"/>
<path d="M25.4036 28.0688L34.4732 28.3451C34.5089 28.3692 34.546 28.3917 34.5823 28.415C34.2441 28.1767 33.8081 27.8123 33.8081 27.8123L25.4036 28.0688Z" fill="#F5832B"/>
<path d="M4.98514 26.5502C4.57546 21.9305 6.62355 18.1508 8.26202 17.7308L9.08126 20.2507L8.26202 26.9702C6.6238 26.9702 6.21419 26.9702 5.80438 28.2301C4.98533 29.91 4.8486 27.3902 4.98514 26.5502Z" fill="#50429B"/>
<path d="M11.5956 13.5278C9.16038 13.5278 8.26165 14.7303 8.1167 15.3315V16.2334H18.1186C18.1186 14.4297 18.9883 15.3315 19.4232 14.4297C19.7711 13.7082 19.5682 13.5278 19.4232 13.5278H11.5956Z" fill="#50429B"/>
<ellipse cx="31" cy="7.5" rx="1" ry="1.5" fill="#50429B"/>
<path d="M41.2596 24.35C41.0905 25.3162 40.8538 26.9589 39.2305 27.7319" stroke="white" stroke-linecap="round"/>
<path d="M16.9097 25.0264C16.7969 25.9926 16.6391 27.6353 15.5569 28.4083" stroke="white" stroke-linecap="round"/>
</svg>