<svg width="20" height="18" viewBox="0 0 18 18" fill="none" xmlns="http://www.w3.org/2000/svg">
<path d="M2.25 4.5H2.30625C2.56641 3.21645 3.70195 2.25 5.0625 2.25C5.5582 2.25 6.05039 2.39414 6.50039 2.64551C6.96797 1.74199 7.91367 1.125 9 1.125C10.0863 1.125 11.032 1.74234 11.4996 2.64551C11.918 2.39414 12.4102 2.25 12.9375 2.25C14.298 2.25 15.402 3.21645 15.6937 4.5H15.75C16.991 4.5 18 5.50898 18 6.75C18 7.16133 17.891 7.54453 17.6977 7.875H0.301043C0.109617 7.54453 3.51563e-05 7.16133 3.51563e-05 6.75C3.51563e-05 5.50898 1.00758 4.5 2.25 4.5ZM3.51563e-05 9.96328C3.51563e-05 9.43242 0.431719 9 0.964336 9H17.0367C17.5676 9 18 9.43242 18 9.96328C18 12.4418 16.4391 14.5582 14.2488 15.3809L14.1855 15.859C14.1152 16.4215 13.6371 16.875 13.0711 16.875H4.92891C4.36289 16.875 3.88477 16.4215 3.81445 15.859L3.75117 15.3809C1.55953 14.5582 0 12.4418 0 9.96328H3.51563e-05Z" fill="#50429B"/>
</svg>