<svg width="33" height="32" viewBox="0 0 33 32" fill="none" xmlns="http://www.w3.org/2000/svg">
<path fill-rule="evenodd" clip-rule="evenodd" d="M17.8411 8.93438L20.4941 6.28054C21.6606 5.11376 22.2438 4.53037 22.9588 4.46158C23.0862 4.44933 23.2145 4.44933 23.3418 4.46158C24.0569 4.53037 24.6401 5.11376 25.8065 6.28054C26.9723 7.44666 27.5552 8.02972 27.6239 8.74447C27.6361 8.8718 27.6361 9.00001 27.6239 9.12734C27.5552 9.84208 26.9723 10.4251 25.8065 11.5913L23.1813 14.2173C20.9701 12.9414 19.1327 11.1173 17.8411 8.93438ZM16.3869 10.389L6.74656 20.0324L6.74655 20.0324C6.32163 20.4574 6.10918 20.67 5.96949 20.931C5.82981 21.1921 5.77089 21.4868 5.65306 22.0761L4.70982 26.7938C4.64332 27.1264 4.61007 27.2927 4.70468 27.3873C4.7993 27.4819 4.9656 27.4486 5.29821 27.3821L10.0134 26.4388C10.603 26.3208 10.8977 26.2618 11.1589 26.122C11.42 25.9823 11.6325 25.7697 12.0576 25.3445L21.7236 15.6755C19.5632 14.3355 17.74 12.5246 16.3869 10.389Z" fill="#50429B"/>
</svg>
