<svg width="32" height="32" viewBox="0 0 32 32" fill="none" xmlns="http://www.w3.org/2000/svg">
<path d="M24.4666 26.24C23.7333 28.12 21.9466 29.3333 19.9333 29.3333H12.0666C10.04 29.3333 8.26664 28.12 7.53331 26.24C6.79997 24.3467 7.30664 22.2533 8.79997 20.8933L14.2 16H17.8133L23.2 20.8933C24.6933 22.2533 25.1866 24.3467 24.4666 26.24Z" fill="#50429B"/>
<path d="M18.4266 24.1866H13.5733C13.0666 24.1866 12.6666 23.7733 12.6666 23.28C12.6666 22.7733 13.08 22.3733 13.5733 22.3733H18.4266C18.9333 22.3733 19.3333 22.7866 19.3333 23.28C19.3333 23.7733 18.92 24.1866 18.4266 24.1866Z" fill="#A5ABDE"/>
<path d="M24.4667 5.76008C23.7334 3.88008 21.9467 2.66675 19.9334 2.66675H12.0667C10.0534 2.66675 8.26672 3.88008 7.53338 5.76008C6.81338 7.65341 7.30672 9.74675 8.81338 11.1067L14.2 16.0001H17.8134L23.2 11.1067C24.6934 9.74675 25.1867 7.65341 24.4667 5.76008ZM18.4267 9.64008H13.5734C13.0667 9.64008 12.6667 9.22675 12.6667 8.73341C12.6667 8.24008 13.0801 7.82675 13.5734 7.82675H18.4267C18.9334 7.82675 19.3334 8.24008 19.3334 8.73341C19.3334 9.22675 18.92 9.64008 18.4267 9.64008Z" fill="#50429B"/>
</svg>
