<svg width="139" height="121" viewBox="0 0 139 121" fill="none" xmlns="http://www.w3.org/2000/svg">
<path d="M133.906 98.9324L83.3614 15.8624C82.3553 14.2069 80.8675 12.8246 79.055 11.8613C77.2425 10.8981 75.1725 10.3896 73.0634 10.3896C70.9542 10.3896 68.8842 10.8981 67.0717 11.8613C65.2592 12.8246 63.7714 14.2069 62.7653 15.8624L12.2575 98.9324C11.2587 100.53 10.7462 102.333 10.7711 104.162C10.796 105.992 11.3574 107.783 12.3994 109.358C13.4414 110.933 14.9274 112.237 16.7095 113.139C18.4915 114.041 20.5072 114.511 22.5556 114.5H123.608C125.635 114.498 127.627 114.026 129.39 113.131C131.152 112.235 132.624 110.947 133.662 109.391C134.699 107.836 135.267 106.066 135.31 104.256C135.353 102.445 134.869 100.656 133.906 99.0624V98.9324ZM68.4056 36.4999C68.4056 35.2932 68.9423 34.1359 69.8977 33.2826C70.8531 32.4293 72.1489 31.9499 73.5 31.9499C74.8512 31.9499 76.1469 32.4293 77.1023 33.2826C78.0577 34.1359 78.5945 35.2932 78.5945 36.4999V75.4999C78.5945 76.7067 78.0577 77.864 77.1023 78.7173C76.1469 79.5706 74.8512 80.0499 73.5 80.0499C72.1489 80.0499 70.8531 79.5706 69.8977 78.7173C68.9423 77.864 68.4056 76.7067 68.4056 75.4999V36.4999ZM73.5 101.012C72.2046 101.012 70.9382 100.669 69.861 100.027C68.7839 99.3837 67.9444 98.4701 67.4486 97.4011C66.9529 96.3322 66.8232 95.156 67.0759 94.0212C67.3286 92.8864 67.9524 91.844 68.8685 91.0259C69.7845 90.2077 70.9516 89.6506 72.2222 89.4248C73.4928 89.1991 74.8097 89.315 76.0066 89.7577C77.2035 90.2005 78.2264 90.9503 78.9462 91.9124C79.6659 92.8744 80.05 94.0054 80.05 95.1624C80.05 95.9307 79.8806 96.6914 79.5514 97.4011C79.2223 98.1109 78.7398 98.7558 78.1316 99.299C77.5234 99.8422 76.8013 100.273 76.0066 100.567C75.2119 100.861 74.3602 101.012 73.5 101.012Z" fill="#F0F0F0"/>
<path d="M125.906 94.9324L75.3614 11.8624C74.3553 10.2069 72.8675 8.82456 71.055 7.86132C69.2425 6.89809 67.1725 6.38965 65.0634 6.38965C62.9542 6.38965 60.8842 6.89809 59.0717 7.86132C57.2592 8.82456 55.7714 10.2069 54.7653 11.8624L4.25753 94.9324C3.25874 96.5297 2.74624 98.3329 2.77113 100.162C2.79602 101.992 3.35744 103.783 4.3994 105.358C5.44136 106.933 6.92745 108.237 8.70948 109.139C10.4915 110.041 12.5072 110.511 14.5556 110.5H115.608C117.635 110.498 119.627 110.026 121.39 109.131C123.152 108.235 124.624 106.947 125.662 105.391C126.699 103.836 127.267 102.066 127.31 100.256C127.353 98.4452 126.869 96.6558 125.906 95.0624V94.9324ZM60.4056 32.4999C60.4056 31.2932 60.9423 30.1359 61.8977 29.2826C62.8531 28.4293 64.1489 27.9499 65.5 27.9499C66.8512 27.9499 68.1469 28.4293 69.1023 29.2826C70.0577 30.1359 70.5945 31.2932 70.5945 32.4999V71.4999C70.5945 72.7067 70.0577 73.864 69.1023 74.7173C68.1469 75.5706 66.8512 76.0499 65.5 76.0499C64.1489 76.0499 62.8531 75.5706 61.8977 74.7173C60.9423 73.864 60.4056 72.7067 60.4056 71.4999V32.4999ZM65.5 97.0124C64.2046 97.0124 62.9382 96.6693 61.861 96.0265C60.7839 95.3837 59.9444 94.4701 59.4486 93.4011C58.9529 92.3322 58.8232 91.156 59.0759 90.0212C59.3286 88.8864 59.9524 87.844 60.8685 87.0259C61.7845 86.2077 62.9516 85.6506 64.2222 85.4248C65.4928 85.1991 66.8097 85.315 68.0066 85.7577C69.2035 86.2005 70.2264 86.9503 70.9462 87.9124C71.6659 88.8744 72.05 90.0054 72.05 91.1624C72.05 91.9307 71.8806 92.6914 71.5514 93.4011C71.2223 94.1109 70.7398 94.7558 70.1316 95.299C69.5234 95.8422 68.8013 96.2731 68.0066 96.5671C67.2119 96.8611 66.3602 97.0124 65.5 97.0124Z" fill="#FF8C21"/>
</svg>
