<svg width="28" height="28" viewBox="0 0 28 28" fill="none" xmlns="http://www.w3.org/2000/svg">
<path d="M25.0381 20.731H2.96118C1.62292 20.731 0.538086 19.6461 0.538086 18.3079V4.30786C0.538086 2.9696 1.62292 1.88477 2.96118 1.88477H25.0381C26.3763 1.88477 27.4612 2.9696 27.4612 4.30786V18.3079C27.4612 19.6461 26.3763 20.731 25.0381 20.731Z" fill="#EBE8FE"/>
<path d="M17.8375 9.18382L12.8877 8.0415L14.03 12.9913L15.3626 11.6587L16.8856 13.1817L18.0278 12.0394L16.5048 10.5164L17.8375 9.18382Z" fill="#FB8C00"/>
<path d="M18.3077 26.1155H9.69238L10.7693 20.731H17.2308L18.3077 26.1155Z" fill="#FB8C00"/>
<path d="M0.538086 16.4229V18.3075C0.538086 19.6457 1.62292 20.7306 2.96118 20.7306H25.0381C26.3763 20.7306 27.4612 19.6457 27.4612 18.3075V16.4229H0.538086Z" fill="#FF8C21"/>
<path d="M25.0385 1.34619H2.96155C1.32852 1.34619 0 2.67477 0 4.30774V16.4231V18.3077C0 19.9407 1.32852 21.2693 2.96155 21.2693H10.1124L9.25088 25.577H6.46155C6.16416 25.577 5.92309 25.818 5.92309 26.1154C5.92309 26.4128 6.16416 26.6539 6.46155 26.6539H9.69232H18.3077H21.5385C21.8358 26.6539 22.0769 26.4128 22.0769 26.1154C22.0769 25.818 21.8358 25.577 21.5385 25.577H18.7491L17.8876 21.2693H25.0385C26.6714 21.2693 28 19.9408 28 18.3077V16.4231V4.30774C28 2.67477 26.6715 1.34619 25.0385 1.34619ZM2.96155 2.42315H25.0385C26.0776 2.42315 26.9231 3.26857 26.9231 4.30779V15.8847H1.07691V14.8078H4.30768C4.60507 14.8078 4.84613 14.5667 4.84613 14.2693C4.84613 13.9719 4.60507 13.7309 4.30768 13.7309H1.07691V4.30774C1.07691 3.26857 1.92237 2.42315 2.96155 2.42315ZM17.6509 25.577H10.3491L11.2107 21.2693H16.7893L17.6509 25.577ZM26.9231 18.3077C26.9231 19.3469 26.0777 20.1924 25.0385 20.1924H17.2308H10.7692H2.96155C1.92237 20.1924 1.07691 19.347 1.07691 18.3077V16.9616H26.923V18.3077H26.9231Z" fill="#50429B"/>
<path d="M13.9998 19.6538C14.5936 19.6538 15.0767 19.1707 15.0767 18.5769C15.0767 17.9831 14.5936 17.5 13.9998 17.5C13.406 17.5 12.9229 17.9831 12.9229 18.5769C12.9229 19.1707 13.406 19.6538 13.9998 19.6538Z" fill="#50429B"/>
<path d="M13.5048 13.1122C13.5488 13.3029 13.6929 13.4548 13.881 13.5087C14.0693 13.5627 14.2718 13.5103 14.4102 13.3719L15.3621 12.42L16.5043 13.5623C16.6095 13.6674 16.7473 13.72 16.8851 13.72C17.0229 13.72 17.1607 13.6674 17.2658 13.5623L18.4081 12.42C18.6183 12.2097 18.6183 11.8688 18.4081 11.6585L17.2658 10.5162L18.2177 9.5644C18.3561 9.42598 18.4084 9.22337 18.3545 9.03519C18.3006 8.84706 18.1487 8.70301 17.958 8.65894L13.0082 7.51668C12.8274 7.47506 12.6377 7.52931 12.5064 7.66062C12.3751 7.79187 12.3207 7.98152 12.3624 8.16248L13.5048 13.1122ZM16.7692 9.48986L16.1236 10.1355C15.9133 10.3458 15.9133 10.6867 16.1236 10.897L17.2658 12.0393L16.8851 12.42L15.7428 11.2778C15.6377 11.1726 15.4998 11.12 15.3621 11.12C15.2243 11.12 15.0865 11.1726 14.9813 11.2778L14.3357 11.9235L13.6056 8.75984L16.7692 9.48986Z" fill="#50429B"/>
<path d="M11.0224 6.93766C11.1275 7.04283 11.2654 7.09538 11.4031 7.09538C11.5409 7.09538 11.6787 7.04283 11.7839 6.93766C11.9941 6.72739 11.9941 6.38641 11.7839 6.17614L11.2454 5.63769C11.0351 5.42741 10.6942 5.42741 10.4839 5.63769C10.2736 5.84796 10.2736 6.18894 10.4839 6.39921L11.0224 6.93766Z" fill="#50429B"/>
<path d="M9.97205 8.7107H10.7335C11.0309 8.7107 11.272 8.46963 11.272 8.17224C11.272 7.87485 11.0309 7.63379 10.7335 7.63379H9.97205C9.67466 7.63379 9.43359 7.87485 9.43359 8.17224C9.43359 8.46963 9.67466 8.7107 9.97205 8.7107Z" fill="#50429B"/>
<path d="M11.0223 9.40673L10.4839 9.94518C10.2736 10.1555 10.2736 10.4964 10.4839 10.7067C10.589 10.8119 10.7269 10.8644 10.8646 10.8644C11.0024 10.8644 11.1402 10.8119 11.2453 10.7067L11.7838 10.1683C11.9941 9.95798 11.9941 9.617 11.7838 9.40673C11.5736 9.19646 11.2327 9.19646 11.0223 9.40673Z" fill="#50429B"/>
<path d="M14.6332 7.09538C14.771 7.09538 14.9088 7.04283 15.014 6.93766L15.5524 6.39921C15.7627 6.18894 15.7627 5.84796 15.5524 5.63769C15.3421 5.42741 15.0012 5.42741 14.7909 5.63769L14.2524 6.17614C14.0422 6.38641 14.0422 6.72739 14.2524 6.93766C14.3576 7.04283 14.4954 7.09538 14.6332 7.09538Z" fill="#50429B"/>
<path d="M13.0179 6.42583C13.3153 6.42583 13.5564 6.18477 13.5564 5.88738V5.12586C13.5564 4.82846 13.3153 4.5874 13.0179 4.5874C12.7206 4.5874 12.4795 4.82846 12.4795 5.12586V5.88732C12.4795 6.18477 12.7206 6.42583 13.0179 6.42583Z" fill="#50429B"/>
<path d="M5.42622 14.4749C5.43967 14.5077 5.45635 14.539 5.47577 14.568C5.49513 14.5976 5.51777 14.6251 5.54254 14.6499C5.56731 14.6746 5.59477 14.6972 5.62441 14.7166C5.6535 14.736 5.68473 14.7527 5.71754 14.7662C5.74986 14.7796 5.78377 14.7904 5.81822 14.7974C5.85267 14.8044 5.88822 14.8076 5.92322 14.8076C5.95822 14.8076 5.99377 14.8044 6.02822 14.7974C6.06267 14.7904 6.09658 14.7796 6.1289 14.7662C6.16177 14.7527 6.19299 14.7361 6.22203 14.7166C6.25167 14.6973 6.27912 14.6746 6.3039 14.6499C6.32867 14.6251 6.35126 14.5976 6.37067 14.568C6.39003 14.5389 6.40677 14.5077 6.42022 14.4749C6.43367 14.4426 6.44445 14.4086 6.4509 14.3742C6.4579 14.3397 6.46167 14.3042 6.46167 14.2692C6.46167 14.2342 6.4579 14.1986 6.4509 14.1642C6.44445 14.1297 6.43367 14.0958 6.42022 14.063C6.40677 14.0306 6.39009 13.9994 6.37067 13.9703C6.35131 13.9407 6.32867 13.9132 6.3039 13.8885C6.27912 13.8637 6.25167 13.8411 6.22203 13.8217C6.19294 13.8023 6.16171 13.7856 6.1289 13.7721C6.09658 13.7587 6.06267 13.7479 6.02822 13.7415C5.95877 13.7275 5.88767 13.7275 5.81822 13.7415C5.78377 13.7479 5.74986 13.7587 5.71754 13.7721C5.68467 13.7856 5.65345 13.8023 5.62441 13.8217C5.59477 13.841 5.56731 13.8637 5.54254 13.8885C5.51777 13.9132 5.49518 13.9407 5.47577 13.9703C5.45641 13.9994 5.43967 14.0306 5.42622 14.063C5.41277 14.0958 5.40199 14.1297 5.39554 14.1642C5.38854 14.1986 5.38477 14.2342 5.38477 14.2692C5.38477 14.3042 5.38854 14.3397 5.39554 14.3742C5.40199 14.4086 5.41277 14.4426 5.42622 14.4749Z" fill="#50429B"/>
</svg>
