<svg width="323" height="227" viewBox="0 0 323 227" fill="none" xmlns="http://www.w3.org/2000/svg">
<path d="M252.426 46.5755C256.029 46.5755 258.951 43.6469 258.951 40.0342C258.951 36.4215 256.029 33.4928 252.426 33.4928C248.822 33.4928 245.9 36.4215 245.9 40.0342C245.9 43.6469 248.822 46.5755 252.426 46.5755Z" fill="#50429B"/>
<path d="M259.377 28.7942C261.812 28.7942 263.786 26.8157 263.786 24.3751C263.786 21.9344 261.812 19.9559 259.377 19.9559C256.943 19.9559 254.969 21.9344 254.969 24.3751C254.969 26.8157 256.943 28.7942 259.377 28.7942Z" fill="#50429B"/>
<path d="M252.147 16.8555C253.884 16.8555 255.292 15.444 255.292 13.7028C255.292 11.9615 253.884 10.55 252.147 10.55C250.41 10.55 249.002 11.9615 249.002 13.7028C249.002 15.444 250.41 16.8555 252.147 16.8555Z" fill="#50429B"/>
<path d="M322.521 5.05664L322.983 1.67679C323.016 1.4283 322.986 1.17533 322.895 0.941736C322.804 0.708146 322.655 0.501643 322.463 0.341713C322.27 0.181782 322.04 0.0736963 321.794 0.027655C321.548 -0.0183863 321.295 -0.000865202 321.057 0.0785649L294.103 9.28363L267.453 50.523C267.316 50.7322 267.235 50.973 267.217 51.2225C267.2 51.4721 267.246 51.722 267.351 51.9487C267.457 52.1753 267.618 52.3712 267.821 52.5175C268.023 52.6639 268.26 52.756 268.507 52.785L274.989 53.5885C275.272 53.6237 275.558 53.5765 275.815 53.4526C276.071 53.3287 276.287 53.1333 276.435 52.8898L298.642 15.8687C298.809 15.5996 299.056 15.3891 299.347 15.266L321.615 6.21818C321.854 6.12045 322.063 5.96187 322.222 5.75813C322.381 5.5544 322.484 5.31258 322.521 5.05664Z" fill="#50429B"/>
<path d="M301.368 64.7847L301.081 67.1253C300.954 68.1582 300.425 69.099 299.609 69.7421C298.793 70.3852 297.756 70.6784 296.725 70.5575C296.216 70.4988 295.703 70.6327 295.288 70.9331C294.877 71.234 294.597 71.6807 294.504 72.182L282.603 137.421C282.546 137.727 282.416 138.015 282.224 138.26C282.032 138.505 281.784 138.699 281.501 138.827C281.217 138.955 280.907 139.012 280.597 138.994C280.287 138.976 279.986 138.882 279.72 138.722C277.574 137.494 275.204 136.71 272.75 136.417C270.018 136.078 267.246 136.35 264.631 137.211C264.378 137.293 264.112 137.321 263.848 137.293C263.585 137.265 263.33 137.182 263.1 137.05C262.87 136.918 262.671 136.738 262.514 136.524C262.358 136.31 262.248 136.065 262.191 135.805C259.264 123.578 248.549 113.762 234.749 112.076C220.949 110.391 208.213 117.316 202.428 128.487C202.309 128.724 202.143 128.934 201.938 129.103C201.734 129.272 201.497 129.397 201.242 129.469C200.987 129.541 200.72 129.56 200.458 129.523C200.196 129.486 199.944 129.395 199.719 129.255C197.459 127.835 194.924 126.914 192.281 126.555C189.639 126.195 186.95 126.404 184.395 127.168C184.096 127.263 183.779 127.284 183.47 127.229C183.161 127.174 182.871 127.045 182.623 126.853C182.375 126.66 182.178 126.41 182.048 126.124C181.918 125.839 181.859 125.525 181.877 125.212L186.163 58.9158C186.198 58.4059 186.037 57.9018 185.713 57.5071C185.389 57.1125 184.927 56.8571 184.421 56.7936C183.389 56.669 182.45 56.1392 181.808 55.3204C181.166 54.5017 180.874 53.461 180.997 52.4269L181.276 50.0863C181.343 49.5578 181.617 49.0775 182.036 48.7502C182.456 48.4229 182.987 48.2753 183.515 48.3396L192.227 49.4051L193.176 49.5274C193.81 49.6086 194.393 49.92 194.814 50.4029C195.234 50.8857 195.464 51.5064 195.459 52.1474C195.459 55.1517 194.152 59.6495 194.535 62.1472C194.919 64.645 200.233 66.61 200.755 56.8373C200.991 52.4706 202.629 51.4662 202.942 52.7238C204.606 59.3089 206.95 54.357 206.427 52.3745C206.427 52.3745 206.427 52.3221 206.427 52.2872C206.427 52.2522 205.747 51.4837 207.011 51.2217L299.748 62.5752C300.247 62.6691 300.692 62.9494 300.993 63.3596C301.294 63.7698 301.428 64.2791 301.368 64.7847Z" fill="#50429B"/>
<path d="M283.413 160.696C283.02 163.629 281.802 166.39 279.901 168.656C278 170.922 275.496 172.598 272.68 173.49C272.019 173.706 271.432 174.105 270.988 174.641C270.544 175.178 270.261 175.829 270.171 176.521L269.379 182.975C269.32 183.454 269.168 183.917 268.932 184.338C268.695 184.758 268.377 185.128 267.998 185.426C267.619 185.723 267.184 185.943 266.72 186.073C266.256 186.202 265.771 186.238 265.293 186.18L187.243 176.617C186.765 176.558 186.303 176.406 185.883 176.169C185.464 175.931 185.095 175.613 184.798 175.233C184.501 174.852 184.282 174.417 184.153 173.952C184.024 173.486 183.988 173 184.046 172.521L184.83 166.084C184.915 165.395 184.802 164.696 184.506 164.068C184.21 163.441 183.743 162.91 183.158 162.538L182.748 162.276C180.439 160.806 178.567 158.74 177.328 156.295C176.089 153.85 175.529 151.116 175.708 148.379C175.886 145.642 176.795 143.004 178.341 140.741C179.886 138.478 182.01 136.674 184.49 135.517C186.864 134.371 189.468 133.784 192.103 133.801C194.737 133.817 197.333 134.437 199.693 135.613C200.518 136.047 201.476 136.151 202.375 135.904C203.274 135.658 204.046 135.08 204.536 134.286C210.216 124.801 221.524 119.037 233.704 120.53C245.883 122.024 255.483 130.347 258.715 140.932C259.001 141.814 259.608 142.556 260.416 143.009C261.223 143.463 262.171 143.594 263.071 143.377C264.99 142.954 266.966 142.86 268.917 143.098C272.086 143.478 275.085 144.74 277.576 146.739C279.658 148.372 281.287 150.512 282.309 152.955C283.331 155.398 283.711 158.063 283.413 160.696Z" fill="#50429B"/>
<path d="M183.245 179.088C181.354 194.538 193.115 209.166 210.765 215.253C209.737 218.162 207.707 222.013 203.892 223.987C210.471 223.84 216.851 221.693 222.187 217.83C245.604 220.537 266.321 207.926 268.56 189.533L183.245 179.088ZM211.933 198.249C211.297 198.27 210.671 198.094 210.138 197.747C209.606 197.399 209.192 196.896 208.953 196.306C208.714 195.716 208.661 195.066 208.801 194.444C208.941 193.823 209.268 193.26 209.738 192.83C210.207 192.401 210.797 192.126 211.427 192.042C212.057 191.959 212.698 192.071 213.262 192.363C213.827 192.656 214.289 193.115 214.585 193.679C214.882 194.242 214.999 194.883 214.921 195.516C214.88 196.273 214.544 196.985 213.985 197.496C213.426 198.007 212.689 198.278 211.933 198.249ZM229.017 204.983C228.361 205.927 227.46 206.675 226.413 207.144C225.365 207.614 224.209 207.789 223.069 207.65C221.93 207.511 220.85 207.063 219.945 206.354C219.041 205.646 218.346 204.704 217.935 203.629C217.809 203.244 217.837 202.824 218.013 202.459C218.189 202.094 218.5 201.812 218.88 201.672C219.26 201.533 219.68 201.547 220.049 201.712C220.419 201.876 220.711 202.179 220.862 202.555C221.078 203.087 221.431 203.552 221.885 203.902C222.34 204.251 222.879 204.473 223.448 204.543C224.016 204.613 224.593 204.53 225.119 204.302C225.645 204.074 226.1 203.709 226.438 203.245C226.669 202.898 227.028 202.656 227.437 202.574C227.845 202.493 228.269 202.577 228.616 202.808C228.962 203.04 229.203 203.4 229.285 203.81C229.366 204.219 229.283 204.644 229.052 204.992L229.017 204.983ZM236.143 201.219C235.508 201.239 234.882 201.064 234.349 200.717C233.816 200.37 233.402 199.868 233.163 199.278C232.923 198.688 232.87 198.039 233.009 197.418C233.149 196.796 233.475 196.233 233.943 195.803C234.412 195.373 235.001 195.097 235.63 195.012C236.26 194.928 236.9 195.038 237.465 195.33C238.03 195.621 238.493 196.079 238.791 196.641C239.088 197.204 239.207 197.844 239.131 198.476C239.086 199.231 238.748 199.938 238.19 200.445C237.631 200.953 236.896 201.221 236.143 201.193V201.219Z" fill="#50429B"/>
<path d="M115.04 162.329C115.853 158.152 116.302 153.912 116.382 149.656C116.474 145.185 116.524 140.862 116.53 136.687C116.53 133.013 116.579 129.287 116.678 125.508C116.775 121.705 117.124 117.912 117.723 114.155L118.167 111.771L120.546 111.325C127.085 110.743 133.605 110.394 140.104 110.277C146.587 110.181 153.07 110.531 159.505 111.325L161.892 111.771L174.089 203.009L172.608 204.206C160.634 212.065 147.547 218.071 133.788 222.022C119.957 225.887 105.6 227.523 91.2566 226.869C84.9904 226.579 78.7536 225.832 72.5958 224.633C66.5767 223.462 60.6773 221.74 54.9718 219.489C49.3094 217.251 43.9198 214.374 38.9072 210.913C33.7594 207.336 29.077 203.129 24.9682 198.389C16.7011 189.057 10.3826 178.158 6.38587 166.337C2.33792 154.527 0.202622 142.144 0.0610809 129.657C-0.0830888 117.107 1.69748 104.609 5.34045 92.6008C8.89035 80.6522 14.3479 69.3591 21.5009 59.1604C28.6954 48.8891 37.422 39.7874 47.3751 32.174C56.7367 25.1076 67.0531 19.4117 78.0146 15.2573C89.1306 11.0869 100.718 8.30897 112.513 6.98673C124.905 5.58268 137.388 5.18255 149.844 5.79024H151.63L152.501 7.5806C156.003 14.4354 158.483 21.768 159.862 29.3444C161.284 36.9785 162.203 44.6981 162.615 52.4531V55.8941H159.191C153.546 55.8941 147.277 56.0688 140.383 56.4181C133.489 56.7674 126.554 57.4661 119.579 58.5141C112.724 59.5295 105.952 61.0414 99.315 63.0381C93.2767 64.7976 87.5187 67.4088 82.2137 70.7934C79.3687 72.6287 76.7386 74.779 74.373 77.2037C72.5506 79.0168 70.8591 80.9576 69.3115 83.0115C67.7917 85.0593 66.4009 87.2003 65.1472 89.4218C62.9133 93.4257 61.0947 97.6486 59.7197 102.024C58.2886 106.523 57.3909 111.175 57.0452 115.884C56.6932 120.569 56.9421 125.28 57.7857 129.901C58.5982 134.439 60.1836 138.802 62.4727 142.801C64.406 146.392 66.947 149.619 69.9823 152.338C72.8846 154.906 76.1415 157.042 79.6524 158.678C83.2306 160.338 87.0037 161.538 90.882 162.25C94.8513 163.002 98.8822 163.379 102.922 163.377C104.908 163.377 106.941 163.301 109.02 163.15C111.042 163.004 113.053 162.73 115.04 162.329Z" fill="#50429B"/>
</svg>
