<svg width="32" height="32" viewBox="0 0 32 32" fill="none" xmlns="http://www.w3.org/2000/svg">
<path fill-rule="evenodd" clip-rule="evenodd" d="M5.01951 11.9419C4.57141 12.7918 4.57141 13.7587 4.57141 15.6925V21.7318C4.57141 24.4173 4.57141 25.7601 5.5278 26.5944C6.46497 27.4119 7.96186 27.4283 10.9184 27.4287V21.0958C10.9184 19.6418 12.097 18.4631 13.551 18.4631H18.4489C19.9029 18.4631 21.0816 19.6418 21.0816 21.0958V27.4287C24.0381 27.4283 25.535 27.4119 26.4722 26.5944C27.4286 25.7601 27.4286 24.4173 27.4286 21.7318V15.6925C27.4286 13.7587 27.4286 12.7918 26.9805 11.9419C26.5324 11.092 25.6908 10.4628 24.0077 9.20432L22.3751 7.98355C19.3329 5.70887 17.8119 4.57153 16 4.57153C14.1881 4.57153 12.667 5.70887 9.62488 7.98355L7.99223 9.20432C6.30915 10.4628 5.46761 11.092 5.01951 11.9419ZM19.0816 27.4287V21.0958C19.0816 20.7464 18.7983 20.4631 18.4489 20.4631H13.551C13.2016 20.4631 12.9184 20.7464 12.9184 21.0958V27.4287H19.0816Z" fill="#50429B"/>
</svg>
