<svg width="48" height="48" viewBox="0 0 48 48" fill="none" xmlns="http://www.w3.org/2000/svg">
<path d="M20 30L20 24" stroke="#DB1B1B" stroke-width="3" stroke-linecap="round"/>
<path d="M28 30L28 24" stroke="#DB1B1B" stroke-width="3" stroke-linecap="round"/>
<path d="M6.85712 13.7144H41.1428H39.4285C37.5429 13.7144 36.6001 13.7144 36.0143 14.3001C35.4285 14.8859 35.4285 15.8287 35.4285 17.7144V35.4286C35.4285 37.3143 35.4285 38.2571 34.8428 38.8429C34.257 39.4286 33.3142 39.4286 31.4285 39.4286H16.5714C14.6858 39.4286 13.743 39.4286 13.1572 38.8429C12.5714 38.2571 12.5714 37.3143 12.5714 35.4286V17.7144C12.5714 15.8287 12.5714 14.8859 11.9856 14.3001C11.3998 13.7144 10.457 13.7144 8.5714 13.7144H6.85712Z" stroke="#DB1B1B" stroke-width="3" stroke-linecap="round"/>
<path d="M20.6883 7.49223C20.8836 7.30997 21.3141 7.14892 21.9128 7.03406C22.5116 6.91919 23.2453 6.85693 24 6.85693C24.7548 6.85693 25.4884 6.91919 26.0872 7.03406C26.686 7.14892 27.1164 7.30997 27.3118 7.49223" stroke="#DB1B1B" stroke-width="3" stroke-linecap="round"/>
</svg>
