<svg width="33" height="32" viewBox="0 0 33 32" fill="none" xmlns="http://www.w3.org/2000/svg">
<path d="M25.8333 20C22.8867 20 20.5 22.3867 20.5 25.3333C20.5 26.3333 20.78 27.28 21.2733 28.08C22.1933 29.6267 23.8867 30.6667 25.8333 30.6667C27.78 30.6667 29.4733 29.6267 30.3933 28.08C30.8867 27.28 31.1667 26.3333 31.1667 25.3333C31.1667 22.3867 28.78 20 25.8333 20ZM28.5933 24.76L25.7533 27.3867C25.5667 27.56 25.3133 27.6533 25.0733 27.6533C24.82 27.6533 24.5667 27.56 24.3667 27.36L23.0467 26.04C22.66 25.6533 22.66 25.0133 23.0467 24.6267C23.4333 24.24 24.0733 24.24 24.46 24.6267L25.1 25.2667L27.2333 23.2933C27.6333 22.92 28.2733 22.9467 28.6467 23.3467C29.02 23.7467 28.9933 24.3733 28.5933 24.76Z" fill="white"/>
<path d="M29.8334 10.0665V10.6665C29.8334 11.3999 29.2334 11.9999 28.5 11.9999H4.50002C3.76669 11.9999 3.16669 11.3999 3.16669 10.6665V10.0532C3.16669 6.99987 5.63335 4.5332 8.68669 4.5332H24.3C27.3534 4.5332 29.8334 7.0132 29.8334 10.0665Z" fill="white"/>
<path d="M3.16669 15.3335V21.9468C3.16669 25.0001 5.63335 27.4668 8.68669 27.4668H17.0334C17.8067 27.4668 18.4734 26.8135 18.4067 26.0402C18.22 24.0002 18.8734 21.7868 20.6867 20.0268C21.4334 19.2935 22.3534 18.7335 23.3534 18.4135C25.02 17.8802 26.6334 17.9468 28.06 18.4268C28.9267 18.7201 29.8334 18.0935 29.8334 17.1735V15.3201C29.8334 14.5868 29.2334 13.9868 28.5 13.9868H4.50002C3.76669 14.0001 3.16669 14.6001 3.16669 15.3335ZM11.1667 23.0001H8.50002C7.95335 23.0001 7.50002 22.5468 7.50002 22.0001C7.50002 21.4535 7.95335 21.0001 8.50002 21.0001H11.1667C11.7134 21.0001 12.1667 21.4535 12.1667 22.0001C12.1667 22.5468 11.7134 23.0001 11.1667 23.0001Z" fill="white"/>
</svg>
