<svg width="32" height="32" viewBox="0 0 32 32" fill="none" xmlns="http://www.w3.org/2000/svg">
<path fill-rule="evenodd" clip-rule="evenodd" d="M27.4284 8.38086H4.57129V12.1904C5.97392 12.1904 7.11097 13.3274 7.11097 14.7301V18.5396C7.11097 22.6742 7.11097 24.7415 8.36789 26.0482C8.40822 26.0901 8.44936 26.1312 8.49129 26.1716C9.79793 27.4285 11.8652 27.4285 15.9999 27.4285C20.1345 27.4285 22.2018 27.4285 23.5084 26.1716C23.5504 26.1312 23.5915 26.0901 23.6318 26.0482C24.8888 24.7415 24.8888 22.6742 24.8888 18.5396V14.7301C24.8888 13.3274 26.0258 12.1904 27.4284 12.1904V8.38086ZM14.3254 14.7301C14.3254 13.9017 13.6539 13.2301 12.8254 13.2301C11.997 13.2301 11.3254 13.9017 11.3254 14.7301V21.0793C11.3254 21.9077 11.997 22.5793 12.8254 22.5793C13.6539 22.5793 14.3254 21.9077 14.3254 21.0793V14.7301ZM20.6746 14.7301C20.6746 13.9017 20.0031 13.2301 19.1746 13.2301C18.3462 13.2301 17.6746 13.9017 17.6746 14.7301V21.0793C17.6746 21.9077 18.3462 22.5793 19.1746 22.5793C20.0031 22.5793 20.6746 21.9077 20.6746 21.0793V14.7301Z" fill="white"/>
<path d="M13.7921 4.99482C13.9223 4.87332 14.2093 4.76595 14.6085 4.68937C15.0077 4.6128 15.4968 4.57129 15.9999 4.57129C16.5031 4.57129 16.9922 4.6128 17.3914 4.68937C17.7906 4.76595 18.0775 4.87332 18.2078 4.99482" stroke="white" stroke-width="3" stroke-linecap="round"/>
</svg>
