<svg width="56" height="55" viewBox="0 0 56 55" fill="none" xmlns="http://www.w3.org/2000/svg">
<ellipse cx="28" cy="27.3307" rx="28" ry="27.3307" fill="#6050B3"/>
<path d="M25.9583 25.0351C25.9583 25.6651 26.1333 25.7584 26.5299 25.8984L27.1249 26.1084V24.1251H26.7749C26.3316 24.1251 25.9583 24.5334 25.9583 25.0351Z" fill="white"/>
<path d="M28.875 30.5417H29.225C29.68 30.5417 30.0417 30.1333 30.0417 29.6317C30.0417 29.0017 29.8667 28.9083 29.47 28.7683L28.875 28.5583V30.5417Z" fill="white"/>
<path d="M36.8433 19.7267L34.4516 22.1184C34.2766 22.2934 34.0549 22.3751 33.8333 22.3751C33.6116 22.3751 33.3899 22.2934 33.2149 22.1184C32.8766 21.7801 32.8766 21.2201 33.2149 20.8817L35.6066 18.4901C33.5533 16.7401 30.9049 15.6667 27.9999 15.6667C21.5599 15.6667 16.3333 20.8934 16.3333 27.3334C16.3333 33.7734 21.5599 39.0001 27.9999 39.0001C34.4399 39.0001 39.6666 33.7734 39.6666 27.3334C39.6666 24.4284 38.5933 21.7801 36.8433 19.7267ZM30.0416 27.1234C30.7883 27.3917 31.7916 27.9284 31.7916 29.6434C31.7916 31.1017 30.6366 32.3034 29.2249 32.3034H28.8749V32.5951C28.8749 33.0734 28.4783 33.4701 27.9999 33.4701C27.5216 33.4701 27.1249 33.0734 27.1249 32.5951V32.3034H27.0316C25.4799 32.3034 24.2083 30.9967 24.2083 29.3867C24.2083 28.8967 24.6049 28.5001 25.0833 28.5001C25.5616 28.5001 25.9583 28.8967 25.9583 29.3751C25.9583 30.0167 26.4366 30.5417 27.0316 30.5417H27.1249V27.9517L25.9583 27.5434C25.2116 27.2751 24.2083 26.7384 24.2083 25.0234C24.2083 23.5651 25.3633 22.3634 26.7749 22.3634H27.1249V22.0834C27.1249 21.6051 27.5216 21.2084 27.9999 21.2084C28.4783 21.2084 28.8749 21.6051 28.8749 22.0834V22.3751H28.9683C30.5199 22.3751 31.7916 23.6817 31.7916 25.2917C31.7916 25.7701 31.3949 26.1667 30.9166 26.1667C30.4383 26.1667 30.0416 25.7701 30.0416 25.2917C30.0416 24.6501 29.5633 24.1251 28.9683 24.1251H28.8749V26.7151L30.0416 27.1234Z" fill="white"/>
<path d="M40.4717 15.3284C40.3783 15.1184 40.215 14.9434 39.9933 14.8501C39.8883 14.8151 39.7833 14.7917 39.6667 14.7917H35C34.5217 14.7917 34.125 15.1884 34.125 15.6667C34.125 16.1451 34.5217 16.5417 35 16.5417H37.555L35.6067 18.4901C36.05 18.8751 36.4583 19.2834 36.8433 19.7267L38.7917 17.7784V20.3334C38.7917 20.8117 39.1883 21.2084 39.6667 21.2084C40.145 21.2084 40.5417 20.8117 40.5417 20.3334V15.6667C40.5417 15.5501 40.5183 15.4451 40.4717 15.3284Z" fill="white"/>
</svg>
