<svg width="35" height="26" viewBox="0 0 35 26" fill="none" xmlns="http://www.w3.org/2000/svg">
<path d="M32.8147 22.8777H2.47797C1.97552 22.8777 1.49366 23.0773 1.13838 23.4326C0.783096 23.7878 0.583496 24.2697 0.583496 24.7722V24.7722C0.583496 25.0209 0.632496 25.2673 0.727702 25.4971C0.822908 25.727 0.96246 25.9358 1.13838 26.1117C1.31429 26.2877 1.52314 26.4272 1.75298 26.5224C1.98283 26.6176 2.22918 26.6666 2.47797 26.6666H32.8147C33.0634 26.6666 33.3098 26.6176 33.5396 26.5224C33.7695 26.4272 33.9783 26.2877 34.1542 26.1117C34.3302 25.9358 34.4697 25.727 34.5649 25.4971C34.6601 25.2673 34.7091 25.0209 34.7091 24.7722V24.7722C34.7091 24.2697 34.5095 23.7878 34.1542 23.4326C33.799 23.0773 33.3171 22.8777 32.8147 22.8777V22.8777Z" fill="#463796"/>
<path d="M32.3906 23.2386H2.90188C2.77746 23.2386 2.65426 23.2631 2.5393 23.3107C2.42434 23.3583 2.31988 23.428 2.23189 23.516C2.1439 23.6039 2.07411 23.7084 2.02649 23.8233C1.97886 23.9383 1.95435 24.0615 1.95435 24.1859V24.1859C1.95435 24.4372 2.05418 24.6782 2.23187 24.8559C2.40957 25.0336 2.65058 25.1334 2.90188 25.1334H32.3906C32.515 25.1334 32.6382 25.1089 32.7532 25.0613C32.8681 25.0137 32.9726 24.9439 33.0606 24.8559C33.1486 24.7679 33.2184 24.6634 33.266 24.5485C33.3136 24.4335 33.3381 24.3103 33.3381 24.1859V24.1859C33.3381 24.0615 33.3136 23.9383 33.266 23.8233C33.2184 23.7084 33.1486 23.6039 33.0606 23.516C32.9726 23.428 32.8681 23.3583 32.7532 23.3107C32.6382 23.2631 32.515 23.2386 32.3906 23.2386V23.2386Z" fill="#FF8C21"/>
<path d="M18.7825 8.26331C18.7825 8.48587 18.7165 8.70342 18.5928 8.88847C18.4692 9.07352 18.2935 9.21774 18.0878 9.30291C17.8822 9.38808 17.656 9.41036 17.4377 9.36694C17.2194 9.32352 17.0189 9.21635 16.8616 9.05898C16.7042 8.90162 16.597 8.70112 16.5536 8.48284C16.5102 8.26456 16.5325 8.03831 16.6176 7.8327C16.7028 7.62709 16.847 7.45135 17.0321 7.3277C17.2171 7.20406 17.4347 7.13806 17.6572 7.13806C17.805 7.13802 17.9514 7.1671 18.0879 7.22364C18.2244 7.28017 18.3485 7.36306 18.453 7.46755C18.5575 7.57205 18.6404 7.69611 18.6969 7.83265C18.7535 7.96919 18.7825 8.11553 18.7825 8.26331V8.26331Z" fill="#463796"/>
<path d="M32.2709 22.8777H3.042C3.03753 19.0207 4.56223 15.3193 7.282 12.5844H7.2847C9.27533 10.5788 11.8047 9.19325 14.5666 8.59561C17.3285 7.99796 20.2044 8.21385 22.8462 9.21713C25.4879 10.2204 27.7821 11.968 29.451 14.2484C31.1199 16.5288 32.0919 19.2441 32.2492 22.0655C32.2628 22.3322 32.2709 22.6029 32.2709 22.8777Z" fill="#FF8C21"/>
<path d="M32.2709 22.8777H3.042C3.03753 19.0208 4.56223 15.3193 7.282 12.5845H7.2847C5.14967 15.3209 7.65397 22.0655 16.9353 22.0655H32.2492C32.2628 22.3322 32.2709 22.6029 32.2709 22.8777Z" fill="#463796"/>
<path d="M28.0113 16.0747C28.5386 15.2842 27.1865 13.4562 24.9913 11.9919C22.7961 10.5275 20.5891 9.98129 20.0617 10.7718C19.5344 11.5623 20.8865 13.3902 23.0817 14.8546C25.2769 16.3189 27.4839 16.8652 28.0113 16.0747Z" fill="#F7F5FF"/>
<path d="M17.6584 5.69527V1" stroke="#FF8C21" stroke-width="2" stroke-miterlimit="10" stroke-linecap="round"/>
<path d="M13.8198 6.46536L11.8291 3.88257" stroke="#FF8C21" stroke-width="2" stroke-miterlimit="10" stroke-linecap="round"/>
<path d="M21.4968 6.46536L23.4875 3.88257" stroke="#FF8C21" stroke-width="2" stroke-miterlimit="10" stroke-linecap="round"/>
</svg>