<svg width="60" height="60" viewBox="0 0 60 60" fill="none" xmlns="http://www.w3.org/2000/svg">
<path d="M56.2534 53.5045H4.24766C3.38633 53.5045 2.56028 53.8467 1.95123 54.4557C1.34217 55.0648 1 55.8908 1 56.7522V56.7522C1 57.1787 1.084 57.601 1.24721 57.995C1.41042 58.389 1.64965 58.747 1.95123 59.0486C2.2528 59.3502 2.61081 59.5894 3.00483 59.7526C3.39886 59.9158 3.82118 59.9998 4.24766 59.9998H56.2534C56.6799 59.9998 57.1022 59.9158 57.4962 59.7526C57.8903 59.5894 58.2483 59.3502 58.5499 59.0486C58.8514 58.747 59.0907 58.389 59.2539 57.995C59.4171 57.601 59.5011 57.1787 59.5011 56.7522V56.7522C59.5011 55.8908 59.1589 55.0648 58.5499 54.4557C57.9408 53.8467 57.1147 53.5045 56.2534 53.5045V53.5045Z" fill="#463796"/>
<path d="M55.5265 54.1232H4.97444C4.76115 54.1232 4.54995 54.1651 4.35288 54.2467C4.1558 54.3283 3.97673 54.4479 3.82589 54.5987C3.67505 54.7495 3.5554 54.9285 3.47377 55.1255C3.39213 55.3226 3.3501 55.5338 3.3501 55.7471V55.7471C3.3501 56.1779 3.52124 56.591 3.82586 56.8956C4.13048 57.2003 4.54364 57.3714 4.97444 57.3714H55.5265C55.7398 57.3714 55.951 57.3294 56.1481 57.2478C56.3452 57.1661 56.5243 57.0465 56.6751 56.8956C56.8259 56.7448 56.9456 56.5657 57.0272 56.3687C57.1088 56.1716 57.1509 55.9604 57.1509 55.7471V55.7471C57.1509 55.5338 57.1088 55.3226 57.0272 55.1255C56.9455 54.9285 56.8259 54.7495 56.6751 54.5987C56.5242 54.4479 56.3451 54.3283 56.1481 54.2467C55.951 54.1651 55.7398 54.1232 55.5265 54.1232V54.1232Z" fill="#6050B3"/>
<path d="M32.1983 28.4512C32.1983 28.8327 32.0852 29.2057 31.8732 29.5229C31.6613 29.8401 31.36 30.0874 31.0075 30.2334C30.655 30.3794 30.2672 30.4176 29.893 30.3432C29.5188 30.2687 29.1751 30.085 28.9053 29.8152C28.6355 29.5455 28.4518 29.2017 28.3774 28.8276C28.303 28.4534 28.3412 28.0655 28.4872 27.713C28.6332 27.3605 28.8804 27.0593 29.1976 26.8473C29.5149 26.6354 29.8878 26.5222 30.2693 26.5222C30.5227 26.5221 30.7735 26.572 31.0076 26.6689C31.2417 26.7658 31.4544 26.9079 31.6335 27.0871C31.8126 27.2662 31.9547 27.4789 32.0516 27.7129C32.1486 27.947 32.1984 28.1979 32.1983 28.4512V28.4512Z" fill="#463796"/>
<path d="M55.3215 53.5046H5.21486C5.20719 46.8926 7.82097 40.5473 12.4834 35.859H12.4881C15.9006 32.4207 20.2367 30.0455 24.9713 29.021C29.706 27.9965 34.6362 28.3666 39.1649 30.0865C43.6935 31.8064 47.6265 34.8023 50.4874 38.7115C53.3483 42.6207 55.0146 47.2755 55.2844 52.1122C55.3076 52.5695 55.3215 53.0334 55.3215 53.5046Z" fill="#6050B3"/>
<path d="M55.3215 53.5047H5.21486C5.20719 46.8927 7.82097 40.5473 12.4834 35.8591H12.4881C8.82801 40.5501 13.1211 52.1123 29.032 52.1123H55.2844C55.3076 52.5695 55.3215 53.0335 55.3215 53.5047Z" fill="#463796"/>
<path d="M48.0189 41.8422C48.9229 40.4871 46.6051 37.3535 42.8419 34.8432C39.0787 32.3329 35.2952 31.3965 34.3912 32.7516C33.4872 34.1068 35.8051 37.2403 39.5683 39.7506C43.3315 42.2609 47.115 43.1974 48.0189 41.8422Z" fill="#A5ABDE"/>
<path d="M30.2715 24.049V16" stroke="#FF8C21" stroke-width="2" stroke-miterlimit="10" stroke-linecap="round"/>
<path d="M23.6909 25.3692L20.2783 20.9416" stroke="#FF8C21" stroke-width="2" stroke-miterlimit="10" stroke-linecap="round"/>
<path d="M36.8516 25.3692L40.2642 20.9416" stroke="#FF8C21" stroke-width="2" stroke-miterlimit="10" stroke-linecap="round"/>
</svg>
