<svg width="32" height="32" viewBox="0 0 32 32" fill="none" xmlns="http://www.w3.org/2000/svg">
<path d="M6.27225 26.3356C6.15002 26.3451 6.02739 26.3231 5.91619 26.2714C5.805 26.2198 5.709 26.1403 5.63747 26.0408L5.59251 25.9804C5.52888 25.8951 5.48864 25.7947 5.47579 25.6891C5.46293 25.5835 5.47791 25.4764 5.51922 25.3784L7.5041 15.4109L7.15148 24.7637L7.41091 24.7345C10.4935 24.3867 18.3386 23.5019 23.252 23.818C22.8637 21.6927 22.5932 19.5476 22.4416 17.3925L23.9168 17.2754C24.0748 19.6971 24.4034 22.1047 24.9002 24.4802L24.9255 24.5942C24.9486 24.6963 24.9469 24.8025 24.9206 24.9038C24.8942 25.0051 24.844 25.0987 24.7741 25.1766C24.7042 25.2546 24.6167 25.3147 24.5188 25.3518C24.4209 25.389 24.3156 25.4022 24.2115 25.3903L24.0945 25.3774C19.4885 24.8623 10.8337 25.8392 7.57529 26.2068C7.17911 26.2513 6.86394 26.2869 6.64618 26.3096C6.52205 26.3246 6.39725 26.3332 6.27225 26.3356Z" fill="#50429B"/>
<path d="M24.0631 18.1891C22.6737 18.1848 21.3058 17.8452 20.0758 17.1991L20.7625 15.8879C22.5945 16.8479 24.7327 16.9755 26.4811 16.2325C28.3075 15.4568 29.6246 13.693 29.7592 11.8434C29.896 9.95453 28.6774 8.01625 26.9853 7.43018C25.2593 6.8324 23.2506 7.49035 21.5134 8.21317C21.2734 8.31292 21.0269 8.41852 20.7747 8.52646C18.9373 9.31273 16.8557 9.87797 14.8741 9.6972L15.0088 8.548C16.6167 8.69481 18.5168 7.88185 20.1928 7.16465C20.4504 7.05484 20.7007 6.94736 20.9452 6.84551C22.9399 6.01592 25.2748 5.27039 27.4704 6.03044C29.8032 6.83848 31.4224 9.38321 31.2365 11.9499C31.0634 14.3383 29.3867 16.6074 27.0616 17.5948C26.1121 17.9922 25.0923 18.1943 24.0631 18.1891Z" fill="#50429B"/>
<path d="M12.7305 14.6744C13.5714 15.222 14.4829 15.6526 15.4399 15.9545C17.2322 16.5256 19.1666 16.462 20.9175 15.7742C21.853 15.4106 22.7352 14.9222 23.54 14.3225C23.1258 15.3514 22.3952 16.2219 21.4537 16.8082C20.4957 17.4305 19.3858 17.7789 18.244 17.8158C17.1023 17.8526 15.9722 17.5765 14.976 17.0173C13.9987 16.4933 13.2126 15.6731 12.7305 14.6744Z" fill="#50429B"/>
<path d="M7.15286 24.7636L8.14026 12.9766L6.72577 17.8192L7.15286 24.7636Z" fill="#50429B"/>
<path d="M6.56866 8.01152C8.83709 7.56663 10.9538 8.19251 12.3346 8.79896C12.51 8.86799 12.6814 8.94702 12.8478 9.03568C12.9977 9.10757 13.1475 9.18249 13.2979 9.25883C15.5938 10.3297 18.17 10.6457 20.6567 10.1615C18.3004 9.9793 16.9658 9.52575 15.0521 8.50627C14.3677 8.14194 13.6599 7.76496 12.9462 7.45026C10.6883 6.45513 8.38471 6.14675 6.28393 6.55839C3.86073 7.03277 1.78758 8.50791 0.73742 10.5017C-0.425597 12.7102 -0.19426 15.5125 1.29938 17.3154C1.80368 17.912 2.43208 18.3913 3.14073 18.72C3.84938 19.0486 4.62121 19.2187 5.40237 19.2183C6.03054 19.2202 6.65319 19.101 7.23622 18.8671C7.20664 18.405 7.25147 17.9412 7.36898 17.4934C7.36898 17.4913 7.37062 17.4894 7.37109 17.4873L7.19945 17.2267C5.77911 18.1633 3.59895 17.7701 2.43945 16.3713C1.31554 15.0163 1.1549 12.887 2.04701 11.1931C2.89112 9.58944 4.5812 8.40067 6.56866 8.01152Z" fill="#50429B"/>
<path d="M29.7576 11.8428C29.6239 13.6926 28.3059 15.4562 26.4795 16.2319C25.0533 16.808 23.4704 16.866 22.0059 16.3958C22.6894 15.851 23.2175 15.136 23.5372 14.3224C22.7324 14.9222 21.8502 15.4105 20.9147 15.7742C19.1638 16.4619 17.2294 16.5256 15.437 15.9545C14.4801 15.6525 13.5686 15.2219 12.7277 14.6744C13.2095 15.6729 13.9952 16.493 14.972 17.0173C15.792 17.4786 16.7057 17.7486 17.6448 17.8071C18.5839 17.8656 19.524 17.711 20.3949 17.3549C21.0626 17.6713 21.7678 17.9015 22.4936 18.0398C22.645 19.9776 22.8976 21.9062 23.2506 23.8176C18.3372 23.5015 10.4921 24.3864 7.40949 24.7341L7.15006 24.7634L8.13746 12.9761L6.83888 17.4219C5.43094 18.0873 3.50342 17.656 2.43688 16.3682C1.31296 15.0132 1.15234 12.8838 2.04445 11.19C2.88738 9.58796 4.57817 8.39919 6.56562 8.01004C8.83405 7.56515 10.9508 8.19103 12.3315 8.79748C12.507 8.86651 12.6784 8.94554 12.8448 9.0342C12.9946 9.10608 13.1445 9.18101 13.2948 9.25734C15.5908 10.3282 18.167 10.6442 20.6536 10.16C19.5551 10.097 18.469 9.89586 17.4208 9.56127C18.5728 9.34279 19.6965 8.99498 20.7705 8.52446C21.0227 8.41652 21.2692 8.31091 21.5092 8.21117C23.2464 7.48835 25.2556 6.82969 26.981 7.42818C28.6763 8.01612 29.8948 9.95394 29.7576 11.8428Z" fill="#50429B"/>
<path d="M8.89463 18.3289C8.50617 15.8235 8.51413 13.3387 8.66446 10.8066C8.46028 11.6908 8.20904 12.633 7.97138 13.5572L8.1409 12.9765L7.1535 24.7638L7.41293 24.7345C8.35491 24.6282 9.74295 24.4718 11.3546 24.3149C9.9963 22.6251 9.22759 20.4842 8.89463 18.3289Z" fill="#A5ABDE"/>
<path d="M6.84142 17.4224L7.54691 15.0069C6.66952 15.0296 5.8049 14.7932 5.06106 14.3274C4.31722 13.8615 3.72714 13.1868 3.36454 12.3875C3.01803 11.5597 2.9352 10.6452 3.12735 9.76855C2.69395 10.1825 2.32939 10.6629 2.04746 11.1917C1.15535 12.8855 1.31668 15.0149 2.43989 16.3699C3.50597 17.6561 5.43348 18.0879 6.84142 17.4224Z" fill="#A5ABDE"/>
<path d="M29.7575 11.8429C29.7805 11.5074 29.7629 11.1704 29.705 10.8391C29.1749 11.8636 28.4266 12.7594 27.5127 13.4633C26.5988 14.1673 25.5417 14.6622 24.4159 14.9133C24.7399 13.9399 25.0139 12.9933 25.3379 12.0206C22.4314 14.4167 18.5387 15.8419 14.7647 15.7202C14.9881 15.8073 15.2129 15.8853 15.4391 15.9543C17.2314 16.5254 19.1658 16.4618 20.9167 15.774C21.8522 15.4104 22.7344 14.922 23.5392 14.3223C23.2195 15.1358 22.6914 15.8509 22.0079 16.3957C23.4724 16.8658 25.0553 16.8078 26.4815 16.2318C28.3072 15.4563 29.6243 13.6924 29.7575 11.8429Z" fill="#A5ABDE"/>
<path d="M23.2532 23.8182C22.9002 21.9068 22.6476 19.9782 22.4962 18.0404C21.7704 17.902 21.0652 17.6719 20.3975 17.3555C20.349 17.3754 20.2982 17.3899 20.2491 17.4086C20.5195 18.5826 20.7668 19.6855 20.7375 20.8974C20.7328 21.9099 20.4482 22.9013 19.9152 23.762C21.107 23.7395 22.2414 23.7531 23.2532 23.8182Z" fill="#A5ABDE"/>
<path d="M10.8971 17.1555C11.5913 17.4992 12.2343 17.8048 12.8911 18.0542C13.5358 18.3028 14.1977 18.5042 14.8715 18.6569C15.5454 18.8089 16.2293 18.9124 16.918 18.9667C17.6179 19.0252 18.3294 19.0275 19.1045 19.0184C18.4718 19.4803 17.7346 19.7785 16.9587 19.8864C15.3835 20.1221 13.7772 19.7569 12.4586 18.8634C11.806 18.4307 11.2698 17.8442 10.8971 17.1555Z" fill="#A5ABDE"/>
</svg>
