<svg width="86" height="86" viewBox="0 0 86 86" fill="none" xmlns="http://www.w3.org/2000/svg">
<path d="M78.8334 39.6675V59.6625C78.8334 70.2333 70.2334 78.8333 59.6626 78.8333H26.3376C15.7667 78.8333 7.16675 70.2333 7.16675 59.6625V33.8267H77.9017C78.4392 35.4392 78.7259 37.0875 78.7976 38.8433C78.8334 39.0942 78.8334 39.4167 78.8334 39.6675Z" fill="#EAE7FF"/>
<path opacity="0.4" d="M77.9017 33.8266H7.16675V23.005C7.16675 14.2616 14.2617 7.16663 23.0051 7.16663H31.3542C37.1951 7.16663 39.0226 9.06579 41.3517 12.1833L46.3684 18.8483C47.4792 20.3175 47.6226 20.5325 49.7009 20.5325H59.6984C68.1909 20.4966 75.4293 26.0866 77.9017 33.8266Z" fill="#EAE7FF"/>
</svg>