<svg width="118" height="105" viewBox="0 0 118 105" fill="none" xmlns="http://www.w3.org/2000/svg">
<path d="M76.5969 103.131C91.286 103.131 103.194 101.187 103.194 98.7885C103.194 96.3903 91.286 94.4462 76.5969 94.4462C61.9078 94.4462 50 96.3903 50 98.7885C50 101.187 61.9078 103.131 76.5969 103.131Z" fill="#CDC6FF"/>
<path d="M96.8279 27.2341L103.162 5.62878L110.615 4.93983L96.8279 27.2341Z" fill="#CDC6FF"/>
<path d="M100.608 30.5635L116.443 20.0913L116.214 22.7865L100.608 30.5635Z" fill="#CDC6FF"/>
<path d="M91.4488 26.1005L84.2741 14.2747L86.8206 10.3989L91.4488 26.1005Z" fill="#CDC6FF"/>
<path d="M102.903 33.332L111.078 30.9284L112.984 33.0581L102.903 33.332Z" fill="#CDC6FF"/>
<path d="M93.7227 96.9586L100.85 34.761H51.6558L58.7836 96.9586C58.7836 96.9628 58.7769 96.967 58.7769 96.972C58.7769 96.9769 58.7869 96.9861 58.7877 96.9936C58.9035 97.9833 66.6739 98.7824 76.2531 98.7824C85.8324 98.7824 93.6028 97.9833 93.7185 96.9936C93.7185 96.9861 93.7293 96.9794 93.7293 96.972C93.7293 96.9645 93.7227 96.9628 93.7227 96.9586Z" fill="#CDC6FF"/>
<path d="M83.7365 62.3933C76.8359 65.9593 69.1696 69.4537 65.0841 76.425C61.6463 82.2951 60.9371 89.4579 61.9843 96.0313C62.0883 96.6814 62.1907 97.3632 62.2956 98.0574C66.9286 98.5888 71.5902 98.8309 76.2533 98.7824C78.5374 98.7824 80.7133 98.7358 82.7127 98.6534C82.463 98.1307 82.2349 97.6004 82.0351 97.0577C81.0455 94.2212 80.5729 91.2302 80.64 88.2268C80.6916 78.1031 86.1189 69.2023 94.0092 63.1574C95.3252 62.1502 96.6537 61.1505 97.9456 60.1083L98.8013 52.6417C94.1542 56.4371 89.1019 59.7075 83.7365 62.3933Z" fill="white"/>
<path d="M91.0289 48.2125C84.1732 50.5333 76.2954 51.245 69.111 51.3332C64.0334 51.3956 58.676 51.2924 53.6816 52.4378L55.8259 71.151C58.9528 66.1408 63.4555 62.1364 68.7963 59.6156C74.45 56.8886 80.7879 56.6672 86.6638 54.6803C91.3539 53.1016 95.6852 50.61 99.4078 47.3493L99.9272 42.8186C97.3612 45.2063 94.3327 47.0421 91.0289 48.2125Z" fill="#CDC6FF"/>
<g style="mix-blend-mode:multiply" opacity="0.2">
<path d="M95.7787 70.4709C93.7382 70.8021 91.6651 70.8846 89.6048 70.7164C80.2103 69.959 70.6261 63.5886 66.3142 55.1831C63.3176 49.3513 62.2272 42.6746 61.9025 36.1869C61.8967 36.0695 61.8451 35.3811 61.8135 34.761H51.6582L58.786 96.9586C58.786 96.9628 58.7794 96.967 58.7794 96.972C58.7794 96.9769 58.7894 96.9861 58.7902 96.9936C58.9059 97.9833 66.6763 98.7824 76.2556 98.7824C85.8348 98.7824 93.6053 97.9833 93.721 96.9936C93.721 96.9861 93.7318 96.9794 93.7318 96.972C93.7318 96.9645 93.7251 96.9628 93.7251 96.9586L96.78 70.3019C96.2898 70.386 95.9185 70.4517 95.7787 70.4709Z" fill="#A0A0A0"/>
</g>
<path d="M95.5971 34.761C82.7278 33.5856 69.7782 33.5856 56.9089 34.761H50V36.5997C50 38.0981 61.7543 39.3192 76.253 39.3192C90.7517 39.3192 102.506 38.1014 102.506 36.5997V34.761H95.5971Z" fill="#F1EFF9"/>
<path d="M50 34.761C50 36.2593 61.7543 37.4813 76.253 37.4813C90.7517 37.4813 102.506 36.2635 102.506 34.761C102.506 33.2585 90.7517 32.0407 76.253 32.0407C61.7543 32.0407 50 33.2585 50 34.761Z" fill="white"/>
<path d="M99.2955 33.3908L97.4867 30.554H55.0194L53.2106 33.3908C53.1571 33.4246 53.1117 33.4698 53.0778 33.5232C53.0438 33.5766 53.0221 33.6369 53.0142 33.6996C53.0142 35.0315 63.4191 36.1069 76.2531 36.1069C89.087 36.1069 99.492 35.029 99.492 33.6996C99.4841 33.6369 99.4623 33.5766 99.4284 33.5232C99.3944 33.4698 99.349 33.4246 99.2955 33.3908Z" fill="#F1EFF9"/>
<path d="M55.019 30.554C55.019 31.3748 64.5259 32.0407 76.2527 32.0407C87.9795 32.0407 97.4864 31.3748 97.4864 30.554C97.4864 29.7333 87.9795 29.0665 76.2527 29.0665C64.5259 29.0665 55.019 29.7324 55.019 30.554Z" fill="white"/>
<path d="M74.1987 30.9719L73.6685 7.81873L84.7768 0L87.1425 3.3604L77.8271 9.91554L78.3074 31.031C75.2533 31.4905 74.1987 30.9719 74.1987 30.9719Z" fill="#CDC6FF"/>
<path d="M48.3485 104.939C66.968 104.939 82.0622 102.448 82.0622 99.3741C82.0622 96.3005 66.968 93.8088 48.3485 93.8088C29.7289 93.8088 14.6348 96.3005 14.6348 99.3741C14.6348 102.448 29.7289 104.939 48.3485 104.939Z" fill="#CDC6FF"/>
<path d="M49.4211 76.6182C71.8651 76.6182 90.0595 71.6724 90.0595 65.5714C90.0595 59.4704 71.8651 54.5246 49.4211 54.5246C26.9771 54.5246 8.78271 59.4704 8.78271 65.5714C8.78271 71.6724 26.9771 76.6182 49.4211 76.6182Z" fill="#CBC6EC"/>
<path d="M38.5987 55.9649L21.0323 17.4756C20.8751 17.1311 20.8599 16.7385 20.99 16.3829C21.1201 16.0272 21.3851 15.7371 21.7275 15.5754L23.213 14.874C23.3907 14.7901 23.5837 14.7435 23.7801 14.737C23.9765 14.7305 24.1721 14.7643 24.355 14.8363C24.5378 14.9084 24.704 15.017 24.8432 15.1557C24.9824 15.2944 25.0918 15.4601 25.1646 15.6426L40.2874 53.569L39.7384 56.4395L38.5987 55.9651" fill="#CDC6FF"/>
<path d="M42.5638 54.6142L29.3417 14.4237C29.2233 14.064 29.2514 13.6722 29.4199 13.333C29.5883 12.9938 29.8835 12.7346 30.2417 12.6115L31.7949 12.0784C31.9808 12.0146 32.1777 11.9896 32.3736 12.0048C32.5695 12.0201 32.7602 12.0752 32.934 12.167C33.1078 12.2587 33.261 12.385 33.3841 12.5381C33.5072 12.6912 33.5977 12.868 33.65 13.0574L44.5062 52.4193L43.6442 55.2119L42.5638 54.6147" fill="#CDC6FF"/>
<path d="M69.3024 95.8461C68.5173 95.3925 67.6406 95.1203 66.7367 95.0496C66.7072 95.0496 66.6777 94.9611 66.6484 94.9611C65.5296 94.8726 64.4055 94.8726 63.2867 94.9611C63.2572 94.9611 63.2277 95.0496 63.1982 95.0496C62.3131 95.1444 61.4421 95.3424 60.603 95.6397C60.4556 95.6987 60.2786 95.7577 60.1314 95.8167C59.7021 95.9402 59.287 96.1082 58.8927 96.318C58.8337 96.3475 58.7157 96.2885 58.6569 96.318C58.4347 96.4464 58.1968 96.5455 57.9491 96.613V96.7017C57.8311 96.6722 57.7417 96.7607 57.6247 96.7607V96.8492C57.5952 96.8786 57.5067 96.8197 57.4772 96.8492V96.9376C57.4072 96.9557 57.3396 96.9824 57.2763 97.0174C57.2672 97.1988 57.2556 97.3786 57.2413 97.557C57.2556 97.3788 57.2672 97.1989 57.2763 97.0174C57.0385 97.1843 56.8103 97.3645 56.5927 97.557C56.8103 97.3645 57.0385 97.1843 57.2763 97.0174C57.3814 94.9167 57.1171 92.6353 55.6784 90.9791C55.6489 90.9201 55.6489 90.8611 55.5901 90.8021C54.9118 90.1825 54.1744 89.4747 53.2309 89.4747C53.2014 89.4747 53.1719 89.386 53.1424 89.386C49.8396 88.9436 47.3627 91.5395 45.9472 94.2533C45.9175 94.3123 45.9767 94.4008 45.9472 94.4302C45.7703 94.5777 45.7703 94.8137 45.6523 94.9908C45.4129 95.478 45.2021 95.9786 45.0207 96.4902C45.1058 96.6838 45.1788 96.8825 45.2394 97.0851C45.1788 96.8825 45.1058 96.6838 45.0207 96.4902C44.9859 96.5807 44.9516 96.671 44.915 96.7607C44.9509 96.671 44.9859 96.5807 45.0207 96.4902C44.7493 95.8859 44.3962 95.3218 43.9714 94.8137C43.9419 94.7842 44.0009 94.6957 43.9714 94.6662C43.6765 94.2828 43.3815 93.9289 43.0866 93.5749C42.6358 93.0354 42.1533 92.5231 41.6417 92.0408C41.5501 91.9452 41.4516 91.8565 41.347 91.7754C40.8173 91.2138 40.1597 90.7888 39.4302 90.5365C39.2827 90.507 39.1647 90.448 39.0172 90.4185V90.33C37.2479 89.8286 35.1836 90.4185 34.2707 92.0998C34.1527 92.336 33.9758 92.5425 33.8578 92.7784C33.8283 92.8374 33.8873 92.9554 33.8578 93.0143H33.7693C33.7398 93.5157 33.5619 93.9289 33.6218 94.4302C33.6218 94.4597 33.5334 94.4597 33.5334 94.4892C33.5334 94.6662 33.5629 94.9024 33.5629 95.0496C33.6808 95.8756 33.6218 96.6722 33.8578 97.469H33.9463C33.9489 97.5788 33.9769 97.6865 34.028 97.7837C34.0792 97.8809 34.1522 97.965 34.2412 98.0293C32.7373 96.9971 31.1744 96.1415 29.5525 95.2273C29.3771 95.1238 29.1886 95.0444 28.9921 94.9913C28.0485 94.7256 27.1343 94.4012 26.1612 94.3127C25.9263 94.2831 25.6885 94.2831 25.4536 94.3127C24.5833 94.3202 23.7199 94.4669 22.896 94.7473C30.3131 100.769 39.6472 102.999 48.1841 103.028H48.3486C55.5376 103.005 64.1286 101.424 71.4058 97.345C70.7925 96.8098 70.1494 96.3098 69.4796 95.8473C69.4213 95.8167 69.3614 95.8756 69.3024 95.8461Z" fill="#CDC6FF"/>
<path d="M80.9123 75.3802L75.1722 85.6848L68.1346 78.121L63.5972 87.0003L55.4933 78.341L50.885 87.0012L43.1078 77.5728L37.1008 87.0003L29.2112 76.915L23.5971 85.6848L15.5973 74.2857L12.5547 80.9256C13.8068 83.6531 15.3316 86.2469 17.1056 88.6675C18.769 90.9324 20.7149 92.9755 22.896 94.7473C23.7198 94.4669 24.5833 94.3202 25.4536 94.3127C25.6885 94.2831 25.9262 94.2831 26.1612 94.3127C27.1342 94.4012 28.0485 94.7256 28.9921 94.9913C29.1886 95.0444 29.3771 95.1238 29.5524 95.2273C31.1743 96.1415 32.7372 96.9971 34.2412 98.0293C34.1521 97.965 34.0792 97.8809 34.028 97.7837C33.9769 97.6865 33.9489 97.5788 33.9462 97.469H33.8578C33.6218 96.6727 33.6808 95.8761 33.5628 95.0496C33.5628 94.9024 33.5333 94.6662 33.5333 94.4892C33.5333 94.4597 33.6218 94.4597 33.6218 94.4302C33.5628 93.9289 33.7398 93.5157 33.7693 93.0143H33.8578C33.8872 92.9554 33.8283 92.8374 33.8578 92.7784C33.9757 92.5424 34.1527 92.336 34.2707 92.0998C35.1847 90.4178 37.249 89.8286 39.0172 90.33V90.4185C39.1647 90.448 39.2827 90.507 39.4301 90.5365C40.1597 90.7888 40.8173 91.2138 41.3469 91.7754C41.4516 91.8565 41.5501 91.9452 41.6416 92.0408C42.1533 92.5231 42.6358 93.0354 43.0866 93.5749C43.3815 93.9289 43.6764 94.2828 43.9714 94.6662C44.0009 94.6957 43.9419 94.7842 43.9714 94.8137C44.3962 95.3218 44.7493 95.8859 45.0207 96.4902C45.202 95.9786 45.4129 95.478 45.6523 94.9908C45.7702 94.8137 45.7702 94.5777 45.9472 94.4302C45.9767 94.4007 45.9175 94.3123 45.9472 94.2533C47.3626 91.5394 49.8396 88.9436 53.1424 89.386C53.1719 89.386 53.2014 89.4747 53.2309 89.4747C54.1756 89.4747 54.9129 90.1825 55.5901 90.8021C55.6488 90.8611 55.6488 90.9201 55.6783 90.9791C57.117 92.6353 57.3813 94.9166 57.2763 97.0173C57.3396 96.9824 57.4071 96.9556 57.4772 96.9376V96.8491C57.5067 96.8197 57.5952 96.8786 57.6246 96.8491V96.7607C57.7426 96.7607 57.832 96.6722 57.9491 96.7017V96.613C58.1967 96.5455 58.4346 96.4464 58.6569 96.318C58.7157 96.2885 58.8336 96.3475 58.8926 96.318C59.2869 96.1082 59.7021 95.9402 60.1313 95.8167C60.2786 95.7577 60.4555 95.6987 60.603 95.6397C61.4421 95.3424 62.3131 95.1444 63.1982 95.0496C63.2277 95.0496 63.2572 94.9611 63.2866 94.9611C64.4055 94.8726 65.5296 94.8726 66.6484 94.9611C66.6777 94.9611 66.7072 95.0496 66.7367 95.0496C67.6406 95.1203 68.5173 95.3925 69.3023 95.8461C69.3613 95.8756 69.4203 95.8167 69.4793 95.8461C70.1492 96.3086 70.7923 96.8086 71.4056 97.3438C75.2434 95.1927 78.7157 92.3464 81.4245 88.6664C82.8251 86.7582 84.0695 84.7402 85.1455 82.6318L80.9123 75.3802Z" fill="#DBD6FF"/>
<path d="M89.4747 66.7908C85.7574 73.9892 46.8017 74.4505 46.8017 74.4505L46.8128 74.6767C39.9517 74.438 12.3083 73.0894 9.05576 66.7908L8.47119 66.303C8.47119 66.303 8.90322 73.0106 12.5551 80.9256L15.5975 74.2857L23.5973 85.6837L29.2114 76.9138L37.101 86.9991L43.1079 77.5728L50.8852 87.0003L55.4935 78.3401L63.5974 87.0003L68.1348 78.121L75.1723 85.6848L80.9124 75.3802L85.1456 82.6325C89.5634 73.9993 90.0592 66.303 90.0592 66.303L89.4747 66.7908Z" fill="#DBD6FF"/>
<path d="M17.2396 80.1714C16.843 79.6618 16.1435 79.4 15.5617 79.6645C15.5326 79.6631 15.5036 79.6677 15.4763 79.678C15.4491 79.6883 15.4243 79.7041 15.4034 79.7244C15.3744 79.7513 15.3471 79.7798 15.3216 79.8099C15.3101 79.8187 15.2986 79.8272 15.2873 79.8366C15.2477 79.867 15.2216 79.9117 15.2145 79.9611C15.099 80.1787 15.0318 80.4186 15.0172 80.6645C14.9782 81.0373 14.9823 81.4134 15.0294 81.7853C15.1216 82.4597 15.5094 83.1638 16.2225 83.3291C16.9202 83.4903 17.547 82.9737 17.7241 82.3184C17.8046 81.9469 17.8029 81.5622 17.7192 81.1914C17.6355 80.8205 17.4718 80.4724 17.2396 80.1714Z" fill="#DBD6FF"/>
<path d="M31.1176 82.7823C30.9597 82.4674 30.7125 82.206 30.4069 82.0308C30.1013 81.8556 29.7509 81.7743 29.3994 81.7972C29.3704 81.7988 29.3421 81.8061 29.316 81.8187C29.2899 81.8313 29.2666 81.8489 29.2473 81.8705C29.2152 81.8724 29.1838 81.8808 29.1551 81.8954C28.8732 82.0385 28.6375 82.2585 28.4753 82.5299C28.3132 82.8014 28.2312 83.1132 28.2388 83.4293C28.2628 83.8045 28.364 84.1708 28.536 84.5051C28.6813 84.802 28.9227 85.0409 29.221 85.1832C29.5061 85.3178 29.8273 85.3558 30.1359 85.2914C30.4445 85.227 30.7237 85.0637 30.9312 84.8263C31.4012 84.2795 31.4153 83.4138 31.1176 82.7823Z" fill="#DBD6FF"/>
<path d="M44.9743 84.5464C44.8165 84.2314 44.5694 83.97 44.2638 83.7947C43.9583 83.6195 43.6078 83.5382 43.2563 83.5611C43.2274 83.5627 43.199 83.57 43.1729 83.5825C43.1468 83.5951 43.1235 83.6127 43.1042 83.6344C43.0721 83.6363 43.0408 83.6447 43.0121 83.6593C42.7301 83.8024 42.4945 84.0225 42.3323 84.294C42.1701 84.5654 42.0881 84.8772 42.0957 85.1934C42.1198 85.5685 42.221 85.9346 42.3929 86.2689C42.5384 86.5658 42.7799 86.8047 43.0782 86.9471C43.3632 87.0816 43.6844 87.1196 43.993 87.0552C44.3015 86.9908 44.5807 86.8275 44.7881 86.5901C45.257 86.0436 45.2711 85.1782 44.9743 84.5464Z" fill="#DBD6FF"/>
<path d="M58.0522 84.5464C57.8944 84.2314 57.6472 83.9699 57.3416 83.7947C57.036 83.6194 56.6855 83.5382 56.3339 83.5611C56.305 83.5627 56.2767 83.57 56.2506 83.5826C56.2245 83.5952 56.2011 83.6128 56.1819 83.6344C56.1498 83.6363 56.1184 83.6448 56.0897 83.6593C55.8077 83.8024 55.572 84.0225 55.4099 84.2939C55.2477 84.5654 55.1657 84.8772 55.1733 85.1934C55.1974 85.5685 55.2986 85.9347 55.4706 86.269C55.6159 86.5658 55.8573 86.8047 56.1556 86.9471C56.4407 87.0817 56.7619 87.1196 57.0705 87.0552C57.3791 86.9908 57.6583 86.8276 57.8657 86.5902C58.336 86.0436 58.3499 85.1782 58.0522 84.5464Z" fill="#DBD6FF"/>
<path d="M70.768 84.2065C70.6102 83.8916 70.363 83.6302 70.0575 83.455C69.7519 83.2799 69.4015 83.1986 69.05 83.2215C69.021 83.223 68.9927 83.2302 68.9666 83.2428C68.9404 83.2554 68.9171 83.273 68.8979 83.2948C68.8658 83.2965 68.8344 83.305 68.8058 83.3197C68.5238 83.4627 68.288 83.6827 68.1258 83.9541C67.9636 84.2256 67.8816 84.5374 67.8892 84.8535C67.9133 85.2287 68.0145 85.595 68.1864 85.9293C68.3318 86.2262 68.5733 86.4651 68.8716 86.6072C69.1567 86.7419 69.4779 86.7799 69.7865 86.7156C70.0951 86.6512 70.3743 86.4879 70.5818 86.2505C71.0518 85.7038 71.0659 84.8388 70.768 84.2065Z" fill="#DBD6FF"/>
<path d="M82.0727 82.4424C81.9149 82.1275 81.6677 81.8661 81.3621 81.6909C81.0565 81.5157 80.706 81.4345 80.3544 81.4574C80.3255 81.4589 80.2972 81.4662 80.2711 81.4788C80.245 81.4914 80.2216 81.509 80.2024 81.5307C80.1703 81.5325 80.1389 81.5409 80.1102 81.5556C79.8282 81.6987 79.5925 81.9187 79.4304 82.1901C79.2682 82.4615 79.1862 82.7734 79.1938 83.0895C79.2179 83.4646 79.319 83.8308 79.4911 84.165C79.6363 84.4619 79.8778 84.7009 80.1761 84.8431C80.4612 84.9779 80.7824 85.0159 81.091 84.9515C81.3996 84.8872 81.6788 84.7239 81.8863 84.4865C82.3565 83.9401 82.3708 83.0742 82.0727 82.4424Z" fill="#DBD6FF"/>
<path d="M86.2648 79.3138C84.9393 77.4418 83.5634 75.6067 82.1372 73.8085C81.7367 73.3034 81.3323 72.8015 80.9238 72.3027C80.8821 72.2616 80.826 72.2386 80.7675 72.2386C80.7089 72.2386 80.6528 72.2616 80.6111 72.3027C80.5885 72.3245 80.5711 72.3511 80.5602 72.3806C80.5146 72.3733 80.4679 72.3794 80.4256 72.3981C80.3834 72.4168 80.3475 72.4473 80.3222 72.4859C78.5484 74.858 76.9712 77.371 75.6063 79.9998C75.2717 80.6449 74.9504 81.2967 74.6422 81.9551L69.7 76.8288L68.2295 75.3034C68.209 75.2814 68.1839 75.2641 68.1559 75.2527C68.128 75.2413 68.0979 75.2362 68.0678 75.2376C68.0377 75.2391 68.0083 75.2471 67.9815 75.2611C67.9548 75.2751 67.9315 75.2947 67.9132 75.3186C67.8634 75.2888 67.8039 75.2793 67.7473 75.2922C67.6907 75.3051 67.6412 75.3393 67.6092 75.3878C66.1868 77.4922 64.847 79.6495 63.5899 81.8597C63.2946 82.3787 63.0043 82.9006 62.7189 83.4254C60.9733 81.4627 59.2005 79.5246 57.4007 77.6113C56.8726 77.0503 56.3426 76.4913 55.8108 75.9343C55.7767 75.8954 55.7288 75.8712 55.6772 75.8669C55.6256 75.8626 55.5744 75.8785 55.5343 75.9113C55.5097 75.8911 55.4812 75.8762 55.4505 75.8677C55.4199 75.8591 55.3878 75.8571 55.3563 75.8618C55.3248 75.8664 55.2946 75.8775 55.2677 75.8945C55.2408 75.9115 55.2177 75.9339 55.2 75.9604C53.7905 78.0673 52.4689 80.2295 51.2355 82.447C50.9367 82.9846 50.6434 83.5252 50.3555 84.0687C48.8016 81.8252 47.1639 79.643 45.4424 77.5221C44.9298 76.8908 44.4099 76.2654 43.8827 75.6461C43.8554 75.6096 43.8155 75.5846 43.7708 75.5761C43.726 75.5676 43.6797 75.5761 43.641 75.6C43.6565 75.5508 43.6552 75.4979 43.6374 75.4495C43.6195 75.4011 43.5861 75.36 43.5423 75.3327C43.4914 75.3044 43.4314 75.2968 43.375 75.3116C43.3186 75.3265 43.2701 75.3625 43.2396 75.4122L38.1909 82.3062C37.7727 82.8769 37.3545 83.4479 36.9366 84.0191C35.014 81.6962 33.1491 79.3273 31.3421 76.9124C30.8186 76.212 30.3 75.5079 29.7863 74.8002C29.7565 74.7528 29.7103 74.7179 29.6565 74.7023C29.6027 74.6867 29.545 74.6914 29.4944 74.7154C29.4856 74.6785 29.4669 74.6447 29.4403 74.6176C29.4137 74.5905 29.3802 74.5712 29.3434 74.5617C29.3067 74.5522 29.268 74.5529 29.2317 74.5638C29.1953 74.5746 29.1626 74.5952 29.137 74.6232C27.4874 76.5054 25.9543 78.4865 24.5462 80.5555C24.1929 81.0749 23.848 81.5998 23.5114 82.1302C21.4649 79.7031 19.4921 77.216 17.5932 74.6686C17.0402 73.9272 16.4942 73.1807 15.9552 72.4292C15.9244 72.3799 15.8759 72.3442 15.8197 72.3294C15.7634 72.3147 15.7036 72.322 15.6526 72.35C15.6227 72.3676 15.5976 72.3923 15.5794 72.4219C15.5489 72.4271 15.52 72.4391 15.4948 72.457C15.4697 72.4749 15.4488 72.4982 15.434 72.5253L11.8789 78.5007C11.8521 78.5512 11.8458 78.6101 11.8615 78.665C11.8771 78.72 11.9134 78.7668 11.9627 78.7957C12.0121 78.8245 12.0707 78.8332 12.1262 78.8198C12.1818 78.8064 12.2301 78.7721 12.2609 78.724L15.7374 72.8802C17.6257 75.4987 19.592 78.0589 21.6361 80.5606C22.2333 81.2915 22.8371 82.0168 23.4473 82.7366C23.6116 82.9309 23.8771 82.7016 23.8027 82.4965C25.1096 80.428 26.5408 78.4406 28.0884 76.5454C28.5143 76.0239 28.9492 75.5093 29.393 75.0016C29.3967 75.0088 29.4009 75.0157 29.4054 75.0223C31.2423 77.5531 33.1423 80.0361 35.1055 82.4714C35.6603 83.1596 36.22 83.8437 36.7847 84.5237C36.8099 84.5587 36.8468 84.5833 36.8887 84.5932C36.9306 84.6031 36.9747 84.5976 37.0128 84.5777C37.0671 84.5594 37.1141 84.5244 37.1472 84.4777L42.1958 77.5836L43.5188 75.7769C43.5137 75.8091 43.5158 75.8421 43.5249 75.8734C43.5341 75.9046 43.5501 75.9335 43.5718 75.9578C45.4126 78.1225 47.1647 80.3586 48.8283 82.6661C49.2982 83.3182 49.7606 83.9757 50.2154 84.6387C50.2439 84.6799 50.2851 84.7107 50.3327 84.7262C50.3803 84.7418 50.4317 84.7413 50.479 84.7248C50.5263 84.7083 50.5669 84.6768 50.5945 84.635C50.6222 84.5932 50.6353 84.5435 50.632 84.4936C51.8007 82.2767 53.0577 80.1095 54.403 77.9922C54.7703 77.4147 55.144 76.8415 55.5242 76.2723C57.4056 78.2413 59.2586 80.2366 61.0832 82.2581C61.566 82.7931 62.0465 83.33 62.5247 83.8689C62.5304 83.9097 62.5472 83.9481 62.5733 83.98C62.5993 84.012 62.6336 84.0362 62.6724 84.05C62.7112 84.0638 62.7531 84.0668 62.7934 84.0585C62.8338 84.0503 62.8711 84.0312 62.9014 84.0032C62.9503 83.9645 62.9832 83.909 62.9936 83.8475C64.1839 81.6508 65.4562 79.5015 66.8106 77.3995C67.1873 76.8158 67.5703 76.2355 67.9597 75.6585L73.1058 80.9963L74.5012 82.4438C74.5236 82.4959 74.5639 82.5383 74.6148 82.5634C74.6657 82.5885 74.7239 82.5946 74.7789 82.5806C74.8308 82.5652 74.8761 82.5326 74.9073 82.4883C74.9386 82.4439 74.9539 82.3903 74.951 82.3362C76.1785 79.6975 77.6157 77.1615 79.2487 74.7525C79.716 74.0636 80.1988 73.3858 80.6973 72.7191C82.0962 74.432 83.4488 76.1812 84.7549 77.9666C85.1354 78.4869 85.5118 79.0101 85.884 79.5362C86.0469 79.7677 86.4307 79.547 86.2648 79.3138Z" fill="#EBE8FE"/>
<path d="M69.5726 97.7554C67.8395 96.8609 65.9257 96.3724 63.976 96.3268C61.1105 96.2719 58.3104 97.1856 56.0287 98.9199C56.1735 97.6402 56.1612 96.3475 55.9921 95.0708C55.7953 93.7574 55.3283 92.412 54.4483 91.3941C54.2189 91.1173 53.9281 90.8979 53.599 90.7533C53.2667 90.6233 52.9106 90.5653 52.5543 90.583C51.8833 90.6133 51.2251 90.7779 50.6188 91.0669C49.3462 91.6531 48.3398 92.6773 47.5425 93.8088C47.0651 94.5065 46.63 95.2324 46.2398 95.9823C45.8508 96.7058 45.4679 97.434 45.0831 98.1586C44.3725 97.0125 43.6533 95.8692 42.8333 94.7973C42.0443 93.7664 41.1632 92.7307 40.0105 92.0955C38.9941 91.5355 37.7453 91.3443 36.6522 91.8024C36.1197 92.0223 35.6693 92.4033 35.3641 92.892C35.0704 93.398 34.8957 93.9642 34.8533 94.5478C34.8008 95.2588 34.825 95.9733 34.9257 96.6791C35.0125 97.4367 35.1342 98.189 35.2909 98.936C32.907 98.3105 30.8466 96.7761 28.3945 96.3644C27.7046 96.2424 26.9995 96.2335 26.3067 96.3381C26.2504 96.354 26.2026 96.3915 26.1736 96.4424C26.1447 96.4934 26.137 96.5536 26.1521 96.6102C26.169 96.666 26.2066 96.7131 26.2573 96.7419C26.3079 96.7707 26.3677 96.7789 26.4243 96.7648C28.8687 96.3791 31.1215 97.771 33.2773 98.6909C33.9034 98.9664 34.5494 99.1943 35.2098 99.3727C35.2468 99.3838 35.2863 99.3842 35.3235 99.3738C35.3608 99.3633 35.3943 99.3425 35.4201 99.3137C35.4582 99.3387 35.5028 99.3519 35.5483 99.3515C35.5938 99.3512 35.6383 99.3374 35.6759 99.3119C35.7136 99.2864 35.7429 99.2502 35.7601 99.2081C35.7773 99.1659 35.7816 99.1196 35.7724 99.075C35.6183 98.377 35.4923 97.6724 35.4024 96.9632C35.3126 96.3439 35.2664 95.7191 35.2641 95.0934C35.2791 94.0351 35.566 92.9031 36.548 92.3427C37.487 91.807 38.6778 91.9178 39.6167 92.3888C40.7038 92.9335 41.5395 93.8657 42.2826 94.8058C43.2115 96.0303 44.0698 97.3068 44.8531 98.6291C44.8681 98.6539 44.8879 98.6755 44.9114 98.6925C44.9349 98.7095 44.9615 98.7216 44.9898 98.728C45.0181 98.7345 45.0473 98.7352 45.0759 98.73C45.1044 98.7249 45.1316 98.7141 45.1559 98.6982C45.1961 98.7035 45.237 98.6957 45.2725 98.6762C45.3081 98.6566 45.3364 98.6263 45.3536 98.5895C46.0467 97.2833 46.7027 95.9452 47.487 94.6904C48.2013 93.5473 49.0769 92.4784 50.2393 91.769C50.7754 91.4361 51.368 91.2043 51.9877 91.0853C52.6223 90.969 53.3336 90.977 53.8481 91.4173C54.314 91.8582 54.6829 92.3915 54.931 92.983C55.1967 93.5663 55.3882 94.1807 55.5011 94.8116C55.7727 96.2466 55.7117 97.7303 55.5598 99.1754C55.5602 99.2334 55.5832 99.2889 55.6239 99.3302C55.6647 99.3714 55.7199 99.3952 55.7778 99.3964C55.7823 99.4025 55.7873 99.4082 55.7926 99.4137C55.8347 99.4539 55.8907 99.4764 55.949 99.4764C56.0073 99.4764 56.0633 99.4539 56.1055 99.4137C57.5129 98.3034 59.1452 97.5129 60.8889 97.0969C63.7428 96.423 66.7436 96.7919 69.3493 98.137C69.6018 98.2681 69.8258 97.8863 69.5726 97.7554Z" fill="#EBE8FE"/>
<path d="M31.9452 93.7961C31.8624 92.9953 31.656 92.2122 31.3334 91.4747C31.184 91.1279 31.0061 90.7941 30.8016 90.4767C30.619 90.1563 30.3435 89.8987 30.0115 89.738C29.8592 89.6702 29.6926 89.641 29.5263 89.6528C29.36 89.6647 29.1992 89.7173 29.0581 89.806C28.9304 89.9006 28.8297 90.0269 28.766 90.1724C28.7023 90.3179 28.6777 90.4776 28.6947 90.6355C28.7477 91.3463 29.2675 91.9903 29.7316 92.4931C30.3179 93.0898 30.9567 93.6326 31.6403 94.1148C31.6911 94.1439 31.7513 94.152 31.8079 94.1372C31.8646 94.1223 31.9131 94.0858 31.9431 94.0355C31.9627 94.0035 31.9731 93.9666 31.9731 93.9291C31.9731 93.8915 31.9627 93.8546 31.9431 93.8226C31.9445 93.8138 31.9452 93.805 31.9452 93.7961Z" fill="#DBD6FF"/>
<path d="M44.2316 88.762C44.0781 88.7786 43.9304 88.8298 43.7995 88.9117C43.6687 88.9937 43.5581 89.1042 43.4761 89.2351C43.0697 89.8311 43.3102 90.6733 43.465 91.3141C43.6646 92.1316 43.948 92.9264 44.3107 93.6858C44.3292 93.7213 44.3576 93.7507 44.3924 93.7706C44.4272 93.7905 44.467 93.7999 44.507 93.7978C44.547 93.7957 44.5856 93.7821 44.6181 93.7587C44.6506 93.7353 44.6757 93.703 44.6904 93.6657C44.7138 93.6515 44.7341 93.6326 44.7499 93.6103C44.7658 93.5879 44.7769 93.5626 44.7826 93.5358C44.9707 92.7828 45.1132 92.0191 45.2093 91.2489C45.2936 90.5751 45.4722 89.7196 45.0127 89.1406C44.9227 89.0192 44.8046 88.9214 44.6686 88.8555C44.5326 88.7896 44.3827 88.7575 44.2316 88.762Z" fill="#DBD6FF"/>
<path d="M61.8953 90.5655C61.6769 90.3744 61.3972 90.2681 61.107 90.2659C60.4072 90.2447 59.8835 90.7309 59.5743 91.3178C59.388 91.7023 59.228 92.0989 59.0955 92.5051L58.574 93.9417C58.5625 93.971 58.5583 94.0026 58.5617 94.0339C58.565 94.0651 58.5759 94.0951 58.5934 94.1212C58.6109 94.1474 58.6344 94.1689 58.662 94.1839C58.6897 94.199 58.7205 94.2071 58.7519 94.2076C58.7373 94.2486 58.7359 94.2931 58.748 94.3348C58.7639 94.3912 58.8014 94.439 58.8524 94.4679C58.9033 94.4968 58.9636 94.5045 59.0201 94.4892C59.7249 94.2104 60.3741 93.8078 60.937 93.3003C61.2109 93.0513 61.4617 92.778 61.6865 92.4839C61.9324 92.1977 62.1025 91.8542 62.181 91.4851C62.2121 91.3201 62.2024 91.15 62.1526 90.9897C62.1028 90.8294 62.0144 90.6837 61.8953 90.5655Z" fill="#DBD6FF"/>
<path d="M88.4962 65.6439C88.486 65.5999 88.4614 65.5605 88.4261 65.5322C88.3909 65.5038 88.3471 65.4882 88.3019 65.4877C88.2369 65.3687 88.1634 65.2546 88.0819 65.1463C87.6796 64.6314 87.1553 64.2252 86.5563 63.9642C85.9572 63.6926 85.3121 63.5532 84.6975 63.3232C84.404 63.2189 84.1264 63.0744 83.8727 62.8937C83.614 62.6831 83.3887 62.4345 83.2044 62.1564C83.0083 61.8657 82.7761 61.6011 82.5132 61.3691C82.2542 61.16 81.9658 60.99 81.6574 60.8647C80.2876 60.2972 78.7865 60.5714 77.3639 60.2909C76.5344 60.1273 75.774 59.7121 74.9348 59.5856C74.2038 59.476 73.4568 59.594 72.7952 59.9237C72.6239 59.7627 72.4161 59.6459 72.1896 59.5833C71.9631 59.5207 71.7248 59.5141 71.4952 59.5642C71.2767 59.2228 70.9915 58.9289 70.6567 58.7003C70.322 58.4717 69.9446 58.3129 69.547 58.2336C69.3205 58.1907 69.0754 58.2133 68.8542 58.1557C68.6509 58.0641 68.468 57.9329 68.3162 57.7697C67.9678 57.4978 67.5626 57.308 67.1307 57.2147C66.6974 57.1203 66.2488 57.1218 65.8161 57.219C65.7073 57.2442 65.6001 57.2761 65.4952 57.3147C65.471 57.3236 65.3703 57.3485 65.4007 57.3633C65.3691 57.3478 65.3426 57.2587 65.3237 57.2296C65.2031 57.0464 65.0274 56.9062 64.8219 56.8294C64.6123 56.7562 64.3852 56.7494 64.1717 56.8101C64.0775 56.8428 63.9756 56.8462 63.8795 56.8197C63.7751 56.7753 63.6787 56.714 63.5942 56.6382C63.2789 56.3651 62.9095 56.1618 62.5101 56.0414C62.1037 55.929 61.6774 55.908 61.2619 55.98C60.8464 56.052 60.452 56.2151 60.1071 56.4577C59.8089 56.0496 59.3784 55.7574 58.8891 55.6308C58.3997 55.5043 57.8815 55.5512 57.4228 55.7635C57.1492 55.5465 56.8079 55.4329 56.4589 55.4427C56.1098 55.4525 55.7754 55.5851 55.5145 55.8172C55.4927 55.836 55.4753 55.8593 55.4633 55.8855C55.4514 55.9117 55.4453 55.9402 55.4454 55.969C55.4455 55.9977 55.4518 56.0262 55.464 56.0523C55.4761 56.0784 55.4937 56.1015 55.5156 56.1202C55.5068 56.1558 55.5068 56.1931 55.5156 56.2287C55.7 56.9923 55.3961 57.7603 55.0362 58.4237C54.6553 59.126 54.2253 59.7875 53.9728 60.5522C53.7283 61.2923 53.5615 62.0525 53.2449 62.7684C52.9621 63.4362 52.5666 64.0505 52.0755 64.5843C51.6127 65.0822 51.0409 65.4662 50.4048 65.7062C50.3598 65.6864 50.3097 65.6809 50.2615 65.6904C50.2132 65.6999 50.169 65.7238 50.1348 65.7592C50.098 65.754 50.0605 65.7577 50.0254 65.7699C49.9904 65.7821 49.9587 65.8025 49.9331 65.8294C49.9075 65.8563 49.8886 65.8889 49.8782 65.9246C49.8677 65.9602 49.8658 65.9978 49.8728 66.0343C49.9133 66.2298 49.954 66.4257 49.9947 66.6218C49.9995 66.6531 50.0122 66.6826 50.0314 66.7077C50.0507 66.7327 50.0761 66.7525 50.105 66.7652C50.0901 67.0311 50.0164 67.2905 49.8892 67.5245C49.762 67.7586 49.5845 67.9616 49.3695 68.1188C49.3444 68.1365 49.323 68.1589 49.3066 68.1849C49.2902 68.2109 49.2791 68.2398 49.274 68.2701C49.2689 68.3004 49.2698 68.3314 49.2767 68.3613C49.2837 68.3913 49.2965 68.4195 49.3145 68.4444C49.2995 68.4822 49.2965 68.5236 49.3056 68.5631C49.3148 68.6027 49.3358 68.6385 49.3659 68.6659C49.4911 68.7936 49.5863 68.9478 49.6443 69.1171C49.7023 69.2863 49.7217 69.4664 49.7011 69.6442C49.6823 69.8222 49.6213 69.9931 49.5232 70.1428C49.38 70.2996 49.2783 70.4897 49.2274 70.6958C49.2407 70.9034 49.2962 71.1061 49.3905 71.2914C49.4433 71.4633 49.4724 71.6416 49.4769 71.8214C49.4869 72.1775 49.4121 72.5309 49.2587 72.8525C49.0849 73.2245 48.8053 73.5371 48.4548 73.7511C48.4068 73.7819 48.3726 73.8301 48.3592 73.8855C48.3458 73.941 48.3544 73.9994 48.383 74.0487C48.4117 74.098 48.4583 74.1344 48.5131 74.1502C48.5678 74.166 48.6266 74.1601 48.6771 74.1336C48.713 74.1543 48.7527 74.1674 48.7937 74.1721C50.8495 74.4327 52.9011 74.2011 54.9495 73.9719C54.9861 73.9968 55.0295 74.0097 55.0737 74.0087C56.9527 74.0103 58.8339 74.0385 60.7124 73.9963C62.5662 73.9439 64.414 73.762 66.2424 73.4518C66.9 73.3444 67.5558 73.2274 68.2111 73.1062C68.8196 73.1669 69.4326 73.1688 70.0415 73.1117C70.6937 73.0624 71.3445 72.9964 71.9938 72.9136C73.292 72.75 74.5823 72.529 75.8648 72.2647C78.4418 71.7331 80.98 71.0331 83.5065 70.3036C84.2013 70.1252 84.8791 69.8862 85.5321 69.5894C85.9053 69.4055 86.2603 69.1865 86.592 68.9354C86.9291 68.8346 87.2548 68.6992 87.5639 68.5313C87.8942 68.3648 88.196 68.1471 88.4582 67.8861C89.0533 67.244 88.6959 66.3767 88.4962 65.6439Z" fill="#DBD6FF"/>
<path d="M55.4926 56.517C55.4276 56.1094 55.2681 55.7227 55.0267 55.388C54.8002 55.0469 54.5546 54.7189 54.2912 54.4055C53.7785 53.79 53.2126 53.2218 52.6599 52.643C52.0859 52.0423 51.5594 51.4115 51.0345 50.7684C50.5022 50.116 49.8939 49.5294 49.2225 49.0211C48.4871 48.4821 47.7239 47.9822 46.9359 47.5234C46.9061 47.5055 46.8725 47.495 46.8378 47.493C46.8031 47.491 46.7684 47.4974 46.7368 47.5118C46.7051 47.5262 46.6775 47.5481 46.6562 47.5756C46.6349 47.603 46.6207 47.6353 46.6147 47.6695C45.874 47.114 45.0408 46.6942 44.1536 46.4294C43.4703 46.2392 42.7617 46.1558 42.0529 46.1822C42.0135 46.1823 41.9749 46.1935 41.9416 46.2146C41.9083 46.2357 41.8816 46.2657 41.8647 46.3013C41.841 46.2919 41.8159 46.2864 41.7905 46.285C41.5344 46.2769 41.2796 46.3235 41.043 46.4216C40.8063 46.5197 40.5933 46.6672 40.4181 46.8541C40.0573 47.2558 39.7944 47.7356 39.6501 48.2559C39.6437 48.2753 39.6398 48.2954 39.6386 48.3158C39.4671 48.6476 39.3166 48.9898 39.1879 49.3405C38.5294 51.0998 38.4199 53.0174 38.8739 54.8403C38.849 54.8487 38.8261 54.8619 38.8064 54.8792C38.7867 54.8966 38.7706 54.9176 38.7591 54.9412C38.7476 54.9648 38.7409 54.9904 38.7394 55.0166C38.7378 55.0427 38.7415 55.069 38.7501 55.0937C39.3179 56.9383 39.5748 58.8644 39.5105 60.7933C39.5113 60.8385 39.5259 60.8824 39.5524 60.9191C39.579 60.9557 39.6161 60.9834 39.6588 60.9982C39.7016 61.013 39.7479 61.0144 39.7914 61.002C39.8349 60.9897 39.8736 60.9643 39.9022 60.9292C39.9422 60.9189 39.9783 60.897 40.0059 60.8663C40.1794 60.6797 40.393 60.535 40.6307 60.4431C40.8684 60.3513 41.1239 60.3148 41.3778 60.3364C41.6218 60.3628 41.857 60.4431 42.0662 60.5714C42.2755 60.6997 42.4537 60.8728 42.5879 61.0783C42.6182 61.1283 42.6667 61.1646 42.7232 61.1795C42.7797 61.1943 42.8398 61.1865 42.8907 61.1578C43.1044 61.0128 43.3472 60.9161 43.602 60.8746C43.8569 60.8332 44.1178 60.8478 44.3665 60.9176C44.6151 60.9874 44.8455 61.1106 45.0416 61.2786C45.2377 61.4467 45.3948 61.6555 45.5018 61.8905C45.5158 61.9248 45.54 61.9541 45.5711 61.9743C45.6022 61.9945 45.6387 62.0047 45.6757 62.0037C45.7018 62.0254 45.7332 62.0395 45.7667 62.0447C45.8002 62.0499 45.8345 62.0458 45.8658 62.0329C46.0949 61.9458 46.343 61.9214 46.5846 61.9623C46.8262 62.0033 47.0525 62.108 47.24 62.2657C47.4276 62.4234 47.5696 62.6283 47.6514 62.8593C47.7332 63.0903 47.7518 63.3389 47.7052 63.5795C47.6932 63.6265 47.6966 63.6761 47.7149 63.7211C47.7332 63.7661 47.7654 63.804 47.8069 63.8292C48.2161 64.0246 48.5461 64.3542 48.7421 64.7631C48.7758 64.8696 48.8308 64.9681 48.9037 65.0527C48.9766 65.1373 49.066 65.2062 49.1663 65.2553C49.3673 65.3386 49.5414 65.4758 49.6693 65.6518C49.6936 65.6849 49.726 65.7111 49.7634 65.728C49.8008 65.7449 49.8419 65.7518 49.8827 65.7481C49.9236 65.7444 49.9628 65.7303 49.9966 65.707C50.0304 65.6837 50.0576 65.6521 50.0755 65.6152C50.8247 65.3715 51.5025 64.9477 52.0496 64.3808C52.5967 63.814 52.9963 63.1216 53.2133 62.3643C53.333 61.9354 53.4221 61.4986 53.4799 61.0571C53.6431 60.3616 53.8939 59.6897 54.2262 59.0573C54.6483 58.297 55.1907 57.5815 55.3666 56.7133C55.405 56.6972 55.4376 56.6698 55.4601 56.6348C55.4826 56.5997 55.494 56.5587 55.4926 56.517Z" fill="#CDC6FF"/>
<path d="M52.79 57.4755C52.732 57.0172 52.6159 56.5681 52.4444 56.1391C52.0852 55.3761 51.4864 54.7513 50.7393 54.3601C49.9829 53.9244 49.1399 53.6602 48.2702 53.5864C47.4788 53.5129 46.6815 53.6353 45.9486 53.943C45.2158 54.2507 44.57 54.734 44.0683 55.3504C43.5641 55.9937 43.2566 56.7691 43.183 57.5832C43.1155 58.4627 43.2556 59.3459 43.5923 60.1613C43.674 60.3674 43.7645 60.5697 43.8639 60.7682C43.8835 60.8038 43.913 60.8331 43.9487 60.8525C43.9844 60.872 44.025 60.8808 44.0656 60.878C44.1062 60.8751 44.1451 60.8607 44.1777 60.8364C44.2104 60.8121 44.2354 60.779 44.2499 60.741C44.617 60.803 44.9555 60.9786 45.2176 61.2431C45.353 61.3882 45.4682 61.5509 45.56 61.7269C45.6029 61.8213 45.6745 61.8997 45.7646 61.9509C45.8546 62.0022 45.9586 62.0237 46.0616 62.0124C46.2542 61.971 46.4526 61.9642 46.6476 61.9924C46.9374 62.0499 47.1934 62.2178 47.3616 62.4608C47.5298 62.7037 47.5969 63.0025 47.5487 63.294C47.5405 63.3268 47.5397 63.361 47.5465 63.3942C47.5533 63.4273 47.5675 63.4585 47.588 63.4854C47.6085 63.5122 47.6348 63.5342 47.6649 63.5495C47.6951 63.5649 47.7283 63.5732 47.7621 63.574C48.6164 63.6095 49.4653 63.4217 50.2249 63.0292C50.9846 62.6366 51.6287 62.0527 52.0939 61.3352C52.5536 60.6096 52.8192 59.778 52.8653 58.9203C52.8902 58.4374 52.8649 57.9532 52.79 57.4755Z" fill="#DBD6FF"/>
<path d="M49.5024 67.7175C49.5882 67.5265 49.6418 67.3227 49.6609 67.1142C49.7087 66.9035 49.7243 66.6868 49.707 66.4714C49.6434 65.8493 49.2001 65.3423 48.8545 64.8467C48.8198 64.7966 48.7666 64.7622 48.7066 64.7512C48.6466 64.7402 48.5847 64.7534 48.5344 64.788C48.5178 64.5241 48.4197 64.2719 48.2536 64.066C48.0876 63.8602 47.8619 63.711 47.6075 63.6389C47.585 63.6324 47.5617 63.6293 47.5383 63.6297L47.5354 63.6274C47.5128 63.4819 47.472 63.3398 47.4139 63.2046C47.26 62.8652 46.9873 62.5939 46.6471 62.4419C46.3069 62.2898 45.9229 62.2675 45.5674 62.3792C45.3652 61.8726 44.9895 61.4544 44.5075 61.1992C44.2436 61.0665 43.9487 61.0076 43.6541 61.0288C43.3595 61.05 43.0761 61.1504 42.834 61.3195C42.6162 60.8476 42.2747 60.4476 41.7206 60.3626C41.3058 60.299 40.9141 60.4976 40.5632 60.699C40.2544 60.8768 39.9669 61.0894 39.7065 61.3327C39.5054 61.1215 39.2579 60.9601 38.9835 60.8615C38.8027 60.7822 38.5996 60.7696 38.4104 60.826C38.3388 60.8531 38.2745 60.8968 38.2229 60.9534C38.0531 60.9664 37.89 61.0252 37.7511 61.1236C37.6122 61.222 37.5025 61.3563 37.4339 61.5121C37.2809 61.7976 37.159 62.1287 36.8793 62.317C36.8613 62.329 36.8449 62.3434 36.8307 62.3598C36.4816 62.0299 36.0316 61.7999 35.6162 62.0347C35.4736 62.1319 35.3539 62.2591 35.2655 62.4073C35.1772 62.5556 35.1223 62.7213 35.1047 62.893C35.0383 63.2036 35.0043 63.5202 35.003 63.8377C34.9639 63.8324 34.9247 63.8281 34.8853 63.8253C34.8596 63.795 34.8257 63.7727 34.7877 63.7611C34.7496 63.7495 34.7091 63.749 34.6708 63.7598C34.3786 63.8313 34.0717 63.7486 33.7798 63.84C33.6571 63.8713 33.5445 63.9336 33.4529 64.021C33.3613 64.1083 33.2938 64.2178 33.2567 64.3389C33.2449 64.3779 33.2451 64.4195 33.2571 64.4584C33.2691 64.4973 33.2925 64.5318 33.3242 64.5573L33.3212 64.5617C33.1847 64.7921 33.0871 65.0435 33.0323 65.3057C32.914 65.1696 32.7667 65.0618 32.6013 64.99C32.4359 64.9182 32.2565 64.8844 32.0763 64.891C31.6284 63.7389 30.3097 62.8663 29.0996 63.4223C28.8098 62.9563 28.3914 62.5842 27.8947 62.3509C27.8618 62.3316 27.8242 62.3218 27.7861 62.3224C27.7479 62.323 27.7107 62.334 27.6784 62.3543C27.4151 62.2008 27.113 62.1268 26.8086 62.1414C26.4395 62.1885 26.0734 62.2559 25.7118 62.3433C25.6164 62.1496 25.4824 61.9776 25.318 61.8377C24.9834 61.5709 24.5641 61.4329 24.1364 61.449C23.7972 61.4722 23.4699 61.5841 23.1875 61.7735C22.9051 61.9629 22.6774 62.2232 22.5272 62.5283C22.4147 62.449 22.2946 62.381 22.1687 62.3253C21.7499 62.1418 21.2868 62.0839 20.8357 62.1585C20.4887 62.2213 20.1624 62.3681 19.8853 62.5861C19.6081 62.8041 19.3886 63.0867 19.2459 63.4092C19.1033 63.2986 18.9393 63.2189 18.7643 63.1753C18.5789 63.1323 18.3862 63.1326 18.201 63.1761C18.0158 63.2197 17.8431 63.3054 17.6963 63.4264C17.4218 63.6678 17.2417 63.9986 17.1878 64.3601C17.1539 64.5623 17.1431 64.7678 17.1558 64.9725C17.1599 65.0782 17.1711 65.1835 17.1894 65.2877C16.9648 65.2812 16.7426 65.3348 16.5456 65.4429C16.3487 65.551 16.1842 65.7098 16.0691 65.9027C15.9119 66.1697 15.8541 66.4837 15.906 66.7891C15.9605 67.0382 16.0557 67.2765 16.1878 67.4947C15.9085 67.5981 15.6584 67.7676 15.4589 67.9888C15.2594 68.2099 15.1164 68.4761 15.0422 68.7645C14.9679 69.0529 14.9646 69.355 15.0325 69.645C15.1003 69.935 15.2374 70.2042 15.432 70.4297C15.4639 70.4628 15.5056 70.4847 15.551 70.4921C15.5964 70.4995 15.6429 70.492 15.6836 70.4707C16.6935 70.8214 17.7009 71.2154 18.7366 71.4829C19.7883 71.7546 20.8735 71.7573 21.9456 71.8901C24.0129 72.146 26.0095 72.7774 28.038 73.2265C29.181 73.4942 30.3452 73.6608 31.5173 73.7244C31.5624 73.7286 31.6075 73.7167 31.6446 73.6909C31.6818 73.665 31.7086 73.6269 31.7203 73.5832C32.8394 73.688 33.962 73.7622 35.0844 73.82C37.8233 73.9613 40.5683 74.0643 43.3102 74.111C44.8641 74.1375 46.4165 74.1196 47.9699 74.0785C47.9806 74.0782 47.9912 74.0771 48.0017 74.0753C48.0146 74.1017 48.0331 74.1251 48.0558 74.1437C48.0786 74.1624 48.1051 74.1759 48.1335 74.1834C48.1901 74.1986 48.2504 74.1909 48.3013 74.162C48.3523 74.133 48.3898 74.0852 48.4056 74.0288C48.4157 73.8848 48.4486 73.7433 48.5031 73.6097C48.5788 73.4944 48.6687 73.3891 48.7706 73.2963C48.9636 73.0672 49.0949 72.7926 49.1522 72.4986C49.2167 72.1963 49.2254 71.8847 49.178 71.5792C49.1516 71.4277 49.1033 71.2809 49.0347 71.1433C48.9812 71.0503 48.9366 70.9525 48.9015 70.8511C48.9477 70.8574 48.9948 70.8489 49.0358 70.8267C49.2624 70.6864 49.4298 70.4681 49.5066 70.2129C49.6167 69.9285 49.6595 69.6225 49.6314 69.3189C49.5926 68.9058 49.4295 68.5142 49.1635 68.1958C49.1807 68.1875 49.197 68.1773 49.2121 68.1656C49.3508 68.048 49.4518 67.8921 49.5024 67.7175Z" fill="#CDC6FF"/>
<path d="M37.4949 52.8928C37.191 52.3183 36.8548 51.7615 36.4879 51.225C36.1419 50.7015 35.7568 50.2048 35.3359 49.7393C34.9419 49.2946 34.4546 48.9423 33.9087 48.7078C33.3376 48.4837 32.7069 48.4626 32.122 48.6478C31.8314 48.7387 31.5586 48.8791 31.3156 49.0626C31.0812 49.2412 30.8764 49.4543 30.6497 49.6407C30.4527 49.824 30.2009 49.9373 29.9331 49.9633C29.6323 49.9652 29.3395 49.8666 29.1011 49.6831C28.5865 49.3087 28.2854 48.6739 27.9971 48.1248C27.6749 47.522 27.4021 46.8941 27.1815 46.2471C26.7301 44.8907 26.7031 43.4704 26.4547 42.0743C26.2501 40.9236 25.8232 39.7798 24.9609 38.9566C24.5716 38.5729 24.0886 38.2977 23.56 38.1584C22.9724 38.0216 22.3569 38.0704 21.7983 38.2983C21.2359 38.525 20.7337 38.879 20.331 39.3324C19.9554 39.752 19.648 40.231 19.246 40.6273C19.1143 40.7584 18.9684 40.8744 18.8109 40.9729C18.45 41.1156 18.0604 41.1703 17.6742 41.1326C17.2879 41.0949 16.9162 40.9659 16.5897 40.7561C16.1745 40.4612 15.7867 40.1296 15.4307 39.7653C15.0435 39.4054 14.6473 39.0553 14.2423 38.7151C13.421 38.0204 12.5494 37.3877 11.6344 36.8222C10.7422 36.237 9.75904 35.8042 8.72495 35.5413C7.70559 35.3204 6.64274 35.4216 5.68347 35.8312C5.20426 36.0342 4.7453 36.282 4.31273 36.5713C3.87484 36.8522 3.46175 37.1699 3.07793 37.5211C1.58391 38.9266 1.35673 41.1372 1.98346 43.011C2.3377 44.0025 2.84592 44.9321 3.48945 45.7656C4.12194 46.6209 4.82586 47.4868 5.05052 48.5536C5.10259 48.8043 5.1208 49.0608 5.10466 49.3163C5.10183 49.3439 5.10504 49.3719 5.11407 49.3982C5.1231 49.4245 5.13774 49.4485 5.15697 49.4686C5.09637 50.0317 4.39959 50.2506 3.90858 50.3029C3.26779 50.372 2.62862 50.3916 2.02078 50.6319C1.40767 50.867 0.899283 51.3144 0.588059 51.8926C0.285275 52.4643 0.095856 53.0892 0.0302233 53.7329C-0.0980029 55.0411 0.183831 56.3569 0.836677 57.4979C1.47105 58.5866 2.33445 59.5244 3.3671 60.2465C3.98232 60.6806 4.63309 61.0619 5.3125 61.3864C6.04983 61.7504 6.79568 62.1006 7.53831 62.4569C7.55383 62.504 7.58475 62.5446 7.6261 62.5721C8.18071 62.9557 8.90537 63.4638 8.8662 64.2281C8.84845 64.5737 8.65053 64.8898 8.53762 65.2099C8.42117 65.5438 8.39806 65.9032 8.4708 66.2493C8.65068 66.9507 9.08423 67.5605 9.68763 67.9608C10.3085 68.3946 10.9737 68.761 11.6722 69.0539C12.4806 69.4178 13.3166 69.7169 14.1724 69.9484C14.2168 69.9614 14.2642 69.9596 14.3075 69.9433C14.4358 70.0078 14.5644 70.0716 14.6923 70.1366C14.9457 70.2652 15.1697 69.8832 14.9155 69.7546L14.8118 69.7025C14.7802 69.3243 14.8469 68.9443 15.0055 68.5995C15.1642 68.2547 15.4093 67.9568 15.7171 67.7348C15.7448 67.7149 15.7678 67.6894 15.7846 67.6598C15.8014 67.6302 15.8116 67.5974 15.8145 67.5635C15.8174 67.5296 15.813 67.4955 15.8014 67.4635C15.7899 67.4315 15.7716 67.4023 15.7478 67.3781C15.7639 67.3469 15.7718 67.3121 15.7708 67.277C15.7698 67.2419 15.7599 67.2076 15.742 67.1774C15.626 66.9289 15.56 66.6601 15.5478 66.3861C15.54 66.312 15.534 66.2387 15.5323 66.1663C15.5698 66.146 15.6023 66.1175 15.6273 66.0829L16.1496 65.3686C16.1721 65.3371 16.1833 65.299 16.1817 65.2603L16.266 65.2073C16.314 65.1765 16.3496 65.1295 16.3662 65.0749C16.3932 65.064 16.4204 65.0541 16.4478 65.0444C16.4673 65.0665 16.4914 65.0841 16.5184 65.096C16.5453 65.108 16.5745 65.1139 16.604 65.1136C16.6547 65.1121 16.7036 65.0942 16.7432 65.0625C16.7828 65.0308 16.811 64.9871 16.8236 64.938C16.8593 64.9297 16.895 64.9216 16.9305 64.9149C17.2052 64.8576 17.0943 64.4424 16.8245 64.4866C16.8669 64.0599 17.0635 63.6633 17.3775 63.3712C17.522 63.2395 17.6886 63.1344 17.8697 63.0608C17.8363 63.2306 18.0079 63.4258 18.1881 63.3025C18.328 63.2036 18.4927 63.1457 18.6637 63.1354C18.8347 63.1251 19.0051 63.1628 19.1559 63.2442C19.1965 63.2648 19.2423 63.2727 19.2875 63.267C19.3327 63.2613 19.3751 63.2423 19.4094 63.2124C19.4437 63.1824 19.4682 63.1429 19.4799 63.0989C19.4916 63.0549 19.4899 63.0084 19.475 62.9654C19.6503 62.3721 20.2814 62.1166 20.8344 61.9884C21.3874 61.8603 22.0107 61.8417 22.4976 62.1829C22.6819 62.3122 22.8586 62.1002 22.8107 61.9255C22.9845 61.7264 23.1968 61.5646 23.4349 61.45C23.6731 61.3354 23.932 61.2703 24.196 61.2587C24.4482 61.2533 24.6976 61.3122 24.9207 61.43C25.1438 61.5477 25.3332 61.7203 25.4711 61.9315C25.4998 61.9799 25.5463 62.015 25.6006 62.0294C25.655 62.0438 25.7128 62.0363 25.7616 62.0085C25.7729 62.0371 25.7903 62.063 25.8126 62.0842C25.8349 62.1054 25.8616 62.1215 25.8908 62.1312C25.92 62.141 25.951 62.1443 25.9816 62.1408C26.0122 62.1373 26.0416 62.1271 26.0679 62.111C26.2681 61.9929 26.4859 61.9073 26.713 61.8576C26.7323 61.8855 26.7587 61.9078 26.7894 61.9222C26.8201 61.9366 26.8541 61.9426 26.8879 61.9396C27.6713 61.9078 28.263 62.4896 28.7801 63.0013C28.7958 63.0171 28.8136 63.0308 28.8329 63.0419C28.8435 63.071 28.8605 63.0973 28.8826 63.1188C28.9048 63.1404 28.9316 63.1567 28.9609 63.1665C28.9902 63.1763 29.0214 63.1794 29.0521 63.1755C29.0828 63.1716 29.1122 63.1608 29.1382 63.144C29.248 63.0761 29.3657 63.022 29.4886 62.9827C29.514 63.0252 29.5522 63.0585 29.5978 63.078C29.6433 63.0975 29.6938 63.1021 29.7421 63.0912C30.1821 63.0275 30.6311 63.0861 31.04 63.2606C31.1131 63.3178 31.1811 63.3813 31.2432 63.4504C31.2685 63.4819 31.3031 63.5044 31.3421 63.5146C31.3811 63.5249 31.4224 63.5223 31.4598 63.5073C31.7664 63.7406 31.9932 64.0632 32.1089 64.4306C32.1287 64.5076 32.1681 64.5781 32.2234 64.6352C32.2788 64.6923 32.348 64.734 32.4243 64.7562C32.6098 64.8051 32.8013 64.8271 32.993 64.8214C33.0428 64.8192 33.0904 64.8005 33.1284 64.7682C33.1663 64.736 33.1925 64.692 33.2026 64.6432C33.2128 64.5944 33.2064 64.5436 33.1845 64.4989C33.1626 64.4541 33.1265 64.418 33.0817 64.3961C33.317 63.9094 33.7356 63.3525 34.3382 63.5483C34.3806 63.5647 34.4276 63.5654 34.4705 63.5502C34.5134 63.5349 34.5494 63.5049 34.572 63.4654C34.5908 63.461 34.6089 63.454 34.6257 63.4447C34.6753 63.4141 34.7112 63.3655 34.726 63.3092C34.7407 63.2528 34.7332 63.1929 34.705 63.1419C34.6895 63.1052 34.6766 63.0674 34.6665 63.0288C34.7389 62.6066 34.8393 62.1232 35.2094 61.8709C35.4141 61.7521 35.6496 61.697 35.8859 61.7124C36.1327 61.6943 36.3805 61.7305 36.6119 61.8184C36.6585 61.8443 36.7127 61.8528 36.765 61.8424C36.8173 61.832 36.8641 61.8033 36.8972 61.7615C36.9175 61.7338 36.9316 61.7021 36.9386 61.6685C36.9456 61.635 36.9453 61.6002 36.9377 61.5668C36.9579 61.5445 36.9736 61.5184 36.9838 61.4901C37.0669 61.2679 37.1986 61.067 37.3691 60.902C37.3905 60.8966 37.4111 60.8881 37.4301 60.8767C37.63 60.7567 37.8579 60.6914 38.0909 60.6873C38.2845 60.716 38.4807 60.7214 38.6755 60.7032C38.7816 60.6788 38.8739 60.6136 38.9322 60.5216C38.9638 60.5269 38.9962 60.5256 39.0273 60.5176C39.0584 60.5097 39.0875 60.4954 39.1127 60.4755C39.138 60.4557 39.1588 60.4308 39.1738 60.4025C39.1889 60.3742 39.1978 60.343 39.2002 60.311C39.3799 57.7327 38.6932 55.1626 37.4949 52.8928Z" fill="#CDC6FF"/>
<path d="M30.3666 70.1382C30.3097 70.1408 30.256 70.1653 30.2166 70.2065C30.1772 70.2477 30.1553 70.3025 30.1553 70.3594C30.1553 70.4164 30.1772 70.4712 30.2166 70.5124C30.256 70.5536 30.3097 70.578 30.3666 70.5806C30.4235 70.578 30.4772 70.5536 30.5166 70.5124C30.556 70.4712 30.5779 70.4164 30.5779 70.3594C30.5779 70.3025 30.556 70.2477 30.5166 70.2065C30.4772 70.1653 30.4235 70.1408 30.3666 70.1382Z" fill="#EBE8FE"/>
<path d="M30.5839 68.8343C30.527 68.8369 30.4732 68.8613 30.4339 68.9025C30.3945 68.9437 30.3726 68.9985 30.3726 69.0555C30.3726 69.1125 30.3945 69.1672 30.4339 69.2084C30.4732 69.2496 30.527 69.2741 30.5839 69.2767C30.6408 69.2741 30.6945 69.2496 30.7339 69.2084C30.7733 69.1672 30.7952 69.1125 30.7952 69.0555C30.7952 68.9985 30.7733 68.9437 30.7339 68.9025C30.6945 68.8613 30.6408 68.8369 30.5839 68.8343Z" fill="#EBE8FE"/>
<path d="M29.4252 68.2548C29.3683 68.2574 29.3146 68.2819 29.2752 68.3231C29.2358 68.3643 29.2139 68.419 29.2139 68.476C29.2139 68.533 29.2358 68.5878 29.2752 68.629C29.3146 68.6702 29.3683 68.6946 29.4252 68.6972C29.4821 68.6946 29.5358 68.6702 29.5752 68.629C29.6146 68.5878 29.6365 68.533 29.6365 68.476C29.6365 68.419 29.6146 68.3643 29.5752 68.3231C29.5358 68.2819 29.4821 68.2574 29.4252 68.2548Z" fill="#EBE8FE"/>
<path d="M19.2143 67.5305C19.1568 67.5323 19.1023 67.5564 19.0624 67.5977C19.0224 67.639 19 67.6943 19 67.7518C19 67.8093 19.0224 67.8645 19.0624 67.9058C19.1023 67.9471 19.1568 67.9712 19.2143 67.9731C19.2717 67.9712 19.3262 67.9471 19.3662 67.9058C19.4062 67.8645 19.4286 67.8093 19.4286 67.7518C19.4286 67.6943 19.4062 67.639 19.3662 67.5977C19.3262 67.5564 19.2717 67.5323 19.2143 67.5305Z" fill="#EBE8FE"/>
<path d="M19.3598 66.0829C19.3028 66.0855 19.2491 66.11 19.2098 66.1512C19.1704 66.1924 19.1484 66.2472 19.1484 66.3042C19.1484 66.3611 19.1704 66.4159 19.2098 66.4571C19.2491 66.4983 19.3028 66.5227 19.3598 66.5253C19.4167 66.5227 19.4704 66.4983 19.5098 66.4571C19.5491 66.4159 19.5711 66.3611 19.5711 66.3042C19.5711 66.2472 19.5491 66.1924 19.5098 66.1512C19.4704 66.11 19.4167 66.0855 19.3598 66.0829Z" fill="#EBE8FE"/>
<path d="M20.228 67.1682C20.1705 67.17 20.116 67.1941 20.076 67.2354C20.036 67.2767 20.0137 67.332 20.0137 67.3895C20.0137 67.447 20.036 67.5022 20.076 67.5435C20.116 67.5848 20.1705 67.6089 20.228 67.6108C20.2854 67.6089 20.3399 67.5848 20.3799 67.5435C20.4199 67.5022 20.4422 67.447 20.4422 67.3895C20.4422 67.332 20.4199 67.2767 20.3799 67.2354C20.3399 67.1941 20.2854 67.17 20.228 67.1682Z" fill="#EBE8FE"/>
<path d="M26.601 64.2707C26.5441 64.2733 26.4903 64.2977 26.451 64.3389C26.4116 64.3801 26.3896 64.4349 26.3896 64.4919C26.3896 64.5489 26.4116 64.6037 26.451 64.6448C26.4903 64.686 26.5441 64.7105 26.601 64.7131C26.6579 64.7105 26.7116 64.686 26.751 64.6448C26.7903 64.6037 26.8123 64.5489 26.8123 64.4919C26.8123 64.4349 26.7903 64.3801 26.751 64.3389C26.7116 64.2977 26.6579 64.2733 26.601 64.2707Z" fill="#EBE8FE"/>
<path d="M46.2255 71.152C46.1686 71.1546 46.1148 71.1791 46.0755 71.2203C46.0361 71.2615 46.0142 71.3163 46.0142 71.3732C46.0142 71.4302 46.0361 71.485 46.0755 71.5262C46.1148 71.5674 46.1686 71.5918 46.2255 71.5944C46.2824 71.5918 46.3361 71.5674 46.3755 71.5262C46.4149 71.485 46.4368 71.4302 46.4368 71.3732C46.4368 71.3163 46.4149 71.2615 46.3755 71.2203C46.3361 71.1791 46.2824 71.1546 46.2255 71.152Z" fill="#EBE8FE"/>
<path d="M46.5873 69.8484C46.5299 69.8502 46.4754 69.8744 46.4354 69.9157C46.3954 69.957 46.373 70.0122 46.373 70.0697C46.373 70.1272 46.3954 70.1824 46.4354 70.2237C46.4754 70.265 46.5299 70.2892 46.5873 70.291C46.6448 70.2892 46.6993 70.265 46.7393 70.2237C46.7793 70.1824 46.8016 70.1272 46.8016 70.0697C46.8016 70.0122 46.7793 69.957 46.7393 69.9157C46.6993 69.8744 46.6448 69.8502 46.5873 69.8484Z" fill="#EBE8FE"/>
<path d="M45.5737 69.2689C45.5162 69.2708 45.4617 69.2949 45.4217 69.3362C45.3817 69.3775 45.3594 69.4327 45.3594 69.4902C45.3594 69.5477 45.3817 69.603 45.4217 69.6443C45.4617 69.6856 45.5162 69.7097 45.5737 69.7115C45.6311 69.7097 45.6856 69.6856 45.7256 69.6443C45.7656 69.603 45.788 69.5477 45.788 69.4902C45.788 69.4327 45.7656 69.3775 45.7256 69.3362C45.6856 69.2949 45.6311 69.2708 45.5737 69.2689Z" fill="#EBE8FE"/>
<path d="M36.3046 66.5164C36.2477 66.519 36.1939 66.5434 36.1546 66.5846C36.1152 66.6258 36.0933 66.6806 36.0933 66.7376C36.0933 66.7945 36.1152 66.8493 36.1546 66.8905C36.1939 66.9317 36.2477 66.9562 36.3046 66.9588C36.3615 66.9562 36.4152 66.9317 36.4546 66.8905C36.494 66.8493 36.5159 66.7945 36.5159 66.7376C36.5159 66.6806 36.494 66.6258 36.4546 66.5846C36.4152 66.5434 36.3615 66.519 36.3046 66.5164Z" fill="#EBE8FE"/>
<path d="M37.1015 68.1825C37.0445 68.1851 36.9908 68.2095 36.9515 68.2507C36.9121 68.2919 36.8901 68.3467 36.8901 68.4037C36.8901 68.4607 36.9121 68.5155 36.9515 68.5567C36.9908 68.5979 37.0445 68.6223 37.1015 68.6249C37.1584 68.6223 37.2121 68.5979 37.2515 68.5567C37.2908 68.5155 37.3128 68.4607 37.3128 68.4037C37.3128 68.3467 37.2908 68.2919 37.2515 68.2507C37.2121 68.2095 37.1584 68.1851 37.1015 68.1825Z" fill="#EBE8FE"/>
<path d="M41.8808 63.2566C41.8238 63.2592 41.7701 63.2836 41.7308 63.3248C41.6914 63.366 41.6694 63.4208 41.6694 63.4778C41.6694 63.5348 41.6914 63.5896 41.7308 63.6308C41.7701 63.672 41.8238 63.6964 41.8808 63.699C41.9377 63.6964 41.9914 63.672 42.0308 63.6308C42.0701 63.5896 42.0921 63.5348 42.0921 63.4778C42.0921 63.4208 42.0701 63.366 42.0308 63.3248C41.9914 63.2836 41.9377 63.2592 41.8808 63.2566Z" fill="#EBE8FE"/>
<path d="M42.8945 64.488C42.837 64.4899 42.7825 64.514 42.7425 64.5553C42.7025 64.5966 42.6802 64.6519 42.6802 64.7094C42.6802 64.7668 42.7025 64.8221 42.7425 64.8634C42.7825 64.9047 42.837 64.9288 42.8945 64.9307C42.9519 64.9288 43.0064 64.9047 43.0464 64.8634C43.0864 64.8221 43.1088 64.7668 43.1088 64.7094C43.1088 64.6519 43.0864 64.5966 43.0464 64.5553C43.0064 64.514 42.9519 64.4899 42.8945 64.488Z" fill="#EBE8FE"/>
<path d="M78.5492 70.0673C78.8718 70.5742 78.7377 71.2714 78.495 71.7825C78.4764 71.8198 78.4684 71.8616 78.472 71.9032C78.6209 71.9187 78.7709 71.9209 78.9201 71.9097C79.1996 71.2705 79.3234 70.458 78.9303 69.8438C78.4676 69.12 77.5745 69.0813 76.8015 69.1163C76.8004 68.9851 76.7895 68.8542 76.7688 68.7246C76.6216 68.0224 76.2546 67.3854 75.7211 66.9057C75.4676 66.656 75.1925 66.4343 74.9227 66.2043L74.8644 66.1541C74.8702 66.1518 74.8759 66.1492 74.8814 66.1463C75.2697 65.9134 75.7005 65.7602 76.1487 65.6958C76.4649 65.6741 76.7788 65.7627 77.037 65.9465C77.5208 66.2769 77.8476 66.802 78.2383 67.2285C78.4291 67.4466 78.6508 67.6355 78.8964 67.7891C79.1981 67.9604 79.5404 68.0467 79.8872 68.0389C80.269 68.0419 80.6519 68.0212 80.9241 68.3329C81.1125 68.5745 81.2212 68.8686 81.2354 69.1746C81.2575 69.618 81.1899 70.0613 81.0367 70.478C80.8834 70.8946 80.6477 71.2761 80.3437 71.5995C80.5928 71.5246 80.8394 71.4434 81.0833 71.356C81.4375 70.8013 81.6437 70.1651 81.6824 69.508C81.7218 68.7963 81.4623 67.9456 80.7324 67.6804C80.3003 67.5235 79.8298 67.6695 79.396 67.5329C79.1234 67.4329 78.879 67.2687 78.6835 67.0541C78.225 66.5933 77.8784 66.0288 77.3559 65.6329C77.041 65.3865 76.6532 65.2516 76.2533 65.2495C75.6846 65.2532 75.1554 65.5119 74.6595 65.7642C74.6153 65.7851 74.5803 65.8215 74.5611 65.8665C74.4427 65.7437 74.3419 65.605 74.2616 65.4543C74.0969 65.1347 74.1148 64.7615 74.0867 64.4131C74.0833 64.3716 74.0793 64.3304 74.0745 64.2896C74.1111 64.2958 74.1486 64.2922 74.1833 64.279C75.0658 63.9661 76.0591 63.6142 77.0077 63.7981C77.4297 63.8833 77.8214 64.0797 78.142 64.367C78.4602 64.6435 78.737 64.9631 79.0448 65.2506C79.3527 65.555 79.7207 65.7919 80.1252 65.9463C80.5665 66.0727 81.0182 66.1593 81.475 66.205C81.9136 66.2454 82.3318 66.4097 82.6805 66.6788C82.9759 66.9498 83.1872 67.2999 83.2893 67.6875C83.5805 68.7223 83.1704 69.7735 82.7031 70.6917L82.7939 70.6504C82.9722 70.5682 83.1513 70.485 83.3312 70.403C83.6736 69.6389 83.9144 68.8191 83.7987 67.9778C83.7554 67.53 83.5892 67.1028 83.3186 66.7434C83.048 66.3839 82.6835 66.1061 82.2651 65.9405C81.7939 65.8066 81.312 65.7141 80.8248 65.664C80.3648 65.5995 79.9306 65.4127 79.5674 65.1232C78.8665 64.5428 78.3512 63.7596 77.4524 63.4571C76.3393 63.0822 75.1224 63.4774 74.0653 63.8523C74.0393 63.8612 74.0151 63.8747 73.9939 63.8921C73.9482 63.7411 73.8752 63.5997 73.7784 63.4751C73.9865 63.1232 74.1083 62.7271 74.134 62.3191C76.0264 63.39 78.3936 61.5156 80.186 62.9283C80.6379 63.2845 81.0135 63.7264 81.4725 64.0748C81.9823 64.4242 82.563 64.6566 83.1731 64.7553C83.7574 64.8477 84.311 65.0792 84.7872 65.4301C85.2122 65.7755 85.5361 66.2293 85.7245 66.7435C85.8973 67.2528 85.9279 67.7996 85.8131 68.325C85.6982 68.8504 85.4422 69.3346 85.0727 69.7253C85.2962 69.6606 85.523 69.6081 85.7522 69.5682C86.2008 68.9065 86.3984 68.1064 86.3093 67.3119C86.2338 66.7297 86.0094 66.1768 85.658 65.7066C85.3065 65.2363 84.8398 64.8645 84.3029 64.6271C83.6808 64.3603 82.9939 64.3195 82.3639 64.0788C81.8056 63.8652 81.3881 63.4313 80.9637 63.0283C80.5632 62.6042 80.0704 62.2782 79.5236 62.0753C78.9869 61.9285 78.4259 61.8922 77.8747 61.9686C76.7153 62.0873 75.3402 62.5513 74.2664 61.8838C74.2445 61.869 74.2198 61.8587 74.1938 61.8535C74.1678 61.8483 74.1411 61.8482 74.1151 61.8534C74.0661 61.4972 73.946 61.1546 73.7618 60.8458C73.5777 60.537 73.3333 60.2685 73.0432 60.0562C72.9924 60.027 72.9322 60.019 72.8756 60.0339C72.819 60.0488 72.7705 60.0853 72.7406 60.1357C72.7123 60.1866 72.7047 60.2465 72.7195 60.3028C72.7343 60.3592 72.7702 60.4077 72.8199 60.4382C73.0711 60.6272 73.2788 60.8678 73.4291 61.1438C73.5794 61.4199 73.6688 61.7249 73.6913 62.0384C73.7082 62.3487 73.6585 62.659 73.5455 62.9485C73.4324 63.2379 73.2587 63.4998 73.036 63.7165C72.1448 64.5921 70.7743 64.3762 69.6411 64.5186C69.0595 64.562 68.5038 64.7763 68.0436 65.1345C67.8784 65.2879 67.7308 65.4591 67.6035 65.6451C67.5579 65.657 67.5177 65.684 67.4893 65.7216C67.461 65.7593 67.4462 65.8054 67.4473 65.8525C67.2781 66.1044 67.0316 66.2944 66.745 66.394C66.3658 66.4728 65.9763 66.4895 65.5918 66.4433C65.1912 66.4151 64.7924 66.365 64.3973 66.2933C63.607 66.1566 62.8235 65.9765 62.0256 65.8845C60.6447 65.7253 59.0874 65.8896 58.0408 66.8924C58.0242 66.8788 58.0072 66.8656 57.9908 66.8516C57.5634 66.5071 57.2066 66.0831 56.9401 65.6032C56.9674 65.6102 56.9958 65.6115 57.0235 65.607C57.0513 65.6025 57.0778 65.5922 57.1014 65.5769C58.218 64.9067 59.5045 64.5736 60.806 64.6177C62.1839 64.6663 63.4867 65.2493 64.8701 65.2426C65.4787 65.2544 66.0806 65.114 66.6213 64.8343C67.0774 64.5514 67.4736 64.1818 67.7874 63.7463C68.0634 63.3492 68.3974 62.9957 68.7782 62.6976C68.977 62.5593 69.2062 62.4706 69.4464 62.4391C69.7843 62.4202 70.1233 62.4483 70.4535 62.5225C71.057 62.6211 72.0826 62.7552 72.2243 61.9258C72.2624 61.5619 72.2179 61.1942 72.0943 60.8499C71.9833 60.4855 71.8188 60.1395 71.6063 59.8232C71.4482 59.588 71.065 59.8094 71.2243 60.0465C71.4074 60.3154 71.5515 60.6088 71.6524 60.9181C71.7623 61.2035 71.8112 61.5086 71.7962 61.814C71.7581 62.1099 71.4715 62.1569 71.2201 62.1596C70.8878 62.1462 70.557 62.1066 70.2309 62.0412C69.6535 61.9555 69.0885 61.97 68.5844 62.2946C68.195 62.576 67.8537 62.9183 67.5736 63.3085C67.2883 63.7157 66.9387 64.0737 66.5383 64.3684C66.0337 64.6673 65.4547 64.8171 64.8685 64.8002C63.5383 64.8062 62.2795 64.2587 60.956 64.1824C59.526 64.1053 58.1056 64.4579 56.8777 65.1949C56.8409 65.2159 56.8113 65.2473 56.7924 65.2852C56.7274 65.1235 56.6766 64.9564 56.6403 64.7859C56.6366 64.7684 56.6309 64.7513 56.6235 64.735C56.8121 64.3029 57.0905 63.9158 57.4401 63.5995C57.6244 63.4292 57.8187 63.2711 58.0141 63.1142C58.042 63.1231 58.0715 63.1261 58.1006 63.1229C58.1297 63.1197 58.1579 63.1105 58.1832 63.0958C59.0772 62.6417 60.0934 62.4863 61.0823 62.6527C61.5835 62.7311 62.0748 62.8636 62.5475 63.0476C63.0426 63.2684 63.566 63.4194 64.1026 63.4963C64.5657 63.5509 65.033 63.4379 65.4199 63.1776C65.7622 62.8873 66.0214 62.5114 66.171 62.0882C66.3125 61.6765 66.5596 61.3092 66.8876 61.023C67.0709 60.8862 67.2796 60.7873 67.5014 60.732C67.7254 60.691 67.9525 60.6694 68.1802 60.6675C68.4514 60.6643 68.7145 60.5747 68.9312 60.4117C69.0998 60.2675 69.211 60.0676 69.2445 59.8483C69.2841 59.3628 69.1706 58.8771 68.9199 58.4594C68.7911 58.2059 68.4093 58.4292 68.5381 58.6829C68.7323 59.0036 68.8284 59.3741 68.8146 59.7488C68.7501 60.214 68.2678 60.2214 67.8955 60.2387C67.4465 60.2475 67.0107 60.3921 66.6455 60.6534C66.3636 60.8696 66.1346 61.147 65.9756 61.4647C65.9595 61.3783 65.9359 61.2935 65.9049 61.2112C65.7415 60.7787 65.4148 60.4433 65.2157 60.0306C65.0485 59.6609 64.9909 59.251 65.0499 58.8496C65.1089 58.4482 65.2819 58.0722 65.5484 57.7663C65.7378 57.5548 65.4261 57.2407 65.2355 57.4534C64.9425 57.7846 64.7394 58.1854 64.6457 58.6176C64.5521 59.0498 64.571 59.4988 64.7007 59.9216C64.8448 60.3748 65.1514 60.7216 65.3802 61.1292C65.493 61.3478 65.5524 61.59 65.5538 61.836C65.5552 62.0819 65.4985 62.3248 65.3883 62.5446C65.3797 62.5666 65.3759 62.5902 65.3772 62.6138C65.3344 62.6661 65.2874 62.7151 65.2369 62.7601C65.0672 62.8888 64.8725 62.9807 64.6652 63.0301C64.458 63.0794 64.2428 63.0851 64.0332 63.0467C63.7183 62.9996 63.4101 62.9152 63.115 62.7953C63.5966 62.397 63.698 61.6695 63.5609 61.0619C63.4512 60.5764 63.2235 60.1278 63.1017 59.646C62.9715 59.1754 62.9971 58.6753 63.1745 58.2204C63.2582 58.0147 63.3842 57.8288 63.5442 57.6748C63.7043 57.5208 63.8949 57.4021 64.1037 57.3264C64.3722 57.2361 64.257 56.8087 63.9862 56.8997C63.5744 57.0541 63.2194 57.3302 62.9683 57.6913C62.7172 58.0524 62.582 58.4813 62.5807 58.9211C62.5814 59.4188 62.6804 59.9115 62.8719 60.3709C63.0612 60.779 63.1653 61.2215 63.1779 61.6711C63.1586 62.0168 63.009 62.4301 62.6597 62.5654C62.6386 62.5736 62.6185 62.5842 62.5998 62.597L62.5606 62.5822C62.1044 62.4109 61.6311 62.289 61.1489 62.2186C60.4024 62.1049 59.6406 62.1445 58.9099 62.335C59.2924 61.9367 59.6023 61.4746 59.8254 60.9695C60.3834 59.7158 60.4832 58.3145 60.468 56.9587C60.4662 56.9013 60.4421 56.8469 60.4008 56.8069C60.3595 56.767 60.3044 56.7446 60.2469 56.7446C60.1895 56.7446 60.1343 56.767 60.0931 56.8069C60.0518 56.8469 60.0277 56.9013 60.0258 56.9587C60.0387 58.1315 59.9701 59.3333 59.565 60.4449C59.3772 60.9749 59.0914 61.4648 58.7224 61.8891C58.3053 62.3104 57.8587 62.7013 57.386 63.0589C56.9131 63.4277 56.5302 63.8991 56.2661 64.4375C56.0407 65.0137 55.8749 65.6114 55.7715 66.2214C55.6751 66.7303 55.5013 67.2214 55.256 67.6776C55.234 67.701 55.2174 67.7289 55.2074 67.7594C55.179 67.8055 55.15 67.8516 55.1189 67.8977C54.7873 68.3674 54.3678 68.7684 53.8834 69.0783C52.6237 69.9078 51.1051 70.1666 49.6463 70.4189C49.7693 70.1673 49.8386 69.8929 49.8497 69.6131C49.8609 69.3333 49.8136 69.0543 49.7111 68.7937C51.5758 68.3251 53.5975 67.4484 54.5622 65.6792C55.0975 64.6974 55.1583 63.5631 55.5558 62.5327C55.7642 62.0334 56.0657 61.5784 56.4443 61.1919C56.8248 60.815 57.1675 60.4018 57.4675 59.9582C58.1604 58.8202 57.9795 57.435 57.7917 56.1836C57.7758 56.1272 57.7383 56.0794 57.6874 56.0504C57.6365 56.0215 57.5762 56.0138 57.5196 56.029C57.4638 56.0459 57.4167 56.0836 57.3879 56.1343C57.3592 56.185 57.3511 56.2448 57.3652 56.3013C57.5226 57.3506 57.6984 58.5391 57.2007 59.5271C56.7302 60.4615 55.7887 61.0479 55.3164 61.9868C54.8249 62.9633 54.7756 64.0808 54.3599 65.0831C53.9802 65.9356 53.3531 66.6543 52.5599 67.146C51.6377 67.7193 50.626 68.1342 49.5668 68.3735C49.5423 68.3795 49.5189 68.3896 49.4977 68.4034C49.4647 68.3573 49.43 68.3149 49.3926 68.2732C49.6516 68.0427 49.8516 67.7535 49.9759 67.4298C50.1002 67.106 50.1451 66.7573 50.1069 66.4126C50.0863 66.2672 50.0481 66.1249 49.9931 65.9887C50.0226 66.0002 50.0543 66.005 50.0859 66.0025C50.1175 66.0001 50.1482 65.9905 50.1756 65.9746C51.4154 65.3011 52.774 64.5311 53.3811 63.1866C53.7099 62.4582 53.8019 61.6658 53.9712 60.8919C54.0505 60.4991 54.1731 60.1164 54.3367 59.7506C54.5065 59.3863 54.7131 59.0412 54.9095 58.6907C55.3473 57.9092 55.7337 57.0432 55.5761 56.1331C55.5777 56.1025 55.5718 56.072 55.559 56.0442V56.0407C55.5546 56.0148 55.5449 55.99 55.5306 55.9679C55.5163 55.9458 55.4977 55.9268 55.4758 55.9121C54.4516 54.3791 53.299 52.9359 52.0304 51.5981C50.7416 50.23 49.3297 48.9833 47.8127 47.8736C46.3355 46.8027 44.614 45.869 42.7456 45.8437C41.8219 45.8315 40.8829 46.0398 40.1866 46.6792C39.558 47.2564 39.1882 48.0635 38.9136 48.8566C38.3506 50.4974 38.1629 52.2436 38.3642 53.9665C38.0457 53.2341 37.6651 52.5303 37.2265 51.8628C36.7412 51.125 36.1856 50.4359 35.5675 49.8052C35.3677 49.6017 35.055 49.9147 35.2546 50.1181C37.3903 52.3163 38.7217 55.1708 39.0334 58.2197C39.1124 59.0031 39.1221 59.7919 39.0622 60.5769C38.6359 60.442 38.1741 60.4754 37.7716 60.6703C37.3692 60.8653 37.0567 61.2069 36.8983 61.6251C36.8714 61.6448 36.8494 61.6705 36.8341 61.7002L36.8009 61.7617C36.5492 61.6239 36.2625 61.5634 35.9766 61.5877C35.6908 61.6119 35.4184 61.7199 35.1935 61.8981C34.9815 62.0801 34.818 62.3118 34.7174 62.5725C34.6169 62.8332 34.5826 63.1147 34.6175 63.3919C34.2502 63.3191 33.8691 63.3918 33.5543 63.5944C33.3639 63.7221 33.2053 63.8918 33.0907 64.0904C32.9761 64.289 32.9085 64.5113 32.8933 64.74C32.6795 64.597 32.4355 64.5055 32.1804 64.4728C32.063 64.1664 31.8833 63.8878 31.6526 63.6545C31.422 63.4212 31.1455 63.2383 30.8405 63.1175C30.8488 60.8225 30.9298 58.5294 31.0836 56.2382C31.1275 55.5852 31.1774 54.9323 31.2334 54.2796C31.2564 53.996 30.8151 53.9976 30.7912 54.2796C30.5956 56.5667 30.4727 58.8585 30.4225 61.1548C30.4093 61.7623 30.4016 62.3701 30.3995 62.9783C29.964 62.8797 29.5093 62.9087 29.0898 63.0617C29.0851 63.0501 29.0796 63.0388 29.0732 63.0281C28.842 62.6554 28.5183 62.349 28.1335 62.1387C27.7487 61.9284 27.316 61.8214 26.8776 61.8281C26.8715 61.7971 26.8586 61.7679 26.8398 61.7426C25.6796 60.1155 24.4999 58.5026 23.3008 56.9038C23.3241 56.884 23.3427 56.8592 23.3553 56.8313C23.3679 56.8035 23.3743 56.7732 23.3739 56.7426L23.5488 49.0596L23.5981 46.8898C23.5962 46.8324 23.5721 46.7779 23.5309 46.738C23.4896 46.698 23.4344 46.6757 23.377 46.6757C23.3196 46.6757 23.2644 46.698 23.2231 46.738C23.1819 46.7779 23.1578 46.8324 23.1559 46.8898L22.981 54.5727L22.9389 56.4204C22.1255 55.3407 21.3037 54.2676 20.4734 53.2011C19.384 51.8032 18.2798 50.4163 17.1607 49.0405C17.1697 49.0151 17.1723 48.988 17.1683 48.9614C16.9226 47.1116 16.6768 45.2619 16.431 43.4121C16.4292 43.354 16.4053 43.2988 16.3642 43.2577C16.3231 43.2166 16.2679 43.1927 16.2098 43.1909C16.1027 43.1909 15.9729 43.2927 15.9888 43.4121C16.2102 45.0818 16.4318 46.7517 16.6538 48.4216C15.7079 47.2664 14.7519 46.1199 13.7858 44.9819C12.5033 43.4719 11.203 41.9775 9.88489 40.4987C9.69503 40.2856 9.38305 40.5994 9.57222 40.8116C11.849 43.3666 14.0728 45.9679 16.2437 48.6153C14.2502 48.2862 12.2339 48.1138 10.2135 48.0997C9.56999 48.0955 8.92659 48.1077 8.28327 48.1363C7.99963 48.1485 7.99825 48.5911 8.28327 48.5787C10.5303 48.4799 12.7817 48.5789 15.0114 48.8748C15.566 48.9488 16.1186 49.0361 16.669 49.1356C18.7368 51.6702 20.7539 54.2455 22.7204 56.8615C20.8733 57.038 19.0222 57.173 17.1674 57.2665C15.1992 57.3651 13.2293 57.4164 11.2577 57.4204C10.1456 57.4226 9.03343 57.4097 7.92129 57.3817C7.86437 57.3843 7.81064 57.4088 7.77128 57.45C7.73192 57.4912 7.70996 57.5459 7.70996 57.6029C7.70996 57.6599 7.73192 57.7147 7.77128 57.7559C7.81064 57.7971 7.86437 57.8215 7.92129 57.8241C9.8915 57.8731 11.8621 57.8754 13.8331 57.8308C15.804 57.7863 17.7725 57.6937 19.7384 57.5532C20.8365 57.4751 21.9336 57.3822 23.0296 57.2744C24.1693 58.7969 25.2915 60.3324 26.3965 61.8808C26.3478 61.891 26.2995 61.9039 26.2515 61.9168C26.2001 61.9321 26.1494 61.9491 26.0995 61.9677C26.0534 61.9847 25.946 62.0506 25.8955 62.0357C25.8649 62.0264 25.8197 61.9571 25.8004 61.9354C25.7559 61.8852 25.7105 61.8366 25.6621 61.7907C25.5601 61.6962 25.4491 61.6119 25.3308 61.5389C24.8802 61.2577 24.3385 61.1613 23.8186 61.2698C23.2987 61.3784 22.8408 61.6836 22.5405 62.1216C22.303 61.9603 22.033 61.8531 21.7496 61.8074C21.4662 61.7618 21.1762 61.7789 20.9001 61.8576C20.204 62.0419 19.6444 62.5555 19.2119 63.1099C19.2046 63.1193 19.1979 63.129 19.1916 63.1391C18.907 62.9923 18.5849 62.9341 18.2669 62.972C17.9489 63.0098 17.6495 63.142 17.4073 63.3516C17.2056 63.5394 17.0566 63.7768 16.9751 64.04C16.8936 64.3033 16.8823 64.5833 16.9425 64.8523C16.6655 64.8832 16.4011 64.9848 16.1747 65.1474C15.9482 65.31 15.7674 65.5281 15.6496 65.7807C15.5318 66.0333 15.4809 66.312 15.5019 66.59C15.5228 66.8679 15.6149 67.1358 15.7692 67.3679C15.3706 67.5318 15.0499 67.8422 14.8732 68.2352C14.5872 68.856 14.6457 69.5541 14.8022 70.2011C14.869 70.4776 15.2957 70.3606 15.2287 70.0834C15.0663 69.5642 15.0707 69.0071 15.2411 68.4905C15.3133 68.2937 15.435 68.1188 15.5944 67.9827C15.7538 67.8465 15.9456 67.7537 16.1513 67.7131C16.1944 67.7117 16.2361 67.6979 16.2716 67.6733C16.3071 67.6488 16.3347 67.6145 16.3512 67.5747C16.3677 67.5349 16.3724 67.4911 16.3647 67.4487C16.357 67.4062 16.3372 67.3669 16.3077 67.3354C16.1284 67.165 16.0066 66.943 15.9591 66.7002C15.9117 66.4574 15.941 66.2058 16.043 65.9804C16.145 65.755 16.3146 65.5669 16.5283 65.4423C16.742 65.3176 16.9892 65.2626 17.2356 65.2847C17.2742 65.2839 17.3119 65.2732 17.3451 65.2535C17.3783 65.2338 17.4059 65.2058 17.4251 65.1723C17.4443 65.1389 17.4546 65.101 17.4548 65.0624C17.4551 65.0238 17.4454 64.9858 17.4266 64.952C17.3309 64.731 17.3092 64.4849 17.3649 64.2505C17.4206 64.0161 17.5506 63.806 17.7355 63.6516C17.9204 63.4972 18.1504 63.4068 18.3909 63.3939C18.6315 63.381 18.8698 63.4462 19.0702 63.5799C19.0952 63.5964 19.1235 63.6071 19.1532 63.6113C19.1828 63.6156 19.213 63.6132 19.2417 63.6044C19.2703 63.5956 19.2966 63.5806 19.3187 63.5604C19.3409 63.5402 19.3583 63.5154 19.3697 63.4877C19.3986 63.4899 19.4276 63.4852 19.4544 63.474C19.4811 63.4628 19.5048 63.4455 19.5236 63.4235C19.8715 62.9192 20.3628 62.531 20.9338 62.3092C21.1881 62.2172 21.4629 62.1971 21.7279 62.2513C21.9929 62.3054 22.2378 62.4317 22.4356 62.6161C22.4597 62.6397 22.4888 62.6575 22.5207 62.6682C22.5527 62.679 22.5867 62.6823 22.6201 62.678C22.6535 62.6737 22.6855 62.6619 22.7137 62.6434C22.7419 62.6249 22.7656 62.6003 22.7829 62.5714C22.8895 62.3653 23.0384 62.184 23.2199 62.0394C23.4013 61.8948 23.6113 61.7901 23.836 61.7322C24.0607 61.6744 24.2951 61.6646 24.5239 61.7035C24.7526 61.7425 24.9706 61.8293 25.1635 61.9582C25.3573 62.0873 25.4829 62.3069 25.6826 62.4202C25.922 62.5562 26.155 62.4041 26.3882 62.3387C26.7909 62.2313 27.2167 62.2485 27.6094 62.3882C28.0597 62.5395 28.442 62.845 28.6889 63.2509C28.7083 63.2849 28.7366 63.313 28.7707 63.3322C28.7725 63.3708 28.7838 63.4083 28.8036 63.4415C28.8235 63.4746 28.8512 63.5023 28.8844 63.5221C28.9175 63.542 28.955 63.5533 28.9936 63.5551C29.0322 63.5569 29.0706 63.5491 29.1055 63.5324C30.1165 63.0255 31.4992 63.6576 31.8013 64.7398C31.8148 64.7862 31.8428 64.8269 31.8812 64.8562C31.9197 64.8854 31.9664 64.9016 32.0147 64.9023C32.242 64.9141 32.4623 64.9855 32.6533 65.1092C32.8444 65.2329 32.9996 65.4047 33.1034 65.6073C33.2178 65.8103 33.2736 66.0409 33.2647 66.2737C33.2509 66.5647 33.0764 66.8246 33.1893 67.1184C33.25 67.2507 33.3335 67.3713 33.4361 67.4746C33.5406 67.5932 33.6365 67.719 33.7232 67.8511C33.8824 68.0878 34.0008 68.3495 34.0735 68.6253C34.1451 68.9 34.1412 69.189 34.0624 69.4617C33.9381 69.7609 33.8633 70.0784 33.841 70.4016C33.8504 70.7617 33.9914 71.1085 33.9852 71.4684C33.9817 71.6779 33.9184 71.9719 33.6963 72.0555C33.4322 72.155 33.5467 72.5829 33.8138 72.4822C34.4449 72.2442 34.4751 71.5262 34.3668 70.9594C34.3264 70.785 34.2986 70.6079 34.2836 70.4295C34.2803 70.2483 34.3123 70.0683 34.3781 69.8995C34.5109 69.5803 34.5733 69.2362 34.561 68.8907C34.4751 68.2286 34.1795 67.6113 33.7175 67.1292C33.6678 67.0808 33.6276 67.0236 33.5988 66.9606C33.5823 66.8761 33.5916 66.7886 33.6255 66.7094C33.6731 66.5561 33.7005 66.3974 33.7073 66.2371C33.7083 65.9649 33.6446 65.6964 33.5214 65.4536C33.4467 65.3018 33.3511 65.1612 33.2373 65.0359C33.2676 65.0172 33.2923 64.9906 33.3088 64.959C33.3253 64.9274 33.333 64.892 33.3311 64.8564C33.328 64.6817 33.3695 64.509 33.4515 64.3547C33.5335 64.2004 33.6534 64.0695 33.8 63.9743C33.9465 63.879 34.1148 63.8226 34.2891 63.8103C34.4634 63.798 34.638 63.8302 34.7965 63.9039C34.8346 63.9247 34.8779 63.934 34.9212 63.9306C34.9645 63.9272 35.0059 63.9113 35.0403 63.8849C35.0748 63.8584 35.1007 63.8225 35.1151 63.7815C35.1295 63.7405 35.1317 63.6963 35.1214 63.6541C35.0364 63.4155 35.0217 63.1576 35.0789 62.9109C35.136 62.6642 35.2627 62.4391 35.444 62.2622C35.6204 62.1091 35.8453 62.0232 36.0789 62.0196C36.3125 62.0161 36.5399 62.0951 36.7209 62.2428C36.7451 62.2663 36.7742 62.284 36.8062 62.2947C36.8381 62.3053 36.872 62.3086 36.9054 62.3043C36.9388 62.3 36.9708 62.2882 36.9991 62.2698C37.0273 62.2514 37.051 62.2269 37.0684 62.1981L37.2163 61.9216C37.2205 61.9138 37.2239 61.9062 37.2271 61.8986C37.2621 61.8721 37.2887 61.8361 37.3036 61.7949C37.3854 61.5768 37.5231 61.3841 37.7028 61.2361C37.8825 61.088 38.098 60.9897 38.3277 60.9512C38.5573 60.9126 38.7931 60.935 39.0113 61.0163C39.2296 61.0975 39.4226 61.2347 39.5712 61.414C39.6129 61.4551 39.6691 61.4782 39.7276 61.4782C39.7862 61.4782 39.8424 61.4551 39.8841 61.414C40.2852 60.9714 40.8246 60.5476 41.4509 60.537C41.9544 60.5285 42.4889 60.8232 42.6062 61.3384C42.6169 61.3753 42.637 61.4087 42.6644 61.4356C42.6919 61.4624 42.7258 61.4816 42.7629 61.4915C42.8 61.5013 42.839 61.5014 42.8762 61.4917C42.9133 61.482 42.9473 61.4628 42.9749 61.4361C43.1409 61.2557 43.3591 61.1316 43.599 61.0811C43.839 61.0306 44.0887 61.0563 44.3133 61.1546C44.8114 61.3939 45.1949 61.8202 45.3804 62.3407C45.39 62.373 45.4068 62.4027 45.4294 62.4276C45.452 62.4526 45.4799 62.4721 45.5111 62.4848C45.5423 62.4975 45.5759 62.503 45.6095 62.501C45.6432 62.4989 45.6759 62.4894 45.7053 62.473C45.8824 62.3629 46.0873 62.3057 46.2958 62.3082C46.5044 62.3107 46.7079 62.3728 46.8823 62.4872C47.0567 62.6016 47.1947 62.7634 47.2801 62.9537C47.3655 63.144 47.3947 63.3547 47.3643 63.561C47.3507 63.6175 47.359 63.677 47.3877 63.7276C47.4164 63.7781 47.4632 63.8159 47.5187 63.8331L47.5263 63.8347C47.5291 63.8774 47.5461 63.9179 47.5747 63.9498C47.6033 63.9816 47.6417 64.0029 47.6839 64.0103C47.9228 64.0679 48.1328 64.2103 48.2747 64.4109C48.4167 64.6115 48.4811 64.8568 48.456 65.1013C48.4559 65.1496 48.4716 65.1966 48.5007 65.2352C48.5299 65.2737 48.5708 65.3016 48.6173 65.3147C48.8891 65.379 49.1353 65.5237 49.3237 65.73C49.5121 65.9363 49.6339 66.1946 49.6733 66.4712C49.7036 66.7775 49.6534 67.0864 49.5274 67.3673C49.4015 67.6482 49.2042 67.8912 48.9553 68.0723C48.9265 68.0898 48.9021 68.1135 48.8838 68.1417C48.8654 68.1699 48.8537 68.2019 48.8494 68.2353C48.8451 68.2687 48.8484 68.3026 48.859 68.3345C48.8695 68.3665 48.8872 68.3956 48.9106 68.4198C49.0654 68.5566 49.1899 68.7242 49.2763 68.9119C49.3627 69.0995 49.4091 69.3031 49.4124 69.5097C49.4157 69.7163 49.3759 69.9213 49.2956 70.1116C49.2153 70.3019 49.0962 70.4734 48.9459 70.6152C48.9114 70.6498 48.8893 70.6948 48.8831 70.7433C48.8768 70.7917 48.8867 70.8409 48.9113 70.8832C49.0522 71.0942 49.146 71.3331 49.1863 71.5836C49.2265 71.8342 49.2122 72.0904 49.1445 72.335C49.0767 72.5795 48.9569 72.8065 48.7934 73.0006C48.6299 73.1946 48.4265 73.3511 48.197 73.4594C48.1466 73.4893 48.1101 73.5379 48.0953 73.5945C48.0804 73.6512 48.0885 73.7114 48.1177 73.7622C48.1483 73.8118 48.1968 73.8477 48.2531 73.8624C48.3095 73.8772 48.3693 73.8697 48.4203 73.8415C49.5327 73.3636 49.9933 71.8311 49.385 70.8016C49.424 70.7587 49.4607 70.7137 49.4949 70.6668C49.5084 70.7252 49.5438 70.7762 49.5937 70.8093C49.6436 70.8424 49.7043 70.8552 49.7634 70.8449C50.6186 70.7155 51.4644 70.5303 52.2954 70.2903C51.6272 71.205 51.1148 72.3336 51.444 73.47C51.4615 73.5244 51.4994 73.5698 51.5496 73.5969C51.5999 73.624 51.6586 73.6307 51.7137 73.6155C51.7687 73.6003 51.8157 73.5644 51.845 73.5154C51.8742 73.4663 51.8833 73.4079 51.8705 73.3523C51.5516 72.25 52.1671 71.1355 52.8408 70.2995C52.8668 70.2697 52.8853 70.2342 52.8948 70.1958C52.9043 70.1573 52.9044 70.1172 52.8952 70.0788C53.1914 69.9632 53.4794 69.8273 53.7569 69.6721C53.8401 69.626 53.9219 69.5762 54.0023 69.5258C53.9914 69.578 54.0009 69.6324 54.0288 69.6779C54.2453 70.0822 54.5013 70.4641 54.7931 70.8179C54.7618 70.8309 54.7342 70.8512 54.7125 70.8772C54.0851 71.5916 53.7662 72.5255 53.8256 73.4744C53.8449 73.7571 54.2864 73.7592 54.268 73.4744C54.2083 72.6427 54.4805 71.8212 55.0251 71.1898C55.0483 71.1639 55.0652 71.133 55.0747 71.0995C55.4019 71.3798 55.7923 71.5764 56.2122 71.6726C56.7192 71.7924 57.2424 71.8027 57.756 71.8818C58.263 71.9454 58.7441 72.1416 59.151 72.4507C59.5885 72.8245 59.9776 73.2516 60.309 73.7221C60.34 73.7713 60.3885 73.8069 60.4447 73.8216C60.5009 73.8364 60.5607 73.8292 60.6118 73.8016C60.6622 73.7717 60.6988 73.7232 60.7136 73.6665C60.7285 73.6098 60.7203 73.5496 60.691 73.4988C60.0689 72.685 59.3927 71.847 58.3638 71.5578C57.3989 71.2868 56.2291 71.4979 55.4145 70.8103C55.004 70.4202 54.6648 69.9614 54.412 69.4546C54.3976 69.4272 54.377 69.4034 54.3519 69.3852C54.3268 69.367 54.2979 69.3549 54.2673 69.3497C54.7218 69.0318 55.1191 68.6391 55.4424 68.1884C55.4614 68.1924 55.4809 68.194 55.5003 68.1931C55.4769 68.2327 55.468 68.2792 55.475 68.3247C55.482 68.3702 55.5045 68.4118 55.5387 68.4426C56.3913 69.2797 57.3051 70.1371 58.5097 70.4011C59.1367 70.5394 59.7908 70.5596 60.3694 70.8654C60.9032 71.1655 61.3914 71.5403 61.8192 71.9785C62.3016 72.4389 62.6958 72.9836 62.9823 73.5857C63.1017 73.844 63.483 73.6196 63.3643 73.3624C62.8113 72.2634 61.9682 71.3365 60.9263 70.6822C60.666 70.5072 60.3834 70.3678 60.0862 70.2675C59.7717 70.1748 59.4503 70.1072 59.1251 70.0654C58.519 69.9875 57.9361 69.7826 57.4145 69.464C56.8485 69.0751 56.3247 68.6282 55.8516 68.1304C55.8307 68.1084 55.8052 68.0913 55.777 68.0803C55.7487 68.0694 55.7183 68.0648 55.688 68.067C55.7026 68.0345 55.7095 67.999 55.7082 67.9634C55.7069 67.9278 55.6975 67.8929 55.6807 67.8615L55.668 67.8359C55.8228 67.5647 55.9464 67.277 56.0367 66.9781C56.1864 66.4841 56.2671 65.9728 56.3887 65.4721C56.8917 66.7163 58.0811 67.5829 59.2503 68.1843C60.1894 68.6682 61.2187 69.0308 62.1464 69.5516C62.1865 69.6034 62.2454 69.6375 62.3104 69.6463C62.7263 69.8862 63.1121 70.175 63.4595 70.5064C64.1583 71.2104 64.6101 72.1218 64.7473 73.1041C64.7632 73.1605 64.8007 73.2083 64.8516 73.2373C64.9026 73.2662 64.9628 73.2739 65.0194 73.2587C65.0752 73.2419 65.1223 73.2042 65.1511 73.1536C65.1798 73.1029 65.1879 73.0431 65.1738 72.9866L65.1712 72.9719C65.6034 72.9405 66.0197 72.7955 66.3778 72.5516C66.7359 72.3076 67.0232 71.9734 67.2107 71.5827C67.4047 71.1573 67.4717 70.691 67.8756 70.4009C68.2279 70.1632 68.65 70.051 69.0738 70.0825C69.6855 70.1519 70.2809 70.3249 70.8346 70.594C70.8673 70.607 70.9032 70.6092 70.9372 70.6002C70.7271 70.8902 70.4515 71.1265 70.1328 71.2898C69.7914 71.4476 69.4971 71.6916 69.2786 71.9977C69.0778 72.3068 68.9781 72.6707 68.9934 73.0389C69.0054 73.3226 69.4478 73.3242 69.4358 73.0389C69.4209 72.7341 69.5088 72.4331 69.6853 72.1841C69.8918 71.941 70.1522 71.7493 70.4457 71.6244C70.9804 71.3321 71.3905 70.8552 71.5994 70.2827C71.8099 69.7137 71.8011 69.0867 71.575 68.5237C71.3243 67.8977 70.8837 67.3857 70.5392 66.8129C70.2061 66.2578 69.9464 65.5039 70.3008 64.905C71.0134 64.8619 71.7496 64.847 72.4042 64.6131C72.4104 64.6238 72.4175 64.6339 72.4254 64.6433C72.4007 64.6442 72.3765 64.6503 72.3543 64.6612C72.3321 64.6721 72.3124 64.6876 72.2966 64.7066C72.1067 64.9475 71.9745 65.2286 71.9101 65.5284C71.8458 65.8282 71.8509 66.1388 71.9252 66.4364C72.0881 67.0831 72.5971 67.4656 73.0469 67.9129C73.2735 68.1252 73.4459 68.3889 73.5494 68.6818C73.6452 68.992 73.6848 69.3168 73.6662 69.641C73.6774 69.9857 73.5967 70.3271 73.4326 70.6304C73.2565 70.8598 73.0321 71.0478 72.7754 71.1811C72.1881 71.5433 71.5185 72.0161 71.6356 72.8007C71.6514 72.8571 71.6889 72.9049 71.7399 72.9339C71.7908 72.9628 71.8511 72.9705 71.9077 72.9553C71.9634 72.9384 72.0105 72.9007 72.0392 72.8501C72.068 72.7994 72.0761 72.7397 72.0621 72.6832C72.0598 72.545 72.0902 72.4082 72.1509 72.2841C72.2117 72.1599 72.3009 72.0519 72.4114 71.9689C72.6306 71.7888 72.8657 71.6289 73.1137 71.491C73.3766 71.3374 73.6064 71.1332 73.7897 70.8901C73.9633 70.6094 74.0644 70.29 74.084 69.9606C74.1848 69.3199 74.0714 68.6639 73.7614 68.0942C73.4374 67.5642 72.8597 67.2615 72.5314 66.7417C72.3709 66.4798 72.2925 66.1759 72.3062 65.869C72.32 65.5622 72.4253 65.2665 72.6086 65.02C72.646 64.9797 72.6677 64.9273 72.6699 64.8724C72.672 64.8175 72.6544 64.7636 72.6204 64.7205C72.6699 64.7154 72.7162 64.6936 72.7517 64.6587L72.9717 64.4442C73.0116 64.4035 73.0343 64.3491 73.0353 64.2921C73.1594 64.2053 73.2751 64.1072 73.381 63.999C73.425 63.953 73.4674 63.9069 73.5084 63.8592C73.6066 64.0741 73.6562 64.3081 73.6538 64.5444C73.6532 64.8693 73.7028 65.1923 73.801 65.502C74.0568 66.158 74.6766 66.5484 75.1777 67.0013C75.6902 67.4643 76.1674 68.0124 76.3181 68.705C76.3937 69.0308 76.3754 69.3713 76.2653 69.6871C76.1259 69.9962 75.9099 70.2646 75.6379 70.467C75.3351 70.6936 75.0782 70.9757 74.881 71.2984C74.7831 71.4639 74.7278 71.651 74.7197 71.843C74.7117 72.0351 74.7512 72.2262 74.8349 72.3993C74.9676 72.6514 75.3496 72.4281 75.2169 72.176C75.0687 71.8947 75.2107 71.5624 75.384 71.3267C75.6103 71.0693 75.8597 70.8332 76.1291 70.6214C76.3917 70.3884 76.5908 70.0925 76.7077 69.7615C76.7294 69.695 76.7474 69.6274 76.7616 69.559C76.7739 69.5605 76.7863 69.5609 76.7987 69.5603C77.3893 69.532 78.1837 69.4954 78.5492 70.0673ZM48.9009 64.9327C48.8865 64.6192 48.7715 64.3187 48.5731 64.0756C48.3747 63.8325 48.1033 63.6596 47.7991 63.5827C47.8273 63.3116 47.7848 63.0379 47.6758 62.7881C47.5668 62.5384 47.3949 62.3211 47.1769 62.1576C46.9644 62.0072 46.7175 61.9125 46.459 61.8822C46.2004 61.8519 45.9383 61.8869 45.6968 61.984C45.4488 61.4196 44.9959 60.9702 44.4295 60.7267C44.1809 60.6313 43.9132 60.5968 43.6486 60.6262C43.384 60.6556 43.1303 60.7479 42.9087 60.8956C42.7653 60.6564 42.5636 60.4575 42.3225 60.3174C42.0814 60.1773 41.8087 60.1006 41.5299 60.0944C40.8357 60.0675 40.2037 60.4631 39.723 60.9403C39.6496 60.8761 39.571 60.8182 39.488 60.767C39.6416 59.01 39.4579 57.2398 38.947 55.5518C38.9909 55.5301 39.0259 55.4938 39.0458 55.449C39.0657 55.4043 39.0693 55.354 39.056 55.3068C38.5989 53.4595 38.6204 51.526 39.1186 49.6893C39.3076 48.867 39.651 48.0881 40.1306 47.3939C40.3648 47.0772 40.6654 46.8155 41.0115 46.6273C41.4197 46.4264 41.8654 46.313 42.32 46.2944C44.1145 46.1762 45.7938 47.0103 47.2336 48.0024C48.7049 49.037 50.0745 50.2089 51.3242 51.5024C52.5938 52.7926 53.7507 54.189 54.7823 55.6764C54.9035 55.8511 55.0228 56.027 55.1401 56.2041C55.282 56.9681 54.9392 57.7197 54.5774 58.3737C54.1959 59.0635 53.8032 59.7269 53.6076 60.4983C53.4201 61.2393 53.3509 62.0105 53.0896 62.7334C52.8471 63.3612 52.4441 63.9145 51.9207 64.3377C51.3092 64.8225 50.6492 65.2427 49.9512 65.5917C49.9039 65.6154 49.8678 65.6568 49.8507 65.7069C49.6353 65.3449 49.2989 65.0707 48.9009 64.9327ZM68.2355 65.5589C68.6457 65.1463 69.2226 65.002 69.7846 64.9442H69.7895C69.6565 65.3517 69.6551 65.7907 69.7853 66.199C69.2765 65.9126 68.7153 65.7315 68.1351 65.6663C68.1678 65.6295 68.2005 65.5937 68.2355 65.5589ZM62.2678 69.1193L62.1987 69.0818C60.95 68.4113 59.5613 67.9806 58.3986 67.1617C59.3505 66.2919 60.7526 66.185 61.9816 66.3205C62.7761 66.4083 63.556 66.5954 64.3434 66.7292C64.1943 66.9078 64.1112 67.1323 64.1081 67.3649C64.1203 67.5434 64.1017 67.7227 64.053 67.8949C63.9845 68.0173 63.8726 68.1097 63.7394 68.1539C63.4324 68.2569 63.1361 68.3898 62.8549 68.5504C62.6283 68.7056 62.4296 68.898 62.2671 69.1193H62.2678ZM70.9399 68.2338C71.1049 68.4869 71.2163 68.7711 71.2671 69.0689C71.318 69.3667 71.3072 69.6717 71.2356 69.9652C71.2023 70.0855 71.1584 70.2027 71.1042 70.3152C71.0906 70.2811 71.07 70.2503 71.0438 70.2247C71.0175 70.199 70.9861 70.1793 70.9517 70.1666C70.013 69.7792 68.9763 69.4044 67.9844 69.8348C67.5719 70.0068 67.2412 70.3309 67.0609 70.7398C66.9595 70.9749 66.8996 71.2274 66.7819 71.4541C66.6854 71.6404 66.5597 71.81 66.4095 71.9564C66.0662 72.2956 65.6121 72.4996 65.1305 72.5309C65.1143 72.5317 65.0982 72.5342 65.0825 72.5382C64.9577 72.0193 64.7525 71.523 64.4742 71.0675C64.9213 70.9252 65.3341 70.6918 65.6865 70.382C65.8518 70.2199 65.9759 70.0207 66.0487 69.8009C66.1348 69.5343 66.1231 69.2465 66.2648 68.9977C66.3955 68.7986 66.5692 68.6313 66.773 68.508C66.9768 68.3848 67.2056 68.3087 67.4427 68.2855C68.0554 68.1947 68.6775 68.3352 69.2823 68.4186C69.6429 68.4777 70.0088 68.4982 70.3738 68.4797C70.4806 68.4845 70.587 68.4648 70.685 68.4222C70.783 68.3796 70.8699 68.3152 70.9392 68.2338H70.9399ZM70.6964 67.8463C70.6584 67.8623 70.6255 67.8886 70.6016 67.9222C70.5777 67.9558 70.5636 67.9954 70.5609 68.0366C70.5657 67.9808 70.5641 68.0069 70.5038 68.0219C70.4515 68.0325 70.3985 68.0387 70.3452 68.0403C70.1828 68.0504 70.0198 68.05 69.8574 68.0391C69.5597 68.0209 69.2655 67.9739 68.9708 67.929C68.3933 67.81 67.7994 67.793 67.216 67.8788C66.7566 67.9631 66.3401 68.2025 66.036 68.5569C65.8804 68.745 65.7719 68.9675 65.7196 69.206C65.6961 69.4487 65.6265 69.6847 65.5146 69.9014C65.2579 70.2931 64.7558 70.4882 64.3365 70.6495C64.2978 70.6642 64.2629 70.6874 64.2344 70.7173C64.1936 70.6629 64.1519 70.6092 64.1083 70.556C63.6937 70.0732 63.2019 69.6627 62.6528 69.341C62.7962 69.1524 62.9734 68.9923 63.1754 68.8686C63.4438 68.7055 63.7514 68.6458 64.0293 68.5032C64.1732 68.4313 64.2956 68.3229 64.3842 68.1887C64.4729 68.0546 64.5247 67.8994 64.5344 67.7389C64.5586 67.5043 64.4812 67.0986 64.7524 66.9822C64.7844 66.966 64.8114 66.9412 64.8302 66.9106C64.8491 66.8799 64.859 66.8447 64.859 66.8087C65.1125 66.8435 65.366 66.8707 65.6194 66.8857C66.0176 66.9254 66.4194 66.9071 66.8123 66.8313C67.265 66.7228 67.5351 66.414 67.7957 66.0834C68.5936 66.1152 69.363 66.3884 70.0024 66.8668C70.0255 66.8839 70.0528 66.8946 70.0814 66.8977C70.2644 67.2272 70.4865 67.5322 70.6957 67.8463H70.6964Z" fill="#EBE8FE"/>
<path d="M89.6143 65.8545C89.588 67.1281 87.953 68.2059 86.5795 68.8884C84.5518 69.8958 81.6396 70.8009 77.9251 71.5824C70.2553 73.1937 60.0534 74.0811 49.1987 74.0811C38.3441 74.0811 28.1422 73.1937 20.4721 71.5824C16.7576 70.802 13.8461 69.8958 11.818 68.8884C10.4332 68.2006 8.78248 67.1105 8.78248 65.8239C8.78248 65.8172 8.78248 65.8105 8.78248 65.8039C8.59146 65.7995 8.39284 65.8138 8.19238 65.8232C8.19238 67.0993 9.32395 68.3082 11.5564 69.4177C13.6302 70.4472 16.5885 71.3702 20.3519 72.1596C28.0604 73.779 38.3054 74.6712 49.1999 74.6712C60.0944 74.6712 70.3389 73.7792 78.0479 72.1596C81.8111 71.3691 84.7703 70.446 86.8431 69.4177C88.98 68.3564 90.1074 67.2027 90.1993 65.9863C90.116 65.9256 90.021 65.8826 89.9204 65.86C89.8198 65.8373 89.7156 65.8354 89.6143 65.8545Z" fill="#EBE8FE"/>
</svg>
