<svg width="29" height="28" viewBox="0 0 29 28" fill="none" xmlns="http://www.w3.org/2000/svg">
<path fill-rule="evenodd" clip-rule="evenodd" d="M24.5842 7.33325H4.58423V10.6666C4.79059 10.6666 4.89377 10.6666 4.98076 10.6742C5.94766 10.7588 6.71425 11.5254 6.79884 12.4923C6.80645 12.5793 6.80645 12.6824 6.80645 12.8888V17.9999C6.80645 20.8283 6.80645 22.2426 7.68513 23.1212C8.56381 23.9999 9.97803 23.9999 12.8065 23.9999H16.362C19.1904 23.9999 20.6046 23.9999 21.4833 23.1212C22.362 22.2426 22.362 20.8283 22.362 17.9999V12.8888C22.362 12.6824 22.362 12.5793 22.3696 12.4923C22.4542 11.5254 23.2208 10.7588 24.1877 10.6742C24.2747 10.6666 24.3779 10.6666 24.5842 10.6666V7.33325ZM12.8064 12.8888C12.8064 12.3365 12.3587 11.8888 11.8064 11.8888C11.2541 11.8888 10.8064 12.3365 10.8064 12.8888V18.4444C10.8064 18.9966 11.2541 19.4444 11.8064 19.4444C12.3587 19.4444 12.8064 18.9966 12.8064 18.4444V12.8888ZM18.362 12.8888C18.362 12.3365 17.9143 11.8888 17.362 11.8888C16.8097 11.8888 16.362 12.3365 16.362 12.8888V18.4444C16.362 18.9966 16.8097 19.4444 17.362 19.4444C17.9143 19.4444 18.362 18.9966 18.362 18.4444V12.8888Z" fill="#50429B"/>
<path d="M12.6524 4.37059C12.7663 4.26427 13.0174 4.17033 13.3667 4.10332C13.716 4.03632 14.144 4 14.5842 4C15.0245 4 15.4525 4.03632 15.8018 4.10332C16.151 4.17033 16.4021 4.26427 16.5161 4.37059" stroke="#50429B" stroke-width="2" stroke-linecap="round"/>
</svg>
