<svg width="32" height="33" viewBox="0 0 32 33" fill="none" xmlns="http://www.w3.org/2000/svg">
<path d="M6.125 10.6437H6.20312C6.56445 8.85083 8.1416 7.50087 10.0312 7.50087C10.7197 7.50087 11.4033 7.70221 12.0283 8.05333C12.6777 6.79127 13.9912 5.92944 15.5 5.92944C17.0088 5.92944 18.3223 6.79176 18.9717 8.05333C19.5527 7.70221 20.2363 7.50087 20.9688 7.50087C22.8584 7.50087 24.3916 8.85083 24.7969 10.6437H24.875C26.5986 10.6437 28 12.0531 28 13.7866C28 14.3611 27.8486 14.8964 27.5801 15.358H3.41812C3.15225 14.8964 3.00005 14.3611 3.00005 13.7866C3.00005 12.0531 4.39941 10.6437 6.125 10.6437ZM3.00005 18.275C3.00005 17.5335 3.59961 16.9294 4.33936 16.9294H26.6621C27.3994 16.9294 28 17.5335 28 18.275C28 21.737 25.832 24.6933 22.79 25.8424L22.7021 26.5102C22.6045 27.296 21.9404 27.9294 21.1543 27.9294H9.8457C9.05957 27.9294 8.39551 27.296 8.29785 26.5102L8.20996 25.8424C5.16602 24.6933 3 21.737 3 18.275H3.00005Z" fill="#50429B"/>
</svg>
