<svg width="32" height="32" viewBox="0 0 32 32" fill="none" xmlns="http://www.w3.org/2000/svg">
<path d="M4.39404 19.4582C4.3941 16.4342 5.5954 13.5341 7.73369 11.3959C9.87197 9.25765 12.7721 8.0564 15.7961 8.0564V8.0564C18.82 8.0564 21.7201 9.25765 23.8584 11.3959C25.9967 13.5341 27.198 16.4342 27.1981 19.4582H4.39404Z" fill="#50429B"/>
<path d="M15.7959 8.0564C15.0874 8.05702 14.3804 8.12334 13.6841 8.2545C16.2956 8.74669 18.6532 10.1355 20.3496 12.1811C22.046 14.2267 22.9747 16.8005 22.9752 19.458H27.1987C27.1987 17.9606 26.9037 16.4779 26.3306 15.0946C25.7575 13.7112 24.9176 12.4543 23.8587 11.3955C22.7999 10.3368 21.5429 9.49699 20.1594 8.92406C18.776 8.35112 17.2933 8.05629 15.7959 8.0564Z" fill="#A5ABDE"/>
<path d="M4.39404 19.4582C4.3941 16.4342 5.5954 13.5341 7.73369 11.3959C9.87197 9.25765 12.7721 8.0564 15.7961 8.0564V8.0564C18.82 8.0564 21.7201 9.25765 23.8584 11.3959C25.9967 13.5341 27.198 16.4342 27.1981 19.4582H4.39404Z" stroke="#50429B" stroke-width="2" stroke-linecap="round" stroke-linejoin="round"/>
<path d="M1.14288 19.4585H30.4492" stroke="#50429B" stroke-width="2" stroke-linecap="round" stroke-linejoin="round"/>
<path d="M16.868 6.78629C16.868 6.99829 16.8051 7.20554 16.6873 7.38182C16.5696 7.5581 16.4021 7.69549 16.2063 7.77663C16.0104 7.85776 15.7949 7.87899 15.5869 7.83763C15.379 7.79626 15.188 7.69417 15.0381 7.54426C14.8882 7.39435 14.7861 7.20335 14.7447 6.99541C14.7034 6.78748 14.7246 6.57195 14.8057 6.37608C14.8869 6.18021 15.0242 6.0128 15.2005 5.89501C15.3768 5.77722 15.584 5.71436 15.7961 5.71436C16.0804 5.71436 16.353 5.82729 16.554 6.02832C16.7551 6.22934 16.868 6.50199 16.868 6.78629Z" fill="#50429B"/>
<path d="M18.9145 20.4357C18.5901 20.735 18.3379 21.1059 18.0325 21.4254C17.7442 21.7667 17.3427 21.9888 16.9041 22.0496C16.3539 21.8571 15.8627 21.5222 15.4789 21.0779C15.0951 20.6336 14.8319 20.0953 14.7155 19.5161C14.2002 19.4292 13.7028 19.3645 13.2134 19.3161C13.559 20.4662 14.2737 21.4656 15.2436 22.1548C14.0527 21.5439 13.1173 20.519 12.6073 19.2666C12.2973 19.245 11.9888 19.2287 11.6802 19.2208C12.0137 20.4101 12.7405 21.4463 13.7381 22.1548C12.5303 21.535 11.5859 20.4898 11.0813 19.2144C10.782 19.2144 10.4812 19.2192 10.1775 19.23C10.512 20.4155 11.2375 21.4481 12.2324 22.1548C11.0387 21.5424 10.1017 20.5141 9.59278 19.2577C9.20733 19.279 8.8171 19.3054 8.4137 19.3406C8.99176 20.5503 9.80352 21.6295 10.8006 22.514C11.7978 23.3984 12.9598 24.0699 14.2177 24.4886C14.8887 24.7077 15.3701 25.3008 15.801 25.896C15.8891 26.0172 16.004 26.1156 16.1365 26.1833C16.269 26.251 16.4152 26.2861 16.5635 26.2858H18.3742C18.5309 26.2846 18.6849 26.2443 18.8226 26.1684C18.9603 26.0925 19.0775 25.9833 19.1639 25.8505C19.2503 25.7177 19.3032 25.5653 19.3179 25.4069C19.3326 25.2484 19.3087 25.0887 19.2483 24.9418C19.1765 24.7573 19.1207 24.5667 19.0817 24.3723C19.0078 23.9925 19.0104 23.6015 19.0893 23.2228C19.1681 22.844 19.3216 22.4854 19.5405 22.1686C20.1542 21.2906 21.2579 20.7618 21.5923 19.7399C21.1244 19.6167 20.6335 19.616 20.1652 19.7376C19.697 19.8593 19.2667 20.0994 18.9145 20.4357V20.4357Z" fill="#50429B"/>
</svg>
