<svg width="24" height="24" viewBox="0 0 24 24" fill="none" xmlns="http://www.w3.org/2000/svg">
<path d="M11.9392 2.21001L9.52922 7.82001H7.11922C6.71922 7.82001 6.32922 7.85001 5.94922 7.93001L6.94922 5.53001L6.98922 5.44001L7.04922 5.28001C7.07922 5.21001 7.09922 5.15001 7.12922 5.10001C8.28922 2.41001 9.58922 1.57001 11.9392 2.21001Z" fill="#50429B"/>
<path d="M18.7311 8.09002L18.7111 8.08002C18.1111 7.91002 17.5011 7.82002 16.8811 7.82002H10.6211L12.8711 2.59002L12.9011 2.52002C13.0411 2.57002 13.1911 2.64002 13.3411 2.69002L15.5511 3.62002C16.7811 4.13002 17.6411 4.66002 18.1711 5.30002C18.2611 5.42002 18.3411 5.53002 18.4211 5.66002C18.5111 5.80002 18.5811 5.94002 18.6211 6.09002C18.6611 6.18002 18.6911 6.26002 18.7111 6.35002C18.8611 6.86002 18.8711 7.44002 18.7311 8.09002Z" fill="#50429B"/>
<path d="M12.5195 17.66H12.7695C13.0695 17.66 13.3195 17.39 13.3195 17.06C13.3195 16.64 13.1995 16.58 12.9395 16.48L12.5195 16.33V17.66Z" fill="#50429B"/>
<path d="M18.2883 9.52001C17.8383 9.39001 17.3683 9.32001 16.8783 9.32001H7.11828C6.43828 9.32001 5.79828 9.45001 5.19828 9.71001C3.45828 10.46 2.23828 12.19 2.23828 14.2V16.15C2.23828 16.39 2.25828 16.62 2.28828 16.86C2.50828 20.04 4.20828 21.74 7.38828 21.95C7.61828 21.98 7.84828 22 8.09828 22H15.8983C19.5983 22 21.5483 20.24 21.7383 16.74C21.7483 16.55 21.7583 16.35 21.7583 16.15V14.2C21.7583 11.99 20.2883 10.13 18.2883 9.52001ZM13.2783 15.5C13.7383 15.66 14.3583 16 14.3583 17.06C14.3583 17.97 13.6483 18.7 12.7683 18.7H12.5183V18.92C12.5183 19.21 12.2883 19.44 11.9983 19.44C11.7083 19.44 11.4783 19.21 11.4783 18.92V18.7H11.3883C10.4283 18.7 9.63828 17.89 9.63828 16.89C9.63828 16.6 9.86828 16.37 10.1583 16.37C10.4483 16.37 10.6783 16.6 10.6783 16.89C10.6783 17.31 10.9983 17.66 11.3883 17.66H11.4783V15.97L10.7183 15.7C10.2583 15.54 9.63828 15.2 9.63828 14.14C9.63828 13.23 10.3483 12.5 11.2283 12.5H11.4783V12.28C11.4783 11.99 11.7083 11.76 11.9983 11.76C12.2883 11.76 12.5183 11.99 12.5183 12.28V12.5H12.6083C13.5683 12.5 14.3583 13.31 14.3583 14.31C14.3583 14.6 14.1283 14.83 13.8383 14.83C13.5483 14.83 13.3183 14.6 13.3183 14.31C13.3183 13.89 12.9983 13.54 12.6083 13.54H12.5183V15.23L13.2783 15.5Z" fill="#50429B"/>
<path d="M10.6797 14.14C10.6797 14.56 10.7997 14.62 11.0597 14.72L11.4797 14.87V13.54H11.2297C10.9197 13.54 10.6797 13.81 10.6797 14.14Z" fill="#50429B"/>
</svg>
