<svg width="24" height="24" viewBox="0 0 24 24" fill="none" xmlns="http://www.w3.org/2000/svg">
<g clip-path="url(#clip0_5539_472691)">
<g clip-path="url(#clip1_5539_472691)">
<path d="M23.4388 19.7183H1.7697C1.41081 19.7183 1.06662 19.8641 0.812848 20.1237C0.559076 20.3834 0.416504 20.7355 0.416504 21.1027C0.416504 21.2845 0.451504 21.4645 0.519508 21.6325C0.587512 21.8004 0.687192 21.9531 0.812848 22.0816C0.938503 22.2102 1.08767 22.3121 1.25185 22.3817C1.41603 22.4513 1.59199 22.4871 1.7697 22.4871H23.4388C23.6165 22.4871 23.7924 22.4513 23.9566 22.3817C24.1208 22.3121 24.27 22.2102 24.3956 22.0816C24.5213 21.9531 24.6209 21.8004 24.6889 21.6325C24.757 21.4645 24.792 21.2845 24.792 21.1027C24.792 20.7355 24.6494 20.3834 24.3956 20.1237C24.1418 19.8641 23.7976 19.7183 23.4388 19.7183Z" fill="#463796"/>
<path d="M23.1357 19.9821H2.07232C1.98345 19.982 1.89545 19.9999 1.81333 20.0347C1.73122 20.0695 1.65661 20.1204 1.59376 20.1847C1.5309 20.249 1.48105 20.3253 1.44704 20.4093C1.41302 20.4933 1.39551 20.5833 1.39551 20.6743C1.39551 20.8579 1.46682 21.034 1.59374 21.1639C1.72067 21.2937 1.89282 21.3667 2.07232 21.3667H23.1357C23.2246 21.3667 23.3126 21.3488 23.3947 21.314C23.4768 21.2792 23.5514 21.2282 23.6143 21.1639C23.6771 21.0996 23.727 21.0233 23.761 20.9392C23.795 20.8552 23.8125 20.7652 23.8125 20.6743C23.8125 20.5833 23.795 20.4933 23.761 20.4093C23.7269 20.3253 23.6771 20.249 23.6142 20.1847C23.5514 20.1204 23.4768 20.0695 23.3947 20.0347C23.3126 19.9999 23.2246 19.982 23.1357 19.9821Z" fill="#FF8C21"/>
<path d="M13.4156 9.03855C13.4156 9.20118 13.3685 9.36016 13.2802 9.49539C13.1918 9.63062 13.0663 9.73601 12.9194 9.79825C12.7726 9.86049 12.611 9.87677 12.4551 9.84505C12.2991 9.81332 12.1559 9.735 12.0435 9.62C11.9311 9.505 11.8546 9.35848 11.8235 9.19897C11.7925 9.03946 11.8085 8.87412 11.8693 8.72387C11.9301 8.57361 12.0331 8.44519 12.1653 8.35483C12.2975 8.26448 12.4529 8.21625 12.6119 8.21625C12.7174 8.21622 12.8219 8.23747 12.9195 8.27878C13.017 8.3201 13.1056 8.38067 13.1803 8.45703C13.2549 8.53339 13.3141 8.62405 13.3545 8.72383C13.3949 8.82361 13.4156 8.93055 13.4156 9.03855Z" fill="#463796"/>
<path d="M23.0506 19.7184H2.17286C2.16966 16.8998 3.25874 14.1949 5.20143 12.1964H5.20336C6.62523 10.7307 8.43195 9.71818 10.4047 9.28144C12.3775 8.8447 14.4317 9.00247 16.3187 9.73563C18.2056 10.4688 19.8444 11.7459 21.0364 13.4123C22.2285 15.0787 22.9228 17.063 23.0352 19.1248C23.0448 19.3197 23.0506 19.5175 23.0506 19.7184Z" fill="#FF8C21"/>
<path d="M23.0506 19.7183H2.17286C2.16966 16.8998 3.25874 14.1949 5.20143 12.1964H5.20336C3.67834 14.1961 5.46712 19.1248 12.0967 19.1248H23.0352C23.0448 19.3197 23.0506 19.5175 23.0506 19.7183Z" fill="#463796"/>
<path d="M20.0077 14.7469C20.3843 14.1692 19.4186 12.8334 17.8506 11.7633C16.2826 10.6932 14.7061 10.294 14.3295 10.8717C13.9528 11.4494 14.9186 12.7852 16.4866 13.8553C18.0546 14.9253 19.631 15.3245 20.0077 14.7469Z" fill="#F7F5FF"/>
<path d="M13 7L13 4" stroke="#FF8C21" stroke-width="2" stroke-miterlimit="10" stroke-linecap="round"/>
<path d="M9.87114 7.7247L8.44922 5.83728" stroke="#FF8C21" stroke-width="2" stroke-miterlimit="10" stroke-linecap="round"/>
<path d="M15.355 7.7247L16.7769 5.83728" stroke="#FF8C21" stroke-width="2" stroke-miterlimit="10" stroke-linecap="round"/>
</g>
</g>
<defs>
<clipPath id="clip0_5539_472691">
<rect width="24" height="24" fill="white"/>
</clipPath>
<clipPath id="clip1_5539_472691">
<rect width="25" height="19" fill="white" transform="translate(0 3)"/>
</clipPath>
</defs>
</svg>
