<svg width="24" height="24" viewBox="0 0 24 24" fill="none" xmlns="http://www.w3.org/2000/svg">
<g clip-path="url(#clip0_5539_472854)">
<path d="M18.2506 10.9039C17.8857 9.8049 17.2326 8.82396 16.3594 8.06343L16.6331 7.73177L16.7501 7.82842C16.8582 7.91788 16.953 7.92901 17.0276 7.83866L17.2216 7.6034C17.2962 7.51311 17.2732 7.41532 17.1648 7.32586L16.1237 6.46665C16.0156 6.37719 15.9325 6.38768 15.8579 6.47797L15.6638 6.71323C15.5893 6.80352 15.6006 6.87976 15.709 6.96922L15.8436 7.0803L15.5474 7.43916L15.6602 7.53225C14.74 6.92426 13.6811 6.55863 12.5818 6.46932L12.5682 5.8724L12.7704 5.86782C12.9575 5.86356 13.0625 5.79241 13.0589 5.63644L13.0497 5.2304C13.0462 5.07443 12.9378 4.9959 12.7509 5.00016L10.9529 5.04098C10.7657 5.04525 10.6913 5.12797 10.6948 5.28394L10.7041 5.68998C10.7076 5.84595 10.7854 5.91291 10.9726 5.90865L11.205 5.90337L11.2186 6.50639C10.201 6.63962 9.22968 7.01295 8.38479 7.59558L8.14845 7.27213L8.27097 7.1826C8.3844 7.09994 8.41855 7.01093 8.3495 6.91632L8.16956 6.67012C8.1005 6.57557 8.00011 6.57373 7.88667 6.65658L6.79666 7.45309C6.68317 7.53575 6.67286 7.61885 6.74192 7.7134L6.92179 7.95953C6.99091 8.05414 7.06753 8.06196 7.18102 7.97905L7.32186 7.87611L7.58891 8.24114C6.74331 9.04459 6.12907 10.0605 5.81041 11.1825C5.49176 12.3046 5.48039 13.4917 5.77749 14.6196C6.0746 15.7476 6.66927 16.775 7.49933 17.5945C8.32939 18.414 9.36436 18.9955 10.496 19.2781C11.6277 19.5608 12.8146 19.5342 13.9325 19.2012C15.0503 18.8682 16.0583 18.241 16.8508 17.3852C17.6434 16.5294 18.1915 15.4763 18.4378 14.3362C18.6841 13.1961 18.6196 12.0107 18.2511 10.904L18.2506 10.9039ZM17.2415 15.5185L16.743 15.2541C16.7276 15.246 16.7107 15.2411 16.6933 15.24C16.6759 15.2388 16.6585 15.2413 16.6422 15.2473C16.6258 15.2533 16.611 15.2626 16.5985 15.2748C16.586 15.2869 16.5763 15.3016 16.5698 15.3177C16.5591 15.3474 16.5597 15.38 16.5714 15.4093C16.5831 15.4386 16.6052 15.4626 16.6334 15.4767L17.1265 15.7382C16.6962 16.5256 16.0869 17.2008 15.3476 17.7093C15.3211 17.7518 15.2856 17.7881 15.2437 17.8156C15.2017 17.8431 15.1543 17.8612 15.1047 17.8686C14.327 18.348 13.4467 18.6363 12.536 18.7098L12.5349 18.6895C12.4525 18.6976 12.3697 18.7005 12.2869 18.6981L12.2883 18.7245C12.2686 18.7252 12.2489 18.7266 12.2292 18.7271C11.3395 18.7497 10.4567 18.5663 9.64978 18.1911L9.88466 17.7177C9.89933 17.6897 9.9032 17.6573 9.89555 17.6267C9.88789 17.596 9.86924 17.5692 9.84314 17.5513C9.82846 17.5421 9.812 17.536 9.79482 17.5334C9.77763 17.5309 9.76011 17.532 9.74339 17.5367C9.72666 17.5414 9.71111 17.5495 9.69773 17.5606C9.68436 17.5717 9.67346 17.5855 9.66574 17.601L9.42698 18.0821C8.61962 17.6659 7.92187 17.0651 7.39047 16.3284L7.82455 16.0342C7.85106 16.0171 7.87035 15.9908 7.87878 15.9604C7.88721 15.93 7.88418 15.8976 7.87027 15.8692C7.86211 15.8539 7.85082 15.8404 7.83711 15.8297C7.82341 15.819 7.80761 15.8113 7.79073 15.8071C7.77385 15.8029 7.75628 15.8023 7.73916 15.8053C7.72204 15.8084 7.70575 15.815 7.69134 15.8247L7.24982 16.1239C6.75155 15.365 6.43983 14.4991 6.34013 13.5968L6.86056 13.5546C6.89174 13.5527 6.92116 13.5395 6.94328 13.5174C6.9654 13.4954 6.9787 13.466 6.98067 13.4348C6.98147 13.4173 6.97851 13.3998 6.97197 13.3835C6.96544 13.3672 6.95549 13.3525 6.94279 13.3404C6.9301 13.3283 6.91495 13.319 6.89837 13.3133C6.8818 13.3075 6.86418 13.3053 6.8467 13.307L6.31731 13.3499C6.25723 12.4445 6.41191 11.5377 6.76875 10.7034L7.24639 10.9245C7.26323 10.9323 7.28161 10.9362 7.30017 10.9359C7.31872 10.9357 7.33698 10.9313 7.35361 10.923C7.37024 10.9148 7.38481 10.9029 7.39625 10.8883C7.40769 10.8737 7.41571 10.8567 7.41972 10.8386C7.42535 10.8102 7.42114 10.7808 7.40777 10.7551C7.39441 10.7294 7.3727 10.7091 7.34621 10.6974L6.87105 10.4775C7.26181 9.65801 7.84009 8.94208 8.55907 8.3877L8.87107 8.82236C8.88067 8.83575 8.89284 8.8471 8.90687 8.85573C8.9209 8.86437 8.93652 8.87012 8.9528 8.87264C8.96908 8.87517 8.9857 8.87443 9.00169 8.87046C9.01768 8.86648 9.03272 8.85936 9.04593 8.84951C9.07195 8.82847 9.0888 8.79816 9.09293 8.76496C9.09706 8.73175 9.08814 8.69824 9.06805 8.67147L8.75859 8.24038C9.21399 7.91835 9.71416 7.66488 10.2431 7.48806C10.7466 7.31447 11.273 7.21629 11.8051 7.19672V7.74354C11.8103 7.77817 11.8278 7.80979 11.8543 7.83264C11.8809 7.85549 11.9147 7.86806 11.9498 7.86806C11.9848 7.86806 12.0186 7.85549 12.0452 7.83264C12.0717 7.80979 12.0892 7.77817 12.0944 7.74354V7.19271C12.9861 7.2065 13.8641 7.41482 14.667 7.80311C14.698 7.81869 14.7211 7.8358 14.7518 7.85182L14.4752 8.33505C14.467 8.34911 14.4618 8.36464 14.4596 8.38075C14.4575 8.39686 14.4586 8.41323 14.4628 8.42892C14.467 8.44462 14.4742 8.45933 14.4841 8.47221C14.494 8.48509 14.5064 8.49589 14.5205 8.50399C14.5387 8.51454 14.5594 8.52008 14.5805 8.52008C14.6024 8.5201 14.6239 8.51428 14.6428 8.50321C14.6618 8.49215 14.6774 8.47624 14.6881 8.45713L14.9629 7.97085C15.7548 8.42627 16.426 9.06483 16.9204 9.83302L16.4415 10.121C16.4139 10.1369 16.3932 10.1623 16.3833 10.1925C16.3733 10.2226 16.3749 10.2554 16.3877 10.2845C16.3951 10.3001 16.4058 10.3139 16.4189 10.3251C16.432 10.3363 16.4474 10.3447 16.4639 10.3496C16.4805 10.3546 16.4978 10.356 16.515 10.3539C16.5321 10.3517 16.5486 10.346 16.5634 10.3371L17.0493 10.0446C17.5119 10.8363 17.7802 11.7264 17.832 12.6419L17.2641 12.6624C17.2447 12.6616 17.2254 12.6657 17.2079 12.6743C17.1905 12.6829 17.1755 12.6957 17.1643 12.7116C17.153 12.7275 17.146 12.7459 17.1437 12.7652C17.1414 12.7845 17.1439 12.8041 17.1511 12.8221C17.1596 12.8467 17.1756 12.868 17.1968 12.883C17.218 12.898 17.2434 12.906 17.2694 12.9058H17.2708L17.8411 12.8935C17.8487 13.8033 17.6433 14.7022 17.2415 15.5185Z" fill="#F5832B"/>
<path d="M12.0367 8.32172L11.7483 12.9315L9.29395 10.9379L11.5835 13.6046C11.6189 13.6459 11.6628 13.6789 11.7122 13.7016C11.7616 13.7243 11.8153 13.736 11.8696 13.736H11.976C12.0275 13.736 12.0784 13.7254 12.1257 13.705C12.1729 13.6845 12.2155 13.6546 12.2507 13.6171C12.286 13.5795 12.3131 13.5352 12.3306 13.4867C12.348 13.4383 12.3553 13.3868 12.3521 13.3354L12.0367 8.32172Z" fill="#F5832B"/>
<path d="M3.99993 14.9042L4.00299 14.892C3.97151 14.943 3.94208 14.9941 3.91357 15.046H3.91476C3.94378 14.9984 3.97194 14.9512 3.99993 14.9042Z" fill="white"/>
<path d="M3.34266 17.9178C3.33994 17.8285 3.33806 17.7335 3.33815 17.6342L3.31628 17.6333L3.16748 18.2277C3.22655 18.2023 3.27567 18.1583 3.30731 18.1023C3.33895 18.0463 3.35137 17.9815 3.34266 17.9178Z" fill="white"/>
<path d="M3.6469 15.689L3.63396 15.6884C3.58538 15.8338 3.54531 15.9794 3.51196 16.1234H3.51392C3.55063 15.9764 3.59502 15.8314 3.6469 15.689Z" fill="white"/>
<path d="M3.06909 18.6202C3.07974 18.6165 3.09002 18.6119 3.09979 18.6063L3.07288 18.6052L3.06909 18.6202Z" fill="white"/>
<path d="M5.11499 20.7188L5.20858 20.7923L5.26745 20.7906L5.11499 20.7188Z" fill="white"/>
<path d="M5.62132 21.2645C5.58627 21.2278 5.55209 21.1901 5.5188 21.1516C5.54872 21.1929 5.5831 21.2308 5.62132 21.2645Z" fill="white"/>
<path d="M6.20975 21.724C6.13199 21.6793 6.05712 21.63 5.98438 21.5779C6.05332 21.6355 6.129 21.6846 6.20975 21.724Z" fill="white"/>
<path d="M23.9884 19.0331C24.2545 15.292 19.8504 13.8083 19.8504 13.8083C19.1698 11.8793 17.5363 11.0136 17.3903 10.9426C17.3648 10.9183 17.3777 10.8575 17.4158 10.8549L17.625 10.832C17.7415 10.8286 17.8539 10.7877 17.9453 10.7154C18.0367 10.6431 18.1023 10.5433 18.1325 10.4307C18.2844 9.83609 18.2396 9.20829 18.0048 8.64129C17.9582 8.54203 17.8823 8.45941 17.7873 8.40447C17.6924 8.34953 17.5829 8.32491 17.4736 8.3339L15.8942 8.43796C15.5432 8.46061 15.2023 8.56441 14.8983 8.74118L13.4586 9.5826C13.3947 9.61862 13.3422 9.67193 13.3072 9.73641C13.2722 9.8009 13.2561 9.87394 13.2608 9.94716C13.2608 9.94716 13.2893 10.33 13.2894 10.3314C13.2949 10.4144 12.5272 10.5086 12.443 10.5459C12.0821 10.7058 12.0091 11.2685 12.4842 11.3298C12.7195 11.3601 12.8858 11.2098 13.0643 11.0952C13.2465 10.9782 13.4493 10.8783 13.6422 10.7768C14.0749 10.549 14.5192 10.3416 14.9524 10.1153C14.9951 10.0915 15.0312 10.0575 15.0576 10.0163C15.084 9.97515 15.0998 9.9281 15.1037 9.87936C15.1098 9.84484 15.1267 9.81315 15.1519 9.78881C15.1771 9.76446 15.2094 9.7487 15.2441 9.74378C15.2788 9.73885 15.3142 9.74502 15.3452 9.76139C15.3762 9.77776 15.4012 9.8035 15.4167 9.83495C15.4441 9.8936 15.4534 9.95904 15.4435 10.023C15.4336 10.0869 15.405 10.1465 15.3612 10.1941L13.8468 10.9736C13.8329 10.9804 13.8211 10.9909 13.8127 11.004C13.8044 11.017 13.7998 11.0321 13.7996 11.0476C13.7993 11.0631 13.8033 11.0784 13.8112 11.0917C13.8191 11.105 13.8305 11.1159 13.8442 11.1232C14.479 11.4956 15.0239 12.0035 15.4399 12.6106C16.0455 13.4926 16.5426 14.6683 16.2226 15.7415C15.9145 16.7776 14.8215 17.5488 13.6829 17.5488C12.9759 17.5516 12.2966 17.2734 11.7947 16.7755C11.2927 16.2775 11.0091 15.6005 11.0063 14.8935C11.0063 14.2915 11.2087 13.8348 11.5495 13.3901C11.8069 13.0543 11.5522 12.6888 11.1065 12.6888H6.27633C5.59085 12.6888 4.72203 13.0064 4.72203 13.6391V14.0595C4.29664 14.359 4.12844 14.6952 3.91438 15.0464L3.67291 15.4836L3.64664 15.6895C3.59476 15.8318 3.55038 15.9768 3.51366 16.1239L3.40697 16.4979L3.40689 16.6608C3.37847 16.8447 3.36145 17.0236 3.35082 17.1946L3.33802 17.4621L3.33806 17.6348C3.33806 17.7341 3.33984 17.829 3.34257 17.9183C3.35609 18.3536 3.82062 18.2606 3.51366 18.2729L3.33802 18.4098L3.16578 18.5265C4.5884 18.5838 3.1126 18.7801 3.1126 18.6072C2.90501 18.5996 3.04539 20.2163 3.09056 20.3575C3.1474 20.5353 3.19045 20.5634 3.3606 20.4001V20.3868C3.61584 19.8934 4.35279 19.8105 4.97531 19.7172L4.97863 19.7824C4.97925 19.8344 4.98417 19.8863 4.99335 19.9375C5.00639 20.0547 5.02832 20.1708 5.05894 20.2847C5.11025 20.4602 5.18012 20.6296 5.26738 20.7903L0 20.9511L5.49046 21.1185C5.53189 21.1695 5.57639 21.2173 5.62148 21.2645L1.08118 21.4028L5.94597 21.5511C6.03041 21.6139 6.11848 21.6716 6.20971 21.724L1.92175 21.8547L6.90208 22.0069C7.61673 22.1993 8.37844 22.102 9.02173 21.736C9.33362 21.5537 9.60625 21.3113 9.82385 21.0229C10.1007 20.6479 10.2727 20.2059 10.3224 19.7424C10.3322 19.6473 10.3344 19.5978 10.3344 19.5978H10.3267C10.3338 19.3452 10.3111 19.0926 10.2593 18.8453C12.357 18.8453 14.6657 18.8027 16.75 18.8027C16.7475 18.8502 16.7457 18.8767 16.7453 18.9246C16.745 18.9543 16.7462 18.9841 16.749 19.0137C16.7575 19.354 16.6854 19.6209 16.7745 19.8985C16.8313 20.0763 16.8885 20.1044 17.0587 19.9411V19.9305C17.2288 19.4384 18.0013 19.3567 18.6378 19.2641L18.6387 19.357C18.6389 19.409 18.6433 19.4609 18.652 19.5121C18.6649 19.6293 18.6866 19.7454 18.7169 19.8593C18.8259 20.2356 19.0218 20.5809 19.2889 20.8675C19.2994 20.8755 19.3094 20.884 19.3189 20.893C19.3189 20.893 19.5682 21.101 19.7613 21.2374C19.8243 21.2778 19.8889 21.3166 19.9546 21.3513C20.0752 21.3838 20.2416 21.6187 20.9209 21.6609L21.0315 21.6644C21.604 21.7204 22.1797 21.5969 22.6788 21.3109C22.9907 21.1286 23.2634 20.8863 23.481 20.5979C23.7574 20.2334 23.9297 19.8007 23.9796 19.346C23.9893 19.2508 23.9917 19.2297 23.9917 19.2297L23.9884 19.0947C23.9884 19.088 23.9884 19.0331 23.9884 19.0331ZM8.95554 20.1221C8.89238 20.3275 8.78512 20.5167 8.64126 20.6763C8.49004 20.8246 8.31074 20.9412 8.11386 21.0193C7.91698 21.0974 7.70649 21.1354 7.49474 21.1311C6.51344 21.1341 5.80508 20.4812 5.63152 19.5975H6.61843C6.61021 19.6491 6.60665 19.7013 6.6078 19.7536C6.61242 19.9456 6.69209 20.1281 6.82973 20.2621C6.96736 20.3961 7.152 20.4708 7.34407 20.4702C7.452 20.4689 7.55838 20.4442 7.65584 20.3978C7.7533 20.3514 7.83953 20.2844 7.90857 20.2014C7.97761 20.1184 8.02782 20.0215 8.05573 19.9172C8.08364 19.8129 8.08858 19.7038 8.07021 19.5975H9.06963C9.04167 19.7743 9.00341 19.9496 8.95554 20.1221ZM22.6125 19.6827C22.5494 19.8903 22.4422 20.0819 22.2982 20.2442C22.1494 20.399 21.9716 20.5229 21.7748 20.6089C21.5781 20.6948 21.3664 20.7412 21.1517 20.7453C20.1625 20.7483 19.4501 20.0588 19.2837 19.1731L19.2825 19.1157H20.2129C20.2067 19.1672 20.2038 19.2191 20.2044 19.271C20.2087 19.4638 20.288 19.6472 20.4255 19.7824C20.563 19.9176 20.7478 19.9937 20.9406 19.9947C21.1349 19.9905 21.32 19.9113 21.4572 19.7738C21.5944 19.6362 21.6731 19.451 21.6768 19.2567C21.6775 19.2095 21.6746 19.1624 21.6683 19.1157H22.7159C22.7643 19.1154 22.6251 19.6443 22.6125 19.6827Z" fill="#FF8C21"/>
<path d="M6.20959 21.724L1.92163 21.8547L6.74558 22.0018L6.66663 21.9397C6.47078 21.8697 6.35933 21.7891 6.20959 21.724Z" fill="#F5832B"/>
<path d="M5.20875 20.7922L0.000244141 20.951L5.4907 21.1184C5.49989 21.1297 5.50976 21.1405 5.5192 21.1515C5.45591 21.0704 5.3841 20.9661 5.33331 20.8902L5.20875 20.7922Z" fill="#F5832B"/>
<path d="M1.0813 21.4028L5.94609 21.5511C5.95851 21.5604 5.97161 21.5688 5.98429 21.5778C5.83319 21.4587 5.68515 21.312 5.6216 21.2644L1.0813 21.4028Z" fill="#F5832B"/>
<path d="M15.3606 21.491L20.9207 21.6606C20.2415 21.618 20.0751 21.3834 19.9544 21.351L15.3606 21.491Z" fill="#F5832B"/>
<path d="M13.4302 20.5873L19.1851 20.763V20.7582C19.1851 20.7952 19.2431 20.8319 19.2883 20.8672C19.1614 20.7305 19.0499 20.5803 18.9559 20.4191L13.4302 20.5873Z" fill="#F5832B"/>
<path d="M14.5164 21.0392L19.699 21.1971C19.7194 21.2109 19.7406 21.2238 19.7614 21.237C19.5681 21.1009 19.319 20.8926 19.319 20.8926L14.5164 21.0392Z" fill="#F5832B"/>
<path d="M2.84865 20.1715C2.61455 17.5317 3.78489 15.3719 4.72116 15.1319L5.18929 16.5718L4.72116 20.4115C3.78503 20.4115 3.55096 20.4115 3.31679 21.1315C2.84876 22.0914 2.77063 20.6515 2.84865 20.1715Z" fill="#50429B"/>
<path d="M6.62614 12.7302C5.23457 12.7302 4.72102 13.4173 4.63818 13.7608V14.2762H10.3536C10.3536 13.2455 10.8505 13.7608 11.099 13.2455C11.2978 12.8332 11.1819 12.7302 11.099 12.7302H6.62614Z" fill="#50429B"/>
<ellipse cx="17.7143" cy="9.28573" rx="0.571429" ry="0.857143" fill="#50429B"/>
<path d="M23.577 18.9142C23.4804 19.4664 23.3451 20.4051 22.4175 20.8468" stroke="white" stroke-linecap="round"/>
<path d="M9.66266 19.3008C9.59824 19.8529 9.50806 20.7916 8.88965 21.2333" stroke="white" stroke-linecap="round"/>
</g>
<defs>
<clipPath id="clip0_5539_472854">
<rect width="24" height="24" fill="white"/>
</clipPath>
</defs>
</svg>
