<svg width="32" height="33" viewBox="0 0 32 33" fill="none" xmlns="http://www.w3.org/2000/svg">
<path d="M25.3333 20.5C22.3867 20.5 20 22.8867 20 25.8333C20 26.8333 20.28 27.78 20.7733 28.58C21.6933 30.1267 23.3867 31.1667 25.3333 31.1667C27.28 31.1667 28.9733 30.1267 29.8933 28.58C30.3867 27.78 30.6667 26.8333 30.6667 25.8333C30.6667 22.8867 28.28 20.5 25.3333 20.5ZM28.0933 25.26L25.2533 27.8867C25.0667 28.06 24.8133 28.1533 24.5733 28.1533C24.32 28.1533 24.0667 28.06 23.8667 27.86L22.5467 26.54C22.16 26.1533 22.16 25.5133 22.5467 25.1267C22.9333 24.74 23.5733 24.74 23.96 25.1267L24.6 25.7667L26.7333 23.7933C27.1333 23.42 27.7733 23.4467 28.1467 23.8467C28.52 24.2467 28.4933 24.8733 28.0933 25.26Z" fill="white"/>
<path d="M29.3334 10.5667V11.1667C29.3334 11.9 28.7334 12.5 28.0001 12.5H4.00008C3.26675 12.5 2.66675 11.9 2.66675 11.1667V10.5533C2.66675 7.49999 5.13341 5.03333 8.18675 5.03333H23.8001C26.8534 5.03333 29.3334 7.51333 29.3334 10.5667Z" fill="white"/>
<path d="M2.66675 15.8334V22.4467C2.66675 25.5 5.13341 27.9667 8.18675 27.9667H16.5334C17.3067 27.9667 17.9734 27.3134 17.9067 26.54C17.7201 24.5 18.3734 22.2867 20.1867 20.5267C20.9334 19.7934 21.8534 19.2334 22.8534 18.9134C24.5201 18.38 26.1334 18.4467 27.5601 18.9267C28.4267 19.22 29.3334 18.5934 29.3334 17.6734V15.82C29.3334 15.0867 28.7334 14.4867 28.0001 14.4867H4.00008C3.26675 14.5 2.66675 15.1 2.66675 15.8334ZM10.6667 23.5H8.00008C7.45341 23.5 7.00008 23.0467 7.00008 22.5C7.00008 21.9534 7.45341 21.5 8.00008 21.5H10.6667C11.2134 21.5 11.6667 21.9534 11.6667 22.5C11.6667 23.0467 11.2134 23.5 10.6667 23.5Z" fill="white"/>
</svg>