<svg width="33" height="32" viewBox="0 0 33 32" fill="none" xmlns="http://www.w3.org/2000/svg">
<path d="M9.4176 6.66675C9.4176 4.45341 11.2043 2.66675 13.4176 2.66675H18.7509C20.9643 2.66675 22.7509 4.45341 22.7509 6.66675C22.7509 7.40008 22.1509 8.00008 21.4176 8.00008H10.7509C10.0176 8.00008 9.4176 7.40008 9.4176 6.66675Z" fill="#50429B"/>
<path d="M23.7509 20C23.7509 20.5467 23.2976 21 22.7509 21H21.4176V25.3333C21.4176 27.5467 19.6309 29.3333 17.4176 29.3333H14.7509C12.5376 29.3333 10.7509 27.5467 10.7509 25.3333V21H9.4176C8.87094 21 8.4176 20.5467 8.4176 20C8.4176 19.4533 8.87094 19 9.4176 19H22.7509C23.2976 19 23.7509 19.4533 23.7509 20Z" fill="#50429B"/>
<path d="M24.0842 9.33325H8.08423C5.41756 9.33325 4.08423 10.6666 4.08423 13.3333V19.9999C4.08423 22.6666 5.41756 23.9999 8.08423 23.9999H8.61756C9.05939 23.9999 9.41756 23.6417 9.41756 23.1999V23.1333C9.41756 22.6914 9.04889 22.3462 8.63338 22.196C7.73417 21.871 7.08423 21.0054 7.08423 19.9999C7.08423 18.7199 8.13756 17.6666 9.41756 17.6666H22.7509C24.0309 17.6666 25.0842 18.7199 25.0842 19.9999C25.0842 21.0054 24.4343 21.871 23.5351 22.196C23.1196 22.3462 22.7509 22.6914 22.7509 23.1333V23.1999C22.7509 23.6417 23.1091 23.9999 23.5509 23.9999H24.0842C26.7509 23.9999 28.0842 22.6666 28.0842 19.9999V13.3333C28.0842 10.6666 26.7509 9.33325 24.0842 9.33325ZM13.4176 15.6666H9.41756C8.8709 15.6666 8.41756 15.2133 8.41756 14.6666C8.41756 14.1199 8.8709 13.6666 9.41756 13.6666H13.4176C13.9642 13.6666 14.4176 14.1199 14.4176 14.6666C14.4176 15.2133 13.9642 15.6666 13.4176 15.6666Z" fill="#50429B"/>
</svg>
