<svg width="24" height="22" viewBox="0 0 24 22" fill="none" xmlns="http://www.w3.org/2000/svg">
<path d="M5.004 2.763V3.998H4C2.93913 3.998 1.92172 4.41943 1.17157 5.16958C0.421427 5.91972 0 6.93714 0 7.998V14.998C0 15.7937 0.316071 16.5567 0.87868 17.1193C1.44129 17.6819 2.20435 17.998 3 17.998H5V18.998C5 19.7937 5.31607 20.5567 5.87868 21.1193C6.44129 21.6819 7.20435 21.998 8 21.998H16C16.7956 21.998 17.5587 21.6819 18.1213 21.1193C18.6839 20.5567 19 19.7937 19 18.998V17.998H21C21.7956 17.998 22.5587 17.6819 23.1213 17.1193C23.6839 16.5567 24 15.7937 24 14.998V7.998C24 6.93714 23.5786 5.91972 22.8284 5.16958C22.0783 4.41943 21.0609 3.998 20 3.998H19V2.75C19 2.38853 18.9287 2.0306 18.7903 1.6967C18.6518 1.36279 18.4489 1.05946 18.1931 0.804044C17.9373 0.54863 17.6337 0.34615 17.2996 0.208185C16.9655 0.07022 16.6075 -0.000522868 16.246 2.90936e-06L7.75 0.0130029C7.02135 0.0140628 6.3229 0.304262 5.80804 0.819872C5.29318 1.33548 5.004 2.03435 5.004 2.763ZM17.5 2.75V3.998H6.504V2.763C6.504 2.073 7.062 1.514 7.752 1.513L16.248 1.5C16.4123 1.49974 16.5751 1.53188 16.727 1.59458C16.8789 1.65728 17.0169 1.74931 17.1332 1.86541C17.2495 1.98151 17.3417 2.1194 17.4047 2.27119C17.4676 2.42297 17.5 2.58568 17.5 2.75ZM8 12.498H16C16.3978 12.498 16.7794 12.656 17.0607 12.9373C17.342 13.2186 17.5 13.6002 17.5 13.998V18.998C17.5 19.3958 17.342 19.7774 17.0607 20.0587C16.7794 20.34 16.3978 20.498 16 20.498H8C7.60218 20.498 7.22064 20.34 6.93934 20.0587C6.65804 19.7774 6.5 19.3958 6.5 18.998V13.998C6.5 13.6002 6.65804 13.2186 6.93934 12.9373C7.22064 12.656 7.60218 12.498 8 12.498Z" fill="#50429B"/>
</svg>
