<svg width="32" height="32" viewBox="0 0 32 32" fill="none" xmlns="http://www.w3.org/2000/svg">
<path d="M9.33325 6.66663C9.33325 4.45329 11.1199 2.66663 13.3333 2.66663H18.6666C20.8799 2.66663 22.6666 4.45329 22.6666 6.66663C22.6666 7.39996 22.0666 7.99996 21.3333 7.99996H10.6666C9.93325 7.99996 9.33325 7.39996 9.33325 6.66663Z" fill="#50429B"/>
<path d="M23.6666 20C23.6666 20.5467 23.2133 21 22.6666 21H21.3333V25.3333C21.3333 27.5467 19.5466 29.3333 17.3333 29.3333H14.6666C12.4533 29.3333 10.6666 27.5467 10.6666 25.3333V21H9.33325C8.78659 21 8.33325 20.5467 8.33325 20C8.33325 19.4533 8.78659 19 9.33325 19H22.6666C23.2133 19 23.6666 19.4533 23.6666 20Z" fill="#50429B"/>
<path d="M24 9.33337H8C5.33333 9.33337 4 10.6667 4 13.3334V20C4 22.6667 5.33333 24 8 24H8.53333C8.97516 24 9.33333 23.6419 9.33333 23.2V23.1334C9.33333 22.6915 8.96466 22.3464 8.54915 22.1962C7.64994 21.8711 7 21.0055 7 20C7 18.72 8.05333 17.6667 9.33333 17.6667H22.6667C23.9467 17.6667 25 18.72 25 20C25 21.0055 24.3501 21.8711 23.4509 22.1962C23.0353 22.3464 22.6667 22.6915 22.6667 23.1334V23.2C22.6667 23.6419 23.0248 24 23.4667 24H24C26.6667 24 28 22.6667 28 20V13.3334C28 10.6667 26.6667 9.33337 24 9.33337ZM13.3333 15.6667H9.33333C8.78667 15.6667 8.33333 15.2134 8.33333 14.6667C8.33333 14.12 8.78667 13.6667 9.33333 13.6667H13.3333C13.88 13.6667 14.3333 14.12 14.3333 14.6667C14.3333 15.2134 13.88 15.6667 13.3333 15.6667Z" fill="#50429B"/>
</svg>