<svg width="33" height="33" viewBox="0 0 33 33" fill="none" xmlns="http://www.w3.org/2000/svg">
<path d="M23.4398 8.32944H23.4457H23.4398ZM30.7433 6.28644H24.7814L25.3654 4.00976L27.8743 3.1766C28.4079 2.99975 28.7254 2.44687 28.5715 1.91824C28.5324 1.78526 28.466 1.66142 28.3763 1.55423C28.2866 1.44705 28.1755 1.35875 28.0497 1.29469C27.9239 1.23063 27.7862 1.19215 27.6447 1.18157C27.5032 1.171 27.361 1.18857 27.2267 1.23319L24.1495 2.2547C23.9838 2.3098 23.8349 2.40453 23.7164 2.53022C23.5979 2.65591 23.5136 2.80856 23.4713 2.97422L22.6221 6.28644H14.0413C13.4776 6.28644 12.9937 6.70908 12.9656 7.25878C12.9587 7.3969 12.9807 7.53493 13.0302 7.66451C13.0797 7.79409 13.1557 7.91252 13.2535 8.01262C13.3514 8.11273 13.469 8.19243 13.5993 8.24688C13.7297 8.30134 13.87 8.32943 14.0118 8.32944H14.1919L14.2573 8.88233C14.2728 9.01145 14.3363 9.13053 14.4359 9.21694C14.5355 9.30334 14.6642 9.35103 14.7975 9.35094C17.3509 9.35094 19.6202 10.0468 21.3526 11.3633C22.3162 12.0873 23.0973 13.0165 23.6362 14.0799C23.938 14.678 24.1606 15.3111 24.2988 15.9639C24.3263 16.0911 24.4036 16.2029 24.5142 16.2755C25.4049 16.8648 26.0619 17.7335 26.3761 18.7373C26.6903 19.7412 26.6428 20.8196 26.2414 21.7935C26.1947 21.9062 26.1912 22.0315 26.2316 22.1465C26.4635 22.7947 26.5821 23.4762 26.5825 24.1627C26.5825 25.589 26.0849 26.9482 25.1814 27.9902C24.6691 28.5848 24.0248 29.058 23.2971 29.3737C23.1712 29.4278 23.0722 29.528 23.0215 29.6527C22.7495 30.3434 22.3656 30.9871 21.8842 31.559C21.8642 31.5823 21.8513 31.6105 21.8472 31.6406C21.8431 31.6707 21.8478 31.7013 21.8609 31.7288C21.8739 31.7563 21.8947 31.7797 21.9209 31.7961C21.9471 31.8125 21.9775 31.8213 22.0086 31.8214H25.2305C26.0193 31.8183 26.7784 31.5273 27.3582 31.0057C27.938 30.4842 28.2966 29.7698 28.3633 29.0034L30.6025 8.32944H30.7727C30.9146 8.3296 31.0551 8.30164 31.1856 8.24726C31.3161 8.19288 31.4339 8.11321 31.5319 8.01309C31.6298 7.91296 31.7059 7.79447 31.7555 7.66481C31.8051 7.53514 31.8271 7.39701 31.8203 7.25878C31.7928 6.70908 31.307 6.28644 30.7433 6.28644Z" fill="#50429B"/>
<path d="M6.81891 20.8018C7.01093 20.8008 7.20123 20.8391 7.37879 20.9143C7.55635 20.9896 7.71765 21.1003 7.85336 21.2401L8.79715 22.2112C8.81976 22.2345 8.8466 22.2529 8.87615 22.2655C8.9057 22.2781 8.93737 22.2846 8.96936 22.2846C9.00134 22.2846 9.03302 22.2781 9.06257 22.2655C9.09211 22.2529 9.11896 22.2345 9.14156 22.2112L10.0835 21.2401C10.2192 21.1003 10.3805 20.9896 10.5581 20.9143C10.7357 20.8391 10.926 20.8008 11.118 20.8018H23.0799C23.1438 20.8024 23.2073 20.7901 23.2666 20.7656C23.3259 20.741 23.3799 20.7047 23.4256 20.6586C23.4712 20.6126 23.5076 20.5577 23.5327 20.4972C23.5577 20.4367 23.5709 20.3717 23.5716 20.3059V20.3009C23.5709 19.7237 23.3768 19.1645 23.0221 18.7174C22.6674 18.2703 22.1738 17.9627 21.6244 17.8465C21.5745 15.9876 20.8333 14.4317 19.4636 13.3385C18.1967 12.3217 16.5038 11.7857 14.5657 11.7857H10.1845C6.03334 11.7857 3.22145 14.2132 3.12592 17.8465C2.57651 17.9627 2.08285 18.2703 1.72815 18.7174C1.37344 19.1645 1.1794 19.7237 1.17871 20.3009C1.17871 20.4337 1.23 20.5611 1.32129 20.6551C1.41259 20.749 1.5364 20.8018 1.66551 20.8018H6.81891ZM11.5196 22.8053C11.4556 22.8053 11.3923 22.8182 11.3332 22.8433C11.2741 22.8685 11.2204 22.9054 11.1752 22.9519L9.82795 24.3387C9.59973 24.5735 9.29024 24.7053 8.96753 24.7053C8.64483 24.7053 8.33533 24.5735 8.10711 24.3387L6.75989 22.9519C6.71465 22.9054 6.66094 22.8685 6.60185 22.8433C6.54275 22.8182 6.47942 22.8053 6.41548 22.8053H2.19247C1.96377 22.8043 1.74208 22.8865 1.56658 23.0374C1.39109 23.1883 1.2731 23.3982 1.23348 23.6299C1.19692 23.854 1.1786 24.0808 1.17871 24.308C1.17871 26.2233 2.46448 27.7836 4.05449 27.8143C4.20236 28.761 4.56015 29.6162 5.09868 30.2856C5.89521 31.2754 7.05319 31.8214 8.35903 31.8214H16.3913C17.6971 31.8214 18.8551 31.2754 19.6516 30.2843C20.1901 29.615 20.5479 28.7597 20.6958 27.813C22.2858 27.7836 23.5716 26.2233 23.5716 24.3068C23.5717 24.0796 23.5534 23.8528 23.5168 23.6287C23.4769 23.3972 23.3588 23.1876 23.1834 23.0369C23.0079 22.8863 22.7863 22.8042 22.5578 22.8053H11.5196Z" fill="#50429B"/>
</svg>
