<svg width="50" height="50" viewBox="0 0 50 50" fill="none" xmlns="http://www.w3.org/2000/svg">
<path d="M0 1.5625C0 1.1481 0.16462 0.750671 0.457646 0.457646C0.750671 0.16462 1.1481 0 1.5625 0L10.9375 0C11.3519 0 11.7493 0.16462 12.0424 0.457646C12.3354 0.750671 12.5 1.1481 12.5 1.5625C12.5 1.9769 12.3354 2.37433 12.0424 2.66735C11.7493 2.96038 11.3519 3.125 10.9375 3.125H3.125V10.9375C3.125 11.3519 2.96038 11.7493 2.66735 12.0424C2.37433 12.3354 1.9769 12.5 1.5625 12.5C1.1481 12.5 0.750671 12.3354 0.457646 12.0424C0.16462 11.7493 0 11.3519 0 10.9375V1.5625ZM37.5 1.5625C37.5 1.1481 37.6646 0.750671 37.9576 0.457646C38.2507 0.16462 38.6481 0 39.0625 0L48.4375 0C48.8519 0 49.2493 0.16462 49.5424 0.457646C49.8354 0.750671 50 1.1481 50 1.5625V10.9375C50 11.3519 49.8354 11.7493 49.5424 12.0424C49.2493 12.3354 48.8519 12.5 48.4375 12.5C48.0231 12.5 47.6257 12.3354 47.3326 12.0424C47.0396 11.7493 46.875 11.3519 46.875 10.9375V3.125H39.0625C38.6481 3.125 38.2507 2.96038 37.9576 2.66735C37.6646 2.37433 37.5 1.9769 37.5 1.5625ZM1.5625 37.5C1.9769 37.5 2.37433 37.6646 2.66735 37.9576C2.96038 38.2507 3.125 38.6481 3.125 39.0625V46.875H10.9375C11.3519 46.875 11.7493 47.0396 12.0424 47.3326C12.3354 47.6257 12.5 48.0231 12.5 48.4375C12.5 48.8519 12.3354 49.2493 12.0424 49.5424C11.7493 49.8354 11.3519 50 10.9375 50H1.5625C1.1481 50 0.750671 49.8354 0.457646 49.5424C0.16462 49.2493 0 48.8519 0 48.4375V39.0625C0 38.6481 0.16462 38.2507 0.457646 37.9576C0.750671 37.6646 1.1481 37.5 1.5625 37.5ZM48.4375 37.5C48.8519 37.5 49.2493 37.6646 49.5424 37.9576C49.8354 38.2507 50 38.6481 50 39.0625V48.4375C50 48.8519 49.8354 49.2493 49.5424 49.5424C49.2493 49.8354 48.8519 50 48.4375 50H39.0625C38.6481 50 38.2507 49.8354 37.9576 49.5424C37.6646 49.2493 37.5 48.8519 37.5 48.4375C37.5 48.0231 37.6646 47.6257 37.9576 47.3326C38.2507 47.0396 38.6481 46.875 39.0625 46.875H46.875V39.0625C46.875 38.6481 47.0396 38.2507 47.3326 37.9576C47.6257 37.6646 48.0231 37.5 48.4375 37.5ZM12.5 12.5H15.625V15.625H12.5V12.5Z" fill="white"/>
<path d="M21.875 6.25H6.25V21.875H21.875V6.25ZM9.375 9.375H18.75V18.75H9.375V9.375ZM15.625 34.375H12.5V37.5H15.625V34.375Z" fill="white"/>
<path d="M21.875 28.125H6.25V43.75H21.875V28.125ZM9.375 31.25H18.75V40.625H9.375V31.25ZM34.375 12.5H37.5V15.625H34.375V12.5Z" fill="white"/>
<path d="M28.125 6.25H43.75V21.875H28.125V6.25ZM31.25 9.375V18.75H40.625V9.375H31.25ZM25 25V31.25H28.125V34.375H25V37.5H31.25V31.25H34.375V37.5H37.5V34.375H43.75V31.25H34.375V25H25ZM31.25 31.25H28.125V28.125H31.25V31.25ZM43.75 37.5H40.625V40.625H34.375V43.75H43.75V37.5ZM31.25 43.75V40.625H25V43.75H31.25Z" fill="white"/>
<path d="M37.5 28.125H43.75V25H37.5V28.125Z" fill="white"/>
</svg>
