<svg width="33" height="32" viewBox="0 0 33 32" fill="none" xmlns="http://www.w3.org/2000/svg">
<path d="M29.7934 24V25.3333C29.7934 27.5333 29.7934 29.3333 25.7934 29.3333H7.12671C3.12671 29.3333 3.12671 27.5333 3.12671 25.3333V24C3.12671 23.2667 3.72671 22.6667 4.46004 22.6667H28.46C29.1934 22.6667 29.7934 23.2667 29.7934 24Z" fill="#50429B"/>
<path d="M19.7134 6.90667C19.7801 6.64 19.8201 6.38667 19.8334 6.10667C19.8734 4.56 18.9268 3.2 17.4334 2.8C15.1934 2.18667 13.1668 3.86667 13.1668 6C13.1668 6.32 13.2068 6.61333 13.2868 6.90667C8.47344 7.93333 4.86011 12.2133 4.86011 17.3333V19.3333C4.86011 20.0667 5.46011 20.6667 6.19344 20.6667H26.7934C27.5268 20.6667 28.1268 20.0667 28.1268 19.3333V17.3333C28.1268 12.2133 24.5268 7.94667 19.7134 6.90667ZM20.5001 15.6667H12.5001C11.9534 15.6667 11.5001 15.2133 11.5001 14.6667C11.5001 14.12 11.9534 13.6667 12.5001 13.6667H20.5001C21.0468 13.6667 21.5001 14.12 21.5001 14.6667C21.5001 15.2133 21.0468 15.6667 20.5001 15.6667Z" fill="#50429B"/>
</svg>
