<svg width="42" height="42" viewBox="0 0 42 42" fill="none" xmlns="http://www.w3.org/2000/svg">
<path d="M5.57812 15.75H7.875C8.05547 15.75 8.20312 15.6023 8.20312 15.4219V8.20312H15.4219C15.6023 8.20312 15.75 8.05547 15.75 7.875V5.57812C15.75 5.39766 15.6023 5.25 15.4219 5.25H8.03906C6.49688 5.25 5.25 6.49688 5.25 8.03906V15.4219C5.25 15.6023 5.39766 15.75 5.57812 15.75ZM26.5781 8.20312H33.7969V15.4219C33.7969 15.6023 33.9445 15.75 34.125 15.75H36.4219C36.6023 15.75 36.75 15.6023 36.75 15.4219V8.03906C36.75 6.49688 35.5031 5.25 33.9609 5.25H26.5781C26.3977 5.25 26.25 5.39766 26.25 5.57812V7.875C26.25 8.05547 26.3977 8.20312 26.5781 8.20312ZM15.4219 33.7969H8.20312V26.5781C8.20312 26.3977 8.05547 26.25 7.875 26.25H5.57812C5.39766 26.25 5.25 26.3977 5.25 26.5781V33.9609C5.25 35.5031 6.49688 36.75 8.03906 36.75H15.4219C15.6023 36.75 15.75 36.6023 15.75 36.4219V34.125C15.75 33.9445 15.6023 33.7969 15.4219 33.7969ZM36.4219 26.25H34.125C33.9445 26.25 33.7969 26.3977 33.7969 26.5781V33.7969H26.5781C26.3977 33.7969 26.25 33.9445 26.25 34.125V36.4219C26.25 36.6023 26.3977 36.75 26.5781 36.75H33.9609C35.5031 36.75 36.75 35.5031 36.75 33.9609V26.5781C36.75 26.3977 36.6023 26.25 36.4219 26.25ZM37.0781 19.5234H4.92188C4.74141 19.5234 4.59375 19.6711 4.59375 19.8516V22.1484C4.59375 22.3289 4.74141 22.4766 4.92188 22.4766H37.0781C37.2586 22.4766 37.4062 22.3289 37.4062 22.1484V19.8516C37.4062 19.6711 37.2586 19.5234 37.0781 19.5234Z" fill="#50429B"/>
</svg>
