<svg width="355" height="177" viewBox="0 0 355 177" fill="none" xmlns="http://www.w3.org/2000/svg">
<path d="M189.716 -4.69413C189.716 -4.69413 199.182 -37.0567 240.486 -42.3973C281.795 -47.7098 278.821 -48.3759 303.962 -39.9339L333.209 -34.6025C333.209 -34.6025 331.241 -31.3154 305.012 -10.1808C278.816 10.977 262.158 25.5674 242.431 24.8435C222.704 24.1197 185.241 8.23806 181.636 4.93946C178.04 1.6969 189.716 -4.69413 189.716 -4.69413Z" fill="#B4DC82"/>
<path d="M123.983 18.3505C123.983 18.3505 142.865 16.0459 169.654 22.1803C196.443 28.3148 213.291 39.701 226.04 49.9243C238.761 60.1525 254.479 75.6614 254.479 75.6614C254.479 75.6614 199.206 83.8372 175.072 76.2016C150.914 68.5988 126.287 37.233 123.983 18.3505Z" fill="#B4DC82"/>
<path d="M61.628 17.0199C61.628 17.0199 90.882 19.4055 107.008 34.4393C123.135 49.473 143.069 75.9396 149.005 90.6395C154.946 105.367 157.996 114.767 164.398 123.352C164.398 123.352 152.141 122.426 137.747 118.176C123.353 113.925 110.404 112.34 88.6572 92.0485C66.9433 71.7806 50.0115 33.7063 61.628 17.0199Z" fill="#B4DC82"/>
<path d="M-4.02959 -14.5666C-4.02959 -14.5666 26.3251 4.4285 37.6387 23.8217C48.9523 43.2148 58.4534 64.7999 57.6042 85.2994C56.783 105.794 53.4769 129.261 53.4769 129.261C53.4769 129.261 36.2624 112.454 16.8212 86.3346C-2.56409 60.2055 -11.8511 3.85538 -4.02959 -14.5666Z" fill="#B4DC82"/>
<path d="M-11.744 -30.8622C-11.744 -30.8622 -2.4729 -49.9117 10.3638 -60.0843C23.2285 -70.2618 33.1177 -75.4758 53.1647 -79.0511C73.2446 -82.6034 84.9141 -83.3929 88.0594 -84.8929C91.1816 -86.3601 89.6963 -78.3073 76.4672 -58.2803C63.271 -38.2301 22.5437 3.26792 -11.744 -30.8622Z" fill="#B4DC82"/>
<path d="M53.0519 9.7076C53.0519 9.7076 67.1814 -19.7426 80.113 -31.0287C93.0166 -42.3099 107.603 -60.1771 123.462 -60.9452C139.321 -61.7133 163.756 -68.2751 163.756 -68.2751C163.756 -68.2751 150.15 -60.3647 143.606 -44.3879C137.063 -28.4111 130.882 -13.3346 112.807 -2.07717C94.7267 9.15222 53.0519 9.7076 53.0519 9.7076Z" fill="#B4DC82"/>
<path d="M145.32 6.26558C145.32 6.26558 162.984 -48.6549 188.63 -69.6592C214.275 -90.6634 237.427 -104.594 237.427 -104.594C237.427 -104.594 223.223 -94.1547 206.928 -59.5644C190.666 -24.951 159.4 -1.40975 145.32 6.26558Z" fill="#B4DC82"/>
<path d="M195.329 0.189244C195.329 0.189244 135.271 8.73596 109.135 7.51096C82.9982 6.28593 75.252 11.7043 56.0261 4.57127C36.8001 -2.56184 25.6319 -8.18154 10.8584 -17.0999C-3.91503 -26.0182 -35.9461 -45.3566 -47.4276 -52.2786C-58.914 -59.2286 -67.9443 -64.6719 -83.677 -88.7231C-99.4097 -112.774 -130.742 -135.063 -137.797 -149.395C-144.824 -163.732 -164.828 -188.108 -169.894 -200.13C-174.959 -212.153 -179.707 -222.845 -187.901 -227.798C-196.124 -232.747 -213.713 -233.295 -208.954 -228.176C-204.195 -223.057 -182.041 -204.079 -175.332 -191.072C-168.623 -178.066 -145.504 -149.555 -139.136 -137.846C-132.74 -126.142 -130.96 -121.718 -119.139 -107.869C-107.355 -94.071 -81.1138 -67.0277 -73.8986 -60.4025C-66.6882 -53.8053 -52.0632 -42.7538 -36.482 -33.341C-20.8727 -23.933 1.28742 -10.5556 16.7251 1.01843C32.1579 12.5644 52.8625 17.2462 65.1914 19.0844C77.5202 20.9225 121.45 20.5521 131.476 18.7784C141.525 16.9718 195.329 0.189244 195.329 0.189244Z" fill="#9DC563"/>
<path d="M320.437 -29.0311C308.055 -24.0471 295.433 -19.7721 282.701 -15.7955C276.357 -13.7676 269.946 -11.959 263.511 -10.1175C257.09 -8.36497 250.636 -6.63554 244.157 -5.04621C237.679 -3.45689 231.143 -2.03079 224.631 -0.637599L214.797 1.24691C213.144 1.5346 211.534 1.90149 209.876 2.16116L204.925 2.90729C198.33 3.99715 191.668 4.69475 185.024 5.33143L175.017 5.8893C171.664 5.86654 168.335 5.81087 165.001 5.72719C178.271 4.51475 191.302 1.92937 204.291 -0.735189C217.27 -3.45578 230.205 -6.42855 243.068 -9.64861C255.978 -12.7615 268.827 -16.0656 281.713 -19.3186C294.557 -22.6507 307.466 -25.9365 320.437 -29.0311Z" fill="#9DC563"/>
<path d="M221.966 -90.0968C215.995 -81.6098 209.384 -73.6466 202.665 -65.8089C199.252 -61.8662 196.039 -58.1027 193.095 -53.953C190.184 -49.7802 187.306 -45.5842 184.602 -41.2165L176.302 -28.1962C173.471 -23.893 170.655 -19.5058 167.571 -15.3318C164.492 -11.1297 161.314 -6.99705 157.67 -3.21642C154.017 0.50817 150.05 4.08539 145.325 6.29338C149.492 3.201 152.826 -0.698988 155.906 -4.72807C159.048 -8.73889 161.757 -13.0786 164.498 -17.3951C167.174 -21.758 169.878 -26.1257 172.484 -30.5628C175.15 -34.9817 177.821 -39.3726 180.609 -43.7549C183.402 -48.1092 186.378 -52.4088 189.518 -56.5926C192.757 -60.7069 196.328 -64.7349 199.983 -68.2865C207.181 -75.6881 214.527 -82.9131 221.966 -90.0968Z" fill="#9DC563"/>
<path d="M246.564 73.1417C245.477 72.205 244.182 71.5644 242.892 70.9517C241.602 70.3391 240.293 69.7874 238.985 69.2357C236.321 68.198 233.645 67.2493 230.922 66.3664C225.504 64.5957 220.008 63.0406 214.49 61.5185L197.87 57.2516C192.305 55.7952 186.763 54.3059 181.215 52.6156C175.69 50.8924 170.22 48.9865 164.818 46.8089C162.163 45.6543 159.457 44.5375 156.857 43.2001C155.557 42.5315 154.216 41.9566 152.962 41.2222L149.173 39.0237C139.111 33.1248 130.183 24.9502 124.249 15.0709C131.797 23.7744 140.936 30.6711 150.978 35.7939C161.026 40.9447 171.691 44.8333 182.595 48.1031C193.467 51.5227 204.577 54.3234 215.549 57.9854C221.01 59.8353 226.415 61.868 231.724 64.1771C234.361 65.3927 236.997 66.6082 239.523 68.0162C242.007 69.518 244.598 70.9723 246.564 73.1417Z" fill="#9DC563"/>
<path d="M53.052 9.70776C62.989 7.92068 72.4666 4.65471 81.1156 -0.0547834C85.4047 -2.44668 89.4953 -5.15043 93.2277 -8.25373C96.9649 -11.329 100.413 -14.9025 103.674 -18.5588C110.275 -25.9141 116.098 -34.0868 122.532 -41.9038C125.749 -45.8122 129.121 -49.6611 132.973 -53.0738C136.806 -56.4256 141.245 -59.4498 146.217 -60.5748C141.589 -58.4704 137.872 -55.1101 134.616 -51.4257C131.299 -47.7596 128.397 -43.7038 125.494 -39.6479C122.629 -35.5409 119.704 -31.4521 116.755 -27.3305C113.74 -23.2551 110.627 -19.2491 107.227 -15.3954C103.752 -11.6441 100.155 -7.92924 96.0349 -4.72966C91.8725 -1.60927 87.4737 1.14813 82.7618 3.26719C73.4037 7.5516 63.1902 9.9064 53.052 9.70776Z" fill="#9DC563"/>
<path d="M156.222 111.207C155.132 112.408 153.376 112.771 151.758 112.764C151.328 112.781 150.945 112.732 150.528 112.66C150.111 112.588 149.7 112.545 149.311 112.468C148.547 112.226 147.737 112.049 146.991 111.746C143.907 110.608 141.219 108.767 138.615 106.91C133.491 103.01 128.867 98.503 124.658 93.7219C116.136 84.2352 108.661 73.9601 101.052 63.9105C93.5732 53.7804 85.8484 43.8952 77.3294 34.7545C68.7592 25.6515 59.2231 17.4672 48.8843 10.1443C60.2536 15.7579 70.7204 23.3183 79.9618 32.1313C84.594 36.5213 88.8828 41.2598 93.046 46.1067C97.1302 50.9963 101.033 56.0041 104.861 61.0825L116.089 76.3336C119.777 81.4365 123.619 86.4259 127.479 91.3545L130.451 94.9943L133.543 98.4976C135.621 100.821 137.797 103.04 140.094 105.123C142.414 107.173 144.836 109.147 147.539 110.582C148.211 110.956 148.919 111.208 149.641 111.544C150.367 111.736 151.085 112.044 151.847 112.113C153.265 112.299 154.957 112.236 156.222 111.207Z" fill="#9DC563"/>
<path d="M-5.92676 -20.3276C-3.41085 -18.3117 -1.13611 -16.0229 1.10572 -13.7572C3.38044 -11.4684 5.52483 -9.09916 7.7021 -6.70677C11.9494 -1.87448 16.0019 3.16495 19.6962 8.46876C23.4185 13.7677 26.7925 19.3871 29.3381 25.5548C30.5811 28.716 31.4732 31.8516 32.2532 35.0068C33.0613 38.1571 33.7061 41.3647 34.29 44.554C35.3506 50.9801 35.8971 57.4379 36.6154 63.7216C36.9605 66.8658 37.3848 69.9674 37.9772 73.0398C38.2734 74.5759 38.6488 76.0695 39.0291 77.591L40.2686 82.2251C43.6579 94.5679 46.856 106.973 49.6155 119.512C44.9666 107.562 40.7513 95.449 36.6992 83.2792L35.1844 78.722C34.7055 77.131 34.2594 75.5632 33.8925 73.9527C33.1356 70.7646 32.6029 67.5375 32.1311 64.3287C31.2715 57.8965 30.6933 51.5885 29.5877 45.4012C29.0745 42.2862 28.482 39.2138 27.7495 36.1659C27.0402 33.085 26.1395 30.0663 25.1561 27.2352C23.0527 21.4524 19.9042 15.967 16.6253 10.5621C13.2672 5.19972 9.66666 -0.0626872 5.88952 -5.17889C4.0241 -7.76988 2.08434 -10.2902 0.111712 -12.8337C-0.860591 -14.1079 -1.856 -15.3491 -2.85145 -16.5904C-3.83351 -17.9206 -4.80584 -19.1948 -5.92676 -20.3276Z" fill="#9DC563"/>
</svg>
