<svg width="579" height="621" viewBox="0 0 579 621" fill="none" xmlns="http://www.w3.org/2000/svg">
<path d="M579.144 210.989L403.014 34.859C400.329 32.1741 400.329 27.825 403.014 25.1401L579.144 -150.986C581.829 -153.671 586.178 -153.671 588.863 -150.986L764.989 25.1401C767.674 27.825 767.674 32.1741 764.989 34.859L588.859 210.989C586.178 213.67 581.829 213.67 579.144 210.989Z" fill="#EDE5BC"/>
<path d="M647.449 8.98746C627.242 -11.2195 615.924 0.0952225 595.717 -20.1118C575.51 -40.3187 586.825 -51.6335 566.621 -71.8405C551.73 -86.7315 541.666 -84.5067 529.317 -90.3905L535.668 -96.7416C548.018 -90.8614 558.082 -93.0826 572.973 -78.1915C593.18 -57.9846 581.865 -46.6698 602.068 -26.4628C622.275 -6.25584 633.594 -17.5706 653.801 2.63638C674.008 22.8434 662.689 34.1581 682.896 54.3651C697.345 68.8141 707.251 67.1463 719.108 72.4119L712.757 78.763C700.9 73.4974 690.994 75.1651 676.545 60.7162C656.338 40.5092 667.656 29.1944 647.449 8.98746Z" fill="#15685A"/>
<path d="M682.425 -26.0172C662.218 -46.2241 650.9 -34.9094 630.693 -55.1163C610.486 -75.3233 621.804 -86.6381 601.597 -106.845C586.714 -121.729 576.653 -119.511 564.307 -125.384L570.92 -131.998C583.27 -126.118 593.334 -128.339 608.225 -113.448C628.432 -93.2408 617.117 -81.926 637.321 -61.719C657.528 -41.512 668.846 -52.8268 689.053 -32.6198C709.26 -12.4128 697.942 -1.09808 718.149 19.1089C732.598 33.5579 742.504 31.8901 754.361 37.1557L747.748 43.7692C735.883 38.5 725.977 40.1713 711.521 25.7152C691.318 5.50819 702.632 -5.81017 682.425 -26.0172Z" fill="#15685A"/>
<path d="M678.317 -21.9053C658.11 -42.1123 646.792 -30.7975 626.585 -51.0045C606.378 -71.2115 617.696 -82.5263 597.489 -102.733C582.605 -117.617 572.545 -115.399 560.199 -121.272L564.307 -125.381C576.65 -119.504 586.714 -121.725 601.597 -106.841C621.804 -86.6345 610.486 -75.3198 630.693 -55.1128C650.9 -34.9058 662.218 -46.2205 682.425 -26.0136C702.632 -5.80657 691.318 5.50818 711.525 25.7152C725.981 40.1713 735.887 38.5 747.751 43.7692L743.643 47.8774C731.778 42.6082 721.872 44.2796 707.416 29.8234C687.209 9.61646 698.524 -1.69833 678.317 -21.9053Z" fill="#EF9825"/>
<path d="M667.858 -11.4459C647.651 -31.6529 636.332 -20.3381 616.125 -40.5451C595.918 -60.7521 607.237 -72.0669 587.03 -92.2739C572.146 -107.158 562.086 -104.94 549.739 -110.813L555.217 -116.291C567.567 -110.411 577.631 -112.632 592.522 -97.7407C612.729 -77.5338 601.414 -66.219 621.618 -46.012C641.824 -25.805 653.143 -37.1198 673.35 -16.9128C693.557 3.29418 682.238 14.6089 702.445 34.8159C716.894 49.2649 726.8 47.5972 738.658 52.8628L733.18 58.3404C721.315 53.0712 711.41 54.7426 696.953 40.2864C676.746 20.0758 688.065 8.76108 667.858 -11.4459Z" fill="#EF9825"/>
<path d="M653.797 2.63636C633.59 -17.5706 622.272 -6.25587 602.065 -26.4629C581.858 -46.6698 593.172 -57.9846 572.969 -78.1916C558.078 -93.0826 548.014 -90.8578 535.664 -96.7416L543.259 -104.336C555.609 -98.4561 565.673 -100.677 580.564 -85.7863C600.771 -65.5793 589.452 -54.2645 609.659 -34.0575C629.866 -13.8506 641.185 -25.1653 661.392 -4.95833C681.599 15.2486 670.28 26.5634 690.487 46.7704C704.936 61.2194 714.842 59.5516 726.699 64.8172L719.105 72.4119C707.247 67.1463 697.341 68.8141 682.892 54.3651C662.689 34.1581 674.004 22.8433 653.797 2.63636Z" fill="#EF9825"/>
<path d="M673.35 -16.9128C653.143 -37.1198 641.825 -25.8051 621.618 -46.012C601.411 -66.219 612.725 -77.5338 592.522 -97.7408C577.631 -112.632 567.567 -110.407 555.217 -116.291L560.199 -121.272C572.541 -115.396 582.605 -117.617 597.489 -102.733C617.696 -82.5262 606.378 -71.2115 626.585 -51.0045C646.792 -30.7975 658.11 -42.1123 678.317 -21.9053C698.524 -1.69829 687.209 9.61649 707.416 29.8235C721.873 44.2796 731.778 42.6083 743.643 47.8775L738.661 52.8591C726.804 47.5935 716.898 49.2613 702.449 34.8123C682.239 14.6089 693.553 3.29416 673.35 -16.9128Z" fill="#EDE5BC"/>
<path d="M609.318 47.094C589.111 26.887 577.793 38.2017 557.586 17.9947C537.379 -2.21224 548.697 -13.527 528.49 -33.734C513.606 -48.6179 503.546 -46.4002 491.199 -52.2732L497.439 -58.5165C509.789 -52.6363 519.853 -54.8575 534.744 -39.9665C554.951 -19.7595 543.636 -8.44469 563.84 11.7623C584.047 31.9693 595.365 20.6545 615.572 40.8615C635.779 61.0685 624.461 72.3832 644.668 92.5902C659.117 107.039 669.022 105.371 680.88 110.637L674.64 116.877C662.776 111.607 652.87 113.279 638.414 98.8227C618.21 78.6157 629.525 67.3009 609.318 47.094Z" fill="#15685A"/>
<path d="M634.485 21.9233C614.278 1.71631 602.96 13.0311 582.753 -7.1759C562.546 -27.3829 573.864 -38.6977 553.657 -58.9047C538.773 -73.7885 528.713 -71.5708 516.367 -77.4439L523.839 -84.9164C536.182 -79.0398 546.246 -81.261 561.13 -66.3771C581.337 -46.1701 570.018 -34.8554 590.225 -14.6484C610.432 5.55859 621.751 -5.75617 641.958 14.4508C662.165 34.6578 650.846 45.9726 671.053 66.1796C685.509 80.6357 695.415 78.9644 707.28 84.2336L699.807 91.7061C687.943 86.4369 678.037 88.1082 663.581 73.652C643.377 53.4486 654.692 42.1303 634.485 21.9233Z" fill="#15685A"/>
<path d="M586.829 69.5797C566.622 49.3727 555.303 60.6875 535.096 40.4805C514.889 20.2735 526.208 8.95876 506.001 -11.2482C491.117 -26.1321 481.057 -23.9144 468.71 -29.7875L472.035 -33.1122C484.385 -27.232 494.449 -29.4532 509.34 -14.5622C529.547 5.64482 518.232 16.9596 538.439 37.1666C558.646 57.3736 569.964 46.0588 590.171 66.2658C610.378 86.4728 599.06 97.7875 619.267 117.995C633.716 132.443 643.622 130.776 655.479 136.041L652.155 139.366C640.29 134.097 630.384 135.768 615.928 121.312C595.721 101.105 607.036 89.7867 586.829 69.5797Z" fill="#15685A"/>
<path d="M596.634 59.7781C576.427 39.5711 565.109 50.8859 544.902 30.6789C524.695 10.4719 536.013 -0.842846 515.806 -21.0498C500.922 -35.9337 490.862 -33.716 478.515 -39.5891L486.746 -47.8199C499.096 -41.9397 509.16 -44.161 524.051 -29.2699C544.258 -9.06294 532.943 2.25181 553.147 22.4588C573.354 42.6658 584.672 31.351 604.879 51.558C625.086 71.765 613.768 83.0798 633.975 103.287C648.424 117.736 658.33 116.068 670.187 121.334L661.956 129.564C650.091 124.295 640.186 125.967 625.729 111.51C605.522 91.2999 616.841 79.9851 596.634 59.7781Z" fill="#15685A"/>
<path d="M630.003 26.4053C609.796 6.19828 598.478 17.513 578.271 -2.69395C558.064 -22.9009 569.382 -34.2157 549.175 -54.4227C534.291 -69.3065 524.231 -67.0889 511.885 -72.9619L516.367 -77.444C528.709 -71.5673 538.773 -73.7886 553.657 -58.9047C573.864 -38.6978 562.546 -27.383 582.753 -7.17599C602.96 13.031 614.278 1.71621 634.485 21.9232C654.692 42.1302 643.377 53.4449 663.581 73.6519C678.037 88.1081 687.943 86.4368 699.807 91.7059L695.325 96.188C683.461 90.9188 673.555 92.5901 659.099 78.134C638.895 57.9306 650.21 46.6123 630.003 26.4053Z" fill="#69C4B2"/>
<path d="M615.572 40.8615C595.365 20.6545 584.047 31.9693 563.84 11.7623C543.633 -8.44466 554.947 -19.7594 534.744 -39.9664C519.853 -54.8575 509.789 -52.6326 497.439 -58.5164L504.164 -65.2413C516.514 -59.3611 526.578 -61.5823 541.469 -46.6913C561.676 -26.4843 550.361 -15.1695 570.568 5.03744C590.775 25.2444 602.094 13.9297 622.301 34.1367C642.508 54.3436 631.189 65.6584 651.396 85.8654C665.845 100.314 675.751 98.6466 687.608 103.912L680.884 110.637C669.026 105.371 659.12 107.039 644.671 92.5903C624.461 72.3869 635.779 61.0685 615.572 40.8615Z" fill="#69C4B2"/>
<path d="M622.297 34.1401C602.09 13.9331 590.771 25.2479 570.564 5.04093C550.358 -15.1661 561.672 -26.4808 541.465 -46.6878C526.574 -61.5789 516.51 -59.354 504.16 -65.2378L511.884 -72.9619C524.227 -67.0853 534.291 -69.3065 549.175 -54.4227C569.382 -34.2157 558.064 -22.9009 578.271 -2.69395C598.478 17.513 609.796 6.19828 630.003 26.4053C650.21 46.6123 638.895 57.927 659.099 78.134C673.555 92.5901 683.461 90.9188 695.325 96.188L687.601 103.912C675.744 98.6465 665.838 100.314 651.389 85.8653C631.185 65.6619 642.5 54.3471 622.297 34.1401Z" fill="#D21F27"/>
<path d="M590.171 66.2657C569.965 46.0587 558.646 57.3735 538.439 37.1665C518.232 16.9596 529.547 5.64478 509.34 -14.5622C494.449 -29.4533 484.385 -27.2284 472.035 -33.1122L478.512 -39.5891C490.855 -33.7125 500.919 -35.9337 515.802 -21.0499C536.009 -0.842876 524.691 10.4719 544.898 30.6789C565.105 50.8858 576.423 39.5711 596.63 59.7781C616.837 79.9851 605.523 91.2998 625.726 111.507C640.182 125.963 650.088 124.292 661.953 129.561L655.476 136.038C643.618 130.772 633.712 132.44 619.263 117.991C599.06 97.7875 610.375 86.4727 590.171 66.2657Z" fill="#D21F27"/>
<path d="M661.395 -4.95838C641.188 -25.1654 629.87 -13.8506 609.663 -34.0576C589.456 -54.2646 600.774 -65.5793 580.567 -85.7863C565.676 -100.677 555.612 -98.4525 543.263 -104.336L549.739 -110.813C562.082 -104.937 572.146 -107.158 587.03 -92.274C607.237 -72.067 595.919 -60.7522 616.126 -40.5452C636.333 -20.3383 647.651 -31.653 667.858 -11.446C688.065 8.76095 676.75 20.0757 696.954 40.2827C711.41 54.7388 721.315 53.0675 733.18 58.3367L726.703 64.8136C714.846 59.548 704.94 61.2157 690.491 46.7668C670.284 26.5634 681.602 15.245 661.395 -4.95838Z" fill="#E54C58"/>
<path d="M569.289 87.1233C549.082 66.9163 537.763 78.231 517.556 58.024C497.349 37.8171 508.668 26.5023 488.461 6.29531C473.577 -8.58856 463.516 -6.3709 451.17 -12.2439L467.057 -28.1306C479.407 -22.2504 489.471 -24.4716 504.362 -9.58057C524.569 10.6264 513.254 21.9412 533.457 42.1482C553.664 62.3551 564.983 51.0404 585.19 71.2474C605.397 91.4544 594.078 102.769 614.285 122.976C628.734 137.425 638.64 135.757 650.498 141.023L634.611 156.91C622.746 151.64 612.84 153.312 598.384 138.856C578.177 118.645 589.496 107.33 569.289 87.1233Z" fill="#15685A"/>
<path d="M585.19 71.2473C564.983 51.0404 553.664 62.3551 533.457 42.1481C513.25 21.9411 524.569 10.6264 504.362 -9.5806C489.471 -24.4717 479.407 -22.2468 467.057 -28.1306L468.714 -29.7876C481.057 -23.911 491.121 -26.1322 506.004 -11.2483C526.211 8.95864 514.893 20.2734 535.1 40.4804C555.307 60.6874 566.625 49.3726 586.832 69.5796C607.039 89.7866 595.725 101.101 615.932 121.308C630.388 135.764 640.294 134.093 652.158 139.362L650.501 141.019C638.644 135.754 628.738 137.421 614.289 122.972C594.078 102.769 605.397 91.4507 585.19 71.2473Z" fill="#15685A"/>
<path d="M408.269 30.6537L411.928 26.9948C424.278 32.875 434.342 30.6537 449.233 45.5448C469.44 65.7518 458.125 77.0665 478.328 97.2735C498.535 117.481 509.854 106.166 530.061 126.373C550.268 146.58 538.949 157.894 559.156 178.101C573.605 192.55 583.511 190.883 595.369 196.148L584.564 206.953L408.269 30.6537Z" fill="#15685A"/>
<path d="M543.075 113.336C522.868 93.1294 511.55 104.444 491.343 84.2372C471.136 64.0302 482.455 52.7154 462.248 32.5084C447.364 17.6246 437.303 19.8422 424.957 13.9692L429.267 9.65967C441.616 15.5399 451.68 13.3186 466.571 28.2097C486.778 48.4167 475.464 59.7314 495.667 79.9384C515.874 100.145 527.192 88.8307 547.399 109.038C567.606 129.245 556.288 140.559 576.495 160.766C590.944 175.215 600.85 173.548 612.707 178.813L608.398 183.123C596.533 177.854 586.627 179.525 572.171 165.069C551.964 144.862 563.279 133.543 543.075 113.336Z" fill="#15685A"/>
<path d="M569.177 87.2347C548.97 67.0277 537.652 78.3425 517.445 58.1355C497.238 37.9285 508.556 26.6138 488.349 6.40677C473.465 -8.4771 463.405 -6.25944 451.059 -12.1325L451.17 -12.2439C463.513 -6.36727 473.577 -8.58852 488.461 6.29535C508.668 26.5023 497.349 37.8171 517.556 58.0241C537.763 78.2311 549.082 66.9163 569.289 87.1233C589.496 107.33 578.181 118.645 598.388 138.852C612.844 153.308 622.75 151.637 634.615 156.906L634.503 157.017C622.638 151.748 612.733 153.42 598.276 138.963C578.066 118.756 589.384 107.442 569.177 87.2347Z" fill="#15685A"/>
<path d="M530.061 126.373C509.854 106.166 498.535 117.48 478.328 97.2735C458.121 77.0665 469.436 65.7517 449.233 45.5447C434.342 30.6537 424.278 32.8785 411.928 26.9947L420.5 18.4224C432.85 24.3026 442.914 22.0813 457.805 36.9724C478.012 57.1794 466.697 68.4942 486.901 88.7011C507.108 108.908 518.426 97.5934 538.633 117.8C558.84 138.007 547.522 149.322 567.729 169.529C582.178 183.978 592.083 182.31 603.941 187.576L595.369 196.148C583.511 190.883 573.605 192.55 559.156 178.101C538.953 157.894 550.268 146.58 530.061 126.373Z" fill="#15685A"/>
<path d="M547.396 109.038C527.189 88.8306 515.87 100.145 495.663 79.9384C475.456 59.7314 486.771 48.4166 466.568 28.2096C451.677 13.3186 441.613 15.5434 429.263 9.65959L437.17 1.7522C449.52 7.63242 459.584 5.41116 474.475 20.3022C494.682 40.5092 483.367 51.824 503.571 72.031C523.778 92.238 535.096 80.9232 555.303 101.13C575.51 121.337 564.192 132.652 584.399 152.859C598.848 167.308 608.754 165.64 620.611 170.906L612.704 178.813C600.846 173.548 590.94 175.215 576.491 160.766C556.288 140.559 567.603 129.245 547.396 109.038Z" fill="#EF9825"/>
<path d="M561.766 94.6425C541.559 74.4355 530.241 85.7503 510.034 65.5433C489.827 45.3363 501.145 34.0216 480.938 13.8146C466.054 -1.06928 455.994 1.14838 443.647 -4.72466L451.055 -12.1324C463.398 -6.25581 473.462 -8.47707 488.346 6.40681C508.553 26.6138 497.234 37.9285 517.441 58.1355C537.648 78.3425 548.967 67.0278 569.174 87.2347C589.381 107.442 578.066 118.757 598.273 138.964C612.729 153.42 622.635 151.748 634.5 157.018L627.092 164.425C615.227 159.156 605.321 160.827 590.865 146.371C570.658 126.168 581.973 114.85 561.766 94.6425Z" fill="#EF9825"/>
<path d="M555.303 101.13C535.096 80.9232 523.778 92.238 503.571 72.031C483.364 51.8241 494.679 40.5093 474.475 20.3023C459.584 5.41123 449.52 7.63609 437.171 1.75227L443.647 -4.72461C455.99 1.15202 466.054 -1.06923 480.938 13.8146C501.145 34.0216 489.827 45.3364 510.034 65.5434C530.241 85.7504 541.559 74.4356 561.766 94.6426C581.973 114.85 570.658 126.164 590.865 146.371C605.321 160.827 615.227 159.156 627.092 164.425L620.615 170.902C608.757 165.637 598.852 167.304 584.403 152.855C564.196 132.652 575.51 121.337 555.303 101.13Z" fill="#E54C58"/>
<path d="M538.633 117.8C518.426 97.5934 507.108 108.908 486.901 88.7012C466.694 68.4942 478.009 57.1794 457.805 36.9724C442.914 22.0814 432.85 24.3062 420.5 18.4224L424.954 13.9691C437.296 19.8457 447.36 17.6245 462.244 32.5084C482.451 52.7154 471.133 64.0301 491.34 84.2371C511.547 104.444 522.865 93.1293 543.072 113.336C563.279 133.543 551.964 144.858 572.168 165.065C586.624 179.521 596.53 177.85 608.394 183.119L603.941 187.572C592.083 182.307 582.178 183.974 567.729 169.526C547.525 149.322 558.84 138.007 538.633 117.8Z" fill="white"/>
<path d="M604.879 51.5544C584.672 31.3474 573.354 42.6622 553.147 22.4552C532.94 2.24823 544.255 -9.06654 524.051 -29.2735C509.16 -44.1646 499.096 -41.9397 486.746 -47.8235L491.2 -52.2769C503.542 -46.4002 513.606 -48.6215 528.49 -33.7376C548.697 -13.5306 537.379 -2.21587 557.586 17.9911C577.793 38.1981 589.111 26.8833 609.318 47.0903C629.525 67.2973 618.21 78.6121 638.414 98.8191C652.87 113.275 662.776 111.604 674.64 116.873L670.187 121.326C658.33 116.061 648.424 117.729 633.975 103.28C613.768 83.0798 625.086 71.7614 604.879 51.5544Z" fill="white"/>
<path d="M689.053 -32.6198C668.846 -52.8268 657.528 -41.512 637.321 -61.719C617.114 -81.926 628.429 -93.2407 608.225 -113.448C593.334 -128.339 583.27 -126.114 570.92 -131.998L575.374 -136.451C586.462 -131.175 595.706 -132.425 608.261 -121.948L616.701 -113.509C631.347 -95.958 623.07 -84.8733 641.76 -66.1831C660.454 -47.4893 671.538 -55.7705 689.089 -41.1202L697.529 -32.6809C712.175 -15.1301 703.898 -4.04533 722.588 14.6449C737.044 29.101 746.95 27.4297 758.814 32.6989L754.361 37.1522C742.504 31.8866 732.598 33.5543 718.149 19.1054C697.942 -1.09444 709.26 -12.4128 689.053 -32.6198Z" fill="#EDE5BC"/>
<path d="M535.279 95.829C526.758 96.7373 517.588 94.8486 510.604 89.846C510.596 89.847 510.596 89.847 510.59 89.8554C510.499 89.792 510.407 89.7137 510.317 89.6503C510.077 89.4709 509.837 89.2914 509.596 89.1046C509.322 88.8921 509.062 88.6775 508.795 88.4566C508.577 88.2742 508.366 88.091 508.155 87.9077C507.86 87.6451 507.577 87.3658 507.287 87.0874C507.124 86.9279 506.954 86.7694 506.791 86.6025C506.35 86.1478 505.916 85.6774 505.509 85.1882C505.291 84.1528 505.498 83.2195 505.971 82.3791C506.068 82.2077 506.174 82.0427 506.288 81.8841C507.331 80.4393 509.155 79.3058 510.891 78.4708C511.08 78.3776 511.278 78.2909 511.461 78.2062C533.996 67.997 554.261 52.9728 570.617 34.4308C559.143 39.3251 547.122 42.8883 534.662 44.004C534.094 44.0571 533.525 44.1026 532.948 44.1418C515.225 45.3773 496.65 41.284 482.308 30.3624C481.86 30.022 481.411 29.6668 480.975 29.3022C480.949 29.2754 480.917 29.257 480.891 29.2303C480.447 28.8592 480.008 28.4724 479.583 28.0761C478.348 26.912 477.254 25.6162 476.462 24.1289C475.116 21.5909 474.778 18.3677 476.243 15.9687C478.527 12.2378 483.74 12.019 488.132 12.0833C533.34 12.7204 578.312 -0.657759 615.399 -25.7796C616.18 -25.8609 616.943 -25.7964 617.682 -25.6232C624.551 -32.9083 630.147 -41.4204 634.092 -50.6862C635.525 -49.2014 637.209 -47.9688 639.046 -47.0511C639.278 -46.9311 639.517 -46.8195 639.747 -46.7143C639.993 -46.6036 640.246 -46.4939 640.498 -46.399C639.087 -45.079 637.736 -43.6989 636.453 -42.2525C630.883 -36.0008 626.558 -28.6242 623.779 -20.6685C624.356 -19.6207 624.766 -18.4827 624.968 -17.3321C625.066 -16.7564 625.126 -16.1757 625.156 -15.606C625.197 -14.6605 625.133 -13.7161 624.994 -12.7767C624.803 -11.4379 624.444 -10.122 623.978 -8.82964C623.962 -8.7822 623.938 -8.73382 623.922 -8.68638C623.817 -8.40072 623.705 -8.11403 623.586 -7.82641C624.632 -7.76196 625.679 -7.63722 626.72 -7.44371C632.459 -14.518 636.774 -22.7763 639.304 -31.6047C640.938 -30.758 642.571 -29.9188 644.212 -29.073C644.933 -28.8143 645.647 -28.5471 646.368 -28.2883C645.228 -27.0647 644.146 -25.796 643.116 -24.4738C640.721 -20.9696 638.395 -17.3841 636.393 -13.6681C634.964 -10.7077 633.775 -7.62837 632.851 -4.4635C632.851 -4.4635 632.852 -4.45607 632.859 -4.45704C633.074 -4.18373 633.275 -3.90105 633.435 -3.59025C634.636 -1.19147 633.669 1.63954 632.64 4.06348C618.745 36.7849 594.938 64.9689 565.102 83.902C556.004 89.665 546.077 94.6854 535.279 95.829Z" fill="#4C251B"/>
<path d="M636.143 -61.1156C628.108 -53.6147 621.947 -44.1066 618.299 -33.65C618.915 -32.532 619.357 -31.3227 619.57 -30.0906C620.427 -25.1704 618.553 -20.2411 616.148 -15.9506C607.798 -1.06373 593.143 9.03966 578.169 17.1096C561.083 26.3216 542.629 33.6398 523.171 35.378C503.714 37.1161 483.101 32.8491 467.292 20.817C464.855 18.9602 462.491 16.8673 461.048 14.161C459.605 11.4548 459.253 8.00692 460.816 5.4513C463.255 1.47337 468.817 1.23835 473.508 1.30064C521.76 1.97764 569.759 -12.3016 609.344 -39.1073C610.176 -39.1955 610.991 -39.1304 611.785 -38.9417C619.12 -46.7191 625.09 -55.8017 629.304 -65.6921C631.229 -63.6992 633.578 -62.1176 636.143 -61.1156Z" fill="#48B75A"/>
<path d="M618.299 -33.6501C618.915 -32.532 619.357 -31.3228 619.57 -30.0906C620.427 -25.1704 618.553 -20.2411 616.148 -15.9506C607.798 -1.06377 593.143 9.03961 578.169 17.1096C561.083 26.3215 542.629 33.6398 523.171 35.3779C503.714 37.1161 483.101 32.8491 467.292 20.8169C466.289 20.0523 465.303 19.2477 464.382 18.3739C488.12 30.6258 515.569 31.5898 541.592 24.0259C564.432 18.1011 583.114 5.65767 599.94 -9.85223C616.082 -24.8257 620.785 -46.4352 634.589 -61.8143C635.1 -61.5579 635.616 -61.3247 636.143 -61.1157C628.108 -53.6148 621.947 -44.1066 618.299 -33.6501Z" fill="#15685A"/>
<path d="M543.52 27.7018C550.485 27.3404 557.304 24.485 562.482 19.7572C560.898 19.1757 559.179 20.0235 557.703 20.8465C552.405 23.7938 548.811 24.7554 543.52 27.7018Z" fill="#4C251B"/>
<path d="M540.585 26.5528C539.673 26.4855 538.737 26.8668 538.124 27.5522C538.914 28.1716 540.052 28.3069 540.961 27.8915C541.215 27.7747 541.481 27.5808 541.511 27.2975C541.558 26.8535 541.03 26.5841 540.585 26.5528Z" fill="#4C251B"/>
<path d="M463.934 13.2107C484.577 29.0522 513.023 31.4232 537.51 24.3281C561.995 17.2256 583.082 1.7447 601.811 -15.4302C607.007 -20.1979 612.5 -26.4092 611.103 -33.4616C570.603 -2.55645 518.169 12.2909 466.872 7.39246C464.799 7.19286 462.025 7.44909 461.666 9.50469C461.404 10.9888 462.722 12.2776 463.934 13.2107Z" fill="#C4D972"/>
<path d="M466.381 12.5676C472.884 17.0304 479.91 21.6652 487.767 21.6756C488.888 21.6774 490.046 21.5685 491.027 21.0152C492.007 20.4619 492.754 19.3737 492.616 18.2524C492.46 16.9976 491.317 16.1383 490.253 15.4799C482.497 10.6329 475.487 12.9326 466.381 12.5676Z" fill="#DBE8A7"/>
<path d="M490.48 12.9286C492.431 15.2351 494.934 17.0757 497.706 18.2387C498.504 18.5703 499.451 18.8443 500.191 18.391C500.82 18.0053 501.078 17.1783 500.96 16.4468C500.842 15.7152 500.415 15.0702 499.918 14.525C498.75 13.2389 497.15 12.365 495.448 12.0859C494.471 11.9217 493.381 11.9764 492.604 12.6081C491.827 13.2324 489.835 12.1616 490.48 12.9286Z" fill="#DBE8A7"/>
<path d="M537.943 20.8361C539.306 20.5188 540.771 20.1276 541.626 19.0173C543.005 17.2184 542.052 14.5451 540.62 12.7883C536.062 7.206 527.924 6.13099 520.856 7.24583C513.781 8.36164 507.029 11.2156 499.909 11.9372C503.048 18.3124 510.045 22.0377 517.028 22.9646C524.018 23.883 531.079 22.4294 537.943 20.8361Z" fill="#DBE8A7"/>
<path d="M536.987 4.38818C537.201 5.17479 537.445 6.01785 538.066 6.53905C538.686 7.06025 539.818 7.0304 540.145 6.27729C540.445 5.59583 539.876 4.7884 539.185 4.52572C538.494 4.26303 537.723 4.36561 536.987 4.38818Z" fill="#DBE8A7"/>
<path d="M586.647 -19.653C549.959 -3.61913 510.337 5.8915 470.112 8.3045C510.635 9.83716 552.699 2.2733 586.647 -19.653Z" fill="#15685A"/>
<path d="M641.749 -41.7695C636.275 -33.9228 630.705 -25.837 627.571 -16.8226C627.976 -16.4086 628.328 -15.9421 628.592 -15.4111C629.874 -12.8495 628.841 -9.82876 627.745 -7.23729C612.919 27.6837 587.502 57.773 555.658 77.9773C545.934 84.1483 535.341 89.5064 523.814 90.7245C512.287 91.95 499.632 88.412 492.052 79.3599C491.316 75.8275 495.184 73.365 498.406 71.9019C525.58 59.588 549.674 40.7176 568.139 17.268C575.283 8.19514 581.672 -1.62262 590.379 -9.18277C598.879 -16.5568 610.266 -21.6056 621.431 -19.5299C627.556 -27.0783 632.164 -35.8964 634.865 -45.3135C637.168 -44.1409 639.458 -42.9589 641.749 -41.7695Z" fill="#48B75A"/>
<path d="M599.871 -6.25027C583.977 10.7961 572.31 30.7666 553.915 46.3799C538.881 59.7717 524.138 71.9549 505.879 80.3718C503.058 81.6456 500.26 82.9768 497.474 84.3442C495.481 82.9188 493.659 81.2594 492.059 79.3515C491.322 75.8191 495.19 73.3566 498.412 71.8935C525.586 59.5796 549.681 40.7091 568.145 17.2595C575.289 8.1867 581.678 -1.63106 590.385 -9.1912C596.967 -14.8983 605.283 -19.2137 613.885 -19.9062C608.294 -16.6785 604.005 -11.1483 599.871 -6.25027Z" fill="#15685A"/>
<path d="M500.66 75.1568C510.552 70.5561 520.629 65.8327 528.52 58.253C519.996 62.5808 511.473 66.9087 502.957 71.243L500.66 75.1568Z" fill="#4C251B"/>
<path d="M535.404 52.4C534.136 52.8707 533.016 53.7294 532.234 54.8374C533.604 54.6324 534.839 53.6828 535.404 52.4Z" fill="#4C251B"/>
<path d="M628.362 -11.3877C613.398 22.3062 589.239 51.6241 559.168 72.5887C551.727 77.7762 543.859 82.4923 535.228 85.37C526.604 88.2394 517.125 89.1922 508.227 86.807C505.975 86.2011 503.328 84.8025 503.361 82.4734C503.39 80.3485 505.626 79.1148 507.55 78.2925C548.469 60.6838 584.712 32.6476 612.033 -2.54842C614.079 -5.18339 616.116 -7.89256 618.855 -9.78962C621.589 -11.6783 625.213 -12.629 628.362 -11.3877Z" fill="#C4D972"/>
<path d="M542.892 79.9415C533.508 78.8739 524.026 79.7441 514.618 80.612C513.179 80.7432 511.711 80.8858 510.413 81.5266C509.115 82.16 508.008 83.4093 507.951 84.866C519.651 87.7764 532.425 85.9773 542.892 79.9415Z" fill="#DBE8A7"/>
<path d="M545.119 75.2596C542.999 75.1494 540.909 75.9635 539.181 77.1976C540.924 78.1958 543.094 78.4049 544.989 77.7601C545.883 77.4599 546.849 76.4481 546.267 75.703C546.006 75.3678 545.54 75.2864 545.119 75.2596Z" fill="#DBE8A7"/>
<path d="M450.344 125.36C463.987 115.828 477.623 106.299 491.265 96.7671C494.03 103.04 495.665 109.998 494.586 116.875C493.514 123.748 489.413 130.505 483.017 133.782C477.561 136.577 470.983 136.587 465.282 134.745C459.571 132.9 454.651 129.365 450.344 125.36Z" fill="#15685A"/>
<path d="M450.374 125.488C463.675 116.188 475.535 107.214 490.195 97.5898C493.315 103.29 494.034 110.243 491.79 116.509C489.546 122.774 484.239 128.117 477.736 130.14C473.139 131.568 468.198 131.346 463.596 130.282C459.001 129.215 454.671 127.344 450.374 125.488Z" fill="#EDE5BC"/>
<path d="M465.048 127.631C466.552 123.711 467.72 119.681 468.553 115.595C467.101 119.537 465.641 123.513 465.048 127.631Z" fill="#DBCA83"/>
<path d="M461.303 127.141C462.487 124.956 463.391 122.64 463.996 120.257C462.539 121.691 461.434 123.466 460.826 125.374C460.716 125.705 460.626 126.059 460.677 126.398C460.729 126.737 460.958 127.066 461.303 127.141Z" fill="#DBCA83"/>
<path d="M489.922 106.363C487.516 104.989 484.565 104.478 481.75 104.961C483.102 105.329 484.384 105.89 485.733 106.252C487.093 106.616 488.562 106.784 489.922 106.363Z" fill="#DBCA83"/>
<path d="M477.738 109.283C478.67 109.035 479.674 108.8 480.553 109.117C481.439 109.431 482.035 110.568 481.447 111.327C480.908 112.013 479.763 111.915 479.11 111.383C478.45 110.838 478.13 110.023 477.738 109.283Z" fill="#DBCA83"/>
<path d="M472.588 114.524C473.675 114.841 474.745 115.309 475.51 116.118C476.269 116.93 476.663 118.129 476.26 119.192C475.856 120.254 474.524 120.985 473.483 120.558C472.461 120.137 472.121 118.88 472.206 117.793C472.291 116.69 472.668 115.609 472.588 114.524Z" fill="#DBCA83"/>
<path d="M463.603 130.279C468.205 131.342 473.146 131.565 477.743 130.137C484.238 128.117 489.556 122.777 491.797 116.505C494.041 110.24 493.322 103.287 490.201 97.5865C489.525 98.0319 488.863 98.4708 488.2 98.9096C490.69 103.94 491.188 109.926 489.247 115.345C487.206 121.05 482.372 125.906 476.46 127.747C472.281 129.047 467.781 128.844 463.592 127.877C459.767 126.991 456.147 125.497 452.568 123.95C451.841 124.461 451.114 124.971 450.374 125.488C454.671 127.344 459.001 129.215 463.603 130.279Z" fill="white"/>
<path d="M438.14 81.6033C444.97 84.4857 450.051 90.6253 451.994 97.6531C453.934 104.675 453.023 112.41 449.792 119.164C446.516 126.028 438.737 132.111 431.875 135.555C424.538 129.234 422.074 119.629 421.762 109.941C421.449 100.254 425.296 90.3518 432.197 83.0799C433.058 82.1705 434.065 81.2526 435.305 81.0584C436.281 80.9 437.249 81.2287 438.14 81.6033Z" fill="#15685A"/>
<path d="M436.058 81.6913C442.889 84.5737 447.97 90.7134 449.913 97.7411C451.852 104.763 450.75 112.546 447.349 119.225C443.948 125.905 438.343 131.483 431.797 135.38C424.459 129.059 419.997 119.707 419.684 110.02C419.371 100.332 423.218 90.4302 430.119 83.1583C430.98 82.2489 431.987 81.331 433.227 81.1367C434.203 80.9944 435.167 81.3167 436.058 81.6913Z" fill="#48B75A"/>
<path d="M435.17 85.1794C441.234 87.7367 445.741 93.1865 447.465 99.4199C449.189 105.653 448.209 112.56 445.191 118.488C442.174 124.416 437.195 129.366 431.388 132.827C424.875 127.214 420.918 118.919 420.639 110.323C420.367 101.724 423.777 92.9331 429.904 86.4796C430.674 85.6709 431.556 84.8541 432.661 84.6875C433.517 84.5565 434.374 84.8451 435.17 85.1794Z" fill="#DBCA83"/>
<path d="M428.228 94.7996C432.589 93.6151 437.601 90.9285 441.292 89.1964C439.518 87.5247 437.451 86.1487 435.164 85.1827C434.377 84.8514 433.517 84.5565 432.647 84.694C431.546 84.867 430.654 85.6808 429.891 86.4862C427.523 88.9806 425.572 91.8308 424.074 94.8762C425.65 94.3023 426.61 95.2364 428.228 94.7996Z" fill="#EDE5BC"/>
<path d="M435.427 100.556C438.724 99.938 444.041 98.2878 446.941 97.3039C446.074 95.4364 444.226 92.4238 442.878 90.858C439.56 91.8672 436.237 92.8861 432.95 93.975C429.569 95.094 426.222 96.331 422.878 97.5744C422.038 99.7326 421.439 101.961 421.064 104.221C426.532 102.473 429.797 101.609 435.427 100.556Z" fill="#EDE5BC"/>
<path d="M437.856 108.816C441.299 108.411 444.759 107.989 448.192 107.865C448.416 105.014 448.212 102.154 447.458 99.4231C447.325 98.935 447.138 98.4573 446.968 97.9793C443.913 98.9847 440.836 99.9295 437.828 100.928C432.162 102.814 426.469 104.626 420.775 106.439C420.653 107.734 420.58 109.029 420.623 110.323C420.625 110.377 420.636 110.435 420.639 110.489C426.391 109.986 432.136 109.486 437.856 108.816Z" fill="#EDE5BC"/>
<path d="M444.93 118.95C445.013 118.798 445.105 118.649 445.184 118.491C446.562 115.79 447.489 112.885 447.953 109.931C443.131 110.117 438.262 110.912 433.473 111.35C429.253 111.728 425.036 112.113 420.816 112.508C420.905 113.342 421.041 114.17 421.2 114.994C429.201 115.832 437.112 117.174 444.93 118.95Z" fill="#EDE5BC"/>
<path d="M440.337 125.483C441.636 124.033 442.818 122.497 443.841 120.859C436.394 117.569 428.868 114.722 421.707 117.158C421.855 117.71 422.024 118.252 422.202 118.797C428.382 120.6 434.377 123.001 440.337 125.483Z" fill="#EDE5BC"/>
<path d="M434.253 130.918C435.855 129.761 437.38 128.499 438.78 127.117C433.626 124.973 431.992 120.833 423.098 121.26C423.544 122.33 424.044 123.373 424.604 124.387C427.799 126.582 431.007 128.771 434.253 130.918Z" fill="#EDE5BC"/>
<path d="M433.073 84.2458C432.934 84.251 432.796 84.2562 432.657 84.2775C431.556 84.4505 430.663 85.2642 429.9 86.0696C423.78 92.5198 420.363 101.314 420.642 109.909C420.912 118.454 424.834 126.696 431.271 132.306L433.073 84.2458Z" fill="#DBCA83"/>
<path d="M437.379 230.358C477.794 147.602 577.872 113.389 660.908 153.942C743.945 194.494 778.495 294.456 738.08 377.212C697.664 459.968 597.586 494.181 514.55 453.628C431.514 413.076 396.963 313.114 437.379 230.358Z" fill="#D21F27"/>
<path d="M446.17 232.74C484.435 154.404 579.176 122.027 657.78 160.423C736.383 198.819 769.084 293.449 730.818 371.785C692.553 450.12 597.812 482.498 519.209 444.102C440.605 405.706 407.905 311.076 446.17 232.74Z" fill="#4C251B"/>
<path d="M534.157 413.597C595.774 443.704 670.317 418.232 700.329 356.826C730.334 295.411 704.625 220.953 643.008 190.847C581.391 160.741 506.848 186.212 476.836 247.618C446.814 309.03 472.533 383.481 534.157 413.597ZM535.652 410.523C475.729 381.243 450.715 308.831 479.893 249.109C509.072 189.387 581.577 164.621 641.5 193.901C701.422 223.181 726.436 295.593 697.258 355.315C668.07 415.043 595.581 439.812 535.652 410.523Z" fill="#B65B00"/>
<path d="M430.093 266.338C422.074 292.483 421.377 320.858 428.107 347.417C434.836 373.976 448.974 398.628 468.507 417.894C454.398 402.386 444.328 383.542 437.235 363.85C426.014 332.699 422.05 298.382 430.093 266.338Z" fill="#EDE5BC"/>
<path d="M496.46 242.994C497.604 249.246 497.576 255.71 496.396 261.957C494.325 258.723 492.879 255.099 492.16 251.326C491.645 248.627 491.535 245.715 492.726 243.244C493.886 240.793 493.778 243.379 496.46 242.994Z" fill="#4C251B"/>
<path d="M486.464 258.836C486.944 258.055 487.437 257.25 487.536 256.342C487.634 255.433 487.191 254.401 486.319 254.115C485.056 253.708 483.891 255.053 483.532 256.344C482.74 259.212 484.087 262.533 486.658 264.027L486.464 258.836Z" fill="#4C251B"/>
<path d="M520.376 135.231L497.805 432.621L493.781 432.316L516.352 134.925L520.376 135.231Z" fill="#EDE5BC"/>
<path d="M482.09 199.269C475.66 214.678 482.313 232.331 478.282 248.404C476.624 255.018 473.156 261.533 474.275 268.274C475.607 276.321 483.333 283.261 482.749 291.339C482.24 298.407 475.489 303.908 473.996 310.854C472.336 318.562 477.445 326.227 483.226 332.317C488.904 338.299 495.999 343.904 504.665 345.23C514.2 346.683 524.068 342.323 529.484 335.385C534.899 328.447 536.159 319.352 534.173 310.991C533.173 306.801 531.414 302.47 532.735 298.39C534.577 292.732 541.464 289.874 545.944 285.546C554.539 277.224 553.47 264.359 551.884 253.054C550.242 241.314 548.489 229.278 542.228 218.736C538.934 213.177 534.262 207.154 536.44 201.27C537.564 198.238 540.341 195.971 542.628 193.503C553.081 182.231 553.136 164.354 542.737 152.693C532.339 141.031 512.556 136.759 497.582 142.956C493.303 144.725 489.302 147.371 487.201 151.104C481.793 160.712 490.694 172.301 489.114 182.986C488.253 188.783 484.371 193.803 482.09 199.269Z" fill="#B65B00"/>
<path d="M510.803 281.359C509.731 281.325 508.583 281.772 508.073 282.706C507.441 283.855 507.94 285.279 508.517 286.443C510.684 290.81 514.057 294.572 518.153 297.213C519.504 298.079 521.265 298.83 522.633 297.984C524.17 297.039 527.222 294.499 526.953 292.715C523.364 288.388 518.866 284.82 513.841 282.316C512.873 281.844 511.864 281.399 510.803 281.359Z" fill="#D96C07"/>
<path d="M495.322 279.131C496.472 280.796 498.165 282.215 500.18 282.486C502.402 282.78 504.622 281.597 506.102 279.908C507.582 278.218 508.424 276.085 509.157 273.966C510.718 269.384 511.794 264.699 512.503 259.95C512.513 260.579 512.512 261.216 512.521 261.845C512.7 268.199 513.179 274.957 516.959 280.072C520.013 284.196 524.874 286.677 529.852 287.882C535.1 289.157 541.189 288.98 545.226 285.378C549.372 281.674 550.157 275.544 550.353 269.988C551.28 244 544.683 216.583 526.558 197.938C524.16 195.471 520.316 193.074 517.562 195.133C517.189 195.414 516.901 195.755 516.641 196.137L516.475 193.056C517.599 193.409 518.734 193.71 519.854 193.991C526.433 195.598 534.226 196.373 539.216 191.791C542.449 188.819 543.676 184.225 543.944 179.832C544.612 168.888 540.043 157.874 532.334 150.08C527.429 145.116 520.998 141.267 514.019 140.978C507.041 140.69 499.671 144.655 497.397 151.254C494.727 159.021 499.369 167.133 501.897 174.937C503.154 178.807 504.062 182.927 506.29 186.262C506.843 189.216 507.834 192.097 509.29 194.724C510.133 196.241 511.477 197.866 513.201 197.682C514.238 197.576 515.106 196.8 515.595 195.879C515.771 195.569 515.865 195.225 515.966 194.891C515.782 194.113 515.487 193.366 515.245 192.612C515.634 192.749 516.016 192.921 516.424 193.046C516.311 193.669 516.164 194.285 515.966 194.891C516.118 195.513 516.168 196.16 516.293 196.785C515.733 197.93 515.48 199.268 515.325 200.555C514.07 210.976 513.214 221.441 512.759 231.931C512.013 224.953 510.778 217.994 509.274 211.186C508.374 207.121 506.64 202.301 502.531 201.531C499.947 201.051 497.306 202.532 495.729 204.627C494.135 206.718 493.421 209.327 492.839 211.891C488.731 230.159 490.494 249.179 492.28 267.814C492.642 271.739 493.087 275.874 495.322 279.131Z" fill="#D96C07"/>
<path d="M488.913 315.013C490.771 308.236 491.712 301.217 491.691 294.195L492.686 286.949C492.334 277.282 486.81 267.945 478.513 262.971C478.777 270.376 480.708 277.709 484.113 284.289C485.652 287.259 487.542 290.245 487.62 293.593C487.78 300.403 480.661 305.071 478.479 311.52C477.719 313.775 477.61 316.361 478.775 318.445C479.94 320.529 482.562 321.856 484.79 321.037C487.168 320.177 488.239 317.461 488.913 315.013Z" fill="#D96C07"/>
<path d="M512.948 342.425C514.93 341.151 516.098 338.888 516.558 336.583C516.675 336.031 516.741 335.47 516.789 334.905L516.867 339.065C518.601 338.017 518.111 335.376 517.213 333.556C517.113 333.342 516.97 333.173 516.86 332.966C516.852 331.833 516.776 330.687 516.69 329.547L516.754 332.786C513.83 327.273 509.229 322.651 503.666 319.829C501.092 318.529 497.959 317.606 495.392 318.933C492.442 320.459 491.553 324.324 491.913 327.629C492.7 334.8 498.179 341.212 505.143 343.106C507.735 343.817 510.692 343.883 512.948 342.425Z" fill="#D96C07"/>
<path d="M513.35 298.269C511.638 299.657 511.648 302.223 511.864 304.413C512.959 315.339 515.625 326.095 519.758 336.264C520.156 337.252 520.678 338.335 521.679 338.682C522.746 339.059 523.958 338.377 524.576 337.429C525.188 336.47 527.588 330.807 527.822 329.704C529.851 320.017 527.612 309.521 521.803 301.498C520.808 300.128 519.666 298.782 518.153 298.026C516.639 297.27 514.673 297.203 513.35 298.269Z" fill="#D96C07"/>
<path d="M503.777 272.559C507.623 262.936 509.429 261.929 512.424 252.007C512.951 250.263 513.485 248.441 513.263 246.639C513.035 244.827 511.837 243.001 510.053 242.634C507.316 242.08 505.191 244.943 504.047 247.485C500.534 255.317 498.98 264.019 499.548 272.579C499.61 273.484 499.784 274.534 500.578 274.946C501.925 275.652 503.221 273.952 503.777 272.559Z" fill="#EF9825"/>
<path d="M545.781 270.268C546.205 247.753 538.91 225.166 525.4 207.142C523.677 204.842 521.347 202.388 518.49 202.669C514.406 203.079 513.111 208.341 512.96 212.447C512.317 231.031 514.065 249.81 519.535 267.594C521.103 272.673 523.114 277.884 527.122 281.382C531.13 284.88 537.659 286.018 541.694 282.566C545.081 279.667 545.704 274.725 545.781 270.268Z" fill="#EF9825"/>
<path d="M501.306 253.586C501.56 251.567 501.375 249.489 500.795 247.529C501.263 247.894 501.774 248.127 502.382 247.999C503.603 247.725 504.121 246.298 504.436 245.096C506.848 235.802 509.179 225.573 504.984 216.939C503.958 214.82 501.898 212.614 499.631 213.266C497.637 213.838 496.877 216.226 496.556 218.276C495.261 226.462 495.935 234.937 498.416 242.847C498.275 242.661 498.176 242.447 498.026 242.267C495.669 242.565 494.073 245.028 493.936 247.396C493.8 249.764 494.758 252.047 495.702 254.22C496.275 255.535 497.125 257.062 498.561 257.087C500.194 257.142 501.102 255.216 501.306 253.586Z" fill="#EF9825"/>
<path d="M513.784 323.49L511.46 314.011C510.311 306.565 507.401 299.402 503.019 293.259C501.722 291.441 499.456 289.521 497.531 290.638C496.177 291.415 495.916 293.247 495.885 294.805C495.718 303.46 497.835 312.147 501.965 319.761C503.205 322.045 504.745 324.336 507.093 325.432C509.442 326.528 512.759 325.879 513.784 323.49Z" fill="#EF9825"/>
<path d="M504.195 324.484C503.255 326.801 503.473 329.566 504.781 331.687C506.096 333.818 508.446 335.268 510.944 335.466C509.889 331.238 507.506 327.342 504.195 324.484Z" fill="#EF9825"/>
<path d="M535.387 192.253C538.337 188.111 536.209 185.891 535.799 182.028C538.476 182.756 541.14 180.343 542.62 177.884C544.262 175.139 545.406 171.872 544.662 168.766C543.918 165.66 540.697 163.022 537.611 163.841C536.931 164.017 536.33 164.377 535.778 164.808C534.214 157.404 530.342 150.459 524.641 145.454C522.108 143.226 518.752 141.27 515.493 142.16C511.011 143.386 509.55 148.95 509.235 153.582C508.445 165.287 509.993 177.15 513.776 188.25C514.808 191.28 516.12 194.418 518.663 196.374C523.747 200.287 531.659 197.479 535.387 192.253Z" fill="#EF9825"/>
<path d="M497.079 197.777C497.961 198.736 499.515 198.519 500.758 198.126C503.694 197.216 506.485 195.827 508.961 194.015C507.031 186.177 503.532 178.731 498.723 172.239C498.036 179.175 499.622 186.105 501.2 192.892C499.915 193.135 498.569 193.42 497.586 194.288C496.603 195.156 496.191 196.807 497.079 197.777Z" fill="#4C251B"/>
<path d="M498.012 184.261C489.886 187.936 484.629 197.132 485.607 205.994C490.011 200.52 492.873 193.807 493.787 186.836C493.952 187.301 497.827 183.809 498.012 184.261Z" fill="#4C251B"/>
<path d="M491.172 322.791C490.506 321.14 488.976 319.612 487.194 319.775C484.782 319.993 483.692 323.076 484.239 325.428C484.693 327.355 486.197 329.284 488.174 329.256C489.575 329.23 490.84 328.188 491.342 326.889C491.854 325.584 491.688 324.085 491.172 322.791Z" fill="#4C251B"/>
<path d="M541.533 173.235C541.532 169.408 537.976 166.714 535.624 163.699C532.69 159.952 531.426 155.17 529.021 151.067C526.617 146.963 522.213 143.273 517.539 144.214C519.331 153.296 527.633 160.455 527.986 169.707C528.119 173.224 527.065 176.667 526.518 180.14C525.977 183.622 526.03 187.459 528.096 190.312C531.158 187.129 534.228 183.956 537.291 180.774C539.34 178.656 541.535 176.205 541.533 173.235Z" fill="#DBC97D"/>
<path d="M524.662 213.846C523.656 214.197 523.737 215.636 524.02 216.673C526.484 225.525 529.452 234.246 532.901 242.761C533.355 243.875 533.951 245.114 535.099 245.436C536.063 245.704 537.129 245.18 537.752 244.391C538.375 243.603 538.66 242.598 538.853 241.611C541.002 231.09 535.679 219.46 526.313 214.214C525.795 213.927 525.212 213.654 524.662 213.846Z" fill="#DBC97D"/>
<path d="M538.98 264.924C535.868 259.878 531.866 255.444 527.753 251.174C525.919 249.259 523.261 247.218 520.884 248.388C518.545 249.547 518.507 252.81 518.813 255.397C519.545 261.542 520.335 267.75 522.437 273.58C523.6 276.803 525.222 279.985 527.86 282.172C530.498 284.359 534.33 285.374 537.45 283.97C540.761 282.498 542.546 278.667 542.494 275.051C542.469 271.431 540.887 268.002 538.98 264.924Z" fill="#DBC97D"/>
<path d="M669.581 157.975L538.635 425.952L535.009 424.18L665.955 156.203L669.581 157.975Z" fill="#EDE5BC"/>
<path d="M570.014 348.794C574.044 350.237 578.474 350.362 582.829 350.464C589.487 350.628 596.308 350.771 602.844 348.357C609.386 345.953 615.675 340.423 617.449 333.214C618.232 330.027 618.094 326.765 618.618 323.545C619.143 320.325 620.592 316.852 623.328 315.293C626.528 313.481 631.118 314.371 632.941 310.972C633.978 309.063 633.485 306.615 634.618 304.76C635.824 302.796 638.228 302.392 640.301 301.914C647.819 300.169 654.835 294.358 658.55 286.805C662.259 279.241 662.566 270.136 659.354 263.117C657.823 259.786 655.573 256.924 654.341 253.421C653.109 249.919 653.176 245.336 655.811 242.396C658.412 239.494 662.409 239.261 665.815 237.798C672.529 234.924 677.066 226.152 675.534 218.95C674.47 213.96 671.031 208.912 673.539 204.136C674.562 202.206 676.38 200.865 677.577 199.04C680.739 194.224 678.643 188.096 676.433 183.27C671.903 173.368 666.979 162.992 658.137 157.601C652.104 153.927 643.325 153.401 637.919 159.297C633.942 163.627 632.87 170.187 629.026 174.648C623.544 181.025 613.773 181.683 609.39 188.947C605.828 194.86 607.622 202.211 606.186 208.912C604.433 217.141 598.063 223.583 592.222 229.58C586.381 235.577 580.323 242.636 579.645 250.926C579.198 256.415 581.219 261.751 579.945 267.176C578.854 271.797 575.573 275.6 572.485 279.184C566.237 286.445 559.978 294.304 557.471 303.588C555.684 310.229 556.466 317.744 559.898 322.694C561.862 325.527 562.543 329.089 561.361 332.322C560.463 334.789 560.317 337.562 561.028 339.937C562.352 344.368 565.994 347.344 570.014 348.794Z" fill="#B65B00"/>
<path d="M587.688 336.391C588.507 336.269 589.299 336.017 590.115 335.824C589.989 335.923 589.85 336.002 589.742 336.104C588.762 336.999 587.862 338.166 587.894 339.49C587.947 341.656 590.364 342.943 592.505 343.292C598.534 344.278 605.019 341.129 607.992 335.79C605.469 333.643 602.155 332.605 598.859 332.649C607.903 328.03 615.222 319.945 618.432 310.278L628.124 303.303C625.254 301.848 622.198 300.799 619.072 300.063C626.684 298.876 634.209 297.141 641.555 294.789C644.195 293.945 646.96 292.913 648.645 290.715C650.618 288.132 650.614 284.587 650.448 281.329C649.658 266.459 647.207 251.67 643.136 237.351C643.029 236.994 642.915 236.627 642.801 236.26C649.172 240.15 657.141 241.561 663.471 237.896C669.302 234.522 672.431 227.525 672.357 220.776C672.279 214.044 669.389 207.591 665.499 202.092C660.972 195.691 655.035 190.313 648.219 186.441C644.411 184.272 639.995 182.541 635.712 183.514C631.355 184.508 627.978 188.257 626.464 192.468C624.95 196.678 625.026 201.298 625.598 205.732C626.518 212.903 628.819 220.017 632.701 226.054C630.419 226.155 628.143 227.123 626.024 228.105C621.298 230.307 616.612 232.616 612.002 235.036C606.842 237.737 601.625 240.684 597.887 245.148C594.017 249.79 592.034 255.765 591.275 261.759C590.517 267.753 590.908 273.831 591.3 279.864C591.742 286.72 592.668 294.494 598.253 298.513C599.027 299.071 599.873 299.493 600.738 299.857C599.797 300.061 598.845 300.273 597.917 300.542C587.975 303.473 579.249 310.301 574.008 319.235C572.15 322.407 570.692 326.196 571.771 329.712C572.701 332.723 575.391 334.964 578.378 335.956C581.332 336.985 584.587 336.88 587.688 336.391Z" fill="#D96C07"/>
<path d="M572.905 318.189C574.46 317.247 576.883 311.641 577.942 310.16C582.147 304.258 584.469 297.051 584.491 289.808C584.496 288.386 584.402 286.927 583.818 285.619C583.231 284.329 582.053 283.214 580.641 283.07C578.551 282.864 576.861 284.681 575.643 286.387C570.315 293.916 566.983 302.853 566.06 312.031C565.838 314.294 565.94 316.975 567.783 318.308C569.243 319.38 571.344 319.12 572.905 318.189Z" fill="#D96C07"/>
<path d="M581.15 337.329C590.209 338.997 595.337 330.775 599.274 322.452C592.995 316.785 582.442 316.698 576.086 322.258C573.869 324.193 572.077 326.979 572.395 329.914C572.833 333.994 577.106 336.59 581.15 337.329Z" fill="#EF9825"/>
<path d="M584.635 309.651C587.526 306.894 590.417 304.137 593.318 301.373C592.352 297.958 591.379 294.533 590.423 291.111C587.698 299.742 583.059 307.769 576.945 314.437C579.975 313.996 582.408 311.769 584.635 309.651Z" fill="#4C251B"/>
<path d="M566.356 303.481C564.846 307.852 563.343 312.321 563.297 316.934C563.257 321.558 564.951 326.45 568.744 329.102C567.941 320.566 567.149 312.023 566.356 303.481Z" fill="#4C251B"/>
<path d="M738.224 257.384L564.882 500.102L561.598 497.757L734.94 255.039L738.224 257.384Z" fill="#EDE5BC"/>
<path d="M663.412 316.038C656.172 321.823 645.959 324.198 640.948 332.001C635.153 341.012 638.796 353.507 633.921 363.051C630.337 370.074 622.784 374.251 618.555 380.908C614.606 387.126 613.981 395.143 616.176 402.166C618.382 409.182 623.247 415.208 629.207 419.522C632.629 421.995 636.508 423.983 640.692 424.555C644.875 425.127 649.379 424.153 652.521 421.331C658.836 415.665 658.552 404.076 666.25 400.511C668.474 399.488 671.008 399.365 673.335 398.628C675.673 397.884 678.034 396.163 678.211 393.724C688.369 391.992 697.828 386.474 704.335 378.477C710.848 370.491 714.341 360.101 713.981 349.805C713.738 342.607 711.708 335.237 713.766 328.339C716.69 318.554 726.666 313.013 733.781 305.701C739.737 299.568 743.981 291.526 744.573 282.998C745.158 274.46 741.785 265.51 735.015 260.277C725.713 253.082 711.841 254.236 701.888 260.515C691.935 266.794 685.319 277.2 680.432 287.891C675.825 297.965 672.066 309.125 663.412 316.038Z" fill="#B65B00"/>
<path d="M24.7557 12.4708C35.8567 13.6156 37.6642 -3.62708 26.5342 -4.77491C15.4332 -5.91976 13.6547 11.3259 24.7557 12.4708Z" fill="#91C654"/>
<path d="M68.724 14.4567C68.7148 13.6942 68.7055 12.9316 68.6962 12.169C68.8238 11.2156 68.7107 10.3251 68.3886 9.47169C68.1854 8.60126 67.7994 7.79984 67.1956 7.12242C66.6557 6.39301 65.9499 5.85154 65.1392 5.47501C64.3725 4.95655 63.4949 4.66099 62.5614 4.62331C61.9438 4.64749 61.3261 4.67167 60.7115 4.66687C59.5192 4.86613 58.442 5.37018 57.5147 6.12404C57.1191 6.55191 56.6945 6.97681 56.2988 7.40468C55.5796 8.41433 55.1412 9.54082 55.0156 10.7582C54.8509 11.5028 54.6863 12.2474 54.5216 12.992C54.391 13.9745 54.5013 14.894 54.8464 15.8083C55.0436 16.7367 55.4585 17.5411 56.0884 18.2505C56.6543 19.0119 57.3861 19.5854 58.2257 19.9649C59.0214 20.4863 59.928 20.7849 60.9165 20.8575C61.5631 20.8363 62.2097 20.8151 62.8274 20.791C64.0806 20.5687 65.1868 20.0676 66.175 19.2908C66.6026 18.8369 67.0272 18.412 67.4258 17.9551C68.1221 16.8845 68.5635 15.7291 68.724 14.4567Z" fill="#91C654"/>
<path d="M42.8303 168.677C42.8303 168.677 86.675 161.922 116.766 136.289C146.853 110.685 200.005 39.2442 200.005 39.2442C200.005 39.2442 82.4963 62.9797 42.8303 168.677Z" fill="#91C654"/>
<path d="M224.072 17.2082C226.963 19.0003 169.769 46.4076 90.1116 26.9148C90.0826 26.9119 169.245 -16.6841 224.072 17.2082Z" fill="#91C654"/>
<path d="M211.179 34.0105C211.179 34.0105 165.932 66.5751 186.811 154.116C186.782 154.113 240.121 70.0667 211.179 34.0105Z" fill="#006D4E"/>
<path d="M238.771 127.751C238.771 127.751 258.521 31.3942 238.238 11.639C238.238 11.639 208.737 80.6856 238.771 127.751Z" fill="#91C654"/>
<path d="M133.025 -36.7061C133.025 -36.7061 206.295 17.4548 242.344 1.92732C242.344 1.92732 188.449 -48.9465 133.025 -36.7061Z" fill="#006D4E"/>
<path d="M251.981 0.226217C251.981 0.226217 236.761 75.6667 275.53 115.285C275.53 115.285 279.161 17.5877 251.981 0.226217Z" fill="#006D4E"/>
<path d="M272.621 -13.5803C272.621 -13.5803 264.72 75.533 309.485 117.791C309.485 117.791 318.25 12.0696 272.621 -13.5803Z" fill="#91C654"/>
<path d="M293.083 -24.2416C293.083 -24.2416 303.136 50.4074 350.325 95.5806C350.325 95.5806 363.047 11.4169 299.214 -30.5809L293.083 -24.2416Z" fill="#91C654"/>
<path d="M311.698 -41.4206C311.698 -41.4206 347.685 29.7222 391.52 66.2305C391.52 66.2305 377.466 -8.53823 320.087 -47.4978L311.698 -41.4206Z" fill="#006D4E"/>
<path d="M194.374 46.1329C194.374 46.1329 372.278 -99.6755 468.955 -113.139C468.955 -113.139 474.591 -114.96 470.542 -120.855C466.524 -126.777 345.223 -93.8243 194.374 46.1329Z" fill="#91C654"/>
<path d="M325.102 114.338C312.343 92.1729 319.968 63.8612 342.134 51.1022C364.299 38.3432 392.61 45.9685 405.369 68.1337C418.128 90.2989 410.503 118.611 388.338 131.37C366.173 144.129 337.861 136.503 325.102 114.338Z" fill="#4C251B"/>
<path d="M335.86 120.683C319.606 104.429 319.606 78.0764 335.86 61.8224C352.114 45.5684 378.467 45.5685 394.721 61.8225C410.975 78.0765 410.975 104.429 394.721 120.683C378.467 136.937 352.114 136.937 335.86 120.683Z" fill="#15685A"/>
<path d="M381.404 125.453C378.748 120.092 376.018 114.764 373.471 109.344C371.784 105.753 370.247 102.112 368.761 98.4541C366.848 109.895 364.927 121.328 362.957 132.752C369.846 133.136 376.811 131.8 383.166 128.777C382.54 127.633 381.93 126.513 381.404 125.453Z" fill="#379381"/>
<path d="M371.024 97.4186C373.596 103.774 376.352 110.045 379.433 116.242C381.337 120.075 383.258 123.908 385.154 127.749C388.552 125.904 391.768 123.599 394.649 120.726C389.07 113.144 382.707 106.137 376.31 99.164C374.54 98.5794 372.777 97.9948 371.024 97.4186Z" fill="#379381"/>
<path d="M380.686 100.617C386.122 106.571 391.475 112.584 396.269 119.023C399.768 115.123 402.34 110.713 404.102 106.062C396.235 105.369 388.427 103.131 380.686 100.617Z" fill="#379381"/>
<path d="M384.703 98.9385C391.308 101.076 398.039 103.081 404.937 103.715C406.758 97.8612 407.284 91.6898 406.474 85.6604C394.824 86.7544 383.358 88.6751 371.951 91.0552C373.588 92.8673 375.241 94.6711 376.894 96.475C379.5 97.2767 382.097 98.0951 384.703 98.9385Z" fill="#379381"/>
<path d="M361.879 94.6461C359.357 96.642 356.835 98.6462 354.363 100.701C347.39 106.488 340.576 112.459 333.82 118.497C334.463 119.24 335.139 119.975 335.849 120.685C342.789 127.624 351.566 131.574 360.618 132.585C362.723 120.426 364.769 108.258 366.798 96.0825C365.153 95.5731 363.516 95.0887 361.879 94.6461Z" fill="#379381"/>
<path d="M356.201 96.1659C357.103 95.431 358.021 94.7295 358.931 94.0114C351.123 95.8569 343.323 97.8027 335.515 99.8821C332.108 100.792 328.684 101.686 325.235 102.546C326.638 107.54 328.985 112.325 332.283 116.618C340.108 109.628 348.05 102.772 356.201 96.1659Z" fill="#379381"/>
<path d="M382.74 78.8544C378.623 81.794 374.565 84.8003 370.539 87.8651C370.481 88.1992 370.431 88.5332 370.381 88.8672C382.197 86.387 394.089 84.4245 406.14 83.3138C405.021 77.5266 402.657 71.9398 399.066 66.9542C393.429 70.637 388.177 74.9795 382.74 78.8544Z" fill="#379381"/>
<path d="M384.887 74.4617C389.129 71.3218 393.296 68.0732 397.672 65.1671C396.745 64.0146 395.768 62.8872 394.699 61.8183C389.438 56.5572 383.116 53.0247 376.427 51.1708C374.682 62.3528 372.878 73.5264 371.041 84.6917C375.642 81.2678 380.268 77.8773 384.887 74.4617Z" fill="#379381"/>
<path d="M361.428 77.7353C358.765 68.9751 356.309 60.1148 353.579 51.3629C350.305 52.3149 347.115 53.6344 344.109 55.4131C349.712 63.6305 355.675 71.6057 361.938 79.3388C361.779 78.8043 361.587 78.2782 361.428 77.7353Z" fill="#379381"/>
<path d="M355.791 50.7783C358.706 60.1732 361.328 69.685 364.284 79.0715C364.844 80.8503 365.47 82.5873 366.072 84.3494C366.781 85.1845 367.483 86.0195 368.209 86.8463C368.259 86.8129 368.301 86.7711 368.351 86.7377C370.339 74.7123 372.276 62.6701 374.155 50.628C368.109 49.3002 361.829 49.3753 355.791 50.7783Z" fill="#379381"/>
<path d="M356.543 90.9132C357.345 91.0969 358.13 91.314 358.923 91.5061C360.443 91.147 361.963 90.7712 363.483 90.4288C364.051 89.9862 364.635 89.5519 365.211 89.1177C364.76 87.8483 364.293 86.5873 363.859 85.3096C362.522 83.748 361.195 82.178 359.917 80.583C353.695 72.8166 347.775 64.833 342.171 56.6406C339.941 58.1355 337.82 59.8641 335.841 61.835C329.745 67.9312 325.97 75.4471 324.459 83.3137C335.098 86.0445 345.837 88.4246 356.543 90.9132Z" fill="#379381"/>
<path d="M324.074 85.6438C323.423 90.5208 323.615 95.4896 324.684 100.3C329.87 98.9887 335.031 97.5941 340.133 96.2078C344.701 94.9718 349.278 93.8111 353.854 92.7004C343.916 90.4206 333.954 88.1825 324.074 85.6438Z" fill="#379381"/>
<path d="M366.932 127.591C346.86 127.591 330.588 111.319 330.588 91.2473C330.588 71.1753 346.86 54.9038 366.932 54.9038C387.004 54.9038 403.275 71.1753 403.275 91.2473C403.275 111.319 387.004 127.591 366.932 127.591Z" fill="#4C251B"/>
<path d="M335.579 109.07C325.748 92.6949 331.054 71.4511 347.43 61.621C363.805 51.7908 385.049 57.0967 394.879 73.4721C404.709 89.8474 399.403 111.091 383.028 120.921C366.652 130.751 345.409 125.446 335.579 109.07Z" fill="#B65B00"/>
<path d="M389.73 115.707C403.234 102.204 403.234 80.3074 389.73 66.7955C386.54 63.6054 382.882 61.2003 378.974 59.5217C381.087 66.6117 381.521 74.5535 380.686 82.0694C376.803 97.5856 370.397 112.592 361.57 125.62C371.617 126.697 382.039 123.399 389.73 115.707Z" fill="#A02C20"/>
<path d="M385.07 106.805C386.306 106.446 386.699 104.901 386.715 103.615C386.732 102.446 386.615 101.277 386.373 100.133C386.214 99.3894 385.855 98.5209 385.095 98.4207C384.427 98.3289 383.868 98.9301 383.508 99.5063C382.832 100.609 382.415 101.861 382.289 103.147C382.206 104.049 382.281 105.001 382.757 105.778C383.241 106.53 384.193 107.056 385.07 106.805Z" fill="#4C251B"/>
<path d="M372.243 114.137C371.817 111.757 369.362 109.92 366.957 110.196C367.742 112.392 369.921 114.012 372.243 114.137Z" fill="#4C251B"/>
<path d="M359.491 79.5642C358.414 81.6436 357.846 83.9986 357.871 86.3452C357.887 88.5749 358.522 90.9382 360.209 92.3913C361.896 93.8444 364.819 93.953 366.18 92.1825C366.873 91.2806 367.057 90.0948 367.124 88.9674C367.316 85.8692 366.848 82.7209 365.746 79.8147C365.278 78.5788 364.527 77.2343 363.232 76.967C361.629 76.633 360.243 78.1111 359.491 79.5642Z" fill="#4C251B"/>
<path d="M358.464 99.473C358.597 98.5711 358.714 97.5857 358.238 96.809C357.762 96.0324 356.426 95.7735 355.992 96.5752C355.649 97.1932 356.067 97.9865 356.635 98.4124C357.194 98.83 357.904 99.0388 358.464 99.473Z" fill="#4C251B"/>
<path d="M346.422 102.638C346.998 101.427 347.031 99.9657 346.497 98.7381C346.171 97.9782 345.545 97.26 344.718 97.2015C343.507 97.118 342.697 98.4959 342.589 99.7068C342.321 102.646 343.507 102.195 346.422 102.638Z" fill="#4C251B"/>
<path d="M357.871 109.486C357.437 110.964 357.445 112.709 358.464 113.862C359.391 114.914 361.003 115.206 362.331 114.764C363.658 114.313 364.711 113.227 365.337 111.974C365.972 110.722 366.222 109.31 366.339 107.916C366.456 106.479 366.289 104.768 365.053 104.041C363.959 103.398 362.539 103.866 361.479 104.567C359.758 105.72 358.456 107.49 357.871 109.486Z" fill="#EF9825"/>
<path d="M353.812 105.845C353.946 106.271 354.096 106.713 354.422 107.022C354.748 107.331 355.299 107.448 355.633 107.148C356.101 106.73 355.808 105.978 355.599 105.385C355.483 105.043 355.399 104.684 355.199 104.383C355.007 104.083 354.656 103.841 354.305 103.899C353.929 103.957 353.67 104.342 353.629 104.726C353.57 105.102 353.687 105.477 353.812 105.845Z" fill="#EF9825"/>
<path d="M345.428 112.935C345.395 109.945 344 107.006 341.712 105.085C341.186 104.642 340.409 104.241 339.841 104.634C339.348 104.976 339.348 105.703 339.449 106.296C339.799 108.308 340.785 110.196 342.229 111.64C342.697 112.108 343.273 112.559 343.933 112.576C344.601 112.592 345.436 113.603 345.428 112.935Z" fill="#EF9825"/>
<path d="M342.756 92.7671C343.632 92.3997 344.042 91.3141 343.908 90.3788C343.774 89.4351 343.215 88.6084 342.63 87.8651C341.962 88.3411 341.653 89.2848 341.912 90.0614C342.179 90.8464 341.996 93.0928 342.756 92.7671Z" fill="#EF9825"/>
</svg>
