<svg width="32" height="32" viewBox="0 0 32 32" fill="none" xmlns="http://www.w3.org/2000/svg">
<path d="M22.423 10.7422L31.9999 23.9242L27.1468 24.4291L25.1667 28.8886L15.5899 15.7065L22.423 10.7422Z" fill="#50429B"/>
<path d="M17.1446 17.4182L6.07791 28.4849L4.75176 23.8387L0.105605 22.5126L11.1723 11.4459L17.1446 17.4182Z" fill="#50429B"/>
<path d="M14.8398 5.41226C15.3791 4.65409 16.505 4.65409 17.0443 5.41226C17.6985 6.33193 18.9136 6.65751 19.94 6.18813C20.7861 5.80119 21.7612 6.36417 21.8492 7.29041C21.9558 8.41396 22.8453 9.30345 23.9689 9.41015C24.8951 9.49811 25.4581 10.4732 25.0712 11.3194C24.6018 12.3457 24.9274 13.5608 25.847 14.215C26.6052 14.7543 26.6052 15.8802 25.847 16.4195C24.9274 17.0737 24.6018 18.2888 25.0712 19.3151C25.4581 20.1613 24.8951 21.1364 23.9689 21.2243C22.8453 21.331 21.9558 22.2205 21.8492 23.3441C21.7612 24.2703 20.7861 24.8333 19.94 24.4464C18.9136 23.977 17.6985 24.3026 17.0443 25.2222C16.505 25.9804 15.3791 25.9804 14.8398 25.2222C14.1856 24.3026 12.9705 23.977 11.9442 24.4464C11.098 24.8333 10.1229 24.2703 10.035 23.3441C9.92827 22.2205 9.03877 21.331 7.91523 21.2243C6.98899 21.1364 6.426 20.1613 6.81295 19.3151C7.28232 18.2888 6.95674 17.0737 6.03707 16.4195C5.2789 15.8802 5.2789 14.7543 6.03707 14.215C6.95674 13.5608 7.28232 12.3457 6.81295 11.3194C6.426 10.4732 6.98899 9.49811 7.91523 9.41015C9.03877 9.30345 9.92827 8.41396 10.035 7.29041C10.1229 6.36417 11.098 5.80119 11.9442 6.18813C12.9705 6.6575 14.1856 6.33193 14.8398 5.41226Z" fill="#50429B" stroke="url(#paint0_radial_1641_133631)"/>
<circle cx="15.9418" cy="14.6133" r="4.57498" fill="#A5ABDE"/>
<defs>
<radialGradient id="paint0_radial_1641_133631" cx="0" cy="0" r="1" gradientUnits="userSpaceOnUse" gradientTransform="translate(15.5901 4.40768) rotate(89.1319) scale(23.2295)">
<stop stop-color="#A5ABDE" stop-opacity="0"/>
<stop offset="1" stop-color="#A5ABDE"/>
</radialGradient>
</defs>
</svg>
