<svg width="24" height="24" viewBox="0 0 24 24" fill="none" xmlns="http://www.w3.org/2000/svg">
<path d="M7.25446 20.6784C8.2752 20.6784 9.10268 19.8509 9.10268 18.8301C9.10268 17.8094 8.2752 16.9819 7.25446 16.9819C6.23372 16.9819 5.40625 17.8094 5.40625 18.8301C5.40625 19.8509 6.23372 20.6784 7.25446 20.6784Z" fill="#50429B"/>
<path d="M16.4967 20.6784C17.5174 20.6784 18.3449 19.8509 18.3449 18.8301C18.3449 17.8094 17.5174 16.9819 16.4967 16.9819C15.4759 16.9819 14.6484 17.8094 14.6484 18.8301C14.6484 19.8509 15.4759 20.6784 16.4967 20.6784Z" fill="#50429B"/>
<path d="M7.53216 10.1019L9.38037 11.334C9.48537 11.4041 9.6042 11.4375 9.72148 11.4375C9.92063 11.4375 10.1158 11.3413 10.2347 11.1632C10.4233 10.8801 10.3469 10.4975 10.0638 10.3089L8.48996 9.25961V7.74107C8.48996 7.40085 8.21411 7.125 7.87388 7.125C7.53366 7.125 7.25781 7.40085 7.25781 7.74107V9.58929C7.26232 9.58929 7.26482 9.58929 7.26921 9.58921C7.26956 9.78797 7.35442 9.98342 7.53216 10.1019Z" fill="#50429B"/>
<path d="M21.2496 12.0357L19.4014 8.95536C19.1787 8.58414 18.7777 8.35704 18.3449 8.35704H14.0324V7.1249C14.0324 6.44444 13.4807 5.89275 12.8002 5.89275H12.7885C11.6633 4.39974 9.88105 3.42847 7.87165 3.42847C5.86226 3.42847 4.08004 4.39974 2.95479 5.89275H2.94308C2.26263 5.89275 1.71094 6.44444 1.71094 7.1249V18.2142C1.71094 18.8946 2.26263 19.4463 2.94308 19.4463H4.23729C4.1969 19.2472 4.17522 19.0413 4.17522 18.8303C4.17522 17.129 5.55434 15.7499 7.25558 15.7499C8.95682 15.7499 10.3359 17.129 10.3359 18.8303C10.3359 19.0413 10.3143 19.2472 10.2739 19.4463H12.8002H13.4163V18.8303C13.4163 17.129 14.7954 15.7499 16.4967 15.7499C18.1979 15.7499 19.577 17.129 19.577 18.8303V19.4463H20.1931C20.8735 19.4463 21.4252 18.8946 21.4252 18.2142V12.6695C21.4252 12.4463 21.3645 12.227 21.2496 12.0357ZM7.87165 5.89275C9.91 5.89275 11.5681 7.55087 11.5681 9.58918C11.5681 11.6275 9.90996 13.2856 7.87165 13.2856C5.83334 13.2856 4.17522 11.6275 4.17522 9.58918C4.17522 7.55087 5.83334 5.89275 7.87165 5.89275ZM18.9609 13.2856H15.2645V12.6695V10.2053H17.7288L18.9609 12.6695V13.2856Z" fill="#50429B"/>
</svg>
