<svg width="33" height="32" viewBox="0 0 33 32" fill="none" xmlns="http://www.w3.org/2000/svg">
<path d="M29.1703 26.3882L27.7414 8.38143C27.6527 7.22124 26.6711 6.31281 25.5078 6.31281H22.6851V10.4951C22.6851 11.0131 22.2658 11.4323 21.7479 11.4323C21.2306 11.4323 20.8107 11.0131 20.8107 10.4951V6.31281H12.1888V10.4951C12.1888 11.0131 11.7689 11.4323 11.2516 11.4323C10.7336 11.4323 10.3144 11.0131 10.3144 10.4951V6.31281H7.49164C6.32833 6.31281 5.34677 7.22124 5.25808 8.37893L3.82858 26.3907C3.71802 27.8334 4.21845 29.2691 5.2012 30.33C6.18402 31.3908 7.57727 32 9.02364 32H23.9759C25.4223 32 26.8155 31.3908 27.7983 30.3299C28.7811 29.2691 29.2815 27.8333 29.1703 26.3882ZM20.722 17.2183L15.875 22.0654C15.6919 22.2484 15.452 22.3402 15.2121 22.3402C14.9721 22.3402 14.7323 22.2484 14.5492 22.0654L12.2775 19.7937C11.9114 19.4276 11.9114 18.8346 12.2775 18.4685C12.6436 18.1024 13.2372 18.1024 13.6027 18.4685L15.2121 20.0773L19.3969 15.8926C19.7624 15.5271 20.356 15.5271 20.7221 15.8926C21.0881 16.2587 21.0881 16.8522 20.722 17.2183Z" fill="white"/>
<path d="M16.4998 0C13.0891 0 10.3145 2.77525 10.3145 6.18594V6.31275H12.1888V6.18594C12.1888 3.80862 14.1225 1.87431 16.4998 1.87431C18.8771 1.87431 20.8108 3.80862 20.8108 6.18594V6.31275H22.6851V6.18594C22.6851 2.77525 19.9105 0 16.4998 0Z" fill="white"/>
</svg>
