<svg width="29" height="29" viewBox="0 0 29 29" fill="none" xmlns="http://www.w3.org/2000/svg">
<path fill-rule="evenodd" clip-rule="evenodd" d="M2.07685 2.07685C0.905273 3.24842 0.905273 5.13404 0.905273 8.90528V20.0604C0.905273 23.8317 0.905273 25.7173 2.07685 26.8889C3.24842 28.0604 5.13404 28.0604 8.90528 28.0604H20.0604C23.8317 28.0604 25.7173 28.0604 26.8889 26.8889C28.0604 25.7173 28.0604 23.8317 28.0604 20.0604V8.90527C28.0604 5.13404 28.0604 3.24842 26.8889 2.07685C25.7173 0.905273 23.8317 0.905273 20.0604 0.905273H8.90527C5.13404 0.905273 3.24842 0.905273 2.07685 2.07685ZM13.4829 6.93976L13.4829 13.4829H6.93976V15.4829L13.4829 15.4829L13.4829 22.026H15.4829V15.4829H22.026V13.4829H15.4829L15.4829 6.93976H13.4829Z" fill="white"/>
</svg>