<svg width="36" height="35" viewBox="0 0 36 35" fill="none" xmlns="http://www.w3.org/2000/svg">
<path d="M25.5 5.43164H15.42C13.305 5.43164 11.295 6.28623 9.87002 7.8071L4.57502 13.4271C2.46002 15.6722 2.46002 19.0906 4.57502 21.3357L9.87002 26.9557C11.295 28.4621 13.305 29.3311 15.42 29.3311H25.5C29.64 29.3311 33 26.0866 33 22.0889V12.6739C33 8.67618 29.64 5.43164 25.5 5.43164ZM24.795 20.1914C25.23 20.6114 25.23 21.3067 24.795 21.7267C24.57 21.944 24.285 22.0454 24 22.0454C23.715 22.0454 23.43 21.944 23.205 21.7267L20.295 18.9167L17.385 21.7267C17.16 21.944 16.875 22.0454 16.59 22.0454C16.305 22.0454 16.02 21.944 15.795 21.7267C15.36 21.3067 15.36 20.6114 15.795 20.1914L18.705 17.3814L15.795 14.5714C15.36 14.1513 15.36 13.4561 15.795 13.036C16.23 12.616 16.95 12.616 17.385 13.036L20.295 15.846L23.205 13.036C23.64 12.616 24.36 12.616 24.795 13.036C25.23 13.4561 25.23 14.1513 24.795 14.5714L21.885 17.3814L24.795 20.1914Z" fill="#50429B"/>
</svg>
