<svg width="33" height="32" viewBox="0 0 33 32" fill="none" xmlns="http://www.w3.org/2000/svg">
<path d="M16.4998 2.66675C9.15317 2.66675 3.1665 8.65341 3.1665 16.0001C3.1665 23.3467 9.15317 29.3334 16.4998 29.3334C23.8465 29.3334 29.8332 23.3467 29.8332 16.0001C29.8332 8.65341 23.8465 2.66675 16.4998 2.66675ZM22.8732 12.9334L15.3132 20.4934C15.1265 20.6801 14.8732 20.7867 14.6065 20.7867C14.3398 20.7867 14.0865 20.6801 13.8998 20.4934L10.1265 16.7201C9.73984 16.3334 9.73984 15.6934 10.1265 15.3067C10.5132 14.9201 11.1532 14.9201 11.5398 15.3067L14.6065 18.3734L21.4598 11.5201C21.8465 11.1334 22.4865 11.1334 22.8732 11.5201C23.2598 11.9067 23.2598 12.5334 22.8732 12.9334Z" fill="white"/>
</svg>
