<svg width="33" height="33" viewBox="0 0 33 33" fill="none" xmlns="http://www.w3.org/2000/svg">
<path fill-rule="evenodd" clip-rule="evenodd" d="M16.5001 28.2858C23.0092 28.2858 28.2859 23.0092 28.2859 16.5001C28.2859 9.99096 23.0092 4.71429 16.5001 4.71429C9.99102 4.71429 4.71436 9.99096 4.71436 16.5001C4.71436 23.0092 9.99102 28.2858 16.5001 28.2858ZM17.5001 12.0804C17.5001 11.5281 17.0524 11.0804 16.5001 11.0804C15.9478 11.0804 15.5001 11.5281 15.5001 12.0804V17.7232C15.5001 18.4136 16.0597 18.9732 16.7501 18.9732H22.393C22.9452 18.9732 23.393 18.5255 23.393 17.9732C23.393 17.4209 22.9452 16.9732 22.393 16.9732H17.5001V12.0804Z" fill="#50429B"/>
</svg>
