<svg width="20" height="20" viewBox="0 0 20 20" fill="none" xmlns="http://www.w3.org/2000/svg">
<path fill-rule="evenodd" clip-rule="evenodd" d="M10.0001 17.143C13.945 17.143 17.143 13.945 17.143 10.0001C17.143 6.05516 13.945 2.85718 10.0001 2.85718C6.05516 2.85718 2.85718 6.05516 2.85718 10.0001C2.85718 13.945 6.05516 17.143 10.0001 17.143ZM11 7.32145C11 6.76917 10.5523 6.32145 10 6.32145C9.44775 6.32145 9.00003 6.76917 9.00003 7.32145V10.6429C9.00003 11.3333 9.55968 11.8929 10.25 11.8929H13.5715C14.1238 11.8929 14.5715 11.4452 14.5715 10.8929C14.5715 10.3406 14.1238 9.8929 13.5715 9.8929H11V7.32145Z" fill="#50429B"/>
</svg>
