<svg width="20" height="22" viewBox="0 0 22 22" fill="none" xmlns="http://www.w3.org/2000/svg">
<path fill-rule="evenodd" clip-rule="evenodd" d="M11.9999 20.5715C16.7338 20.5715 20.5714 16.7339 20.5714 12.0001C20.5714 7.26616 16.7338 3.42859 11.9999 3.42859C7.26604 3.42859 3.42847 7.26616 3.42847 12.0001C3.42847 16.7339 7.26604 20.5715 11.9999 20.5715ZM12.9999 8.78572C12.9999 8.23344 12.5522 7.78572 11.9999 7.78572C11.4476 7.78572 10.9999 8.23344 10.9999 8.78572V12.8215C10.9999 13.5118 11.5595 14.0715 12.2499 14.0715H16.2856C16.8379 14.0715 17.2856 13.6237 17.2856 13.0715C17.2856 12.5192 16.8379 12.0715 16.2856 12.0715H12.9999V8.78572Z" fill="#50429B"/>
</svg>