<svg width="26" height="26" viewBox="0 0 26 26" fill="none" xmlns="http://www.w3.org/2000/svg">
<path d="M25.6703 20.3884L24.2414 2.38161C24.1527 1.22143 23.1711 0.312988 22.0078 0.312988H19.1851V4.4953C19.1851 5.01324 18.7658 5.43249 18.2479 5.43249C17.7306 5.43249 17.3107 5.01324 17.3107 4.4953V0.312988H8.68877V4.4953C8.68877 5.01324 8.26889 5.43249 7.75158 5.43249C7.23364 5.43249 6.81439 5.01324 6.81439 4.4953V0.312988H3.99164C2.82833 0.312988 1.84677 1.22143 1.75808 2.37911L0.328578 20.3909C0.218016 21.8336 0.718453 23.2693 1.7012 24.3302C2.68402 25.391 4.07727 26.0002 5.52364 26.0002H20.4759C21.9223 26.0002 23.3155 25.391 24.2983 24.3301C25.2811 23.2692 25.7815 21.8335 25.6703 20.3884ZM17.222 11.2185L12.375 16.0655C12.1919 16.2486 11.952 16.3404 11.7121 16.3404C11.4721 16.3404 11.2323 16.2486 11.0492 16.0655L8.77752 13.7939C8.41139 13.4277 8.41139 12.8348 8.77752 12.4687C9.14364 12.1026 9.7372 12.1026 10.1027 12.4687L11.7121 14.0775L15.8969 9.89274C16.2624 9.52724 16.856 9.52724 17.2221 9.89274C17.5881 10.2589 17.5881 10.8524 17.222 11.2185Z" fill="white"/>
</svg>