<svg width="25" height="25" viewBox="0 0 25 25" fill="none" xmlns="http://www.w3.org/2000/svg">
<path fill-rule="evenodd" clip-rule="evenodd" d="M20.5769 6.45117H3.43408V9.30831C4.48605 9.30831 5.33884 10.1611 5.33884 11.2131V14.0702C5.33884 16.0888 5.33884 17.098 5.65678 17.8983C6.11419 19.0497 7.02605 19.9615 8.17742 20.419C8.97771 20.7369 9.98698 20.7369 12.0055 20.7369C14.024 20.7369 15.0333 20.7369 15.8336 20.419C16.985 19.9615 17.8968 19.0497 18.3542 17.8983C18.6722 17.098 18.6722 16.0888 18.6722 14.0702V11.2131C18.6722 10.1611 19.525 9.30831 20.5769 9.30831V6.45117ZM11.1245 11.2134C11.1245 10.385 10.4529 9.71338 9.62451 9.71338C8.79608 9.71338 8.12451 10.385 8.12451 11.2134V15.9753C8.12451 16.8037 8.79608 17.4753 9.62451 17.4753C10.4529 17.4753 11.1245 16.8037 11.1245 15.9753V11.2134ZM15.8864 11.2134C15.8864 10.385 15.2148 9.71338 14.3864 9.71338C13.558 9.71338 12.8864 10.385 12.8864 11.2134V15.9753C12.8864 16.8037 13.558 17.4753 14.3864 17.4753C15.2148 17.4753 15.8864 16.8037 15.8864 15.9753V11.2134Z" fill="#A5ABDE"/>
<path d="M10.3496 3.9114C10.4472 3.82027 10.6625 3.73975 10.9618 3.68231C11.2612 3.62488 11.6281 3.59375 12.0054 3.59375C12.3828 3.59375 12.7496 3.62488 13.049 3.68231C13.3484 3.73975 13.5636 3.82027 13.6613 3.9114" stroke="#A5ABDE" stroke-width="3" stroke-linecap="round"/>
</svg>
