<svg width="50" height="50" viewBox="0 0 50 50" fill="none" xmlns="http://www.w3.org/2000/svg">
<path d="M4.6875 3.125C4.2731 3.125 3.87567 3.28962 3.58265 3.58265C3.28962 3.87567 3.125 4.2731 3.125 4.6875V14.0625C3.125 14.4769 2.96038 14.8743 2.66735 15.1674C2.37433 15.4604 1.9769 15.625 1.5625 15.625C1.1481 15.625 0.750671 15.4604 0.457646 15.1674C0.16462 14.8743 0 14.4769 0 14.0625V4.6875C0 3.4443 0.49386 2.25201 1.37294 1.37294C2.25201 0.49386 3.4443 0 4.6875 0L14.0625 0C14.4769 0 14.8743 0.16462 15.1674 0.457646C15.4604 0.750671 15.625 1.1481 15.625 1.5625C15.625 1.9769 15.4604 2.37433 15.1674 2.66735C14.8743 2.96038 14.4769 3.125 14.0625 3.125H4.6875ZM34.375 1.5625C34.375 1.1481 34.5396 0.750671 34.8326 0.457646C35.1257 0.16462 35.5231 0 35.9375 0L45.3125 0C46.5557 0 47.748 0.49386 48.6271 1.37294C49.5061 2.25201 50 3.4443 50 4.6875V14.0625C50 14.4769 49.8354 14.8743 49.5424 15.1674C49.2493 15.4604 48.8519 15.625 48.4375 15.625C48.0231 15.625 47.6257 15.4604 47.3326 15.1674C47.0396 14.8743 46.875 14.4769 46.875 14.0625V4.6875C46.875 4.2731 46.7104 3.87567 46.4174 3.58265C46.1243 3.28962 45.7269 3.125 45.3125 3.125H35.9375C35.5231 3.125 35.1257 2.96038 34.8326 2.66735C34.5396 2.37433 34.375 1.9769 34.375 1.5625ZM1.5625 34.375C1.9769 34.375 2.37433 34.5396 2.66735 34.8326C2.96038 35.1257 3.125 35.5231 3.125 35.9375V45.3125C3.125 45.7269 3.28962 46.1243 3.58265 46.4174C3.87567 46.7104 4.2731 46.875 4.6875 46.875H14.0625C14.4769 46.875 14.8743 47.0396 15.1674 47.3326C15.4604 47.6257 15.625 48.0231 15.625 48.4375C15.625 48.8519 15.4604 49.2493 15.1674 49.5424C14.8743 49.8354 14.4769 50 14.0625 50H4.6875C3.4443 50 2.25201 49.5061 1.37294 48.6271C0.49386 47.748 0 46.5557 0 45.3125L0 35.9375C0 35.5231 0.16462 35.1257 0.457646 34.8326C0.750671 34.5396 1.1481 34.375 1.5625 34.375ZM48.4375 34.375C48.8519 34.375 49.2493 34.5396 49.5424 34.8326C49.8354 35.1257 50 35.5231 50 35.9375V45.3125C50 46.5557 49.5061 47.748 48.6271 48.6271C47.748 49.5061 46.5557 50 45.3125 50H35.9375C35.5231 50 35.1257 49.8354 34.8326 49.5424C34.5396 49.2493 34.375 48.8519 34.375 48.4375C34.375 48.0231 34.5396 47.6257 34.8326 47.3326C35.1257 47.0396 35.5231 46.875 35.9375 46.875H45.3125C45.7269 46.875 46.1243 46.7104 46.4174 46.4174C46.7104 46.1243 46.875 45.7269 46.875 45.3125V35.9375C46.875 35.5231 47.0396 35.1257 47.3326 34.8326C47.6257 34.5396 48.0231 34.375 48.4375 34.375ZM9.375 14.0625C9.375 13.6481 9.53962 13.2507 9.83265 12.9576C10.1257 12.6646 10.5231 12.5 10.9375 12.5C11.3519 12.5 11.7493 12.6646 12.0424 12.9576C12.3354 13.2507 12.5 13.6481 12.5 14.0625V35.9375C12.5 36.3519 12.3354 36.7493 12.0424 37.0424C11.7493 37.3354 11.3519 37.5 10.9375 37.5C10.5231 37.5 10.1257 37.3354 9.83265 37.0424C9.53962 36.7493 9.375 36.3519 9.375 35.9375V14.0625ZM15.625 14.0625C15.625 13.6481 15.7896 13.2507 16.0826 12.9576C16.3757 12.6646 16.7731 12.5 17.1875 12.5C17.6019 12.5 17.9993 12.6646 18.2924 12.9576C18.5854 13.2507 18.75 13.6481 18.75 14.0625V35.9375C18.75 36.3519 18.5854 36.7493 18.2924 37.0424C17.9993 37.3354 17.6019 37.5 17.1875 37.5C16.7731 37.5 16.3757 37.3354 16.0826 37.0424C15.7896 36.7493 15.625 36.3519 15.625 35.9375V14.0625ZM21.875 14.0625C21.875 13.6481 22.0396 13.2507 22.3326 12.9576C22.6257 12.6646 23.0231 12.5 23.4375 12.5C23.8519 12.5 24.2493 12.6646 24.5424 12.9576C24.8354 13.2507 25 13.6481 25 14.0625V35.9375C25 36.3519 24.8354 36.7493 24.5424 37.0424C24.2493 37.3354 23.8519 37.5 23.4375 37.5C23.0231 37.5 22.6257 37.3354 22.3326 37.0424C22.0396 36.7493 21.875 36.3519 21.875 35.9375V14.0625ZM28.125 14.0625C28.125 13.6481 28.2896 13.2507 28.5826 12.9576C28.8757 12.6646 29.2731 12.5 29.6875 12.5H32.8125C33.2269 12.5 33.6243 12.6646 33.9174 12.9576C34.2104 13.2507 34.375 13.6481 34.375 14.0625V35.9375C34.375 36.3519 34.2104 36.7493 33.9174 37.0424C33.6243 37.3354 33.2269 37.5 32.8125 37.5H29.6875C29.2731 37.5 28.8757 37.3354 28.5826 37.0424C28.2896 36.7493 28.125 36.3519 28.125 35.9375V14.0625ZM37.5 14.0625C37.5 13.6481 37.6646 13.2507 37.9576 12.9576C38.2507 12.6646 38.6481 12.5 39.0625 12.5C39.4769 12.5 39.8743 12.6646 40.1674 12.9576C40.4604 13.2507 40.625 13.6481 40.625 14.0625V35.9375C40.625 36.3519 40.4604 36.7493 40.1674 37.0424C39.8743 37.3354 39.4769 37.5 39.0625 37.5C38.6481 37.5 38.2507 37.3354 37.9576 37.0424C37.6646 36.7493 37.5 36.3519 37.5 35.9375V14.0625Z" fill="white"/>
</svg>
